<svg width="134" height="35" viewBox="0 0 134 35" fill="none" xmlns="http://www.w3.org/2000/svg">
<path d="M14.7 21.48H5.46L3.9 25.98H0.119995L8.03999 3.83997H12.24L20.16 25.98H16.32L14.7 21.48ZM10.08 8.27997L6.48 18.54H13.68L10.08 8.27997Z" fill="#262633"/>
<path d="M30.5999 8.21997C33.4799 8.21997 35.58 9.53997 36.66 11.04V8.51997H40.32V26.34C40.32 31.08 37.2599 34.68 31.7399 34.68C27.0599 34.68 23.58 32.34 23.16 28.5H26.76C27.3 30.3 29.2199 31.56 31.7399 31.56C34.5599 31.56 36.66 29.82 36.66 26.34V23.4C35.52 24.9 33.4199 26.34 30.5999 26.34C25.9799 26.34 22.3199 22.62 22.3199 17.22C22.3199 11.82 25.9799 8.21997 30.5999 8.21997ZM31.38 11.34C28.68 11.34 26.0399 13.38 26.0399 17.16C26.0399 20.94 28.62 23.16 31.38 23.16C34.14 23.16 36.66 21 36.66 17.22C36.66 13.5 34.08 11.34 31.38 11.34Z" fill="#262633"/>
<path d="M52.62 26.28C47.58 26.28 43.86 22.74 43.86 17.22C43.86 11.7 47.4 8.16003 52.62 8.16003C57.6 8.16003 61.14 11.64 61.14 16.8C61.14 17.4 61.08 18 61.02 18.6H47.64C47.88 21.48 49.98 23.22 52.62 23.22C54.84 23.22 56.1 22.14 56.76 20.76H60.66C59.7 23.88 56.94 26.28 52.62 26.28ZM47.7 15.66H57.42C57.36 12.96 55.2 11.22 52.5 11.22C50.04 11.28 48.06 12.9 47.7 15.66Z" fill="#262633"/>
<path d="M77.16 16.2C77.16 12.96 75.42 11.34 72.78 11.34C70.08 11.34 68.34 13.02 68.34 16.2V25.98H64.74V8.46003H68.34V10.44C69.54 9.00003 71.46 8.16003 73.56 8.16003C77.64 8.16003 80.76 10.74 80.76 15.66V25.98H77.16V16.2Z" fill="#262633"/>
<path d="M92.4599 8.22002C94.7399 8.22002 97.1399 9.30002 98.5199 10.98V2.52002H102.18V26.04H98.5199V23.4C97.3799 24.96 95.2799 26.34 92.4599 26.34C87.8399 26.34 84.1799 22.62 84.1799 17.22C84.1799 11.82 87.8399 8.22002 92.4599 8.22002ZM93.1799 11.34C90.4799 11.34 87.8999 13.38 87.8999 17.16C87.8999 20.94 90.4799 23.16 93.1799 23.16C95.9399 23.16 98.4599 21 98.4599 17.22C98.5199 13.5 95.9399 11.34 93.1799 11.34Z" fill="#262633"/>
<path d="M114 8.21997C116.94 8.21997 118.98 9.59997 120.06 11.04V8.51997H123.72V26.04H120.06V23.4C118.92 24.9 116.82 26.28 113.94 26.28C109.38 26.28 105.72 22.56 105.72 17.16C105.72 11.76 109.38 8.21997 114 8.21997ZM114.72 11.34C112.02 11.34 109.38 13.38 109.38 17.16C109.38 20.94 111.96 23.16 114.72 23.16C117.48 23.16 120 21 120 17.22C120.06 13.5 117.48 11.34 114.72 11.34Z" fill="#262633"/>
<path d="M133.56 0.719971V3.77997L126.54 7.25998V4.55998L133.56 0.719971ZM128.46 8.51997H132.06V26.04H128.46V8.51997Z" fill="#262633"/>
</svg>
