<?xml version="1.0" encoding="utf-8"?>
<!-- Generator: Adobe Illustrator 27.8.1, SVG Export Plug-In . SVG Version: 6.00 Build 0)  -->
<svg version="1.1" id="Camada_1" xmlns="http://www.w3.org/2000/svg" xmlns:xlink="http://www.w3.org/1999/xlink" x="0px" y="0px"
	 viewBox="0 0 134 35" style="enable-background:new 0 0 134 35;" xml:space="preserve">
<style type="text/css">
	.st0{fill:#0D3F67;}
</style>
<path class="st0" d="M14.7,21.5H5.5L3.9,26H0.1L8,3.8h4.2l8,22.2h-3.8L14.7,21.5z M10.1,8.3L6.5,18.5h7.2L10.1,8.3z"/>
<path class="st0" d="M30.6,8.2c2.9,0,5,1.3,6.1,2.8V8.5h3.7v17.8c0,4.7-3.1,8.3-8.6,8.3c-4.7,0-8.2-2.3-8.6-6.2h3.6
	c0.5,1.8,2.5,3.1,5,3.1c2.8,0,4.9-1.7,4.9-5.2v-2.9c-1.1,1.5-3.2,2.9-6.1,2.9c-4.6,0-8.3-3.7-8.3-9.1S26,8.2,30.6,8.2z M31.4,11.3
	c-2.7,0-5.3,2-5.3,5.8s2.6,6,5.3,6s5.3-2.2,5.3-5.9C36.7,13.5,34.1,11.3,31.4,11.3z"/>
<path class="st0" d="M52.6,26.3c-5,0-8.8-3.5-8.8-9.1s3.5-9.1,8.8-9.1c5,0,8.5,3.5,8.5,8.6c0,0.6-0.1,1.2-0.1,1.8H47.6
	c0.2,2.9,2.3,4.6,5,4.6c2.2,0,3.5-1.1,4.1-2.5h3.9C59.7,23.9,56.9,26.3,52.6,26.3z M47.7,15.7h9.7c-0.1-2.7-2.2-4.4-4.9-4.4
	C50,11.3,48.1,12.9,47.7,15.7z"/>
<path class="st0" d="M77.2,16.2c0-3.2-1.7-4.9-4.4-4.9c-2.7,0-4.4,1.7-4.4,4.9V26h-3.6V8.5h3.6v2c1.2-1.4,3.1-2.3,5.2-2.3
	c4.1,0,7.2,2.6,7.2,7.5V26h-3.6C77.2,26,77.2,16.2,77.2,16.2z"/>
<path class="st0" d="M92.5,8.2c2.3,0,4.7,1.1,6.1,2.8V2.5h3.7V26h-3.7v-2.6c-1.1,1.6-3.2,2.9-6.1,2.9c-4.6,0-8.3-3.7-8.3-9.1
	S87.8,8.2,92.5,8.2z M93.2,11.3c-2.7,0-5.3,2-5.3,5.8s2.6,6,5.3,6c2.8,0,5.3-2.2,5.3-5.9S95.9,11.3,93.2,11.3z"/>
<path class="st0" d="M114,8.2c2.9,0,5,1.4,6.1,2.8V8.5h3.7V26h-3.7v-2.6c-1.1,1.5-3.2,2.9-6.1,2.9c-4.6,0-8.2-3.7-8.2-9.1
	S109.4,8.2,114,8.2z M114.7,11.3c-2.7,0-5.3,2-5.3,5.8s2.6,6,5.3,6s5.3-2.2,5.3-5.9C120.1,13.5,117.5,11.3,114.7,11.3z"/>
<path class="st0" d="M133.6,0.7v3.1l-7,3.5V4.6L133.6,0.7z M128.5,8.5h3.6V26h-3.6V8.5z"/>
</svg>
