<svg width="63" height="64" viewBox="0 0 63 64" fill="none" xmlns="http://www.w3.org/2000/svg">
<path d="M48.52 63.74H13.78C6.27997 63.74 0.219971 57.68 0.219971 50.18V16.04C0.219971 8.53998 6.27997 2.47998 13.78 2.47998H48.52C56.02 2.47998 62.08 8.53998 62.08 16.04V50.18C62.02 57.68 55.96 63.74 48.52 63.74Z" fill="url(#paint0_linear_1_43)"/>
<path d="M31.1199 35.9599C38.2599 35.9599 44.2599 41.0599 45.5799 47.8999H50.1999C48.2799 33.1399 32.9799 19.4599 32.2599 18.8599C31.8999 18.5599 31.4799 18.4399 31.0599 18.4399C30.6399 18.4399 30.2199 18.5599 29.8599 18.8599C29.1399 19.4599 13.8399 33.1399 11.9199 47.8999H16.5399C18.0399 41.1199 23.9799 35.9599 31.1199 35.9599Z" fill="white"/>
<path d="M21.52 0.26001H15.52V5.06001H21.52V0.26001Z" fill="white"/>
<path d="M46.72 0.26001H40.72V5.06001H46.72V0.26001Z" fill="white"/>
<defs>
<linearGradient id="paint0_linear_1_43" x1="4.33747" y1="6.29748" x2="57.94" y2="59.9" gradientUnits="userSpaceOnUse">
<stop stop-color="#BC9FF4"/>
<stop offset="1" stop-color="#3398E8"/>
</linearGradient>
</defs>
</svg>
