<svg width="74" height="90" viewBox="0 0 74 90" fill="none" xmlns="http://www.w3.org/2000/svg">
<path d="M61.2126 47.8241C61.0992 36.4237 70.5093 30.9559 70.93 30.6796C65.6414 22.947 57.4021 21.886 54.4697 21.7653C47.4633 21.0537 40.7917 25.8923 37.2374 25.8923C33.6903 25.8923 28.1986 21.8696 22.3887 21.972C14.7457 22.0854 7.70095 26.4173 3.76789 33.259C-4.16958 47.0284 1.73733 67.4346 9.47175 78.61C13.253 84.0724 17.7623 90.2189 23.6783 89.9939C29.3804 89.7689 31.5317 86.306 38.4246 86.306C45.3175 86.306 47.253 89.9939 53.2843 89.8787C59.4162 89.7671 63.3035 84.312 67.0536 78.8277C71.3947 72.4817 73.1819 66.337 73.288 66.026C73.1545 65.9638 61.3352 61.4362 61.2126 47.8241Z" fill="black"/>
<path d="M49.8799 14.3694C53.0172 10.5607 55.1429 5.26848 54.5648 0C50.0372 0.182933 44.5565 3.00925 41.3058 6.81426C38.3935 10.1912 35.8471 15.5676 36.5294 20.741C41.5802 21.1324 46.7316 18.1708 49.8799 14.3694Z" fill="black"/>
</svg>
