<svg width="90" height="90" viewBox="0 0 90 90" fill="none" xmlns="http://www.w3.org/2000/svg">
<path d="M45 0C33.0653 0 21.6193 4.74105 13.1802 13.1802C4.74106 21.6193 0 33.0652 0 45C0 56.9347 4.74106 68.3806 13.1802 76.8198C21.6193 85.2589 33.0653 89.9999 45 89.9999C56.9347 89.9999 68.3807 85.2589 76.8198 76.8198C85.2589 68.3806 90 56.9347 90 45C90 33.0652 85.2589 21.6193 76.8198 13.1802C68.3807 4.74105 56.9347 0 45 0Z" fill="#039BE5"/>
<path d="M51.0916 56.9274H62.7372L64.5656 45.0971H51.0893V38.6313C51.0893 33.7169 52.6951 29.359 57.2922 29.359H64.6793V19.035C63.3814 18.8598 60.6364 18.4761 55.4495 18.4761C44.6188 18.4761 38.269 24.1958 38.269 37.2269V45.0971H27.1351V56.9274H38.269V89.4434C40.474 89.775 42.7074 90 45.0001 90C47.0724 90 49.0951 89.8105 51.0916 89.5405V56.9274Z" fill="white"/>
</svg>
