<svg width="396" height="394" viewBox="0 0 396 394" fill="none" xmlns="http://www.w3.org/2000/svg">
<path opacity="0.05" d="M389.361 167.891C378.676 97.7622 334.855 11.6111 248.28 2.5958C248.28 2.5958 182.549 -5.42256 117.756 6.72604C79.2918 13.9326 45.5739 35.3956 24.2461 66.23C2.90421 97.0643 -4.2145 134.678 4.42457 170.526C10.0371 193.812 13.8451 217.909 12.7937 241.836C10.9749 283.481 12.0264 322.362 52.3515 347.186C88.3572 369.361 133.67 388.916 176.893 392.348C206.263 394.669 239.214 390.91 267.533 383.247C411.811 344.195 400.046 238.019 389.361 167.891Z" fill="url(#paint0_linear_53_284)"/>
<path d="M244.088 349.408C241.957 348.71 237.95 345.32 237.268 344.01C232.721 335.251 223.144 319.414 225.673 309.287C226.099 307.564 234.213 307.407 235.605 306.012C240.749 304.659 242.61 304.516 246.873 300.813C259.448 289.918 240.806 261.448 269.352 258.087C290.267 255.623 305.67 265.592 309.321 234.459C312.973 203.325 347.828 151.925 376.175 179.484C392.444 195.293 368.658 217.867 374.598 238.945C380.239 258.984 369.653 272.6 348.169 279.92C326.685 287.241 335.466 297.652 337.839 316.124C340.681 338.313 307.901 335.949 292.853 333.57C280.719 331.648 248.578 334.952 244.088 349.408Z" fill="url(#paint1_linear_53_284)"/>
<mask id="mask0_53_284" style="mask-type:luminance" maskUnits="userSpaceOnUse" x="221" y="171" width="161" height="184">
<path d="M221.226 305.713C223.186 320.995 224.551 336.633 226.426 352.028C234.88 354.35 244.898 356.871 248.791 346.645C254.205 332.417 280.761 331.577 292.867 333.556C307.844 336.006 340.681 338.299 337.825 316.124C335.452 297.666 326.685 287.241 348.155 279.92C369.639 272.6 380.21 258.984 374.583 238.945C368.658 217.867 392.43 195.307 376.161 179.484C347.828 151.911 312.959 203.368 309.321 234.459C305.684 265.55 290.196 255.751 269.366 258.058C240.933 261.22 259.135 290.431 246.987 300.557C237.466 308.49 231.683 305.613 221.226 305.713Z" fill="white"/>
</mask>
<g mask="url(#mask0_53_284)">
<g opacity="0.8">
<path d="M231.57 327.603L231.442 327.119C266.936 317.377 298.508 297.011 322.72 268.213C345.767 240.797 361.866 206.331 369.269 168.532L369.766 168.631C362.349 206.516 346.208 241.067 323.118 268.541C298.821 297.409 267.177 317.833 231.57 327.603Z" fill="#FCFDFE"/>
<path d="M270.389 311.68L270.332 311.182C291.29 308.96 322.678 315.07 340.297 324.797L340.055 325.239C322.507 315.54 291.262 309.458 270.389 311.68Z" fill="#FCFDFE"/>
<path d="M245.409 323.629L245.139 323.202C254.446 317.505 260.528 307.322 263.213 292.909C265.174 282.341 265.302 269.794 263.597 255.623L264.094 255.566C265.813 269.794 265.685 282.398 263.71 293.009C260.997 307.55 254.844 317.861 245.409 323.629Z" fill="#FCFDFE"/>
<path d="M326.23 264.496L325.946 264.083C342.954 252.433 364.609 252.561 379.784 254.711L379.713 255.21C364.637 253.073 343.11 252.945 326.23 264.496Z" fill="#FCFDFE"/>
<path d="M351.423 224.546L350.925 224.418C353.469 214.776 355.629 194.609 341.491 167.962L341.945 167.72C356.169 194.524 353.995 214.833 351.423 224.546Z" fill="#FCFDFE"/>
</g>
</g>
<mask id="mask1_53_284" style="mask-type:luminance" maskUnits="userSpaceOnUse" x="213" y="108" width="146" height="244">
<path d="M246.006 351.159C234.994 347.456 224.025 343.497 213.141 339.296C212.928 339.424 213.624 314.115 227.62 303.277C255.199 282.384 243.647 257.104 241.587 242.99C237.836 222.937 245.551 200.762 265.43 208.737C284.882 216.029 295.34 175.083 297.585 142.497C297.4 126.403 315.417 110.167 330.805 108.472C346.577 106.364 359.721 118.826 358.74 150.658C359.238 187.801 329.228 204.764 316.326 221.028C303.652 236.994 323.246 255.267 302.615 267.714C285.124 278.937 264.435 285.546 268.229 304.26C272.25 322.803 268.03 336.632 246.006 351.159Z" fill="white"/>
</mask>
<g mask="url(#mask1_53_284)">
<path d="M246.006 351.159C234.994 347.456 224.025 343.497 213.141 339.296C212.928 339.424 213.624 314.115 227.62 303.277C255.199 282.384 243.647 257.104 241.587 242.99C237.907 222.965 245.239 203.297 264.35 206.416C285.621 209.464 295.709 175.083 297.585 142.497C297.4 126.403 315.417 110.167 330.805 108.472C346.577 106.364 359.721 118.826 358.74 150.658C359.238 187.801 329.228 204.764 316.326 221.028C303.652 236.994 323.246 255.267 302.615 267.714C285.124 278.937 264.435 285.546 268.229 304.26C272.25 322.803 268.03 336.632 246.006 351.159Z" fill="#D8DEE8"/>
</g>
<mask id="mask2_53_284" style="mask-type:luminance" maskUnits="userSpaceOnUse" x="213" y="108" width="146" height="244">
<path d="M246.006 351.159C234.994 347.456 224.025 343.497 213.141 339.296C212.928 339.424 213.624 314.115 227.62 303.277C255.199 282.384 243.647 257.104 241.587 242.99C237.836 222.937 245.551 200.762 265.43 208.737C284.882 216.029 295.34 175.083 297.585 142.497C297.4 126.403 315.417 110.167 330.805 108.472C346.577 106.364 359.721 118.826 358.74 150.658C359.238 187.801 329.228 204.764 316.326 221.028C303.652 236.994 323.246 255.267 302.615 267.714C285.124 278.937 264.435 285.546 268.229 304.26C272.25 322.803 268.03 336.632 246.006 351.159Z" fill="white"/>
</mask>
<g mask="url(#mask2_53_284)">
<g opacity="0.8">
<path d="M230.092 349.807C230.135 349.593 250.212 299.645 277.877 252.518C281.912 244.813 286.175 237.065 290.31 229.588C301.364 209.549 312.803 188.813 320.277 167.492C328.631 143.651 331.175 121.276 328.02 99.101L328.617 99.0155C331.772 121.29 329.228 143.75 320.845 167.677C313.343 189.055 301.904 209.806 290.835 229.873C286.701 237.35 282.438 245.098 278.403 252.803C251.96 297.851 231.214 348.069 230.675 349.92L230.092 349.807Z" fill="#BEB8F2"/>
<path d="M311.311 190.835L310.941 190.365C326.06 178.587 344.844 161.354 354.932 152.096C363.074 144.619 363.103 144.633 363.415 144.747L363.216 145.317L363.316 145.032L363.401 145.317C363.003 145.516 359.621 148.621 355.33 152.552C345.242 161.795 326.443 179.042 311.311 190.835Z" fill="#BEB8F2"/>
<path d="M318.458 172.206C318.728 155.685 314.025 143.935 310.032 136.999C305.67 129.408 301.066 125.506 300.441 125.278C300.441 125.278 300.512 125.307 300.597 125.264L300.355 124.708C300.526 124.637 300.696 124.708 300.966 124.894C304.902 127.528 319.523 143.266 319.055 172.22L318.458 172.206Z" fill="#BEB8F2"/>
<path d="M260.883 283.509C265.33 268.868 264.733 252.133 259.093 233.804C256.151 224.233 251.931 214.634 246.56 205.248C246.162 204.564 246.034 204.322 245.992 204.208L246.56 204.009C246.589 204.094 246.816 204.493 247.086 204.949C252.485 214.377 256.72 224.019 259.675 233.633C265.359 252.091 265.955 268.925 261.465 283.694L260.883 283.509Z" fill="#BEB8F2"/>
<path d="M269.366 268.854L268.925 268.455C286.416 248.929 315.275 252.518 315.602 252.632L315.772 252.945L315.517 253.202L315.474 252.903L315.403 253.187C315.119 253.13 286.757 249.427 269.366 268.854Z" fill="#BEB8F2"/>
<path d="M233.502 341.674C234.909 335.208 234.568 323.686 224.977 305.556C224.437 304.545 224.437 304.545 224.494 304.388L224.778 304.488L225.062 304.417C225.09 304.488 225.275 304.858 225.502 305.271C235.165 323.572 235.506 335.237 234.085 341.802L233.502 341.674Z" fill="#BEB8F2"/>
<path d="M239.143 330.053L238.603 329.782C240.933 325.068 248.322 316.352 271.71 310.868C272.037 310.797 272.236 310.74 272.307 310.726L272.477 311.296C272.392 311.324 272.179 311.367 271.838 311.452C248.706 316.879 241.417 325.424 239.143 330.053Z" fill="#BEB8F2"/>
</g>
</g>
<path d="M94.6377 309.843C94.0125 315.056 92.9042 319.286 92.0516 324.356C113.365 318.516 134.977 316.807 156.589 310.925C137.435 289.263 121.905 281.259 123.766 247.747C124.647 232.024 130.97 201.289 121.962 188.044C111.688 172.947 100.776 179.641 100.804 164.174C100.861 140.005 84.5919 117.887 55.2077 134.137C26.2071 150.174 45.0198 234.26 67.4985 253.558C83.3415 273.796 97.9199 282.583 94.6377 309.843Z" fill="#D8DEE8"/>
<mask id="mask3_53_284" style="mask-type:luminance" maskUnits="userSpaceOnUse" x="40" y="128" width="87" height="189">
<path d="M123.837 245.098C124.192 239.187 131.212 198.099 121.99 187.403C111.49 175.211 100.847 178.857 100.833 163.889C100.804 140.503 84.6345 117.687 55.2076 134.066C26.1644 150.23 45.0908 234.359 67.4558 253.373C83.7677 275.847 97.2805 279.322 94.8508 311.452C93.1599 333.941 122.53 267.301 123.837 245.098Z" fill="white"/>
</mask>
<g mask="url(#mask3_53_284)">
<g opacity="0.8">
<path d="M124.903 314.842C121.649 307.35 117.77 300.03 114.019 292.937L112.598 290.26C109.585 284.563 106.999 279.422 104.712 274.878C103.419 272.315 102.211 269.908 101.017 267.572C97.394 260.508 94.8364 255.552 93.5434 253.059C93.0887 252.19 92.7903 251.606 92.6624 251.35C82.6451 231.81 76.1942 201.559 72.7272 185.295C72.3578 183.529 72.0167 181.962 71.7183 180.609C66.6315 157.409 58.575 133.895 47.762 110.694L48.1456 110.523C58.9729 133.752 67.0436 157.309 72.1304 180.524C72.4288 181.877 72.7556 183.443 73.1392 185.209C76.6062 201.445 83.0429 231.667 93.0319 251.151C93.1597 251.407 93.4581 251.977 93.9128 252.86C95.2058 255.352 97.7634 260.308 101.387 267.373C102.58 269.708 103.802 272.129 105.081 274.679C107.369 279.222 109.955 284.364 112.967 290.06L114.388 292.738C118.139 299.831 122.032 307.165 125.286 314.671L124.903 314.842Z" fill="#FCFDFE"/>
<path d="M106.09 278.852C100.08 265.621 98.332 247.661 101.046 226.896C103.305 209.606 108.662 190.935 115.724 175.695L116.107 175.866C109.06 191.077 103.717 209.692 101.458 226.953C98.7582 247.633 100.492 265.521 106.46 278.681L106.09 278.852Z" fill="#FCFDFE"/>
<path d="M73.6793 187.915L73.2672 187.901C73.7929 175.339 75.8959 162.778 77.9278 150.615C79.3202 142.298 80.7696 133.695 81.6932 125.164L82.1052 125.207C81.1816 133.752 79.7323 142.355 78.3398 150.686C76.3079 162.835 74.205 175.382 73.6793 187.915Z" fill="#FCFDFE"/>
<path d="M83.2704 227.423C73.3809 213.024 53.6162 198.241 40.9844 195.777L41.0696 195.364C53.8009 197.842 73.6793 212.697 83.6256 227.181L83.2704 227.423Z" fill="#FCFDFE"/>
</g>
</g>
<path d="M70.8233 251.379C79.1639 277.015 93.6287 269.623 112.512 260.978C111.987 286.087 112.413 310.555 112.91 335.393C100.193 340.991 90.9716 344.765 81.821 330.551C71.4769 314.486 66.049 304.872 45.105 303.049C24.1751 301.226 6.93958 287.967 11.4865 267.401C16.2749 245.767 -4.78285 220.786 10.8471 203.624C38.1141 173.716 62.1416 224.674 70.8233 251.379Z" fill="url(#paint2_linear_53_284)"/>
<mask id="mask4_53_284" style="mask-type:luminance" maskUnits="userSpaceOnUse" x="5" y="194" width="127" height="147">
<path d="M122.09 329.568C108.705 338.441 93.6289 348.553 81.7217 330.323C71.8039 315.141 65.9213 304.545 45.0909 302.978C24.2605 301.426 6.93975 287.782 11.5008 267.387C16.3035 245.938 -4.72584 220.487 10.8756 203.625C38.0575 174.229 62.2128 223.72 70.8092 251.778C79.4199 279.82 96.0444 265.009 114.246 261.861C139.098 257.574 132.903 322.39 122.09 329.568Z" fill="white"/>
</mask>
<g mask="url(#mask4_53_284)">
<g opacity="0.8">
<path d="M107.511 304.089C86.1122 296.569 68.4788 289.704 52.7068 275.733C37.6169 262.359 29.2193 247.049 24.6582 224.532C22.2853 212.853 19.273 204.764 14.9535 193.74L15.3371 193.584C19.6709 204.621 22.6832 212.739 25.0703 224.447C29.6172 246.878 37.9721 262.117 52.991 275.419C68.7062 289.334 86.2969 296.185 107.653 303.69L107.511 304.089Z" fill="#FCFDFE"/>
<path d="M85.5864 339.652L85.2312 339.424C89.2666 333.129 93.7708 327.859 99.0423 323.33C101.728 321.009 104.57 319.328 107.994 317.505L108.193 317.875C104.783 319.684 101.969 321.351 99.3123 323.644C94.0834 328.158 89.5934 333.385 85.5864 339.652Z" fill="#FCFDFE"/>
<path d="M8.68738 284.748L8.54529 284.349C27.3722 277.912 46.6823 277.527 62.9374 283.267L62.7953 283.666C46.6396 277.955 27.4291 278.339 8.68738 284.748Z" fill="#FCFDFE"/>
<path d="M32.0327 248.245C31.5638 246.266 32.2885 229.275 33.1268 214.021C33.9651 198.711 35.0592 182.233 35.4571 181.179L35.8549 181.321C35.5139 182.218 34.4908 196.902 33.5531 214.05C32.7289 229.275 31.9901 246.223 32.459 248.16L32.0327 248.245Z" fill="#FCFDFE"/>
</g>
</g>
<path d="M121.521 266.418C124.966 266.418 127.759 263.619 127.759 260.166C127.759 256.713 124.966 253.914 121.521 253.914C118.076 253.914 115.283 256.713 115.283 260.166C115.283 263.619 118.076 266.418 121.521 266.418Z" fill="url(#paint3_linear_53_284)"/>
<path d="M97.8914 283.196C101.336 283.196 104.129 280.397 104.129 276.943C104.129 273.49 101.336 270.691 97.8914 270.691C94.4464 270.691 91.6537 273.49 91.6537 276.943C91.6537 280.397 94.4464 283.196 97.8914 283.196Z" fill="url(#paint4_linear_53_284)"/>
<path d="M51.9111 358.039C47.4637 346.445 53.7441 327.432 57.6942 318.816C69.2177 293.707 90.3749 292.852 107.724 292.154C124.761 291.47 141.215 290.815 153.25 310.071C161.122 322.661 168.34 345.748 163.523 358.039C158.45 370.97 144.369 360.944 110.864 360.773C74.0203 360.574 57.4668 372.523 51.9111 358.039Z" fill="url(#paint5_linear_53_284)"/>
<path d="M123.809 294.789C123.809 297.951 116.107 301.739 106.602 301.739C97.0958 301.739 89.3945 297.951 89.3945 294.789C89.3945 291.627 97.0958 293.037 106.602 293.037C116.107 293.037 123.809 291.627 123.809 294.789Z" fill="url(#paint6_linear_53_284)"/>
<path d="M100.279 272.728C97.6642 272.728 103.703 291.157 94.1971 293.678C93.2736 293.92 93.1315 295.159 93.9698 295.615C96.5274 296.996 101.302 298.762 109.145 298.762C114.246 298.762 117.969 296.84 119.901 295.53C120.569 295.088 120.498 294.091 119.788 293.721C116.861 292.211 112.783 287.383 114.005 273.198L100.279 272.728Z" fill="url(#paint7_linear_53_284)"/>
<path d="M92.3215 250.638C92.3642 250.866 93.1456 267.686 96.9821 276.089C98.0762 278.496 103.547 278.211 107.07 277.926C110.14 277.67 114.956 278.795 116.306 276.673C121.748 268.128 120.825 246.992 120.825 246.992C120.825 246.992 118.04 239.956 106.587 240.156C95.1633 240.327 92.3215 250.638 92.3215 250.638Z" fill="url(#paint8_linear_53_284)"/>
<path d="M95.007 259.682C95.007 259.682 92.6199 256.89 90.3607 256.52C88.1015 256.15 86.6379 262.003 89.7071 265.82C92.7904 269.637 96.3427 266.475 96.3427 266.475L95.007 259.682Z" fill="url(#paint9_linear_53_284)"/>
<path d="M118.338 259.682C118.338 259.682 120.725 256.89 122.985 256.52C125.244 256.15 126.707 262.003 123.638 265.82C120.555 269.637 117.003 266.475 117.003 266.475L118.338 259.682Z" fill="url(#paint10_linear_53_284)"/>
<path d="M93.1315 259.468C93.4299 260.024 93.7852 260.536 94.0125 260.479C94.9787 260.223 91.2417 250.78 94.6803 247.462C96.4565 245.753 98.4599 247.305 105.735 246.978C113.067 246.65 114.942 244.884 117.159 246.237C119.177 247.462 120.981 250.966 119.489 261.348C119.901 261.249 120.328 261.149 120.74 261.063C120.171 257.659 120.796 255.523 121.493 254.17C122.004 253.187 122.928 251.92 122.857 250.083C122.814 248.943 122.431 248.886 122.374 247.961C122.189 245.226 125.301 244.485 125.457 241.794C125.571 239.714 123.78 239.244 124.107 237.065C124.391 235.214 125.784 234.872 125.556 233.533C125.315 232.095 123.454 231.027 122.132 230.642C120.796 230.257 120.313 230.685 119.518 230.144C118.253 229.26 118.864 227.708 117.94 227.124C116.306 226.099 113.067 230.2 110.964 229.189C109.699 228.563 110.182 226.725 109.06 226.27C106.886 225.401 103.049 231.511 101.501 230.699C100.762 230.314 101.472 228.819 100.435 227.737C99.213 226.455 96.2859 226.455 94.9645 227.808C93.7283 229.075 94.7798 230.585 93.4584 232.194C92.279 233.633 90.9149 233.049 89.5793 234.203C87.3201 236.168 88.1016 240.612 88.3857 242.192C89.3519 247.647 92.3643 248.758 91.6964 252.475C91.5259 253.43 91.1139 254.483 91.4123 256.036C91.6964 257.56 92.4921 258.713 93.1315 259.468Z" fill="url(#paint11_linear_53_284)"/>
<g opacity="0.3">
<path d="M120.981 247.676C120.711 244.998 122.786 243.745 122.445 241.822C122.16 240.284 120.427 238.902 118.793 238.603C115.312 237.977 113.067 243.104 109.6 242.549C106.928 242.121 107.227 238.874 104.2 237.578C99.4118 235.513 94.396 241.808 91.2132 240.07C90.2612 239.543 89.295 238.205 89.2239 234.544C87.4052 236.638 88.1156 240.683 88.3856 242.178C89.3518 247.633 92.3641 248.744 91.6963 252.461C91.5258 253.415 91.1137 254.469 91.4121 256.022C91.6963 257.546 92.4778 258.699 93.1314 259.44C93.4298 259.995 93.785 260.508 94.0124 260.451C94.9786 260.195 91.2416 250.752 94.6802 247.434C96.4563 245.725 98.4598 247.277 105.735 246.949C113.067 246.622 114.942 244.856 117.159 246.209C119.177 247.434 120.981 250.937 119.489 261.32C119.901 261.22 120.327 261.12 120.74 261.035C120.171 257.631 120.796 255.495 121.493 254.142C121.706 253.729 121.99 253.273 122.231 252.76C122.175 251.863 122.033 250.88 121.706 249.855C121.35 248.658 121.081 248.53 120.981 247.676Z" fill="url(#paint12_linear_53_284)"/>
</g>
<path d="M272.065 320.311C248.706 316.523 243.548 313.902 241.161 309.102C237.708 302.138 240.223 290.844 246.134 283.894C251.334 277.798 257.828 276.587 257.629 272.357C257.473 268.882 253.025 268.427 249.757 261.889C248.805 259.981 246.958 256.278 247.768 251.82C248.947 245.283 254.958 241.851 255.441 241.594C261.735 238.133 265.33 242.107 270.076 239.002C276.03 235.114 273.33 226.939 278.9 224.561C282.964 222.837 288.15 225.572 289.514 226.284C294.033 228.662 293.564 231.084 297.386 232.55C301.876 234.288 304.021 231.525 309.236 232.622C313.556 233.533 316.682 236.51 319.225 239.515C324.966 246.28 322.11 250.296 326.344 258.642C332.312 270.392 341.349 269.039 342.94 278.482C343.778 283.424 341.633 285.66 343.281 293.208C344.403 298.321 345.796 299.232 346.052 302.238C346.762 310.883 336.432 318.431 334.514 319.77C322.294 328.23 305.386 325.709 272.065 320.311Z" fill="url(#paint13_linear_53_284)"/>
<path opacity="0.7" d="M310.032 297.737C294.288 296.598 283.66 310.826 279.454 307.279C275.476 303.932 286.729 292.624 282.878 279.407C279.099 266.433 264.307 263.741 265.487 256.435C266.808 248.174 286.644 246.024 286.175 239.914C285.905 236.31 278.872 235.556 277.479 229.844C277.095 228.292 277.223 226.754 277.621 225.315C273.77 228.349 275.518 235.442 270.105 238.988C265.359 242.093 261.764 238.119 255.469 241.58C254.986 241.851 248.962 245.283 247.796 251.806C246.987 256.264 248.834 259.967 249.786 261.875C253.054 268.412 257.501 268.854 257.657 272.343C257.842 276.573 251.363 277.77 246.162 283.879C240.237 290.83 237.722 302.109 241.189 309.088C243.576 313.888 248.72 316.508 272.094 320.297C305.414 325.695 322.323 328.215 334.571 319.784C339.331 316.508 344.929 310.911 346.137 305.912C343.736 308.048 341.377 309.074 339.175 309.458C328.944 311.281 324.227 298.763 310.032 297.737Z" fill="url(#paint14_linear_53_284)"/>
<path d="M246.02 350.376C242.511 341.731 244.656 328.258 245.097 325.41C246.859 314.315 250.993 307.465 252.514 305.015C262.886 288.252 278.729 288.408 290.736 288.537C296.69 288.594 302.87 288.48 310.43 291.171C310.43 291.171 316.426 293.308 321.513 296.854C336.759 307.493 348.865 342.315 336.503 355.333C328.646 363.593 320.618 352.883 286.061 357.597C272.307 359.477 257.899 362.724 249.388 355.318C247.981 354.093 246.887 352.484 246.02 350.376Z" fill="url(#paint15_linear_53_284)"/>
<path d="M284.441 268.185C284.441 268.185 286.971 286.372 274.154 289.975C272.676 290.388 272.222 292.268 273.344 293.322L289.145 308.205C290.097 309.102 291.617 309.045 292.498 308.063L306.835 292.183C307.773 291.143 307.361 289.477 306.053 288.992C301.45 287.298 293.208 282.356 294.942 269.053L284.441 268.185Z" fill="url(#paint16_linear_53_284)"/>
<path d="M276.584 258.101C276.584 258.3 280.037 276.046 288.903 276.046C297.301 276.046 300.498 262.972 301.535 256.876C301.649 255.837 301.762 254.797 301.862 253.757C301.293 253.942 299.872 254.327 298.182 253.871C297.798 253.771 295.354 253.102 294.459 251.094C293.45 248.844 295.311 247.063 294.246 245.098C293.635 243.959 292.399 243.432 291.461 243.161C292.086 244.087 293.308 246.138 292.612 248.003C292.143 249.257 290.85 250.467 287.965 251.194C279.724 253.273 276.499 254.07 276.584 258.101Z" fill="url(#paint17_linear_53_284)"/>
<path d="M278.744 260.223C278.744 260.223 274.168 256.349 273.771 258.728C272.946 263.67 276.854 266.404 278.971 264.923C281.102 263.428 278.744 260.223 278.744 260.223Z" fill="url(#paint18_linear_53_284)"/>
<path d="M298.892 260.223C298.892 260.223 303.467 256.349 303.865 258.728C304.689 263.67 300.782 266.404 298.665 264.923C296.533 263.428 298.892 260.223 298.892 260.223Z" fill="url(#paint19_linear_53_284)"/>
<path d="M201.759 379.445C147.026 379.872 127.83 387.093 119.134 375.2C111.134 364.262 117.756 324.968 127.304 313.93C142.394 296.484 166.62 295.629 199.77 294.703C230.945 293.835 250.155 293.293 265.316 306.767C279.497 319.357 288.548 362.795 279.724 374.887C271.526 386.11 254.02 379.046 201.759 379.445Z" fill="url(#paint20_linear_53_284)"/>
<path d="M186.243 269.723C186.243 269.723 189.767 295.117 184.893 297.552L198.761 312.691L212.8 294.76C212.8 294.76 207.485 290.758 208.892 269.737H186.243V269.723Z" fill="url(#paint21_linear_53_284)"/>
<path d="M178.059 233.362C177.561 234.046 171.054 266.048 193.575 269.395C216.096 272.742 217.091 249.086 216.792 239.059C216.508 229.018 206.207 225.387 200.31 224.675C194.427 223.977 179.835 230.955 178.059 233.362Z" fill="url(#paint22_linear_53_284)"/>
<path d="M176.751 252.048C176.751 252.048 175.629 246.821 171.764 250.083C167.913 253.344 174.038 262.003 179.096 261.647L176.751 252.048Z" fill="url(#paint23_linear_53_284)"/>
<path d="M216.096 248.402C215.443 248.844 213.595 261.12 213.595 261.12C213.595 261.12 216.849 261.505 219.194 257.09C221.552 252.689 222.689 243.944 216.096 248.402Z" fill="url(#paint24_linear_53_284)"/>
<path d="M224.948 224.945C222.576 221 216.579 222.866 214.832 219.063C213.368 215.873 216.821 212.868 214.96 210.105C213.411 207.798 209.617 207.854 208.949 207.869C203.834 207.94 202.654 212.013 199.003 211.914C194.541 211.8 194.371 205.69 188.474 203.126C182.762 200.634 174.393 202.67 171.025 207.342C168.397 210.974 170.627 213.651 167.189 218.323C164.816 221.541 162.727 221.684 161.548 224.817C160.44 227.765 161.193 230.585 161.775 232.679C163.182 237.692 165.782 239.899 169.732 245.226C171.494 247.619 173.924 251.151 176.425 255.808C177.476 258.614 178.968 262.958 180.361 268.441C181.625 273.426 181.554 274.437 182.733 276.06C186.797 281.629 196.09 281.088 199.997 280.874C204.473 280.618 210.057 280.29 212.857 276.388C214.377 274.28 214.178 272.372 214.533 267.273C214.789 263.641 215.301 258.528 216.48 252.347C216.508 252.347 217.006 249.513 218.313 246.009C219.947 241.651 221.638 240.953 223.485 236.439C224.977 232.835 226.881 228.164 224.948 224.945ZM206.306 259.013C203.535 259.767 201.674 259.084 197.923 258.87C190.421 258.443 188.048 261.961 184.495 260.408C183.018 259.767 179.607 257.959 178.883 254.498C178.471 252.247 178.172 249.185 178.655 245.625C179.238 241.281 179.92 236.282 183.387 234.06C188.417 230.841 194.854 236.382 199.457 232.793C201.219 231.425 201.93 229.332 202.257 227.751C203.28 228.107 211.436 231.069 214.434 239.8C216.281 245.183 215.229 249.969 214.32 252.575C212.629 255.153 210.043 258.001 206.306 259.013Z" fill="url(#paint25_linear_53_284)"/>
<path d="M190.733 264.296C193.632 265.194 197.98 265.806 202.868 263.955C203.379 263.755 203.805 264.311 203.379 264.624C201.631 265.863 199.088 267.188 196.317 266.988C194.03 266.817 191.927 265.934 190.307 265.008C189.838 264.738 190.207 264.14 190.733 264.296Z" fill="url(#paint26_linear_53_284)"/>
<path d="M192.552 305.912C192.552 305.912 195.067 314.842 197.61 315.013C200.14 315.184 202.001 315.526 202.001 315.526L204.828 304.915C204.828 304.901 200.239 307.664 192.552 305.912Z" fill="url(#paint27_linear_53_284)"/>
<path d="M196.829 314.685L188.843 368.45L197.369 375.613L209.034 367.908L202.001 315.511L196.829 314.685Z" fill="url(#paint28_linear_53_284)"/>
<path d="M64.2035 183.521C61.2877 180.148 58.5843 176.504 55.6684 173.143C50.3325 166.978 44.6188 161.228 39.2829 155.051L37.9371 153.501C36.6268 151.466 35.1747 151.454 35.8358 148.969C35.9539 148.59 36.4025 147.845 36.5087 147.75C36.7802 147.336 38.2441 145.881 38.5038 145.561L42.2224 142.319C42.5293 142.047 42.8953 141.739 43.2022 141.467C49.6596 135.847 58.3482 129.753 66.4583 137.87C71.806 143.207 69.2207 148.91 69.4922 149.218L69.5867 149.324L70.2241 149.218C75.2059 149.431 78.3933 150.283 81.7223 154.116C83.2452 155.879 84.3903 157.607 85.4527 159.678C87.3416 165.937 79.9161 172.847 75.7253 176.492L75.5128 176.669C74.4386 177.521 69.7519 181.225 68.7249 182.124C67.6742 182.598 65.4194 184.917 64.2035 183.521ZM52.4456 148.886L55.5858 151.785C56.176 152.365 56.8135 152.898 57.5927 152.223C58.9857 151.004 58.9857 149.016 57.7697 147.62C56.424 146.07 54.0983 146.094 52.5991 147.395C52.4928 147.49 52.0206 147.987 51.9734 148.034C51.7609 148.212 52.0915 148.484 52.1741 148.579L52.4456 148.886ZM67.0604 166.505C67.8631 167.44 68.7013 167.345 69.4686 166.671C71.1804 165.192 71.3574 163.298 69.8818 161.595C68.3589 159.832 65.7854 160.53 64.1799 161.914L63.7195 162.316L63.6487 162.553L67.0604 166.505Z" fill="url(#paint29_linear_53_284)"/>
<path d="M91.4497 162.529C91.2372 162.577 91.0248 162.624 90.8949 162.541C87.92 157.524 84.7799 152.779 81.7814 147.857C78.1454 141.881 74.4622 135.858 70.9443 129.812C70.7318 129.457 69.1499 126.333 68.9256 125.978C68.6068 125.446 67.0013 122.819 66.6826 122.286C66.4701 120.89 68.7485 119.896 69.6929 119.316C71.2748 118.346 72.8921 117.601 74.474 116.63C76.5163 115.376 78.4995 113.767 80.5418 112.513C80.6008 112.477 80.7189 112.406 80.7779 112.371C81.6869 111.897 84.9687 110.288 85.4646 110.063C85.8187 109.85 86.7277 109.365 87.0464 109.898C87.0819 109.957 87.1527 110.075 87.1527 110.075C87.2707 110.406 88.2506 112.536 88.3922 112.773C88.9589 113.708 91.7449 118.275 92.3469 119.269C93.008 120.227 92.2879 120.748 91.674 121.446C91.3789 121.624 89.9033 122.618 89.5491 122.831C88.4394 123.505 87.3416 123.943 86.2909 124.582C85.5354 125.043 84.9923 125.611 84.2014 126.026C84.1306 126.309 84.3076 126.605 84.4493 126.83C84.9097 127.587 86.0076 129.658 86.9284 129.978C87.2825 129.765 88.7346 128.865 89.0887 128.652C89.8442 128.191 93.7872 126.097 94.5781 125.694C96.2426 124.996 100.127 134.675 100.646 134.604C100.504 135.421 99.8196 135.752 99.2175 136.202C98.9814 136.344 97.4231 137.468 97.187 137.61C96.644 138.024 93.8934 139.704 93.2205 140.047L93.1733 140.237C93.2087 140.296 93.5865 141.183 93.8108 141.538C93.8108 141.538 94.1649 142.118 94.2712 142.295C94.8024 143.171 95.5933 144.863 96.7739 144.946C97.01 144.804 97.9426 144.236 98.1787 144.082C99.9258 143.005 101.614 141.822 103.361 140.745C103.42 140.71 103.42 140.71 103.42 140.71C103.928 140.485 104.955 139.929 104.955 139.929L105.144 139.976C105.817 141.089 109.098 146.07 109.842 147.147C110.255 147.691 110.881 148.2 111.271 148.839C111.873 149.833 110.952 150.164 110.303 150.803L91.4497 162.529Z" fill="url(#paint30_linear_53_284)"/>
<path d="M140.488 126.96L136.191 117.21C136.109 117.175 135.813 116.548 135.766 116.417L135.589 116.335C135.53 116.358 135.448 116.536 135.448 116.536C135.483 118.275 135.554 120.287 135.813 122.014C136.038 124.049 136.64 126.156 136.782 128.155C136.959 129.256 137.018 132.072 136.935 132.249L136.852 132.427C134.432 133.374 132.272 134.876 129.757 135.776L128.341 136.284C127.408 136.332 126.346 137.006 125.649 136.083C125.449 135.941 124.823 134.995 124.693 134.829L118.578 125.079L118.59 125.73L123.69 145.029C123.879 145.549 122.84 145.916 122.521 146.035L122.462 146.058C120.786 146.662 119.097 146.827 117.445 147.277C116.087 147.762 113.974 148.957 112.392 148.803C112.262 148.851 111.979 148.661 111.955 148.602L111.613 147.632L101.213 105.827C101.213 105.614 101.095 104.49 101.024 104.289C101.024 104.076 101.201 103.354 101.461 103.259L109.063 100.526C110.114 100.005 111.235 99.6741 112.262 99.3073L114.198 98.6091C116.241 98.2423 116.37 98.195 117.516 99.9699C118.436 101.319 122.084 107.649 122.875 109.046C123.123 109.543 123.619 110.312 124.126 110.714L124.244 110.016C124.197 109.673 123.985 108.063 123.843 107.685L123.288 96.7987C123.158 95.6036 124.174 94.799 125.272 94.4085L133.488 91.9592C134.574 91.9355 135.837 91.6278 136.852 91.403L137.088 91.4622L155.953 130.309L156.945 133.09L156.744 133.527C156.768 133.587 155.587 134.166 155.079 134.344C152.718 135.267 150.357 136.19 147.914 137.065L146.178 137.693C145.966 137.693 145.399 137.752 145.175 137.539C143.581 134.166 142.424 130.131 140.488 126.96Z" fill="url(#paint31_linear_53_284)"/>
<path d="M175.183 104.466C175.302 105.283 175.963 111.01 175.691 111.045L156.083 114.157C156.012 114.169 155.504 114.453 155.445 114.536L155.315 114.56C155.186 114.583 155.044 114.595 155.009 114.394C154.997 114.323 154.831 113.66 154.808 113.518C154.395 111.708 154.194 109.933 153.922 108.099L153.828 107.484C153.863 107.271 154.052 107.105 154.182 107.081C172.516 105.141 174.9 103.046 175.183 104.466Z" fill="url(#paint32_linear_53_284)"/>
<path d="M183.459 112.726L180.177 97.2839C180.035 96.5266 179.492 93.0951 179.363 92.3496C179.363 92.2076 179.292 92.0775 179.221 91.8645C178.808 90.0068 177.852 84.8714 177.509 83.6999C177.71 83.1556 178.265 82.9426 178.808 82.9426C178.879 82.9426 179.008 82.9426 179.008 82.9426C179.351 83.0136 181.676 83.2858 181.948 83.2858C182.219 83.2858 184.616 83.2858 184.887 83.2858C185.501 83.2858 188.039 83.4278 188.512 83.4988C191.723 85.3565 190.766 94.3375 194.591 107.448L194.792 107.176L198.015 91.4622C198.015 91.119 198.286 89.6045 198.357 89.2613C198.499 88.433 199.113 85.3565 199.254 84.8004C199.254 84.6584 199.738 83.4278 199.797 82.9426C199.868 82.8007 199.998 82.5995 200.14 82.4575C201.367 82.3865 201.922 82.3155 203.02 82.3273C204.118 82.3273 205.275 82.5403 206.373 82.6705C206.857 82.6705 210.611 82.9426 211.166 82.9426C211.307 82.9426 212.535 83.2148 213.019 83.2858C213.22 83.3568 213.562 83.4278 213.562 83.6999C213.562 83.8419 213.633 84.3862 213.633 84.5874C213.633 86.6463 212.736 88.7052 212.263 90.6221C212.193 90.9652 211.709 93.1543 211.65 93.4382C211.579 93.7104 210.623 95.4971 210.552 95.7693C210.481 95.8403 210.41 96.7277 210.351 96.8697C210.15 98.3843 209.395 99.6859 209.052 101.26C208.911 101.603 208.297 104.478 208.297 104.892C208.226 105.034 207.612 107.022 207.471 107.365C206.857 109.767 206.857 112.442 205.818 114.844L203.48 124.996C203.41 125.339 202.867 126.913 202.725 127.327C202.725 127.398 202.453 128.428 202.453 128.558C201.84 130.415 196.161 129.788 194.922 129.93C193.481 130.001 192.041 130.273 190.471 130.273C189.716 130.273 188.488 130.273 188.004 129.445C186.328 123.907 185.513 118.145 183.459 112.726Z" fill="url(#paint33_linear_53_284)"/>
<path d="M219.83 98.8576C219.854 98.2423 220.326 93.2489 220.409 92.6336C220.562 91.616 221.341 86.8711 221.554 85.8653L221.566 85.7943C221.743 85.5458 222.097 85.037 222.498 85.0962L227.445 85.8416C228.011 85.7233 228.354 85.7706 228.897 85.8535L235.496 87.1196C236.523 88.1017 235.496 89.4151 235.826 90.5037L235.165 94.4913C234.858 96.5266 234.504 98.9049 233.985 100.976C233.985 100.976 233.784 101.366 233.713 101.425C233.69 101.555 233.454 102.218 233.442 102.289C232.202 109.176 230.774 115.968 229.735 122.961C229.298 125.883 228.991 128.889 228.554 131.8L228.531 131.93C228.413 132.746 228.283 133.622 227.315 133.622C223.939 133.042 220.987 132.877 217.67 132.38C217.127 132.297 215.404 132.249 215.392 131.409C217.198 120.594 218.556 109.696 219.83 98.8576Z" fill="url(#paint34_linear_53_284)"/>
<path d="M250.288 139.018C250.063 138.805 250.063 138.592 250.004 138.284L249.272 117.577C249.19 117.624 248.918 118.038 248.895 118.109C248.729 118.417 248.233 119.849 248.139 120.168C247.95 120.547 247.018 123.919 246.899 124.31C246.286 126.132 243.358 134.202 242.697 135.941C242.331 136.687 241.457 136.497 240.666 136.261L235.944 134.841C235.814 134.805 234.398 134.521 234.244 134.545L233.985 134.462C233.548 134.261 231.529 133.362 231.069 133.232C230.892 133.101 230.667 132.9 230.75 132.628C244.255 89.4861 244.314 88.575 245.979 87.7822L248.8 88.6342C249.768 89.001 254.006 90.5629 254.892 90.9652C255.021 91.0007 256.19 91.6397 256.627 91.8408C257.016 91.9592 257.748 92.397 257.973 92.823C257.925 94.8818 258.044 98.0767 258.492 100.147L258.563 110.406C258.823 111.696 259.012 113.187 258.681 114.524L258.882 114.583L264.513 95.793C264.654 95.3315 265.563 94.8937 266.047 94.9647C266.708 95.1658 269.624 95.8995 270.285 96.1006C270.415 96.1361 272.009 96.5503 272.599 96.7277C272.93 96.8224 274.547 97.3904 274.878 97.485C276.294 98.479 276.448 98.6801 275.94 100.384L263.072 142.852C262.683 143.455 261.88 143.491 261.29 143.313L261.16 143.278C260.062 142.875 255.092 141.089 253.983 140.757C252.708 140.237 251.551 139.538 250.288 139.018Z" fill="url(#paint35_linear_53_284)"/>
<path d="M275.739 120.121C276.306 119.174 280.65 111.235 281.217 110.288C281.441 109.862 283.141 106.419 283.425 106.028C283.649 105.602 284.806 103.508 285.089 103.106C285.431 102.431 286.093 101.615 286.884 101.567C287.308 101.792 289.197 102.62 289.563 102.81C289.717 102.81 290.354 103.07 290.413 103.094L296.977 106.502C297.154 106.596 299.125 108.004 299.822 108.442C312.347 118.358 305.559 138.166 294.049 146.555C286.824 152.614 277.251 150.259 269.199 146.307C268.893 146.153 268.102 145.739 268.043 145.703C267.098 145.135 264.855 143.656 264.832 143.573L264.654 142.863C264.595 142.828 266.142 139.538 266.803 138.107C267.027 137.527 269.483 132.936 269.766 132.38C270.215 131.374 273.933 123.73 274.382 122.724C274.417 122.665 274.89 121.754 275.078 121.387C275.208 121.15 275.68 120.239 275.739 120.121ZM281.111 139.527C281.111 139.527 281.264 139.527 281.323 139.562L284.204 139.669C285.915 139.787 287.981 136.687 288.772 135.468C289.174 134.983 290.614 132.948 290.897 132.557L290.992 132.38C291.027 132.321 291.122 132.131 291.122 132.131C291.44 131.374 292.869 127.86 293.128 127.067C293.164 127.008 293.317 126.546 293.317 126.546C293.471 124.464 294.179 119.813 291.759 118.547C291.393 118.358 290.85 118.074 290.39 118.37C290.295 118.547 289.764 119.589 289.634 119.837C286.978 125.41 284.192 131.386 281.288 137.29C281.134 137.693 280.379 139.148 281.111 139.527Z" fill="url(#paint36_linear_53_284)"/>
<path d="M318.002 130.51C323.975 127.871 327.67 127.469 333.868 129.883C334.482 130.096 335.084 130.664 335.568 131.043C338.743 133.539 340.03 135.243 341.352 138.888C341.376 139.077 341.754 140.154 341.813 140.296C342.356 142.721 341.6 144.579 341.045 146.839C339.723 151.986 336.937 157.122 333.726 161.228L333.643 161.334C326.69 168.682 319.489 176.019 308.392 170.623L306.563 169.191C296.103 160.991 299.007 149.584 305.925 140.734C309.183 136.58 313.35 133.137 318.002 130.51ZM314.743 148.602C314.661 148.709 314.389 149.277 314.318 149.49C313.398 151.904 312.182 155.572 314.72 157.56C316.018 158.577 318.722 157.217 319.843 156.353L321.85 154.791C322.381 154.329 324.495 152.069 324.837 151.643C324.979 151.572 326.159 150.07 326.537 149.584C326.785 149.265 327.965 147.75 328.166 147.384C329.441 145.419 329.689 143.431 329.205 141.053C329.169 140.769 328.91 140.651 328.697 140.485C327.564 139.598 326.206 139.669 324.825 139.882L322.133 140.994C322.051 141.1 321.543 141.313 321.496 141.361L318.403 143.988L314.743 148.602Z" fill="url(#paint37_linear_53_284)"/>
<defs>
<linearGradient id="paint0_linear_53_284" x1="0.8287" y1="196.532" x2="395.159" y2="196.532" gradientUnits="userSpaceOnUse">
<stop stop-color="#444B8C"/>
<stop offset="0.9964" stop-color="#3E4177"/>
</linearGradient>
<linearGradient id="paint1_linear_53_284" x1="393.733" y1="215.54" x2="65.5623" y2="436.535" gradientUnits="userSpaceOnUse">
<stop stop-color="#86BDFF"/>
<stop offset="1" stop-color="#FB6FBB"/>
</linearGradient>
<linearGradient id="paint2_linear_53_284" x1="14.4771" y1="239.799" x2="182.397" y2="335.624" gradientUnits="userSpaceOnUse">
<stop offset="0.00359712" stop-color="#E38DDD"/>
<stop offset="1" stop-color="#9571F6"/>
</linearGradient>
<linearGradient id="paint3_linear_53_284" x1="57.0035" y1="306.818" x2="135.2" y2="250.541" gradientUnits="userSpaceOnUse">
<stop offset="0.003597" stop-color="#6165D7"/>
<stop offset="1" stop-color="#AA80F9"/>
</linearGradient>
<linearGradient id="paint4_linear_53_284" x1="56.8573" y1="306.615" x2="135.054" y2="250.338" gradientUnits="userSpaceOnUse">
<stop offset="0.003597" stop-color="#6165D7"/>
<stop offset="1" stop-color="#AA80F9"/>
</linearGradient>
<linearGradient id="paint5_linear_53_284" x1="87.3926" y1="350.966" x2="141.548" y2="314.947" gradientUnits="userSpaceOnUse">
<stop offset="5.5409e-07" stop-color="#55FFDB"/>
<stop offset="0.9964" stop-color="#B194FF"/>
</linearGradient>
<linearGradient id="paint6_linear_53_284" x1="106.737" y1="303.109" x2="106.298" y2="276.353" gradientUnits="userSpaceOnUse">
<stop stop-color="#AA80F9"/>
<stop offset="0.9964" stop-color="#6165D7"/>
</linearGradient>
<linearGradient id="paint7_linear_53_284" x1="106.945" y1="305.878" x2="106.798" y2="282.474" gradientUnits="userSpaceOnUse">
<stop stop-color="#AB2A69"/>
<stop offset="1" stop-color="#792D3D"/>
</linearGradient>
<linearGradient id="paint8_linear_53_284" x1="105.009" y1="272.389" x2="108.819" y2="226.628" gradientUnits="userSpaceOnUse">
<stop stop-color="#AB2A69"/>
<stop offset="1" stop-color="#792D3D"/>
</linearGradient>
<linearGradient id="paint9_linear_53_284" x1="91.4986" y1="271.264" x2="95.3087" y2="225.503" gradientUnits="userSpaceOnUse">
<stop stop-color="#AB2A69"/>
<stop offset="1" stop-color="#792D3D"/>
</linearGradient>
<linearGradient id="paint10_linear_53_284" x1="120.369" y1="273.668" x2="124.18" y2="227.907" gradientUnits="userSpaceOnUse">
<stop stop-color="#AB2A69"/>
<stop offset="1" stop-color="#792D3D"/>
</linearGradient>
<linearGradient id="paint11_linear_53_284" x1="104.006" y1="250.325" x2="114.113" y2="219.05" gradientUnits="userSpaceOnUse">
<stop stop-color="#311944"/>
<stop offset="1" stop-color="#6B3976"/>
</linearGradient>
<linearGradient id="paint12_linear_53_284" x1="104.007" y1="250.325" x2="114.114" y2="219.051" gradientUnits="userSpaceOnUse">
<stop stop-color="#311944"/>
<stop offset="1" stop-color="#6B3976"/>
</linearGradient>
<linearGradient id="paint13_linear_53_284" x1="328" y1="217.385" x2="299.908" y2="272.271" gradientUnits="userSpaceOnUse">
<stop stop-color="#AB2A69"/>
<stop offset="1" stop-color="#792D3D"/>
</linearGradient>
<linearGradient id="paint14_linear_53_284" x1="327.954" y1="217.764" x2="299.943" y2="272.49" gradientUnits="userSpaceOnUse">
<stop stop-color="#AB2A69"/>
<stop offset="1" stop-color="#792D3D"/>
</linearGradient>
<linearGradient id="paint15_linear_53_284" x1="300.452" y1="394.35" x2="286.842" y2="295.904" gradientUnits="userSpaceOnUse">
<stop offset="0.00359712" stop-color="#E38DDD"/>
<stop offset="1" stop-color="#9571F6"/>
</linearGradient>
<linearGradient id="paint16_linear_53_284" x1="290.917" y1="310.736" x2="288.963" y2="268.434" gradientUnits="userSpaceOnUse">
<stop stop-color="#FFD271"/>
<stop offset="0.9964" stop-color="#F3665C"/>
</linearGradient>
<linearGradient id="paint17_linear_53_284" x1="288.759" y1="273.532" x2="289.508" y2="244.913" gradientUnits="userSpaceOnUse">
<stop stop-color="#FFD271"/>
<stop offset="0.9964" stop-color="#F3665C"/>
</linearGradient>
<linearGradient id="paint18_linear_53_284" x1="276.532" y1="270.555" x2="277.216" y2="244.433" gradientUnits="userSpaceOnUse">
<stop stop-color="#FFD271"/>
<stop offset="0.9964" stop-color="#F3665C"/>
</linearGradient>
<linearGradient id="paint19_linear_53_284" x1="300.625" y1="271.186" x2="301.308" y2="245.064" gradientUnits="userSpaceOnUse">
<stop stop-color="#FFD271"/>
<stop offset="0.9964" stop-color="#F3665C"/>
</linearGradient>
<linearGradient id="paint20_linear_53_284" x1="264.585" y1="223.391" x2="171.909" y2="405.392" gradientUnits="userSpaceOnUse">
<stop stop-color="#86BDFF"/>
<stop offset="1" stop-color="#FB6FBB"/>
</linearGradient>
<linearGradient id="paint21_linear_53_284" x1="199.617" y1="301.161" x2="205.653" y2="340.304" gradientUnits="userSpaceOnUse">
<stop stop-color="#FFD271"/>
<stop offset="0.9964" stop-color="#F3665C"/>
</linearGradient>
<linearGradient id="paint22_linear_53_284" x1="196.847" y1="241.328" x2="195.338" y2="340.702" gradientUnits="userSpaceOnUse">
<stop stop-color="#FFD271"/>
<stop offset="0.9964" stop-color="#F3665C"/>
</linearGradient>
<linearGradient id="paint23_linear_53_284" x1="172.711" y1="235.817" x2="182.496" y2="334.718" gradientUnits="userSpaceOnUse">
<stop stop-color="#FFD271"/>
<stop offset="0.9964" stop-color="#F3665C"/>
</linearGradient>
<linearGradient id="paint24_linear_53_284" x1="217.534" y1="241.642" x2="216.024" y2="341.016" gradientUnits="userSpaceOnUse">
<stop stop-color="#FFD271"/>
<stop offset="0.9964" stop-color="#F3665C"/>
</linearGradient>
<linearGradient id="paint25_linear_53_284" x1="160.998" y1="241.524" x2="225.771" y2="241.524" gradientUnits="userSpaceOnUse">
<stop stop-color="#444B8C"/>
<stop offset="0.9964" stop-color="#3E4177"/>
</linearGradient>
<linearGradient id="paint26_linear_53_284" x1="201.598" y1="223.201" x2="197.385" y2="259.494" gradientUnits="userSpaceOnUse">
<stop stop-color="#FFD271"/>
<stop offset="0.9964" stop-color="#F3665C"/>
</linearGradient>
<linearGradient id="paint27_linear_53_284" x1="196.726" y1="276.561" x2="200.119" y2="326.154" gradientUnits="userSpaceOnUse">
<stop stop-color="#444B8C"/>
<stop offset="0.9964" stop-color="#26264F"/>
</linearGradient>
<linearGradient id="paint28_linear_53_284" x1="198.937" y1="355.067" x2="198.937" y2="281.385" gradientUnits="userSpaceOnUse">
<stop stop-color="#444B8C"/>
<stop offset="0.9964" stop-color="#26264F"/>
</linearGradient>
<linearGradient id="paint29_linear_53_284" x1="35.6754" y1="158.955" x2="85.7473" y2="158.955" gradientUnits="userSpaceOnUse">
<stop stop-color="#444B8C"/>
<stop offset="1" stop-color="#3E4177"/>
</linearGradient>
<linearGradient id="paint30_linear_53_284" x1="66.6795" y1="136.129" x2="111.472" y2="136.129" gradientUnits="userSpaceOnUse">
<stop stop-color="#444B8C"/>
<stop offset="1" stop-color="#3E4177"/>
</linearGradient>
<linearGradient id="paint31_linear_53_284" x1="101.026" y1="120.112" x2="156.937" y2="120.112" gradientUnits="userSpaceOnUse">
<stop stop-color="#444B8C"/>
<stop offset="1" stop-color="#3E4177"/>
</linearGradient>
<linearGradient id="paint32_linear_53_284" x1="153.833" y1="109.284" x2="175.755" y2="109.284" gradientUnits="userSpaceOnUse">
<stop stop-color="#444B8C"/>
<stop offset="1" stop-color="#3E4177"/>
</linearGradient>
<linearGradient id="paint33_linear_53_284" x1="177.524" y1="106.321" x2="213.662" y2="106.321" gradientUnits="userSpaceOnUse">
<stop stop-color="#444B8C"/>
<stop offset="1" stop-color="#3E4177"/>
</linearGradient>
<linearGradient id="paint34_linear_53_284" x1="215.378" y1="109.362" x2="235.96" y2="109.362" gradientUnits="userSpaceOnUse">
<stop stop-color="#444B8C"/>
<stop offset="1" stop-color="#3E4177"/>
</linearGradient>
<linearGradient id="paint35_linear_53_284" x1="230.74" y1="115.603" x2="276.203" y2="115.603" gradientUnits="userSpaceOnUse">
<stop stop-color="#444B8C"/>
<stop offset="1" stop-color="#3E4177"/>
</linearGradient>
<linearGradient id="paint36_linear_53_284" x1="264.652" y1="125.914" x2="306.538" y2="125.914" gradientUnits="userSpaceOnUse">
<stop stop-color="#444B8C"/>
<stop offset="1" stop-color="#3E4177"/>
</linearGradient>
<linearGradient id="paint37_linear_53_284" x1="299.712" y1="150.393" x2="342.003" y2="150.393" gradientUnits="userSpaceOnUse">
<stop stop-color="#444B8C"/>
<stop offset="1" stop-color="#3E4177"/>
</linearGradient>
</defs>
</svg>
