<svg width="368" height="367" viewBox="0 0 368 367" fill="none" xmlns="http://www.w3.org/2000/svg">
<path opacity="0.05" d="M0.263641 206.83C1.13259 255.535 19.7453 330.892 67.5696 352.582C84.2728 360.16 108.829 359.648 157.951 358.623C172.391 358.324 193.428 357.822 219.539 354.311C273.779 347.021 310.693 342.057 332.191 323.261C386.055 276.178 384.5 106.112 287.521 33.4867C234.612 -6.13459 159.356 -12.2294 97.1675 23.9977C28.6922 63.8752 -0.89496 141.624 0.263641 206.83Z" fill="black"/>
<path d="M290.158 127.902L289.793 133.554L290.751 133.616L291.116 127.964L290.158 127.902Z" fill="#407BFF"/>
<path d="M291.706 104.927L290.507 123.512L291.465 123.573L292.664 104.989L291.706 104.927Z" fill="#407BFF"/>
<path d="M280.223 77.9044H167.423C161.471 77.9044 156.383 82.7044 155.999 88.6564L141.407 313.776C141.023 319.728 145.535 324.528 151.487 324.528H264.383C270.335 324.528 275.423 319.728 275.807 313.776L290.399 88.6564C290.687 82.8004 286.175 77.9044 280.223 77.9044Z" fill="#407BFF"/>
<path opacity="0.7" d="M276.671 77.9044H167.423C161.471 77.9044 156.383 82.7044 155.999 88.6564L141.407 313.776C141.023 319.728 145.535 324.528 151.487 324.528H260.735C266.687 324.528 271.775 319.728 272.159 313.776L286.751 88.6564C287.135 82.8004 282.623 77.9044 276.671 77.9044Z" fill="white"/>
<path d="M267.455 307.92H147.263C145.343 307.92 143.903 306.288 143.999 304.464L157.151 100.752C157.247 99.0244 158.687 97.6804 160.415 97.6804H280.607C282.527 97.6804 283.967 99.3124 283.871 101.136L270.719 304.848C270.623 306.576 269.183 307.92 267.455 307.92Z" fill="white"/>
<path d="M240.767 90.9604H197.087C196.127 90.9604 195.359 90.1924 195.455 89.2324C195.551 88.2724 196.319 87.5044 197.279 87.5044H240.959C241.919 87.5044 242.687 88.2724 242.591 89.2324C242.591 90.1924 241.727 90.9604 240.767 90.9604Z" fill="white"/>
<path d="M206.687 316.464C206.591 318.864 204.575 320.784 202.175 320.784C199.775 320.784 197.951 318.864 198.143 316.464C198.239 314.064 200.255 312.144 202.655 312.144C204.959 312.24 206.783 314.16 206.687 316.464Z" fill="white"/>
<path opacity="0.7" d="M238.943 194.832L235.487 187.536C234.527 185.616 234.047 183.504 234.047 181.392V169.872C234.047 159.6 226.847 150.864 217.247 148.464C217.247 148.272 217.343 147.984 217.343 147.792C217.343 144.816 214.943 142.416 211.967 142.416C208.991 142.416 206.591 144.816 206.591 147.792C206.591 147.984 206.591 148.272 206.687 148.464C197.087 150.864 189.887 159.504 189.887 169.872V181.392C189.887 183.504 189.407 185.616 188.447 187.536L184.991 194.832C183.455 198 185.759 201.552 189.215 201.552H234.623C238.175 201.648 240.479 198 238.943 194.832Z" fill="#407BFF"/>
<path opacity="0.7" d="M206.879 204.528C205.343 204.528 204.383 206.064 204.959 207.408C206.111 210.192 208.799 212.208 212.063 212.208C215.231 212.208 218.014 210.288 219.166 207.408C219.742 206.064 218.686 204.528 217.246 204.528H206.879Z" fill="#407BFF"/>
<g opacity="0.7">
<path opacity="0.7" d="M238.943 194.832L235.487 187.536C234.527 185.616 234.047 183.504 234.047 181.392V169.872C234.047 159.6 226.847 150.864 217.247 148.464C217.247 148.272 217.343 147.984 217.343 147.792C217.343 144.816 214.943 142.416 211.967 142.416C208.991 142.416 206.591 144.816 206.591 147.792C206.591 147.984 206.591 148.272 206.687 148.464C197.087 150.864 189.887 159.504 189.887 169.872V181.392C189.887 183.504 189.407 185.616 188.447 187.536L184.991 194.832C183.455 198 185.759 201.552 189.215 201.552H234.623C238.175 201.648 240.479 198 238.943 194.832Z" fill="white"/>
<path opacity="0.7" d="M206.879 204.528C205.343 204.528 204.383 206.064 204.959 207.408C206.111 210.192 208.799 212.208 212.063 212.208C215.231 212.208 218.014 210.288 219.166 207.408C219.742 206.064 218.686 204.528 217.246 204.528H206.879Z" fill="white"/>
</g>
<path d="M105.215 361.776C105.215 361.584 105.215 361.488 105.215 361.296C103.007 352.752 92.2547 347.376 92.2547 347.376L88.0307 347.664C85.6307 355.248 85.9187 359.856 86.3027 361.968C86.3027 362.064 86.3027 362.064 86.3027 362.16C89.8547 362.448 97.0547 362.736 105.215 361.776Z" fill="url(#paint0_linear_189_722)"/>
<path d="M86.3027 362.16C86.4947 362.832 86.9747 363.409 87.6467 363.505C92.6387 364.561 100.607 363.696 103.967 363.312C104.735 363.216 105.215 362.544 105.215 361.776C97.0547 362.736 89.8547 362.448 86.3027 362.16Z" fill="url(#paint1_linear_189_722)"/>
<path d="M86.3027 341.424L88.1267 350.064C88.2227 350.736 88.7027 351.216 89.3747 351.216C90.1427 351.312 91.1027 351.312 92.1587 351.216C93.1187 351.12 93.6947 350.16 93.5987 349.104L92.3507 341.424H86.3027Z" fill="url(#paint2_linear_189_722)"/>
<path d="M123.647 362.064C118.943 361.968 116.543 361.392 115.295 360.816C115.295 361.296 115.295 361.776 115.295 362.256C115.295 362.736 115.679 363.216 116.159 363.216L141.983 363.024C142.847 363.024 143.327 362.064 142.943 361.296C139.583 361.68 130.943 362.256 123.647 362.064Z" fill="url(#paint3_linear_189_722)"/>
<path d="M142.943 361.392C142.943 361.296 142.847 361.296 142.847 361.2C140.543 358.032 134.783 351.696 123.263 348.912L117.791 348.72C117.791 348.72 115.295 352.944 115.295 360.912C116.543 361.392 118.943 361.968 123.647 362.16C130.943 362.256 139.583 361.68 142.943 361.392Z" fill="url(#paint4_linear_189_722)"/>
<path d="M116.735 340.368C116.831 340.752 117.503 346.992 117.887 349.488C117.983 350.064 118.367 350.544 118.943 350.544C119.903 350.64 121.439 350.736 122.687 350.448C123.455 350.256 123.935 349.584 123.935 348.816V339.024L116.735 340.368Z" fill="url(#paint5_linear_189_722)"/>
<path d="M112.319 226.512C112.319 226.512 125.567 277.008 125.375 340.56C125.375 341.712 124.607 342.672 123.455 342.96C121.823 343.344 119.327 343.728 117.311 343.632C116.255 343.632 115.295 342.768 115.103 341.712C113.279 330.768 102.527 269.232 96.4786 259.248C96.4786 259.248 92.4466 314.064 93.7906 342.48C93.7906 343.152 93.3106 343.824 92.6386 343.92C91.5826 344.016 89.8546 344.112 87.7426 343.92C86.8786 343.824 86.2066 343.248 86.1106 342.384C84.7666 333.168 77.1826 278.16 77.4706 238.512C77.4706 236.304 83.4226 226.512 83.4226 226.512H112.319Z" fill="url(#paint6_linear_189_722)"/>
<path d="M95.9987 258C95.8067 258 95.6147 257.808 95.5187 257.616C94.4627 253.392 86.2067 248.689 86.1107 248.689C85.8227 248.593 85.8227 248.208 85.9187 248.016C86.0147 247.728 86.3987 247.729 86.5907 247.825C86.9747 248.017 95.3267 252.721 96.4787 257.425C96.5747 257.713 96.3828 258 96.0948 258H95.9987Z" fill="url(#paint7_linear_189_722)"/>
<path d="M144.383 168.144C143.327 175.632 142.079 177.36 141.215 177.456C138.335 177.552 138.911 160.656 128.351 152.112C121.727 146.736 112.607 146.256 105.407 146.928C108.767 158.352 112.031 169.776 115.391 181.2C116.831 184.56 123.167 198.384 137.567 202.608C140.447 203.472 144.863 204.72 148.895 203.088C156.863 199.824 160.607 186.384 157.055 169.584C155.423 168.816 153.119 168.24 144.383 168.144Z" fill="url(#paint8_linear_189_722)"/>
<path d="M141.887 138.864L143.231 145.968C145.343 154.704 145.535 162 144.479 168.048C146.303 168.144 148.223 168.24 150.239 168.432C152.735 168.624 155.039 169.008 157.247 169.296C156.095 160.464 149.951 145.68 149.951 145.68C146.015 140.688 145.631 144.048 141.887 138.864Z" fill="url(#paint9_linear_189_722)"/>
<path d="M156.959 123.888C155.423 123.888 154.079 124.464 153.023 125.52L143.615 136.176C143.615 136.176 141.887 135.888 141.791 132.72C141.599 129.552 138.143 129.168 138.143 129.168C138.143 129.168 138.623 133.584 139.583 140.016C140.159 143.76 142.463 146.448 144.287 148.08L149.759 146.256C154.751 139.44 157.823 131.952 159.551 123.888H156.959Z" fill="url(#paint10_linear_189_722)"/>
<path d="M68.1587 152.88C68.8307 152.688 73.0547 148.464 73.7267 148.368C84.2867 146.448 110.687 139.632 128.351 152.112C128.351 152.496 128.447 152.784 128.447 152.976C128.639 153.168 128.831 153.552 129.215 154.128C130.847 157.2 132.863 160.176 135.167 163.056C134.687 163.536 134.207 164.112 133.919 164.688C129.695 173.328 113.567 208.08 116.447 229.296C116.639 230.352 115.775 231.408 114.623 231.6C108.383 232.464 89.7587 234.48 80.1587 230.64C79.5827 230.448 79.1987 229.872 79.2947 229.296C79.3907 225.072 79.1987 206.544 72.0947 184.272C71.8067 183.408 71.6147 182.64 71.4227 181.776C71.3267 181.968 71.2307 182.16 71.1347 182.256L68.1587 152.88Z" fill="url(#paint11_linear_189_722)"/>
<path d="M84.2867 146.448C64.5107 147.792 60.3827 158.544 46.7507 152.016L49.1507 172.176C54.2387 177.552 61.8227 181.104 71.4227 182.544L84.2867 146.448Z" fill="url(#paint12_linear_189_722)"/>
<path d="M97.8227 128.208C94.4627 134.64 93.0227 141.168 92.6387 147.312C93.4067 147.6 103.103 154.032 109.535 147.792C108.191 143.568 108.383 137.136 108.767 130.512L97.8227 128.208Z" fill="url(#paint13_linear_189_722)"/>
<path d="M115.391 111.312C115.583 111.6 120.383 133.392 120.383 133.392L107.231 135.792L99.4548 115.728C99.4548 115.728 112.319 106.512 115.391 111.312Z" fill="url(#paint14_linear_189_722)"/>
<path d="M104.543 117.552C104.159 118.032 104.063 118.608 104.255 119.088L107.423 129.744C107.423 129.936 107.519 130.032 107.615 130.224C108.095 130.992 110.015 133.392 112.511 131.472C114.623 129.84 116.639 128.304 118.463 127.92C119.519 127.728 120.575 128.4 120.767 129.36C121.247 131.376 122.015 135.6 122.207 139.344C122.207 140.304 121.535 141.072 120.575 141.264C117.983 141.552 112.895 142.032 108.575 141.552C107.903 141.456 107.231 141.072 107.039 140.4C105.887 137.616 102.719 129.84 101.471 127.824C100.319 125.904 97.2467 125.712 95.8067 125.712C95.2307 125.712 94.7507 125.52 94.3667 125.136C93.2147 123.984 91.4867 121.488 94.4627 118.8C95.2307 118.128 95.2307 116.976 94.5587 116.208C93.3107 114.864 92.2547 112.752 94.5587 110.256C96.9587 107.76 99.8387 108.24 101.663 108.912C102.431 109.2 103.487 109.008 103.967 108.336C104.255 108.048 104.543 107.856 105.119 107.856C106.175 107.952 107.039 107.184 107.135 106.224C107.231 104.496 108.095 102.48 111.263 101.712C117.023 100.368 120.191 105.744 120.287 109.68C120.383 113.616 114.047 114.672 110.399 114.192C107.615 113.904 105.503 116.304 104.543 117.552Z" fill="url(#paint15_linear_189_722)"/>
<path d="M103.295 131.76C103.295 131.76 102.047 124.848 99.1667 124.368C96.2867 123.888 93.2147 126 95.9027 129.936C99.2627 134.928 103.295 131.76 103.295 131.76Z" fill="url(#paint16_linear_189_722)"/>
<path d="M98.4946 106.992C98.9746 106.992 99.5506 106.992 100.127 107.184C101.471 107.472 103.391 108.144 102.911 109.392C102.143 111.312 98.3986 109.488 96.4786 112.56C94.7506 115.248 96.1906 118.224 95.6146 121.104C95.3266 122.544 94.3666 124.656 93.0226 125.52C92.4466 125.904 87.7426 126.576 87.4546 125.808L86.1106 121.776C84.9586 118.128 89.4706 112.08 91.7746 109.584C93.5986 107.664 96.0946 106.992 98.4946 106.992Z" fill="url(#paint17_linear_189_722)"/>
<path d="M94.0787 121.584L89.5667 125.136C80.9267 128.592 74.6867 132.72 70.0787 137.232C68.4467 134.256 65.7587 130.896 61.5347 128.208C70.2707 124.08 76.7027 122.448 76.7027 122.448C94.2707 115.632 94.0787 121.584 94.0787 121.584Z" fill="url(#paint18_linear_189_722)"/>
<path d="M70.0786 137.232C55.8706 151.152 59.9986 144.048 59.9026 155.952C59.9026 160.368 55.8706 177.264 55.8706 177.264C12.4786 159.408 48.6706 134.928 61.5346 128.112C65.7586 130.896 68.4466 134.256 70.0786 137.232Z" fill="url(#paint19_linear_189_722)"/>
<path d="M198.815 229.104H195.839V231.888H199.199V232.752H194.879V224.976H199.103V225.84H195.935V228.336H198.911V229.104H198.815Z" fill="#407BFF"/>
<path d="M206.975 229.296C206.879 228.24 206.879 226.896 206.879 225.936C206.591 226.8 206.303 227.856 205.919 228.912L204.575 232.656H203.807L202.559 228.912C202.175 227.856 201.887 226.8 201.695 225.936C201.695 226.896 201.599 228.24 201.503 229.392L201.311 232.752H200.351L200.927 224.976H202.175L203.519 228.72C203.807 229.68 204.095 230.544 204.287 231.312C204.479 230.544 204.767 229.68 205.151 228.72L206.495 224.976H207.743L208.223 232.752H207.263L206.975 229.296Z" fill="#407BFF"/>
<path d="M209.663 225.072C210.143 224.976 210.815 224.88 211.583 224.88C212.543 224.88 213.311 225.072 213.791 225.552C214.175 225.936 214.463 226.512 214.463 227.184C214.463 227.856 214.271 228.432 213.887 228.816C213.311 229.392 212.447 229.68 211.487 229.68C211.199 229.68 210.911 229.68 210.719 229.584V232.656H209.759V225.072H209.663ZM210.719 228.816C210.911 228.912 211.199 228.912 211.583 228.912C212.831 228.912 213.503 228.336 213.503 227.28C213.503 226.224 212.735 225.744 211.679 225.744C211.199 225.744 210.911 225.744 210.719 225.84V228.816Z" fill="#407BFF"/>
<path d="M217.343 225.84H214.943V224.976H220.703V225.84H218.303V232.752H217.247V225.84H217.343Z" fill="#407BFF"/>
<path d="M223.583 232.752V229.488L221.087 224.976H222.239L223.295 227.088C223.583 227.664 223.871 228.144 224.063 228.72C224.255 228.24 224.543 227.664 224.831 227.088L225.983 224.976H227.135L224.543 229.392V232.656H223.583V232.752Z" fill="#407BFF"/>
<g opacity="0.7">
<path d="M198.815 229.104H195.839V231.888H199.199V232.752H194.879V224.976H199.103V225.84H195.935V228.336H198.911V229.104H198.815Z" fill="white"/>
<path d="M206.975 229.296C206.879 228.24 206.879 226.896 206.879 225.936C206.591 226.8 206.303 227.856 205.919 228.912L204.575 232.656H203.807L202.559 228.912C202.175 227.856 201.887 226.8 201.695 225.936C201.695 226.896 201.599 228.24 201.503 229.392L201.311 232.752H200.351L200.927 224.976H202.175L203.519 228.72C203.807 229.68 204.095 230.544 204.287 231.312C204.479 230.544 204.767 229.68 205.151 228.72L206.495 224.976H207.743L208.223 232.752H207.263L206.975 229.296Z" fill="white"/>
<path d="M209.663 225.072C210.143 224.976 210.815 224.88 211.583 224.88C212.543 224.88 213.311 225.072 213.791 225.552C214.175 225.936 214.463 226.512 214.463 227.184C214.463 227.856 214.271 228.432 213.887 228.816C213.311 229.392 212.447 229.68 211.487 229.68C211.199 229.68 210.911 229.68 210.719 229.584V232.656H209.759V225.072H209.663ZM210.719 228.816C210.911 228.912 211.199 228.912 211.583 228.912C212.831 228.912 213.503 228.336 213.503 227.28C213.503 226.224 212.735 225.744 211.679 225.744C211.199 225.744 210.911 225.744 210.719 225.84V228.816Z" fill="white"/>
<path d="M217.343 225.84H214.943V224.976H220.703V225.84H218.303V232.752H217.247V225.84H217.343Z" fill="white"/>
<path d="M223.583 232.752V229.488L221.087 224.976H222.239L223.295 227.088C223.583 227.664 223.871 228.144 224.063 228.72C224.255 228.24 224.543 227.664 224.831 227.088L225.983 224.976H227.135L224.543 229.392V232.656H223.583V232.752Z" fill="white"/>
</g>
<path d="M301.727 338.832C294.623 322.032 291.743 302.352 299.903 303.216C308.255 303.984 307.295 333.744 308.639 337.008C305.951 339.216 301.727 338.832 301.727 338.832Z" fill="url(#paint20_linear_189_722)"/>
<path d="M304.031 307.056C302.303 313.488 300.479 323.28 299.039 331.728C299.807 334.128 300.767 336.528 301.727 338.928C301.727 338.928 305.951 339.312 308.639 337.104C307.487 334.416 307.871 315.408 304.031 307.056Z" fill="#263238"/>
<path d="M304.031 335.76C301.823 300.144 307.871 267.12 323.807 268.656C337.535 269.904 317.567 329.904 317.951 336.816C311.711 339.216 304.031 335.76 304.031 335.76Z" fill="url(#paint21_linear_189_722)"/>
<path d="M314.399 335.568C316.895 309.936 330.431 280.08 336.191 290.064C343.583 302.736 324.671 332.88 324.191 337.872C319.487 338.928 314.399 335.568 314.399 335.568Z" fill="url(#paint22_linear_189_722)"/>
<path d="M311.903 278.16C310.271 277.872 309.407 276.912 309.503 275.472C309.599 273.84 310.943 272.304 312.191 272.208C312.767 272.208 313.823 272.496 314.015 274.704L313.055 274.8C312.959 273.744 312.575 273.168 312.191 273.168C311.519 273.168 310.559 274.32 310.463 275.472C310.367 276.432 310.943 277.008 312.095 277.2L311.903 278.16Z" fill="#407BFF"/>
<path d="M329.087 284.592C328.607 284.592 327.935 284.4 327.167 283.824L327.647 283.056C328.511 283.632 329.183 283.824 329.471 283.44C329.855 282.96 329.567 281.424 328.799 280.656C328.127 279.984 327.359 280.08 326.495 280.848L325.823 280.08C327.071 279.024 328.415 278.928 329.471 279.984C330.623 281.136 331.007 283.152 330.239 284.112C330.047 284.304 329.759 284.592 329.087 284.592Z" fill="#407BFF"/>
<path d="M305.567 299.088C304.223 299.088 303.359 298.416 303.071 297.168C302.687 295.632 303.455 293.712 304.607 293.232C305.183 293.04 306.239 293.04 307.103 295.056L306.239 295.44C305.759 294.48 305.279 294 304.895 294.096C304.319 294.288 303.647 295.728 303.935 296.88C304.127 297.744 304.895 298.128 305.951 298.032L306.047 298.992C305.951 299.088 305.759 299.088 305.567 299.088Z" fill="#407BFF"/>
<path d="M295.391 318.96C294.431 318.96 293.663 318.48 293.183 317.52C292.511 316.08 292.895 313.968 293.951 313.392C294.431 313.104 295.487 312.912 296.735 314.736L295.967 315.312C295.391 314.448 294.815 314.064 294.431 314.256C293.855 314.544 293.567 316.08 294.047 317.136C294.431 318 295.199 318.192 296.255 317.808L296.543 318.672C296.159 318.864 295.775 318.96 295.391 318.96Z" fill="#407BFF"/>
<path d="M312.383 289.968C312.287 289.968 312.191 289.968 312.095 289.872C310.751 288.912 310.271 287.664 310.847 286.416C311.423 285.072 312.863 284.208 314.207 284.496C314.783 284.592 316.223 285.168 316.319 287.664C316.319 287.952 316.127 288.144 315.839 288.144C315.551 288.144 315.359 287.952 315.359 287.664C315.263 286.32 314.879 285.552 314.111 285.36C313.247 285.168 312.191 285.84 311.807 286.704C311.423 287.568 311.807 288.336 312.767 289.008C312.959 289.2 313.055 289.488 312.863 289.68C312.671 289.872 312.479 289.968 312.383 289.968Z" fill="white"/>
<path d="M323.711 315.888C323.519 315.888 323.327 315.696 323.231 315.504C323.135 315.216 323.327 315.024 323.615 314.928C324.959 314.64 325.631 314.064 325.631 313.296C325.631 312.432 324.863 311.472 323.903 311.28C323.039 311.088 322.271 311.568 321.791 312.624C321.695 312.816 321.407 312.912 321.119 312.816C320.927 312.72 320.735 312.432 320.927 312.144C321.599 310.704 322.847 310.032 324.191 310.32C325.535 310.608 326.687 311.952 326.687 313.296C326.687 313.872 326.399 315.312 323.903 315.888C323.807 315.888 323.807 315.888 323.711 315.888Z" fill="white"/>
<path d="M337.247 307.824C336.671 307.824 335.999 307.536 335.135 306.288L335.903 305.712C336.479 306.576 337.055 306.96 337.439 306.768C338.015 306.48 338.303 304.944 337.919 303.888C337.535 303.024 336.767 302.736 335.711 303.12L335.423 302.256C336.959 301.776 338.207 302.256 338.783 303.504C339.455 304.944 338.975 307.056 337.919 307.632C337.727 307.728 337.535 307.824 337.247 307.824Z" fill="#407BFF"/>
<path d="M334.367 344.976C334.367 339.6 332.447 334.8 329.183 331.056C329.855 330.96 330.335 330.384 330.335 329.712C330.335 328.944 329.663 328.272 328.895 328.272H296.735C295.967 328.272 295.295 328.944 295.295 329.712C295.295 330.384 295.775 330.96 296.447 331.056C293.183 334.8 291.263 339.696 291.263 344.976C291.263 353.232 295.871 360.336 302.687 363.984C302.207 364.272 301.823 364.752 301.823 365.328C301.823 366.192 302.495 366.864 303.359 366.864H321.983C322.847 366.864 323.519 366.192 323.519 365.328C323.519 364.752 323.135 364.176 322.655 363.984C329.759 360.336 334.367 353.232 334.367 344.976Z" fill="#263238"/>
<defs>
<linearGradient id="paint0_linear_189_722" x1="85.9922" y1="354.912" x2="105.234" y2="354.912" gradientUnits="userSpaceOnUse">
<stop stop-color="#426180"/>
<stop offset="1" stop-color="#292343"/>
</linearGradient>
<linearGradient id="paint1_linear_189_722" x1="134.148" y1="332.242" x2="64.1944" y2="387.17" gradientUnits="userSpaceOnUse">
<stop stop-color="#9DFFBD"/>
<stop offset="1" stop-color="#86ABF3"/>
</linearGradient>
<linearGradient id="paint2_linear_189_722" x1="91.356" y1="333.027" x2="87.683" y2="365.082" gradientUnits="userSpaceOnUse">
<stop stop-color="#E19677"/>
<stop offset="1" stop-color="#D56156"/>
</linearGradient>
<linearGradient id="paint3_linear_189_722" x1="146.57" y1="348.063" x2="76.6167" y2="402.99" gradientUnits="userSpaceOnUse">
<stop stop-color="#9DFFBD"/>
<stop offset="1" stop-color="#86ABF3"/>
</linearGradient>
<linearGradient id="paint4_linear_189_722" x1="115.287" y1="355.422" x2="142.962" y2="355.422" gradientUnits="userSpaceOnUse">
<stop stop-color="#426180"/>
<stop offset="1" stop-color="#292343"/>
</linearGradient>
<linearGradient id="paint5_linear_189_722" x1="121.278" y1="336.455" x2="117.606" y2="368.51" gradientUnits="userSpaceOnUse">
<stop stop-color="#E19677"/>
<stop offset="1" stop-color="#D56156"/>
</linearGradient>
<linearGradient id="paint6_linear_189_722" x1="164.909" y1="189.873" x2="47.4351" y2="372.16" gradientUnits="userSpaceOnUse">
<stop stop-color="#3A2BD7"/>
<stop offset="1" stop-color="#90BED6"/>
</linearGradient>
<linearGradient id="paint7_linear_189_722" x1="99.0318" y1="238.822" x2="89.1815" y2="256.352" gradientUnits="userSpaceOnUse">
<stop stop-color="#426180"/>
<stop offset="1" stop-color="#292343"/>
</linearGradient>
<linearGradient id="paint8_linear_189_722" x1="53.9716" y1="77.7015" x2="97.4649" y2="130.02" gradientUnits="userSpaceOnUse">
<stop stop-color="#4F5D5B"/>
<stop offset="1" stop-color="#52648D"/>
</linearGradient>
<linearGradient id="paint9_linear_189_722" x1="-132.676" y1="-5.93164" x2="-89.7856" y2="18.8646" gradientUnits="userSpaceOnUse">
<stop stop-color="#E48CC2"/>
<stop offset="1" stop-color="#E9A9C6"/>
</linearGradient>
<linearGradient id="paint10_linear_189_722" x1="-125.368" y1="-24.3149" x2="-82.0657" y2="0.718879" gradientUnits="userSpaceOnUse">
<stop stop-color="#E48CC2"/>
<stop offset="1" stop-color="#E9A9C6"/>
</linearGradient>
<linearGradient id="paint11_linear_189_722" x1="27.6052" y1="99.2863" x2="70.8765" y2="151.336" gradientUnits="userSpaceOnUse">
<stop stop-color="#4F5D5B"/>
<stop offset="1" stop-color="#52648D"/>
</linearGradient>
<linearGradient id="paint12_linear_189_722" x1="20.7316" y1="103.937" x2="64.2044" y2="156.23" gradientUnits="userSpaceOnUse">
<stop stop-color="#4F5D5B"/>
<stop offset="1" stop-color="#52648D"/>
</linearGradient>
<linearGradient id="paint13_linear_189_722" x1="110.03" y1="126" x2="77.8938" y2="186.326" gradientUnits="userSpaceOnUse">
<stop stop-color="#E48CC2"/>
<stop offset="1" stop-color="#E9A9C6"/>
</linearGradient>
<linearGradient id="paint14_linear_189_722" x1="65.4148" y1="117.505" x2="129.328" y2="125.17" gradientUnits="userSpaceOnUse">
<stop stop-color="#E48CC2"/>
<stop offset="1" stop-color="#E9A9C6"/>
</linearGradient>
<linearGradient id="paint15_linear_189_722" x1="98.0259" y1="131.588" x2="124.886" y2="114.987" gradientUnits="userSpaceOnUse">
<stop stop-color="#4F5D5B"/>
<stop offset="1" stop-color="#52648D"/>
</linearGradient>
<linearGradient id="paint16_linear_189_722" x1="64.4779" y1="124.353" x2="128.469" y2="132.028" gradientUnits="userSpaceOnUse">
<stop stop-color="#E48CC2"/>
<stop offset="1" stop-color="#E9A9C6"/>
</linearGradient>
<linearGradient id="paint17_linear_189_722" x1="208.921" y1="51.6993" x2="186.197" y2="64.505" gradientUnits="userSpaceOnUse">
<stop stop-color="#E48CC2"/>
<stop offset="1" stop-color="#E9A9C6"/>
</linearGradient>
<linearGradient id="paint18_linear_189_722" x1="210.634" y1="51.1083" x2="187.614" y2="64.0813" gradientUnits="userSpaceOnUse">
<stop stop-color="#E48CC2"/>
<stop offset="1" stop-color="#E9A9C6"/>
</linearGradient>
<linearGradient id="paint19_linear_189_722" x1="17.7895" y1="107.362" x2="60.7355" y2="159.021" gradientUnits="userSpaceOnUse">
<stop stop-color="#4F5D5B"/>
<stop offset="1" stop-color="#52648D"/>
</linearGradient>
<linearGradient id="paint20_linear_189_722" x1="301.798" y1="303.189" x2="301.798" y2="338.858" gradientUnits="userSpaceOnUse">
<stop stop-color="#6260CA"/>
<stop offset="1" stop-color="#407BFF" stop-opacity="0"/>
</linearGradient>
<linearGradient id="paint21_linear_189_722" x1="316.112" y1="268.605" x2="316.112" y2="337.665" gradientUnits="userSpaceOnUse">
<stop stop-color="#8271E6"/>
<stop offset="0.416652" stop-color="#9C84F0"/>
<stop offset="1" stop-color="#C09EFF"/>
</linearGradient>
<linearGradient id="paint22_linear_189_722" x1="326.151" y1="288.091" x2="326.151" y2="338.078" gradientUnits="userSpaceOnUse">
<stop stop-color="#8171E6"/>
<stop offset="1" stop-color="#8371E7"/>
</linearGradient>
</defs>
</svg>
