<svg width="400" height="379" viewBox="0 0 400 379" fill="none" xmlns="http://www.w3.org/2000/svg">
<path opacity="0.1" d="M167.065 376.893C68.2112 361.925 -12.1278 268.454 2.47301 164.572C14.9159 75.9688 92.6033 7.02804 185.752 0.508174C192.502 0.0375495 199.32 -0.111674 206.207 0.0834626C258.171 1.58716 304.338 22.375 338.487 53.8265C372.475 85.1287 394.56 126.991 398.578 170.92C409.276 287.784 290.024 395.511 167.065 376.893Z" fill="url(#paint0_linear_59_690)"/>
<path d="M320.948 126.084C319.628 126.199 318.365 126.337 317.217 126.452C313.648 126.796 305.808 128.966 303.099 125.407C298.645 119.53 309.963 109.567 312.81 105.09C316.334 99.5573 320.707 93.3933 321.407 86.6668C322.486 76.4393 315.484 62.6075 306.841 57.27C294.914 49.9007 278.259 54.9169 267.549 62.1484C252.03 72.6284 241.125 89.9037 236.695 107.948C231.92 127.404 238.508 147.538 236.614 167.258C233.653 198.251 189.724 158.764 198.31 240.262C200.204 258.25 203.292 277.935 213.405 293.351C217.594 299.745 225.974 308.629 234.33 308.124C246.176 307.401 245.648 290.642 249.321 282.906C253.614 273.86 261.11 266.721 269.432 261.383C280.027 254.588 292.297 248.504 296.51 235.682C299.242 227.349 295.132 218.774 289.864 212.289C286.96 208.719 280.784 204.633 281.702 199.376C282.472 195.014 288.601 191.8 291.804 189.504C301.641 182.422 311.203 174.8 319.949 166.397C327.801 158.867 341.081 147.435 340.002 135.187C339.142 125.327 328.96 125.373 320.948 126.084Z" fill="url(#paint1_linear_59_690)"/>
<mask id="mask0_59_690" style="mask-type:luminance" maskUnits="userSpaceOnUse" x="197" y="53" width="144" height="256">
<path d="M320.948 126.084C319.628 126.199 318.365 126.337 317.217 126.452C313.648 126.796 305.808 128.966 303.099 125.407C298.645 119.53 309.963 109.567 312.81 105.09C316.334 99.5573 320.707 93.3933 321.407 86.6668C322.486 76.4393 315.484 62.6075 306.841 57.27C294.914 49.9007 278.259 54.9169 267.549 62.1484C252.03 72.6284 241.125 89.9037 236.695 107.948C231.92 127.404 238.508 147.538 236.614 167.258C233.653 198.251 189.724 158.764 198.31 240.262C200.204 258.25 203.292 277.935 213.405 293.351C217.594 299.745 225.974 308.629 234.33 308.124C246.176 307.401 245.648 290.642 249.321 282.906C253.614 273.86 261.11 266.721 269.432 261.383C280.027 254.588 292.297 248.504 296.51 235.682C299.242 227.349 295.132 218.774 289.864 212.289C286.96 208.719 280.784 204.633 281.702 199.376C282.472 195.014 288.601 191.8 291.804 189.504C301.641 182.422 311.203 174.8 319.949 166.397C327.801 158.867 341.081 147.435 340.002 135.187C339.142 125.327 328.96 125.373 320.948 126.084Z" fill="white"/>
</mask>
<g mask="url(#mask0_59_690)">
<g opacity="0.8">
<path d="M257.827 329.406C257.701 329.406 257.586 329.371 257.483 329.291C237.269 314.851 227.753 292.812 228.396 261.9C228.958 234.948 236.855 205.712 244.5 177.44C250.515 155.171 256.197 134.143 257.23 117.246C258.057 103.713 261.925 91.4305 268.72 80.7554C274.15 72.2153 281.461 64.6738 290.438 58.3491C305.704 47.5936 320.741 44.0123 320.891 43.9778C321.212 43.8975 321.533 44.1041 321.614 44.4255C321.694 44.7469 321.488 45.0683 321.166 45.1487C321.017 45.1831 306.175 48.7185 291.092 59.3477C277.214 69.139 260.283 87.149 258.435 117.315C257.391 134.326 251.697 155.424 245.66 177.75C230.623 233.398 213.588 296.462 258.183 328.315C258.458 328.51 258.516 328.889 258.321 329.153C258.206 329.325 258.022 329.406 257.827 329.406Z" fill="white"/>
<path d="M258.309 112.677C258.252 112.677 258.183 112.666 258.125 112.643C257.965 112.586 254.119 111.311 249.907 106.307C246.073 101.738 241.183 93.0604 239.725 77.5872C239.691 77.2544 239.932 76.9674 240.265 76.933C240.598 76.8985 240.885 77.1396 240.919 77.4725C242.342 92.5669 247.06 101.015 250.756 105.457C254.751 110.244 258.458 111.495 258.493 111.507C258.803 111.61 258.975 111.954 258.883 112.264C258.791 112.517 258.562 112.677 258.309 112.677Z" fill="white"/>
<path d="M252.294 150.442C251.984 150.442 251.732 150.213 251.697 149.903C251.663 149.57 251.904 149.283 252.237 149.248C252.34 149.237 262.648 148.123 276.158 142.166C288.613 136.668 306.428 125.798 320.523 105.239C320.707 104.964 321.086 104.895 321.361 105.079C321.637 105.262 321.706 105.641 321.522 105.917C307.254 126.727 289.221 137.724 276.606 143.279C262.935 149.306 252.466 150.431 252.363 150.442C252.34 150.442 252.317 150.442 252.294 150.442Z" fill="white"/>
<path d="M230.6 242.604C230.531 242.604 230.462 242.593 230.404 242.57C229.991 242.42 220.062 238.839 211.855 228.807C207.034 222.907 203.843 216.02 202.374 208.306C200.537 198.698 201.386 187.805 204.887 175.925C204.979 175.603 205.312 175.42 205.634 175.523C205.955 175.615 206.139 175.948 206.035 176.269C198.253 202.681 205.393 218.993 212.75 228.015C220.739 237.806 230.703 241.41 230.795 241.445C231.105 241.56 231.277 241.904 231.162 242.214C231.082 242.443 230.852 242.604 230.6 242.604Z" fill="white"/>
<path d="M234.101 222.321C233.802 222.321 233.55 222.103 233.504 221.793C233.458 221.46 233.687 221.162 234.02 221.116C234.502 221.047 282.208 214.573 293.904 196.517C294.088 196.242 294.455 196.161 294.731 196.345C295.006 196.529 295.087 196.896 294.903 197.172C289.852 204.966 278.087 211.566 259.916 216.789C246.452 220.657 234.284 222.287 234.169 222.298C234.146 222.321 234.124 222.321 234.101 222.321Z" fill="white"/>
</g>
</g>
<path d="M386.617 154.643C382.473 139.71 369.353 128.403 354.351 124.5C345.214 122.124 334.056 121.321 324.736 122.939C311.627 125.224 300.803 133.775 292.366 143.681C282.46 155.332 281.53 169.761 277.983 184.098C277.283 186.91 272.703 202.383 269.237 193.315C264.404 180.665 253.614 182.892 253.614 182.904C245.177 184.649 238.68 190.847 235.57 198.653C227.236 219.486 229.807 246.553 231.575 268.397C232.402 278.67 233.687 288.886 235.202 299.068C235.581 301.581 237.383 303.648 239.828 304.359C242.273 305.059 244.902 304.279 246.566 302.339C248.288 300.33 250.09 298.482 251.766 296.852C267.825 281.218 292.974 278.911 314.187 277.97C326.572 277.419 336.788 276.638 347.578 269.981C352.066 267.214 356.933 263.817 359.022 258.766C360.905 254.198 361.272 246.369 358.437 242.122C354.913 236.83 347.073 237.163 342.413 233.261C334.871 226.959 354.592 222.574 358.563 221.3C364.9 219.268 369.089 214.218 373.83 209.844C377.457 206.504 380.855 202.865 383.483 198.675C391.496 185.877 390.508 168.693 386.617 154.643Z" fill="url(#paint2_linear_59_690)"/>
<mask id="mask1_59_690" style="mask-type:luminance" maskUnits="userSpaceOnUse" x="229" y="122" width="161" height="183">
<path d="M386.617 154.643C382.473 139.71 369.353 128.403 354.351 124.5C345.214 122.124 334.056 121.321 324.736 122.939C311.627 125.224 300.803 133.775 292.366 143.681C282.46 155.332 281.53 169.761 277.983 184.098C277.283 186.91 272.703 202.383 269.237 193.315C264.404 180.665 253.614 182.892 253.614 182.904C245.177 184.649 238.68 190.847 235.57 198.653C227.236 219.486 229.807 246.553 231.575 268.397C232.402 278.67 233.687 288.886 235.202 299.068C235.581 301.581 237.383 303.648 239.828 304.359C242.273 305.059 244.902 304.279 246.566 302.339C248.288 300.33 250.09 298.482 251.766 296.852C267.825 281.218 292.974 278.911 314.187 277.97C326.572 277.419 336.788 276.638 347.578 269.981C352.066 267.214 356.933 263.817 359.022 258.766C360.905 254.198 361.272 246.369 358.437 242.122C354.913 236.83 347.073 237.163 342.413 233.261C334.871 226.959 354.592 222.574 358.563 221.3C364.9 219.268 369.089 214.218 373.83 209.844C377.457 206.504 380.855 202.865 383.483 198.675C391.496 185.877 390.508 168.693 386.617 154.643Z" fill="white"/>
</mask>
<g mask="url(#mask1_59_690)">
<g opacity="0.8">
<path d="M232.712 309.697C232.631 309.697 232.54 309.674 232.459 309.639C232.161 309.502 232.035 309.134 232.172 308.836C232.367 308.411 252.26 266.399 279.705 223.332C295.833 198.021 311.375 177.314 325.907 161.76C344.124 142.258 360.825 130.86 375.541 127.864C375.862 127.795 376.183 128.013 376.252 128.334C376.321 128.656 376.103 128.977 375.782 129.046C361.319 131.985 344.835 143.268 326.791 162.587C312.305 178.083 296.809 198.744 280.716 223.986C253.305 266.985 233.458 308.939 233.263 309.364C233.148 309.571 232.93 309.697 232.712 309.697Z" fill="white"/>
<path d="M304.178 189.458C304.143 189.458 304.109 189.458 304.086 189.447C303.753 189.389 303.535 189.091 303.592 188.758C303.684 188.195 312.534 131.984 303.741 122.492C303.512 122.251 303.535 121.872 303.776 121.642C304.017 121.413 304.396 121.436 304.625 121.677C313.808 131.583 305.153 186.611 304.775 188.941C304.729 189.24 304.465 189.458 304.178 189.458Z" fill="white"/>
<path d="M409.265 160.348C409.162 160.348 409.047 160.314 408.943 160.256C385.366 145.518 336.33 153.22 335.836 153.3C335.503 153.358 335.205 153.128 335.147 152.807C335.09 152.474 335.319 152.175 335.641 152.118C335.767 152.095 348.233 150.109 363.477 149.994C377.584 149.88 397.04 151.406 409.575 159.246C409.862 159.418 409.942 159.797 409.77 160.073C409.655 160.245 409.46 160.348 409.265 160.348Z" fill="white"/>
<path d="M252.489 271.324C252.443 271.324 252.397 271.324 252.352 271.312C252.03 271.232 251.824 270.911 251.904 270.589C258.332 242.788 234.215 202.245 233.974 201.844C233.802 201.557 233.894 201.189 234.181 201.017C234.468 200.845 234.835 200.937 235.007 201.224C235.065 201.327 241.24 211.635 246.52 225.271C251.41 237.898 256.507 256.057 253.086 270.853C253.017 271.14 252.765 271.324 252.489 271.324Z" fill="white"/>
<path d="M272.439 236.727C272.187 236.727 271.957 236.566 271.865 236.314C271.762 236.004 271.934 235.66 272.244 235.556C272.462 235.487 294.099 228.382 320.305 223.251C344.537 218.499 377.756 214.493 398.383 222.402C398.693 222.517 398.842 222.872 398.727 223.182C398.612 223.492 398.257 223.641 397.947 223.527C377.595 215.71 344.617 219.704 320.535 224.433C294.398 229.564 272.829 236.635 272.611 236.704C272.565 236.716 272.497 236.727 272.439 236.727Z" fill="white"/>
</g>
</g>
<path d="M102.245 53.769H76.4185V57.6718H102.245V53.769Z" fill="white"/>
<path d="M49.1337 53.769H29.1494V57.6718H49.1337V53.769Z" fill="white"/>
<path d="M172.908 53.769H152.441V57.6718H172.908V53.769Z" fill="#D8DEE8"/>
<path d="M241.137 53.769H220.67V57.6718H241.137V53.769Z" fill="white"/>
<path d="M108.582 63.9965H82.7546V164.871H108.582V63.9965Z" fill="#D8DEE8"/>
<path d="M82.7545 63.9965H69.1064V164.871H82.7545V63.9965Z" fill="#97A6B7"/>
<path d="M79.3455 48.8906H74.9607V69.8506H79.3455V48.8906Z" fill="#97A6B7"/>
<path d="M102.245 48.8906H97.8606V69.8506H102.245V48.8906Z" fill="#D8DEE8"/>
<path d="M249.425 63.9965H224.08V164.871H249.425V63.9965Z" fill="#D8DEE8"/>
<path d="M224.08 63.9965H210.432V164.871H224.08V63.9965Z" fill="#97A6B7"/>
<path d="M220.67 48.8906H215.792V69.8506H220.67V48.8906Z" fill="#97A6B7"/>
<path d="M243.582 48.8906H238.703V69.8506H243.582V48.8906Z" fill="#D8DEE8"/>
<path d="M181.677 63.9965H156.826V164.871H181.677V63.9965Z" fill="#D8DEE8"/>
<path d="M156.838 63.9965H142.214V164.871H156.838V63.9965Z" fill="#97A6B7"/>
<path d="M152.441 48.8906H148.057V69.8506H152.441V48.8906Z" fill="#97A6B7"/>
<path d="M175.353 48.8906H170.968V69.8506H175.353V48.8906Z" fill="#D8DEE8"/>
<path d="M55.4585 63.9965H34.0164V164.871H55.4585V63.9965Z" fill="#D8DEE8"/>
<path d="M34.0163 63.9965H22.3196V164.871H34.0163V63.9965Z" fill="#97A6B7"/>
<path d="M31.1007 48.8906H27.198V69.8506H31.1007V48.8906Z" fill="#97A6B7"/>
<path d="M51.085 48.8906H46.2065V69.8506H51.085V48.8906Z" fill="#D8DEE8"/>
<path d="M85.0964 353.499L22.7329 347.84V160.853L85.0964 157.57V353.499Z" fill="#D8DEE8"/>
<path d="M78.9551 164.607L20.3682 166.627V155.837L78.9551 153.518V164.607Z" fill="#97A6B7"/>
<path d="M78.9551 245.015L20.3682 244.82V234.03L78.9551 233.926V245.015Z" fill="#97A6B7"/>
<path d="M253.752 346.934L83.2024 353.614V156.377L253.752 159.671V346.934Z" fill="white"/>
<path d="M257.999 164.572L78.9551 164.366V152.761L257.999 153.576V164.572Z" fill="#D8DEE8"/>
<path d="M257.999 241.101L78.9551 245.175V234.03L257.999 230.54V241.101Z" fill="#D8DEE8"/>
<path d="M257.999 344.018L78.9551 353.844V351.984L257.999 342.262V344.018Z" fill="#D8DEE8"/>
<path d="M134.695 224.72L94.5432 225.409V175.948L134.695 175.844V224.72Z" fill="#D8DEE8"/>
<path d="M189.965 223.779L151.236 224.445V175.81L189.965 175.73V223.779Z" fill="#D8DEE8"/>
<path d="M243.823 222.861L206.035 223.504V175.684L243.823 175.592V222.861Z" fill="#D8DEE8"/>
<path d="M134.695 326.57L94.5432 328.476V279.485L134.695 278.153V326.57Z" fill="#D8DEE8"/>
<path d="M243.823 321.371L206.035 323.173V275.789L243.823 274.549V321.371Z" fill="#D8DEE8"/>
<path opacity="0.1" d="M83.2021 164.836C83.2021 164.836 117.546 169.462 132.331 192.305C146.989 214.952 180.07 205.471 208.882 211.394C237.2 217.213 254.062 231.045 254.062 231.045L83.1907 234.856V164.836H83.2021Z" fill="#97A6B7"/>
<path opacity="0.1" d="M83.2021 281.758C83.2021 281.758 117.546 285.213 132.331 307.562C146.989 329.704 180.07 319.109 208.882 324.045C237.2 328.901 254.062 342.17 254.062 342.17L83.1907 351.8V281.758H83.2021Z" fill="#97A6B7"/>
<path d="M189.965 336.97L151.236 338.967V268.523L189.965 267.352V336.97Z" fill="#E4E9F2"/>
<path d="M196.106 270.75L145.566 272.334V262.325L196.106 260.89V270.75Z" fill="#D8DEE8"/>
<path d="M200.835 336.419L140.836 339.507V333.572L200.835 330.599V336.419Z" fill="url(#paint3_linear_59_690)"/>
<path d="M206.506 341.917L134.225 345.786V339.84L206.506 336.109V341.917Z" fill="#D8DEE8"/>
<path d="M210.283 347.519L130.919 351.904V345.958L210.283 341.722V347.519Z" fill="url(#paint4_linear_59_690)"/>
<path d="M161.51 352.707V358.32C161.51 359.755 160.775 360.937 159.799 361.075L72.309 369.007C71.6548 369.099 71.012 369.076 70.3577 368.972C70.1855 368.938 70.0248 368.904 69.8526 368.869L8.88956 357.379C8.24675 357.207 7.76465 356.369 7.76465 355.382V349.459L72.4468 341.447L80.7688 337.51L89.0449 338.703L93.9348 337.762L105.104 341.011L161.51 352.707Z" fill="url(#paint5_linear_59_690)"/>
<path opacity="0.3" d="M161.51 352.707V358.32C161.51 359.755 160.775 360.938 159.799 361.075L72.309 369.007C71.6547 369.099 70.8512 369.076 70.3691 368.973V338.761L80.7803 337.487L89.0564 338.68L93.9463 337.739L105.115 340.988L161.51 352.707Z" fill="url(#paint6_linear_59_690)"/>
<path d="M93.9348 337.728L7.76465 349.16L69.9215 360.869C70.6906 361.064 71.4596 361.11 72.2287 361.006L161.498 352.707L93.9348 337.728Z" fill="url(#paint7_linear_59_690)"/>
<path d="M125.524 348.058C125.524 352.168 112.611 355.347 94.7842 356.185C90.2846 356.392 85.4751 356.449 80.4818 356.334C55.9405 355.772 36.2317 351.204 36.2317 346.153C36.2317 346.038 36.2432 345.786 36.2661 345.786H36.2317L36.335 345.545C36.358 345.464 36.3924 345.384 36.4268 345.303L42.0858 330.508L48.9156 312.658L58.4888 287.635L65.8121 268.488L74.9262 244.67C76.0626 241.686 78.1746 239.838 80.4589 239.838C80.7688 239.838 81.0787 239.872 81.3772 239.941C83.3056 240.366 85.0274 242.099 86.0146 244.682L95.1975 268.661L102.532 288.06L112.22 313.577L119.176 331.908L119.291 331.919L125.076 346.819C125.317 347.243 125.524 347.645 125.524 348.058Z" fill="url(#paint8_linear_59_690)"/>
<path d="M119.28 331.942C113.689 333.813 104.759 335.156 94.0725 335.65C89.768 335.857 85.1995 335.914 80.4588 335.834C63.9755 335.524 49.6731 333.4 42.0742 330.519L48.9155 312.67C56.9161 314.472 68.0733 315.689 80.4703 315.872C84.4763 315.93 88.3905 315.884 92.1096 315.734C99.938 315.425 106.848 314.678 112.278 313.611L119.165 331.942H119.28Z" fill="white"/>
<path d="M102.613 288.06C98.3426 288.519 93.6593 288.829 88.6891 288.978C86.026 289.058 83.2826 289.081 80.4818 289.058C72.4583 288.978 64.9512 288.461 58.4888 287.635L65.8121 268.489C70.3921 268.856 75.3279 269.062 80.4818 269.085C82.2955 269.097 84.0976 269.085 85.8538 269.051C89.0793 268.994 92.213 268.856 95.1975 268.661L102.613 288.06Z" fill="white"/>
<path opacity="0.2" d="M94.7842 356.174C90.2846 356.38 85.4751 356.438 80.4818 356.323C55.9405 355.761 36.2317 351.192 36.2317 346.141C36.2317 346.027 36.2432 345.774 36.2661 345.774H36.2317L36.335 345.533C36.358 345.453 36.3924 345.372 36.4268 345.292L42.0858 330.496L48.9156 312.647L58.4888 287.623L65.8121 268.477L74.9262 244.659C76.0626 241.674 78.1746 239.826 80.4589 239.826C80.7688 239.826 81.0787 239.861 81.3772 239.93C82.3529 245.99 84.0173 256.574 85.8538 269.039C86.7721 275.318 87.7478 282.079 88.6891 288.966C89.9058 297.885 91.0996 307.034 92.0982 315.712C92.9247 322.817 93.6249 329.589 94.1185 335.65C94.8416 344.42 95.1401 351.663 94.7842 356.174Z" fill="url(#paint9_linear_59_690)"/>
<path d="M87.8971 168.98C84.706 169.072 81.5838 168.269 78.8864 166.65C70.6562 161.714 58.5003 153.576 47.5611 142.912C33.6835 129.379 25.7058 115.628 23.9611 102.117L23.9381 101.911L23.6052 44.2763C23.6052 32.8895 31.0319 23.6377 44.9785 17.5655C56.503 12.5493 71.7811 10.0585 87.9086 10.5291C103.852 10.9882 118.614 14.2826 129.53 19.7694C142.512 26.2893 149.331 35.4492 149.331 46.308L149.021 101.371L148.998 101.578C147.402 114.514 140.068 127.875 127.097 141.397C116.697 152.244 104.943 160.83 96.8619 166.156C94.1759 167.901 91.0882 168.888 87.8971 168.98Z" fill="url(#paint10_linear_59_690)"/>
<path d="M91.0538 168.98C87.8972 169.072 84.8209 168.269 82.1578 166.65C74.0424 161.714 62.0358 153.576 51.2458 142.912C37.5518 129.379 29.6775 115.628 27.9557 102.117L27.9327 101.911L27.5999 44.2763C27.5999 32.8895 34.9347 23.6377 48.6976 17.5655C60.0729 12.5493 75.1444 10.0585 91.0653 10.5291C106.802 10.9882 121.369 14.2826 132.147 19.7694C144.957 26.2893 151.684 35.4492 151.684 46.308L151.374 101.371L151.351 101.578C149.778 114.514 142.535 127.875 129.737 141.397C119.475 152.244 107.87 160.83 99.9038 166.156C97.2637 167.901 94.2104 168.888 91.0538 168.98Z" fill="url(#paint11_linear_59_690)"/>
<path d="M31.3992 44.3107L31.732 101.647C35.5085 130.906 69.887 154.586 84.8667 163.585C89.1597 166.168 94.6465 166.007 98.905 163.206C113.563 153.553 146.071 129.264 149.537 101.141L149.847 46.2276C149.847 5.48996 31.3992 1.77088 31.3992 44.3107Z" fill="url(#paint12_linear_59_690)"/>
<path d="M91.903 154.758C91.6275 154.77 91.2143 154.724 90.7896 154.46C84.6255 150.729 72.6763 142.901 62.2766 132.696C51.0505 121.665 44.5651 110.933 43.0843 100.866L42.7515 44.4714C42.7629 39.065 47.0445 34.4276 55.4468 30.72C64.8249 26.5877 78.1286 24.4182 91.903 24.7396C105.54 25.061 118.465 27.8044 127.418 32.2467C135.338 36.1723 139.344 40.8097 139.356 46.0325L139.046 100.476C137.657 110.221 131.585 120.735 120.91 131.778C110.877 142.166 99.146 150.396 93.0164 154.402C92.6032 154.689 92.1785 154.747 91.903 154.758Z" fill="url(#paint13_linear_59_690)"/>
<path d="M90.5028 150.901C84.2813 147.067 73.2044 139.664 63.5394 130.148C52.9791 119.76 46.8724 109.796 45.4376 100.567L45.1162 44.5057C45.1277 40.6374 48.6861 37.0905 55.6536 34.0028C64.5266 30.0771 77.2564 27.9995 90.5028 28.2979C103.623 28.5963 115.985 31.179 124.48 35.3917C131.08 38.6631 134.42 42.2215 134.432 45.998L134.122 100.235C132.779 109.188 127.016 118.968 116.938 129.379C107.583 139.032 96.7012 146.803 90.5028 150.901Z" fill="url(#paint14_linear_59_690)"/>
<path d="M91.9145 352.099C83.1907 329.371 95.5073 292.135 103.267 275.249C125.88 226.052 167.432 224.388 201.501 223.022C234.961 221.679 267.262 220.393 290.908 258.123C306.347 282.779 320.558 328.005 311.088 352.087C301.124 377.421 273.472 357.792 207.688 357.436C135.327 357.081 102.808 380.474 91.9145 352.099Z" fill="url(#paint15_linear_59_690)"/>
<path d="M233.079 228.21C233.079 234.408 217.95 241.835 199.297 241.835C180.644 241.835 165.516 234.397 165.516 228.21C165.516 222.011 180.644 224.789 199.297 224.789C217.95 224.789 233.079 222.011 233.079 228.21Z" fill="url(#paint16_linear_59_690)"/>
<path d="M186.877 184.993C181.746 184.993 193.592 221.082 174.928 226.041C173.126 226.523 172.827 228.945 174.469 229.84C179.485 232.56 188.875 235.993 204.267 235.993C214.265 235.993 221.589 232.216 225.388 229.668C226.685 228.795 226.559 226.856 225.17 226.132C219.408 223.171 211.419 213.724 213.806 185.911L186.877 184.993Z" fill="url(#paint17_linear_59_690)"/>
<path d="M171.266 141.718C171.347 142.166 172.896 175.11 180.426 191.57C182.584 196.288 193.305 195.725 200.25 195.163C206.276 194.669 215.723 196.873 218.386 192.707C229.084 175.982 227.271 134.544 227.271 134.544C227.271 134.544 221.795 120.758 199.32 121.137C176.845 121.516 171.266 141.718 171.266 141.718Z" fill="url(#paint18_linear_59_690)"/>
<path d="M176.524 159.419C176.524 159.419 171.817 153.955 167.398 153.232C162.967 152.508 160.086 163.976 166.124 171.437C172.162 178.898 179.152 172.711 179.152 172.711L176.524 159.419Z" fill="url(#paint19_linear_59_690)"/>
<path d="M222.335 159.419C222.335 159.419 227.041 153.955 231.46 153.232C235.891 152.508 238.772 163.976 232.735 171.437C226.697 178.898 219.706 172.711 219.706 172.711L222.335 159.419Z" fill="url(#paint20_linear_59_690)"/>
<path d="M172.85 159.005C173.447 160.096 174.125 161.106 174.584 160.98C176.489 160.486 169.154 141.971 175.904 135.485C179.393 132.134 183.319 135.187 197.621 134.544C212.016 133.89 215.7 130.446 220.051 133.086C224.011 135.485 227.558 142.35 224.619 162.678C225.434 162.495 226.261 162.3 227.076 162.116C225.974 155.458 227.179 151.257 228.556 148.606C229.555 146.677 231.38 144.186 231.231 140.582C231.139 138.355 230.404 138.252 230.278 136.427C229.922 131.078 236.029 129.631 236.327 124.34C236.557 120.265 233.044 119.347 233.687 115.088C234.238 111.472 236.97 110.795 236.545 108.178C236.075 105.354 232.402 103.253 229.819 102.519C227.19 101.773 226.238 102.599 224.699 101.532C222.209 99.8099 223.402 96.7565 221.6 95.6316C218.398 93.6114 212.016 101.669 207.895 99.6606C205.404 98.4439 206.357 94.8281 204.153 93.9443C199.883 92.2454 192.341 104.206 189.311 102.611C187.853 101.853 189.253 98.9375 187.222 96.791C184.834 94.2772 179.083 94.2771 176.466 96.9402C174.021 99.4196 176.099 102.393 173.516 105.538C171.198 108.361 168.523 107.202 165.894 109.463C161.452 113.309 162.99 122.021 163.553 125.12C165.458 135.818 171.381 137.976 170.05 145.277C169.705 147.148 168.913 149.214 169.487 152.267C170.027 155.286 171.576 157.536 172.85 159.005Z" fill="url(#paint21_linear_59_690)"/>
<g opacity="0.3">
<path d="M227.546 135.899C227.018 130.641 231.093 128.197 230.416 124.443C229.865 121.424 226.456 118.715 223.253 118.141C216.424 116.902 212.004 126.968 205.209 125.878C199.952 125.04 200.537 118.692 194.614 116.144C185.213 112.103 175.376 124.432 169.12 121.011C167.238 119.989 165.344 117.349 165.206 110.198C161.625 114.319 163.025 122.228 163.553 125.166C165.458 135.864 171.381 138.022 170.05 145.323C169.705 147.194 168.913 149.26 169.487 152.313C170.038 155.298 171.588 157.559 172.862 159.017C173.459 160.107 174.136 161.117 174.595 160.991C176.501 160.497 169.166 141.982 175.915 135.497C179.405 132.145 183.331 135.198 197.633 134.556C212.027 133.901 215.712 130.458 220.062 133.098C224.022 135.497 227.569 142.361 224.631 162.69C225.446 162.506 226.272 162.311 227.087 162.127C225.985 155.47 227.191 151.269 228.568 148.617C228.981 147.825 229.532 146.93 230.026 145.908C229.922 144.152 229.624 142.235 229.004 140.215C228.247 137.827 227.719 137.598 227.546 135.899Z" fill="url(#paint22_linear_59_690)"/>
</g>
<path d="M202.156 296.014V366.149H135.442C132.549 366.149 130.185 363.819 130.15 360.926L129.599 319.052L128.532 238.208C128.52 237.175 129.094 236.222 130.001 235.751L133.571 233.915L137.382 231.952L162.508 222.643C164.414 221.943 166.537 222.781 167.433 224.606L201.605 293.661C201.972 294.384 202.156 295.199 202.156 296.014Z" fill="url(#paint23_linear_59_690)"/>
<path opacity="0.7" d="M134.914 309.307C134.937 310.983 134.409 312.635 133.398 313.967L129.576 319.041L128.508 238.196C128.497 237.163 129.071 236.211 129.978 235.74L133.548 233.903L134.914 309.307Z" fill="url(#paint24_linear_59_690)"/>
<path d="M202.155 320.337H130.024V338.852H202.155V320.337Z" fill="white"/>
<path d="M201.605 293.661L167.433 224.606C166.537 222.792 164.414 221.943 162.508 222.654L160.304 223.469C160.649 223.791 160.936 224.169 161.154 224.606L195.303 293.661C195.659 294.396 195.819 295.199 195.819 296.014V366.149H202.156V296.014C202.156 295.199 201.972 294.396 201.605 293.661Z" fill="#E4E9F2"/>
<path d="M202.156 296.014V366.149H268.904C271.796 366.149 274.161 363.819 274.195 360.926L274.746 319.052L275.814 238.208C275.825 237.175 275.251 236.222 274.345 235.751L270.775 233.915L266.964 231.952L241.837 222.643C239.932 221.943 237.808 222.78 236.913 224.606L202.718 293.661C202.351 294.384 202.156 295.199 202.156 296.014Z" fill="url(#paint25_linear_59_690)"/>
<path opacity="0.7" d="M269.42 309.307C269.397 310.983 269.925 312.635 270.936 313.967L274.758 319.041L275.825 238.196C275.837 237.163 275.263 236.211 274.356 235.74L270.786 233.903L269.42 309.307Z" fill="url(#paint26_linear_59_690)"/>
<path d="M274.769 320.337H202.155V338.852H274.769V320.337Z" fill="white"/>
<path d="M202.718 293.661L236.901 224.606C237.797 222.792 239.932 221.943 241.826 222.654L244.03 223.469C243.685 223.791 243.398 224.17 243.18 224.606L209.02 293.661C208.664 294.396 208.48 295.199 208.48 296.014V366.149H202.144V296.014C202.156 295.199 202.351 294.396 202.718 293.661Z" fill="#D5DAE0"/>
<path d="M175.789 175.316C175.697 175.133 175.468 175.075 175.295 175.167L175.077 175.282C174.894 175.374 174.836 175.603 174.928 175.775L181.253 187.587C181.345 187.771 181.574 187.828 181.746 187.736L181.964 187.621C182.148 187.53 182.206 187.3 182.114 187.128L175.789 175.316Z" fill="white"/>
<path d="M224.849 175.282L224.631 175.167C224.447 175.075 224.229 175.144 224.137 175.316L217.812 187.128C217.72 187.312 217.789 187.53 217.962 187.621L218.18 187.736C218.363 187.828 218.581 187.759 218.673 187.587L224.998 175.776C225.09 175.592 225.021 175.374 224.849 175.282Z" fill="white"/>
<path d="M222.036 174.8C222.036 175.064 222.025 175.316 222.013 175.569C222.14 179.311 221.175 182.536 219.798 185.222C217.961 189.424 215.229 192.706 212.475 194.026C212.44 194.049 212.394 194.061 212.36 194.072C212.13 194.176 211.901 194.268 211.683 194.348C211.51 194.463 211.407 194.532 211.407 194.532C211.407 194.532 211.212 194.543 210.856 194.566C208.319 195.105 203.992 195.186 199.791 195.105C195.59 195.186 191.262 195.105 188.725 194.566C188.369 194.543 188.174 194.532 188.174 194.532C188.174 194.532 188.071 194.463 187.899 194.348C187.738 194.29 187.589 194.233 187.428 194.164C187.325 194.118 187.21 194.072 187.107 194.026C184.352 192.706 181.723 189.424 179.887 185.222C178.498 182.536 177.293 179.311 177.775 175.569V175.477C177.775 175.351 177.729 175.213 177.694 175.087C177.671 174.995 177.648 174.903 177.648 174.811C177.648 173.79 177.648 172.768 177.775 171.746C177.855 171.161 178.222 170.667 178.773 170.449C185.81 167.706 193.179 166.948 199.791 167.121C206.402 166.96 213.772 167.706 220.82 170.449C221.371 170.667 221.761 171.161 221.841 171.746C221.956 172.688 222.013 173.629 222.013 174.57C222.036 174.639 222.036 174.719 222.036 174.8Z" fill="white"/>
<path opacity="0.3" d="M222.037 174.8C222.037 175.064 222.025 175.316 222.014 175.569C222.14 179.311 221.176 182.536 219.798 185.222C217.962 189.424 215.23 192.706 212.475 194.027C212.44 194.049 212.395 194.061 212.36 194.072C206.931 194.52 194.27 194.336 187.44 194.164C187.337 194.118 187.222 194.072 187.119 194.027C184.364 192.706 181.735 189.424 179.898 185.222C178.51 182.536 177.304 179.311 177.786 175.569V175.477C177.786 175.374 177.683 175.259 177.695 175.156L177.66 175.144C177.683 175.121 177.695 175.11 177.718 175.087C178.429 174.341 179.313 173.801 180.323 173.526C185.041 172.229 203.2 167.947 220.315 173.87L222.048 174.582C222.037 174.639 222.037 174.719 222.037 174.8Z" fill="url(#paint27_linear_59_690)"/>
<path d="M197.61 180.952C185.42 180.952 179.336 179.609 179.244 179.598C179.095 179.563 179.003 179.414 179.038 179.265C179.072 179.116 179.221 179.024 179.37 179.058C179.508 179.093 193.099 182.077 220.59 179.058C220.739 179.047 220.877 179.15 220.9 179.299C220.912 179.449 220.808 179.586 220.659 179.609C211.419 180.619 203.74 180.952 197.61 180.952Z" fill="white"/>
<path d="M198.804 188.195C188.989 188.195 184.1 186.852 184.019 186.829C183.87 186.784 183.79 186.634 183.824 186.485C183.87 186.336 184.019 186.255 184.168 186.29C184.272 186.324 195.188 189.297 217.238 186.278C217.388 186.255 217.525 186.359 217.548 186.52C217.571 186.669 217.468 186.818 217.307 186.829C209.904 187.863 203.728 188.195 198.804 188.195Z" fill="white"/>
<path d="M179.451 171.356C179.255 171.356 179.072 171.253 178.968 171.069L171.45 157.743C171.301 157.479 171.392 157.134 171.657 156.985C171.921 156.836 172.265 156.928 172.414 157.192L179.933 170.518C180.082 170.782 179.99 171.127 179.726 171.276C179.634 171.333 179.542 171.356 179.451 171.356Z" fill="white"/>
<path d="M220.992 172.757C220.957 172.757 220.923 172.757 220.889 172.745C220.59 172.688 220.395 172.389 220.452 172.091L223.414 157.077C223.471 156.778 223.77 156.583 224.068 156.641C224.367 156.698 224.562 156.996 224.504 157.295L221.543 172.309C221.485 172.573 221.256 172.757 220.992 172.757Z" fill="white"/>
<path d="M169.086 152.703C168.259 152.703 168.041 153.346 168.041 154.173V156.434C168.041 157.261 168.259 157.582 169.086 157.582H171.45V152.703H169.086Z" fill="url(#paint28_linear_59_690)"/>
<path d="M228.43 152.703C229.256 152.703 229.934 153.346 229.934 154.173V156.434C229.934 157.261 229.256 157.582 228.43 157.582H226.031V152.703H228.43Z" fill="url(#paint29_linear_59_690)"/>
<path d="M226.525 151.269V158.179C226.525 160.819 225.228 163.183 223.253 164.687C222.117 165.56 220.705 166.133 219.19 166.306L212.704 167.029C209.387 167.396 206.081 166.317 203.843 163.838L200.216 159.992H197.885L194.27 163.838C192.031 166.317 188.737 167.476 185.42 167.109L178.831 166.34C174.699 165.869 171.462 162.334 171.462 158.167V151.269C171.462 150.568 171.852 149.903 172.357 149.421C172.862 148.938 173.597 148.686 174.297 148.72L199.033 149.765L223.758 148.72C224.459 148.686 225.193 148.938 225.698 149.421C226.18 149.903 226.525 150.58 226.525 151.269Z" fill="url(#paint30_linear_59_690)"/>
<path opacity="0.5" d="M223.207 164.687C222.071 165.559 220.682 166.133 219.167 166.306L212.693 167.029C209.376 167.396 206.081 166.317 203.843 163.838L200.227 159.992H197.897L194.281 163.838C192.043 166.317 188.748 167.476 185.431 167.109L178.842 166.34C174.71 165.869 171.473 162.334 171.473 158.167V151.544C173.907 153.277 177.683 154.77 183.422 154.988C197.484 155.562 216.435 149.145 223.207 164.687Z" fill="white"/>
<path d="M212.004 167.832C208.848 167.832 206.001 166.673 203.981 164.435L200.548 160.98H198.712L195.188 164.458C193.271 166.593 190.436 167.74 187.233 167.74C186.751 167.74 186.269 167.695 185.787 167.637L179.106 166.902C174.584 166.397 170.968 162.564 170.968 158.19V151.269C170.968 150.545 171.439 149.799 172.277 148.996C172.942 148.353 174.102 148.089 174.894 148.123L199.584 149.179L224.309 148.123C225.078 148.123 225.721 148.399 226.341 148.996C227.018 149.65 227.018 150.488 227.018 151.246V158.179C227.018 162.782 223.873 166.466 219.534 166.948L213.359 167.752C212.888 167.809 212.452 167.832 212.004 167.832ZM198.218 160.004H201.042L204.83 163.734C206.644 165.743 209.18 166.753 212.004 166.753C212.394 166.753 212.796 166.684 213.198 166.638L219.477 165.824C223.23 165.399 226.031 162.173 226.031 158.179V151.269C226.031 150.557 225.916 150.132 225.618 149.834C225.216 149.443 224.803 149.283 224.344 149.283H224.24L199.596 150.339L174.779 149.283C174.171 149.283 173.551 149.524 173.218 149.834C172.483 150.534 172.414 150.993 172.414 151.269V158.179C172.414 161.967 175.422 165.284 179.359 165.72L185.936 166.443C186.372 166.489 186.797 166.512 187.233 166.512C190.103 166.512 192.617 165.628 194.339 163.734L198.218 160.004Z" fill="url(#paint31_linear_59_690)"/>
<path d="M227.867 82.6838H171.794C165.871 82.6838 161.073 87.4819 161.073 93.4049V131.261H238.588V93.4049C238.588 87.4819 233.79 82.6838 227.867 82.6838Z" fill="url(#paint32_linear_59_690)"/>
<path d="M210.615 131.261H189.058V79.7108C189.058 78.6432 189.919 77.7823 190.987 77.7823H208.698C209.766 77.7823 210.626 78.6432 210.626 79.7108V131.261H210.615Z" fill="url(#paint33_linear_59_690)"/>
<path d="M241.7 140.088H157.974C157.263 140.088 156.677 139.503 156.677 138.791V132.007C156.677 131.296 157.263 130.71 157.974 130.71H241.7C242.411 130.71 242.997 131.296 242.997 132.007V138.791C242.997 139.503 242.411 140.088 241.7 140.088Z" fill="url(#paint34_linear_59_690)"/>
<path d="M162.256 139.537C163.874 146.941 180.082 152.761 199.837 152.761C219.591 152.761 235.799 146.941 237.418 139.537H162.256Z" fill="url(#paint35_linear_59_690)"/>
<path d="M233.331 369.076C229.383 369.076 225.709 367.021 223.747 363.612C221.772 360.191 221.772 355.99 223.747 352.569L298.232 223.561C300.206 220.14 303.879 218.028 307.816 218.028C311.765 218.028 315.438 220.152 317.401 223.572L391.886 352.592C393.86 356.013 393.86 360.18 391.886 363.6C389.911 367.01 386.238 369.064 382.301 369.064H233.331V369.076Z" fill="url(#paint36_linear_59_690)"/>
<path d="M387.742 361.42C386.617 363.36 384.551 364.691 382.313 364.691H233.331C231.093 364.691 229.027 363.36 227.902 361.42C226.777 359.48 226.777 357.023 227.902 355.083L302.387 226.018C303.305 224.434 304.855 223.32 306.623 222.976C307.013 222.895 307.415 222.849 307.828 222.849C310.066 222.849 312.144 224.043 313.257 225.983L387.742 355.072C388.867 357.012 388.867 359.48 387.742 361.42Z" fill="url(#paint37_linear_59_690)"/>
<path opacity="0.3" d="M304.338 349.62C288.394 356.231 277.662 359.824 270.958 364.691H233.331C231.093 364.691 229.027 363.359 227.902 361.42C226.777 359.48 226.777 357.023 227.902 355.083L302.387 226.018C303.305 224.433 304.855 223.32 306.623 222.976C300.091 235.866 291.092 262.554 313.406 283.973C344.02 313.381 340.312 334.686 304.338 349.62Z" fill="url(#paint38_linear_59_690)"/>
<path d="M311.03 316.595L304.533 316.435C302.72 316.389 301.227 314.839 301.136 313.026L298.76 267.295C298.714 266.353 299.047 265.573 299.701 264.942C300.344 264.299 301.239 264.104 302.18 264.161L313.36 264.942C314.279 265.01 315.151 265.309 315.782 266.021C316.414 266.732 316.735 267.593 316.689 268.511L314.382 313.416C314.279 315.218 312.809 316.641 311.03 316.595Z" fill="white"/>
<path d="M301.009 327.776C302.628 326.226 304.912 325.48 307.839 325.526C310.858 325.572 313.154 326.375 314.726 327.913C316.287 329.452 317.068 331.701 317.068 334.663C317.068 337.521 316.265 339.725 314.669 341.298C313.062 342.87 310.789 343.651 307.839 343.651C304.947 343.651 302.674 342.836 301.032 341.206C299.391 339.576 298.564 337.337 298.564 334.514C298.576 331.575 299.391 329.325 301.009 327.776Z" fill="white"/>
<g opacity="0.8">
<path d="M120.531 54.2397L119.062 52.4949L123.435 50.1533L103.152 43.2891L110.016 62.952L112.519 59.6691C112.519 59.6691 125.65 82.7641 112.519 96.814C99.479 110.761 84.1206 107.742 84.1206 107.742L87.0821 117.418C87.0821 117.418 111.268 119.14 124.227 97.2846C137.163 75.4407 120.531 54.2397 120.531 54.2397Z" fill="white"/>
</g>
<g opacity="0.8">
<path d="M59.694 102.714L61.1632 104.459L56.7899 106.8L77.0726 113.665L70.2084 94.0016L67.706 97.2845C67.706 97.2845 54.5745 74.1895 67.706 60.1396C80.7573 46.1816 96.1157 49.2119 96.1157 49.2119L93.1542 39.5354C93.1542 39.5354 68.9687 37.8136 56.0093 59.669C43.0614 81.5128 59.694 102.714 59.694 102.714Z" fill="white"/>
</g>
<defs>
<linearGradient id="paint0_linear_59_690" x1="0.75025" y1="189.503" x2="399.245" y2="189.503" gradientUnits="userSpaceOnUse">
<stop offset="0.003597" stop-color="#26264F"/>
<stop offset="1" stop-color="#444B8C"/>
</linearGradient>
<linearGradient id="paint1_linear_59_690" x1="297.346" y1="-46.1511" x2="188.368" y2="797.548" gradientUnits="userSpaceOnUse">
<stop stop-color="#FF9085"/>
<stop offset="1" stop-color="#FB6FBB"/>
</linearGradient>
<linearGradient id="paint2_linear_59_690" x1="329.809" y1="46.3044" x2="248.747" y2="673.88" gradientUnits="userSpaceOnUse">
<stop offset="0.00359712" stop-color="#E38DDD"/>
<stop offset="1" stop-color="#9571F6"/>
</linearGradient>
<linearGradient id="paint3_linear_59_690" x1="140.838" y1="335.048" x2="200.835" y2="335.048" gradientUnits="userSpaceOnUse">
<stop offset="0.494" stop-color="#EBEFF2"/>
<stop offset="1" stop-color="white"/>
</linearGradient>
<linearGradient id="paint4_linear_59_690" x1="130.917" y1="346.81" x2="210.284" y2="346.81" gradientUnits="userSpaceOnUse">
<stop offset="0.494" stop-color="#EBEFF2"/>
<stop offset="1" stop-color="white"/>
</linearGradient>
<linearGradient id="paint5_linear_59_690" x1="7.76597" y1="353.258" x2="161.504" y2="353.258" gradientUnits="userSpaceOnUse">
<stop stop-color="#FFC444"/>
<stop offset="0.9964" stop-color="#F36F56"/>
</linearGradient>
<linearGradient id="paint6_linear_59_690" x1="122.588" y1="330.532" x2="96.6036" y2="402.152" gradientUnits="userSpaceOnUse">
<stop stop-color="#FFC444"/>
<stop offset="0.5917" stop-color="#F8924F"/>
<stop offset="0.9964" stop-color="#F36F56"/>
</linearGradient>
<linearGradient id="paint7_linear_59_690" x1="95.7429" y1="320.315" x2="68.2184" y2="396.181" gradientUnits="userSpaceOnUse">
<stop stop-color="#FFC444"/>
<stop offset="0.5917" stop-color="#F8924F"/>
<stop offset="0.9964" stop-color="#F36F56"/>
</linearGradient>
<linearGradient id="paint8_linear_59_690" x1="85.1913" y1="206.37" x2="79.5967" y2="388.546" gradientUnits="userSpaceOnUse">
<stop stop-color="#FFC444"/>
<stop offset="0.9964" stop-color="#F36F56"/>
</linearGradient>
<linearGradient id="paint9_linear_59_690" x1="36.2247" y1="298.113" x2="94.9368" y2="298.113" gradientUnits="userSpaceOnUse">
<stop stop-color="#FFC444"/>
<stop offset="0.9964" stop-color="#F36F56"/>
</linearGradient>
<linearGradient id="paint10_linear_59_690" x1="160.201" y1="6.11146" x2="123.962" y2="40.9426" gradientUnits="userSpaceOnUse">
<stop stop-color="#AA80F9"/>
<stop offset="0.9964" stop-color="#6165D7"/>
</linearGradient>
<linearGradient id="paint11_linear_59_690" x1="52.4944" y1="14.0482" x2="175.677" y2="215.522" gradientUnits="userSpaceOnUse">
<stop stop-color="#AA80F9"/>
<stop offset="0.9964" stop-color="#6165D7"/>
</linearGradient>
<linearGradient id="paint12_linear_59_690" x1="117.813" y1="128.759" x2="17.7709" y2="-72.4054" gradientUnits="userSpaceOnUse">
<stop stop-color="#AA80F9"/>
<stop offset="0.9964" stop-color="#6165D7"/>
</linearGradient>
<linearGradient id="paint13_linear_59_690" x1="42.7582" y1="89.7338" x2="139.355" y2="89.7338" gradientUnits="userSpaceOnUse">
<stop offset="0.003597" stop-color="#26264F"/>
<stop offset="1" stop-color="#444B8C"/>
</linearGradient>
<linearGradient id="paint14_linear_59_690" x1="106.571" y1="163.686" x2="78.6807" y2="11.6861" gradientUnits="userSpaceOnUse">
<stop stop-color="#AA80F9"/>
<stop offset="0.9964" stop-color="#6165D7"/>
</linearGradient>
<linearGradient id="paint15_linear_59_690" x1="88.9124" y1="294.352" x2="314.124" y2="294.352" gradientUnits="userSpaceOnUse">
<stop stop-color="#AA80F9"/>
<stop offset="0.9964" stop-color="#6165D7"/>
</linearGradient>
<linearGradient id="paint16_linear_59_690" x1="199.563" y1="244.503" x2="198.704" y2="192.088" gradientUnits="userSpaceOnUse">
<stop stop-color="#AA80F9"/>
<stop offset="0.9964" stop-color="#6165D7"/>
</linearGradient>
<linearGradient id="paint17_linear_59_690" x1="199.971" y1="249.928" x2="199.684" y2="204.079" gradientUnits="userSpaceOnUse">
<stop stop-color="#AB316D"/>
<stop offset="1" stop-color="#792D3D"/>
</linearGradient>
<linearGradient id="paint18_linear_59_690" x1="196.169" y1="184.321" x2="203.616" y2="94.6714" gradientUnits="userSpaceOnUse">
<stop stop-color="#AB316D"/>
<stop offset="1" stop-color="#792D3D"/>
</linearGradient>
<linearGradient id="paint19_linear_59_690" x1="169.641" y1="182.118" x2="177.088" y2="92.4681" gradientUnits="userSpaceOnUse">
<stop stop-color="#AB316D"/>
<stop offset="1" stop-color="#792D3D"/>
</linearGradient>
<linearGradient id="paint20_linear_59_690" x1="226.332" y1="186.827" x2="233.779" y2="97.1772" gradientUnits="userSpaceOnUse">
<stop stop-color="#AB316D"/>
<stop offset="1" stop-color="#792D3D"/>
</linearGradient>
<linearGradient id="paint21_linear_59_690" x1="194.201" y1="141.097" x2="213.964" y2="79.8026" gradientUnits="userSpaceOnUse">
<stop stop-color="#311944"/>
<stop offset="1" stop-color="#6B3976"/>
</linearGradient>
<linearGradient id="paint22_linear_59_690" x1="194.202" y1="141.097" x2="213.965" y2="79.8031" gradientUnits="userSpaceOnUse">
<stop stop-color="#311944"/>
<stop offset="1" stop-color="#6B3976"/>
</linearGradient>
<linearGradient id="paint23_linear_59_690" x1="128.518" y1="294.276" x2="202.152" y2="294.276" gradientUnits="userSpaceOnUse">
<stop stop-color="#FFC444"/>
<stop offset="0.9964" stop-color="#F36F56"/>
</linearGradient>
<linearGradient id="paint24_linear_59_690" x1="128.518" y1="276.485" x2="134.92" y2="276.485" gradientUnits="userSpaceOnUse">
<stop stop-color="#FFC444"/>
<stop offset="0.9964" stop-color="#F36F56"/>
</linearGradient>
<linearGradient id="paint25_linear_59_690" x1="275.819" y1="294.276" x2="202.152" y2="294.276" gradientUnits="userSpaceOnUse">
<stop stop-color="#FFC444"/>
<stop offset="0.9964" stop-color="#F36F56"/>
</linearGradient>
<linearGradient id="paint26_linear_59_690" x1="275.819" y1="276.485" x2="269.417" y2="276.485" gradientUnits="userSpaceOnUse">
<stop stop-color="#FFC444"/>
<stop offset="0.9964" stop-color="#F36F56"/>
</linearGradient>
<linearGradient id="paint27_linear_59_690" x1="205.26" y1="260.75" x2="200.43" y2="185.143" gradientUnits="userSpaceOnUse">
<stop offset="0.003597" stop-color="#6165D7"/>
<stop offset="1" stop-color="#AA80F9"/>
</linearGradient>
<linearGradient id="paint28_linear_59_690" x1="168.038" y1="155.135" x2="171.45" y2="155.135" gradientUnits="userSpaceOnUse">
<stop offset="0.003597" stop-color="#26264F"/>
<stop offset="1" stop-color="#444B8C"/>
</linearGradient>
<linearGradient id="paint29_linear_59_690" x1="229.93" y1="155.135" x2="226.032" y2="155.135" gradientUnits="userSpaceOnUse">
<stop offset="0.003597" stop-color="#26264F"/>
<stop offset="1" stop-color="#444B8C"/>
</linearGradient>
<linearGradient id="paint30_linear_59_690" x1="219.923" y1="120.333" x2="62.1882" y2="385.561" gradientUnits="userSpaceOnUse">
<stop stop-color="#AA80F9"/>
<stop offset="0.9964" stop-color="#6165D7"/>
</linearGradient>
<linearGradient id="paint31_linear_59_690" x1="170.962" y1="157.982" x2="227.006" y2="157.982" gradientUnits="userSpaceOnUse">
<stop offset="0.003597" stop-color="#26264F"/>
<stop offset="1" stop-color="#444B8C"/>
</linearGradient>
<linearGradient id="paint32_linear_59_690" x1="173.467" y1="40.2928" x2="223.941" y2="176.354" gradientUnits="userSpaceOnUse">
<stop stop-color="#FFC444"/>
<stop offset="0.9964" stop-color="#F36F56"/>
</linearGradient>
<linearGradient id="paint33_linear_59_690" x1="192.347" y1="83.3488" x2="230.967" y2="196.734" gradientUnits="userSpaceOnUse">
<stop stop-color="#FFC444"/>
<stop offset="0.9964" stop-color="#F36F56"/>
</linearGradient>
<linearGradient id="paint34_linear_59_690" x1="156.675" y1="135.394" x2="242.993" y2="135.394" gradientUnits="userSpaceOnUse">
<stop stop-color="#FFC444"/>
<stop offset="0.9964" stop-color="#F36F56"/>
</linearGradient>
<linearGradient id="paint35_linear_59_690" x1="189.325" y1="111.29" x2="211.697" y2="171.596" gradientUnits="userSpaceOnUse">
<stop stop-color="#FFC444"/>
<stop offset="0.9964" stop-color="#F36F56"/>
</linearGradient>
<linearGradient id="paint36_linear_59_690" x1="222.264" y1="293.557" x2="393.382" y2="293.557" gradientUnits="userSpaceOnUse">
<stop offset="0.003597" stop-color="#26264F"/>
<stop offset="1" stop-color="#444B8C"/>
</linearGradient>
<linearGradient id="paint37_linear_59_690" x1="227.063" y1="293.774" x2="388.584" y2="293.774" gradientUnits="userSpaceOnUse">
<stop stop-color="#FCB148"/>
<stop offset="0.0520724" stop-color="#FDBA46"/>
<stop offset="0.1424" stop-color="#FFC244"/>
<stop offset="0.3183" stop-color="#FFC444"/>
<stop offset="0.4849" stop-color="#FDB946"/>
<stop offset="0.7754" stop-color="#F99C4D"/>
<stop offset="0.8658" stop-color="#F8924F"/>
<stop offset="1" stop-color="#F8924F"/>
</linearGradient>
<linearGradient id="paint38_linear_59_690" x1="227.063" y1="293.837" x2="334.071" y2="293.837" gradientUnits="userSpaceOnUse">
<stop stop-color="#FCB148"/>
<stop offset="0.0520724" stop-color="#FDBA46"/>
<stop offset="0.1424" stop-color="#FFC244"/>
<stop offset="0.3183" stop-color="#FFC444"/>
<stop offset="0.4849" stop-color="#FDB946"/>
<stop offset="0.7754" stop-color="#F99C4D"/>
<stop offset="0.8658" stop-color="#F8924F"/>
<stop offset="1" stop-color="#F8924F"/>
</linearGradient>
</defs>
</svg>
