<svg width="381" height="384" viewBox="0 0 381 384" fill="none" xmlns="http://www.w3.org/2000/svg">
<path opacity="0.05" d="M347.331 87.1644C334.683 67.5849 321.057 54.7547 312.582 47.6388C253.399 -2.06474 180.815 4.5013 169.104 5.74119C167.888 5.87057 166.512 6.01073 164.662 6.24793C88.9487 16.1671 41.5634 86.5822 35.9387 95.2075C-11.5219 167.898 -14.5439 285.234 47.5645 341.482C49.9951 343.682 52.4579 345.72 54.953 347.628C57.7923 347.251 60.61 346.97 63.3095 346.809C83.0874 345.623 84.7544 351.434 108.963 352.534C133.581 353.655 138.571 347.951 162.769 350.895C167.082 351.423 192.581 354.528 192.936 360.706C193.216 365.601 177.664 372.124 162.769 373.784C137.022 376.641 129.537 363.164 104.07 366.431C100.983 366.83 98.6172 367.348 96.6598 367.93C111.448 372.296 127.322 375.057 144.4 378.248C167.759 382.604 243.311 395.358 309.399 351.121C316.174 346.582 325.025 340.577 334.92 330.356C393.705 269.59 393.555 158.733 347.331 87.1644Z" fill="black"/>
<path opacity="0.1" d="M192.936 360.695C192.581 354.517 167.082 351.412 162.769 350.884C138.571 347.941 133.581 353.633 108.963 352.523C84.7543 351.423 83.0873 345.612 63.3094 346.798C60.61 346.96 57.7922 347.24 54.953 347.617C39.1005 349.741 22.6136 355.035 22.549 360.685C22.463 368.027 49.9843 378.356 76.3549 374.582C87.7979 372.943 89.7015 369.989 96.6598 367.908C98.6171 367.326 100.983 366.809 104.07 366.41C129.537 363.143 137.022 376.631 162.769 373.763C177.664 372.124 193.226 365.601 192.936 360.695Z" fill="black"/>
<path d="M220.221 292.404C145.648 305.245 122.718 295.294 115.943 283.348C112.007 276.404 111.598 265.375 100.37 251.456C90.906 239.725 85.4641 240.447 81.4096 231.445C74.376 215.844 87.7872 207.067 82.3238 191.952C76.3441 175.402 57.5126 178.313 49.3498 158.55C44.8866 147.736 50.1241 145.914 46.1557 135.143C38.0574 113.181 14.1926 115.089 6.25565 95.283C1.64188 83.7574 4.01867 68.8356 11.6115 60.0485C26.8402 42.4205 63.3202 49.1806 83.9477 65.5256C86.6041 67.628 106.608 83.9407 108.544 108.081C109.716 122.647 103.457 129.439 108.608 138.313C115.889 150.83 132.365 144.221 139.603 155.337C149.412 170.399 126.149 193.278 137.356 210.226C141.69 216.792 146.282 215.024 150.616 222.561C157.747 234.949 149.433 246.83 151.079 257.137C152.821 268.221 166.738 281.741 220.221 292.404Z" fill="url(#paint0_linear_54698_37384)"/>
<path opacity="0.28" d="M82.27 99.9515C91.9492 122.334 76.172 136.48 87.5075 154.14C96.7135 168.48 111.222 165.547 115.19 178.895C118.997 191.693 106.705 197.871 110.06 212.491C112.835 224.534 122.159 224.598 131.484 240.178C140.862 255.865 137.076 265.267 141.894 274.841C147.067 285.127 161.747 294.766 201.239 295.337C207.164 294.528 213.478 293.558 220.221 292.404C166.738 281.741 152.821 268.221 151.068 257.137C149.422 246.819 157.736 234.949 150.605 222.561C146.271 215.024 141.679 216.792 137.345 210.226C126.138 193.278 149.401 170.399 139.593 155.337C132.355 144.221 115.878 150.83 108.598 138.313C103.435 129.439 109.694 122.647 108.533 108.081C106.597 83.9299 86.5934 67.628 83.9369 65.5256C63.3094 49.1806 26.8401 42.4205 11.6007 60.0485C11.5254 60.1348 11.4609 60.221 11.3856 60.3073C21.5703 60.6739 34.0566 62.7547 46.9945 68.9326C57.0286 73.7305 74.5588 82.1078 82.27 99.9515Z" fill="white"/>
<path d="M196.227 300.124C171.007 293.698 163.845 285.892 162.737 279.348C160.919 268.642 175.46 262.032 173.513 249.827C171.276 235.768 150.122 232.846 150.767 223.606C151.477 213.612 176.374 214.334 181.515 199.951C186.171 186.916 168.211 179.326 168.351 160.383C168.512 137.774 194.237 132.458 198.754 106.722C201.841 89.1482 192.904 74.2049 185.892 62.4744C170.115 36.0916 137.7 10.442 101.016 13.0404C96.0146 13.3962 66.8155 15.4663 59.5776 32.6307C52.2644 50.0323 69.7623 77.5903 87.6689 92.1887C100.65 102.776 111.523 104.663 112.104 112.997C112.878 124.232 93.627 128.34 91.7987 144.706C90.8308 153.364 95.2617 160.749 99.6174 168.027C109.49 184.512 119.116 183.898 120.525 193.03C122.46 205.526 105.049 210.636 101.177 229.332C98.4236 242.658 104.328 254.27 107.651 260.803C120.621 286.313 155.542 300.911 196.227 300.124Z" fill="url(#paint1_linear_54698_37384)"/>
<mask id="mask0_54698_37384" style="mask-type:luminance" maskUnits="userSpaceOnUse" x="57" y="12" width="143" height="289">
<path d="M196.227 300.124C171.007 293.698 163.845 285.892 162.737 279.348C160.919 268.642 175.46 262.032 173.513 249.827C171.276 235.768 150.122 232.846 150.767 223.606C151.477 213.612 176.374 214.334 181.515 199.951C186.171 186.916 168.211 179.326 168.351 160.383C168.512 137.774 194.237 132.458 198.754 106.722C201.841 89.1482 192.904 74.2049 185.892 62.4744C170.115 36.0916 137.7 10.442 101.016 13.0404C96.0146 13.3962 66.8155 15.4663 59.5776 32.6307C52.2644 50.0323 69.7623 77.5903 87.6689 92.1887C100.65 102.776 111.523 104.663 112.104 112.997C112.878 124.232 93.627 128.34 91.7987 144.706C90.8308 153.364 95.2617 160.749 99.6174 168.027C109.49 184.512 119.116 183.898 120.525 193.03C122.46 205.526 105.049 210.636 101.177 229.332C98.4236 242.658 104.328 254.27 107.651 260.803C120.621 286.313 155.542 300.911 196.227 300.124Z" fill="white"/>
</mask>
<g mask="url(#mask0_54698_37384)">
<path opacity="0.7" d="M50.3177 23.9191C66.1917 31.2183 82.0334 38.5822 97.8428 46.0108C105.769 49.6981 113.652 53.4501 121.471 57.3423C125.386 59.283 129.29 61.2453 133.172 63.2722C137.044 65.2992 140.905 67.38 144.647 69.6765C146.519 70.8302 148.369 72.0269 150.143 73.3639C151.036 74.0216 151.885 74.7439 152.724 75.4771C153.542 76.2426 154.337 77.0404 155.058 77.9245C155.768 78.8086 156.402 79.779 156.908 80.814C157.413 81.849 157.779 82.9488 158.026 84.0593C158.478 86.2911 158.542 88.6092 158.123 90.8518C157.714 93.0943 156.875 95.2183 155.811 97.1914C154.746 99.1644 153.455 100.987 152.1 102.722C149.379 106.205 146.336 109.375 143.432 112.62C140.518 115.854 137.7 119.175 135.377 122.809C134.237 124.631 133.194 126.518 132.365 128.501C131.57 130.485 130.935 132.534 130.569 134.647C129.903 138.852 130.161 143.251 131.462 147.315C132.118 149.342 133.065 151.272 134.172 153.105C135.291 154.938 136.592 156.663 137.936 158.377C139.281 160.092 140.679 161.784 141.969 163.585C142.625 164.48 143.217 165.418 143.798 166.377C144.346 167.348 144.884 168.329 145.314 169.375C146.218 171.434 146.798 173.633 147.056 175.854C147.325 178.086 147.304 180.329 147.035 182.55C146.766 184.771 146.228 186.97 145.4 189.051C144.572 191.132 143.497 193.094 142.26 194.938C139.819 198.647 136.796 201.849 134.678 205.58C133.613 207.434 132.849 209.439 132.505 211.52C132.183 213.612 132.236 215.768 132.645 217.86C133.054 219.951 133.817 221.968 134.861 223.822C135.925 225.677 137.227 227.402 138.679 229.008C141.55 232.253 144.895 235.121 147.605 238.647C148.96 240.404 150.122 242.345 150.917 244.437C151.692 246.539 152.079 248.792 152.079 251.024C152.068 253.256 151.692 255.509 150.874 257.601C150.068 259.693 148.863 261.579 147.68 263.412C146.519 265.234 145.357 267.1 145.024 269.181C144.637 271.251 145.121 273.407 146.089 275.294C147.089 277.17 148.487 278.841 150.079 280.296C151.659 281.763 153.402 283.067 155.219 284.264C158.865 286.636 162.748 288.631 166.727 290.41C170.706 292.199 174.761 293.784 178.869 295.261C182.977 296.739 187.118 298.108 191.301 299.369C199.647 301.925 208.089 304.156 216.575 306.237L216.564 306.291C208.068 304.286 199.604 302.129 191.226 299.65C187.032 298.42 182.87 297.084 178.751 295.65C174.621 294.205 170.534 292.652 166.533 290.884C162.522 289.127 158.596 287.154 154.897 284.792C153.058 283.596 151.272 282.291 149.638 280.803C148.003 279.326 146.529 277.612 145.465 275.628C144.432 273.644 143.884 271.305 144.303 269.051C144.454 267.919 144.895 266.852 145.368 265.838C145.863 264.825 146.454 263.898 147.035 262.97C148.218 261.127 149.369 259.294 150.132 257.299C150.896 255.305 151.24 253.17 151.24 251.024C151.229 248.879 150.853 246.755 150.111 244.76C149.347 242.765 148.229 240.922 146.906 239.218C144.26 235.811 140.915 232.965 137.969 229.677C136.485 228.038 135.129 226.27 134 224.329C132.892 222.388 132.075 220.264 131.634 218.054C131.193 215.854 131.118 213.569 131.451 211.337C131.806 209.105 132.624 206.96 133.731 205.008C134.818 203.046 136.14 201.267 137.463 199.52C138.786 197.774 140.12 196.059 141.313 194.259C142.507 192.469 143.54 190.571 144.325 188.588C145.11 186.604 145.615 184.512 145.873 182.388C146.357 178.14 145.959 173.752 144.217 169.849C142.539 165.903 139.711 162.571 136.99 159.143C135.635 157.418 134.291 155.66 133.129 153.752C131.968 151.854 130.978 149.827 130.29 147.693C128.913 143.423 128.634 138.841 129.333 134.41C129.709 132.199 130.365 130.054 131.204 127.984C132.054 125.925 133.14 123.962 134.312 122.086C136.7 118.345 139.56 114.97 142.486 111.714C145.4 108.447 148.422 105.288 151.079 101.871C152.402 100.167 153.649 98.3989 154.66 96.5229C155.671 94.6469 156.445 92.6523 156.822 90.5822C157.209 88.5229 157.144 86.3989 156.725 84.3396C156.305 82.2911 155.381 80.4043 154.058 78.7655C153.391 77.9461 152.66 77.1914 151.875 76.4582C151.079 75.7466 150.261 75.0566 149.401 74.4097C147.691 73.1051 145.873 71.9191 144.024 70.7763C140.324 68.5013 136.495 66.4097 132.645 64.372C128.784 62.3342 124.902 60.3612 120.998 58.4097L109.264 52.5876C105.36 50.6361 101.413 48.7709 97.4772 46.8625C81.743 39.283 66.0304 31.6604 50.3393 23.9515L50.3177 23.9191Z" fill="white"/>
</g>
<path d="M181.805 293.342C175.707 296.523 165.791 301.191 152.95 304.868C126.504 312.437 81.0117 317.72 65.3851 297.234C63.46 294.712 58.3837 288.059 59.0613 279.844C59.7603 271.294 66.0518 268.663 65.1162 263.315C63.8364 256.005 51.2964 256.566 38.8424 248.178C28.2598 241.062 15.5262 226 16.7522 208.296C18.0966 188.879 35.4332 177.838 37.326 176.685C50.1349 168.803 69.8805 165.957 82.2269 175.908C93.1537 184.717 94.1754 200.232 94.8422 210.474C96.3694 233.644 86.7009 244.07 93.67 252.178C100.015 259.563 110.77 254.119 118.481 263.973C121.772 268.189 120.836 270.485 125.988 278.733C129.881 284.976 134.086 289.526 135.818 291.143C149.186 303.66 179.148 294.216 181.805 293.342Z" fill="url(#paint2_linear_54698_37384)"/>
<mask id="mask1_54698_37384" style="mask-type:luminance" maskUnits="userSpaceOnUse" x="16" y="169" width="166" height="143">
<path d="M181.805 293.342C175.707 296.523 165.791 301.191 152.95 304.868C126.504 312.437 81.0117 317.72 65.3851 297.234C63.46 294.712 58.3837 288.059 59.0613 279.844C59.7603 271.294 66.0518 268.663 65.1162 263.315C63.8364 256.005 51.2964 256.566 38.8424 248.178C28.2598 241.062 15.5262 226 16.7522 208.296C18.0966 188.879 35.4332 177.838 37.326 176.685C50.1349 168.803 69.8805 165.957 82.2269 175.908C93.1537 184.717 94.1754 200.232 94.8422 210.474C96.3694 233.644 86.7009 244.07 93.67 252.178C100.015 259.563 110.77 254.119 118.481 263.973C121.772 268.189 120.836 270.485 125.988 278.733C129.881 284.976 134.086 289.526 135.818 291.143C149.186 303.66 179.148 294.216 181.805 293.342Z" fill="white"/>
</mask>
<g mask="url(#mask1_54698_37384)">
<path opacity="0.5" d="M165.232 301.04C152.649 301.04 140.163 300.221 127.902 298.571C90.8522 293.601 86.6686 285.288 85.292 282.55C83.1518 278.302 83.539 274.733 83.9584 270.949C84.4209 266.701 84.8941 262.302 82.1194 256.199C79.5813 250.636 76.2796 248.049 73.0854 245.547C69.9665 243.11 66.7401 240.588 64.3741 235.337C61.3197 228.577 62.2447 223.089 63.2233 217.278C63.7611 214.097 64.3203 210.798 64.2558 207.11C64.0192 192.534 53.9958 177.612 34.4545 162.755L34.7341 162.388C54.4045 177.342 64.4924 192.383 64.729 207.11C64.7935 210.841 64.2343 214.162 63.6858 217.364C62.7179 223.1 61.8037 228.523 64.8043 235.154C67.1273 240.296 70.1601 242.668 73.3758 245.181C76.613 247.714 79.9684 250.334 82.5496 256.005C85.3781 262.226 84.8726 266.884 84.4316 271.003C84.023 274.712 83.6465 278.216 85.7222 282.345C87.0665 285.019 91.1748 293.181 127.977 298.119C146.185 300.566 164.931 301.191 183.698 299.995L183.73 300.458C177.546 300.846 171.373 301.04 165.232 301.04Z" fill="white"/>
</g>
<path d="M179.901 350.313L85.7653 343.132V77.5795L179.901 70.593V350.313Z" fill="url(#paint3_linear_54698_37384)"/>
<path d="M93.0463 331.52V89.2021L179.901 83.3477V337.547L93.0463 331.52Z" fill="white"/>
<mask id="mask2_54698_37384" style="mask-type:luminance" maskUnits="userSpaceOnUse" x="93" y="83" width="87" height="255">
<path d="M93.0463 331.52V89.2021L179.901 83.3477V337.547L93.0463 331.52Z" fill="white"/>
</mask>
<g mask="url(#mask2_54698_37384)">
<path d="M437.606 146.28L344.201 149.03C343.889 97.6118 343.631 24.1455 344.137 17.3315C344.115 17.6765 343.932 19.5094 343.04 21.5903L330.661 10.8625C329.338 13.9568 329.295 16.5336 329.188 23.4447C329.123 27.3692 329.08 32.9865 329.058 40.1671C329.015 52.1779 329.037 68.7493 329.101 89.4393C329.22 124.631 329.446 160.016 329.446 160.372L329.521 171.067L361.57 170.464V247.488L301.139 246.334L265.036 173.903L215.435 174.787L282.05 53.9137L271.51 41.008L198.281 175.089L166.77 175.65C166.813 163.488 166.888 141.871 166.931 120.34C166.974 101.321 166.974 86.097 166.953 75.0889C166.91 53.1374 166.824 52.8894 166.383 51.4986L160.5 56.7062C160.263 55.973 160.209 55.3477 160.209 55.2291C160.521 59.8005 160.381 126.474 160.199 175.768L127.289 176.35C121.31 140.911 107.339 58.097 106.866 55.8113L95.8962 62.787L95.8747 62.6469C96.4662 65.849 108.823 139.477 117.072 188.749L118.255 195.844L187.215 195.358L144.378 273.795L60.2981 270.787V289.493L149.928 293.666L204.164 195.24L258.163 194.852L283.426 246L216.672 244.728V390L223.662 390.668V255.736L289.04 257.353L354.977 390.809L367.119 378.701L306.85 257.795L369.668 259.348V170.302L437.595 169.03V146.28H437.606Z" fill="#E8E2D8"/>
</g>
<path d="M244.107 335.057H353.891V86.2156H244.107V335.057Z" fill="url(#paint4_linear_54698_37384)"/>
<path d="M344.984 323.691L344.984 97.4159L244.105 97.4159L244.105 323.691H344.984Z" fill="white"/>
<mask id="mask3_54698_37384" style="mask-type:luminance" maskUnits="userSpaceOnUse" x="244" y="97" width="101" height="227">
<path d="M344.984 323.691L344.984 97.4159L244.105 97.4159L244.105 323.691H344.984Z" fill="white"/>
</mask>
<g mask="url(#mask3_54698_37384)">
<path d="M384.908 160.189H301.462C301.172 118.129 300.935 58.0108 301.408 52.4798C301.387 52.7601 301.225 54.248 300.386 55.876L288.739 46.097C287.481 48.5337 287.449 50.6577 287.341 56.3504C287.287 59.5741 287.244 64.2103 287.223 70.1186C287.19 80.0162 287.201 93.6766 287.266 110.722C287.373 139.725 287.588 168.89 287.599 169.181L287.664 177.989H317.551V240.447H260.336L224.447 179.38H172.922L241.526 78.3989L230.986 66.7439L154.466 179.38H119.675C119.729 168.48 119.804 149.105 119.858 129.806C119.901 112.76 119.912 99.1213 119.89 89.2453C119.836 69.5687 119.75 69.3315 119.245 68.0485L112.609 72.2857C112.34 71.6065 112.286 71.0458 112.276 70.938C112.62 75.0674 112.469 135.035 112.265 179.38H74.3546C67.321 146.712 50.6942 69.5148 50.1349 67.3585L36.9066 72.9865L36.8744 72.8572C37.5949 75.8868 52.4902 144.954 62.32 190.636L63.7289 197.181H142.389L94.2185 268.059H-7.21997V285.849H100.575L160.833 197.148H217.468L242.892 240.426H174.234V367.229H181.654V249.892H248.452L311.475 357.127L322.638 346.453L265.896 249.892H324.972V177.978H384.908V160.189Z" fill="#E8E2D8"/>
</g>
<path d="M244.107 335.057L179.901 350.313V70.593L244.107 86.2156V335.057Z" fill="url(#paint5_linear_54698_37384)"/>
<path d="M179.901 337.547V83.3477L244.107 97.5687V323.703L179.901 337.547Z" fill="#E8E2D8"/>
<mask id="mask4_54698_37384" style="mask-type:luminance" maskUnits="userSpaceOnUse" x="179" y="83" width="66" height="255">
<path d="M179.901 337.547V83.3477L244.107 97.5687V323.703L179.901 337.547Z" fill="white"/>
</mask>
<g mask="url(#mask4_54698_37384)">
<path d="M308.27 166.733L272.317 163.132C272.177 123.358 272.069 66.5175 272.295 61.353C272.284 61.6118 272.209 63.0026 271.822 64.415L266.337 53.4069C265.735 55.5525 265.724 57.5794 265.67 63.0134C265.638 66.097 265.627 70.5282 265.616 76.1886C265.595 85.6657 265.606 98.7439 265.638 115.078C265.692 142.862 265.799 170.798 265.799 171.078L265.832 179.52L279.716 180.437V238.561L252.442 240.059L233.707 178.83L204.25 176.976L242.795 78.2263L237.224 64.9865L192.882 176.264L170.136 174.83C170.168 162.377 170.222 140.253 170.254 118.216C170.287 98.7546 170.287 83.1751 170.276 71.8975C170.244 49.4069 170.179 49.1266 169.835 47.5741L165.286 51.1859C165.103 50.3557 165.06 49.698 165.06 49.5687C165.296 54.3881 165.189 123.445 165.049 174.507L137.635 172.782C132.269 132.728 119.212 35.3045 118.761 32.5013L107.963 36.5875L107.931 36.415C108.533 40.3935 120.643 129.083 128.397 185.957L129.494 193.989L185.182 195.585L152.315 278.075L69.16 287.078V310.873L156.875 298.367L196.862 195.919L229.9 196.868L243.505 240.555L205.035 242.668V378.97L209.466 377.644V252.491L246.387 249.795L276.952 347.93L281.996 336.631L255.227 249.148L283.039 247.11V180.641L308.302 182.302V166.733H308.27Z" fill="#AEA9A2"/>
</g>
<path d="M377.347 82.0431C377.347 116.803 328.779 180.221 306.796 207.143C301.322 213.838 291.105 213.838 285.631 207.143C263.648 180.221 215.08 116.792 215.08 82.0431C215.08 37.1267 251.41 0.706177 296.214 0.706177C341.018 0.706177 377.347 37.1267 377.347 82.0431Z" fill="url(#paint6_linear_54698_37384)"/>
<path d="M296.214 127.402C321.202 127.402 341.459 107.094 341.459 82.0431C341.459 56.9923 321.202 36.6846 296.214 36.6846C271.225 36.6846 250.969 56.9923 250.969 82.0431C250.969 107.094 271.225 127.402 296.214 127.402Z" fill="white"/>
<g opacity="0.3">
<path d="M295.859 173.752C301.01 139.768 323.391 128.889 319.551 96.8032C315.12 59.8005 282.437 49.9353 281.641 17.0081C281.512 11.7035 282.233 6.593 283.588 1.69812C244.774 7.77898 215.08 41.4394 215.08 82.0539C215.08 116.814 263.648 180.232 285.631 207.154C288.847 211.1 293.719 212.717 298.289 212.016C294.353 197.127 294.235 184.415 295.859 173.752Z" fill="url(#paint7_linear_54698_37384)"/>
</g>
<path d="M296.214 263.348C305.373 263.348 312.797 255.904 312.797 246.722C312.797 237.54 305.373 230.097 296.214 230.097C287.055 230.097 279.63 237.54 279.63 246.722C279.63 255.904 287.055 263.348 296.214 263.348Z" fill="url(#paint8_linear_54698_37384)"/>
<path d="M156.273 135.585C155.714 134.722 154.703 132.889 154.638 130.42C154.509 125.633 158.058 121.892 158.532 122.108C158.79 122.226 158.467 123.628 158.284 124.253C157.908 125.547 157.499 125.677 157.531 126.27C157.607 127.499 159.371 127.542 160.295 129.17C160.962 130.345 161.016 132.005 160.295 133.332C159.102 135.509 156.391 135.585 156.273 135.585Z" fill="url(#paint9_linear_54698_37384)"/>
<path d="M80.5707 239.639L81.9258 234.938L76.2365 230.712L72.6982 229.385L74.7954 235.962L80.5707 239.639Z" fill="url(#paint10_linear_54698_37384)"/>
<path d="M87.6043 334.291C87.6043 334.291 84.4962 342.14 85.3135 345.612C81.9688 345.547 79.8179 345.116 79.8179 345.116C79.8179 345.116 81.1622 341.536 81.4203 339.768C81.7752 337.375 81.743 333.493 81.743 333.493L87.6043 334.291Z" fill="url(#paint11_linear_54698_37384)"/>
<path d="M121.901 352.642C121.697 352.889 121.342 353.396 121.31 354.086C121.288 354.464 121.374 354.765 121.482 355.057C122.009 356.458 122.848 356.642 123.74 358.129C124.289 359.035 124.181 359.315 124.687 359.714C125.353 360.253 126.149 360.286 126.848 360.296C128.021 360.307 129.72 360.264 131.849 360.016C130.731 358.571 129.548 357.105 128.279 355.628C127.73 354.981 127.171 354.345 126.622 353.73L123.342 352.62C122.869 352.609 122.385 352.62 121.901 352.642Z" fill="#26264F"/>
<path d="M124.633 336.663C124.633 336.663 126.504 346.474 124.117 349.224C122.084 351.973 125.095 350.011 125.095 350.011L128.698 353.159L130.86 356.9C130.86 356.9 128.87 347.294 129.397 343.477C129.924 339.66 130.193 337.094 130.193 337.094L124.633 336.663Z" fill="url(#paint12_linear_54698_37384)"/>
<path d="M131.699 229.31C131.699 229.31 136.743 233.827 136.743 252.447C136.743 271.067 134.355 311.488 134.355 311.488L130.537 340.426C130.537 340.426 126.579 340.566 123.923 339.768C121.535 328.868 117.642 310.42 119.503 294.992C120.299 278.237 112.867 257.224 112.867 257.224C112.867 257.224 106.5 278.496 101.994 289.137C97.4878 299.779 88.8948 333.105 88.099 335.499C82.8184 335.973 80.5707 334.582 80.5707 334.582C80.5707 334.582 83.9584 298.722 87.1418 285.159C90.3252 271.596 90.0563 238.884 95.3692 229.58C107.296 224.782 131.699 229.31 131.699 229.31Z" fill="url(#paint13_linear_54698_37384)"/>
<path d="M131.699 229.31C131.699 229.31 136.743 233.827 136.743 252.447C136.743 271.067 134.355 311.488 134.355 311.488L130.537 340.426C130.537 340.426 126.579 340.566 123.923 339.768C121.535 328.868 117.642 310.42 119.503 294.992C120.299 278.237 112.867 257.224 112.867 257.224C112.867 257.224 106.5 278.496 101.994 289.137C97.4878 299.779 88.8948 333.105 88.099 335.499C82.8184 335.973 80.5707 334.582 80.5707 334.582C80.5707 334.582 83.9584 298.722 87.1418 285.159C90.3252 271.596 90.0563 238.884 95.3692 229.58C107.296 224.782 131.699 229.31 131.699 229.31Z" fill="url(#paint14_linear_54698_37384)"/>
<path opacity="0.25" d="M105.522 263.412C103.951 273.655 100.811 279.164 92.9493 286.259C86.6578 290.981 91.3792 301.224 89.0239 309.105C88.2388 311.466 85.8835 313.827 85.0984 316.199C82.1731 322.065 84.9048 329.234 83.582 335.445C81.5171 335.164 80.5814 334.582 80.5814 334.582C80.5814 334.582 83.9692 298.722 87.1526 285.159C90.336 271.596 90.0671 238.884 95.3799 229.579C107.318 224.792 131.72 229.31 131.72 229.31C131.72 229.31 136.764 233.827 136.764 252.447C136.764 253.957 136.753 255.617 136.721 257.375C131.483 262.022 120.783 263.046 114.19 257.903C113.792 257.601 113.362 257.418 112.932 257.331C112.91 257.278 112.899 257.234 112.899 257.234C112.899 257.234 112.889 257.267 112.867 257.331C109.834 256.771 106.199 260.685 105.522 263.412Z" fill="url(#paint15_linear_54698_37384)"/>
<path d="M86.1309 348.588C86.1309 348.588 86.9052 348.588 86.8407 349.59C86.7762 350.593 87.1848 354.043 83.2486 354.205C79.3124 354.367 78.6994 353.925 78.5703 353.925C78.4413 353.925 79.6028 350.625 79.6028 350.625L80.8611 349.008L84.2488 348.652L86.1309 348.588Z" fill="#26264F"/>
<path d="M77.3981 352.059C77.4841 351.229 77.9466 349.914 78.4198 348.857C79.1188 347.283 78.5488 346.701 79.2049 345.267C79.4307 344.771 79.6566 344.307 80.1405 343.844C80.2481 343.736 81.3451 342.733 82.926 342.776C83.2379 342.787 83.7219 342.809 84.2381 343.089C84.8511 343.412 85.1522 343.908 85.4211 344.34C85.8298 345.019 85.733 345.224 86.3675 347.164C86.4213 347.315 86.5288 347.66 86.6149 348.124C86.6794 348.48 86.7117 348.782 86.7224 348.987C85.69 348.987 81.7107 349.148 80.8719 349.763C80.033 350.377 79.6136 351.412 79.6136 352.447C79.6136 353.482 79.0973 353.968 78.5811 353.935C78.1079 353.903 77.1938 353.051 77.3981 352.059Z" fill="#444B8C"/>
<path d="M125.128 347.844C124.235 347.854 123.59 348.566 123.095 350.27C122.6 351.973 120.245 353.482 122.998 353.127C125.751 352.771 127.741 356.674 128.73 358.119C129.709 359.563 132.355 360.846 132.279 359.434C132.215 358.022 131.053 357.364 130.72 355.919C130.408 354.474 127.16 347.811 125.128 347.844Z" fill="#444B8C"/>
<path d="M78.4842 231.553C77.8282 229.73 73.7629 217.784 80.3448 206.884C85.7329 197.968 95.0573 195.057 96.3909 194.658C104.489 192.264 108.544 195.337 111.093 192.501C115.427 187.693 110.512 171.315 101.015 168.027C90.3144 164.329 77.4733 178.55 72.268 187.887C65.4388 200.146 67.1165 212.318 67.5144 214.83C68.5361 221.353 70.9237 226.323 72.6982 229.375C74.6233 230.108 76.5484 230.83 78.4842 231.553Z" fill="url(#paint16_linear_54698_37384)"/>
<path d="M106.436 165.73C115.986 165.342 123.364 165.504 127.526 169.666C131.924 174.075 127.483 179.046 128.429 190.561C129.892 208.199 141.098 212.512 141.948 230.41C142.227 236.437 141.217 241.364 140.421 244.34C137.958 247.412 133.936 251.747 127.988 255.369C119.341 260.642 114.319 259.725 101.897 263.132C81.5816 268.706 79.7748 275.348 69.6977 273.655C59.5129 271.941 50.5758 263.358 51.662 258.636C52.3073 255.811 56.4156 256.609 61.1369 252.307C67.2241 246.755 64.8795 241.45 69.5148 235.488C76.172 226.916 85.4318 232.156 91.0995 224.728C96.8318 217.213 94.5626 202.399 89.7229 194.334C86.5611 189.062 85.2167 182.884 82.528 177.353C82.3022 176.889 82.0441 176.146 82.1624 175.197C82.6033 171.596 88.5829 169.644 93.1214 168.21C100.037 166.022 105.651 165.752 106.436 165.73Z" fill="url(#paint17_linear_54698_37384)"/>
<path d="M114.48 165.332L112.598 164.749C112.598 164.749 112.104 167.305 106.049 167.628C102.682 167.628 100.51 165.741 100.51 165.741L99.2194 166.679C99.2194 166.679 102.048 170.216 106.533 170.129C112.34 170.011 114.48 165.332 114.48 165.332Z" fill="url(#paint18_linear_54698_37384)"/>
<path d="M110.641 157.547C110.275 154.733 108.06 152.933 107.576 152.555C105.554 150.938 105.145 150.776 104.446 150.647L103.5 150.507C103.5 150.507 103.446 150.507 103.392 150.507C102.833 150.539 101.166 151.197 100.865 151.402C99.8969 152.081 100.607 156.911 103.543 162.916C103.661 163.423 103.769 163.93 103.887 164.447C101.327 164.9 100.693 165.364 100.682 165.73C100.639 166.528 103.435 167.553 106.027 167.617C109.275 167.703 112.738 166.302 112.663 165.245C112.631 164.825 112.018 164.296 109.662 163.79C109.297 163.272 108.92 162.744 108.554 162.226C108.909 161.827 110.91 159.617 110.641 157.547Z" fill="url(#paint19_linear_54698_37384)"/>
<path d="M106.629 156.491C105.887 156.048 105.328 156.997 105.672 157.827C106.016 158.658 107.189 159.175 107.898 158.679C108.608 158.194 107.619 157.084 106.629 156.491Z" fill="url(#paint20_linear_54698_37384)"/>
<path d="M10.9985 156.48C20.71 145.914 43.3056 148.814 55.8349 157.299C61.6532 161.245 64.643 165.903 71.526 166.291C76.7528 166.593 85.0769 164.62 89.4649 158.938C90.0134 158.226 92.2288 155.218 95.5413 151.434C97.0039 149.763 98.4558 148.199 100.714 147.844C101.284 147.757 103.188 147.445 104.446 148.674C105.468 149.677 105.715 151.412 105.414 152.663C105.231 153.407 105.005 153.493 105.038 153.978C105.134 155.358 107.63 155.951 107.49 156.652C107.393 157.148 106.092 156.965 105.866 157.59C105.618 158.27 107.049 158.863 107.662 160.577C108.813 161.353 109.544 163.272 109.791 165.849C110.157 169.633 109.781 172.706 109.071 175.013C105.629 186.162 103.166 194.129 97.2083 198.582C89.3251 204.48 82.2162 199.035 62.1479 198.172C34.6696 196.997 27.8188 206.334 17.946 199.941C5.63185 191.951 0.921286 167.445 10.9985 156.48Z" fill="url(#paint21_linear_54698_37384)"/>
<path d="M155.112 134.916C155.359 137.224 156.187 147.412 149.175 156.027C142.625 164.07 133.333 165.677 131.613 165.935C123.267 167.197 119.664 163.596 116.75 166.054C111.802 170.226 114.427 187.121 123.385 191.671C133.484 196.803 148.143 184.48 154.574 175.941C163.006 164.739 163.006 152.447 162.952 149.903C162.823 143.305 161.134 138.054 159.801 134.787C159.252 134.625 158.413 134.442 157.392 134.474C156.435 134.496 155.639 134.722 155.112 134.916Z" fill="url(#paint22_linear_54698_37384)"/>
<path opacity="0.3" d="M69.3966 266.916C71.8379 264.404 69.1492 259.337 72.7628 255.574C76.1075 252.081 79.9039 254.906 85.3028 251.898C92.2181 248.038 90.3145 240.987 96.9179 237.181C101.671 234.453 103.898 237.385 111.286 235.951C118.664 234.528 127.644 229.429 132.075 220.318C133.957 216.447 134.656 212.598 134.742 209.159C138.055 215.1 141.496 220.792 141.948 230.399C142.228 236.426 141.217 241.353 140.421 244.329C137.958 247.402 133.936 251.736 127.988 255.358C119.341 260.631 114.319 259.714 101.897 263.121C81.5817 268.695 79.7749 275.337 69.6977 273.644C63.1911 272.555 57.2007 268.652 54.0066 264.739C63.3955 268.943 67.6221 268.739 69.3966 266.916Z" fill="url(#paint23_linear_54698_37384)"/>
<defs>
<linearGradient id="paint0_linear_54698_37384" x1="138.449" y1="141.376" x2="63.9145" y2="255.302" gradientUnits="userSpaceOnUse">
<stop offset="0.00359712" stop-color="#E38DDD"/>
<stop offset="1" stop-color="#9571F6"/>
</linearGradient>
<linearGradient id="paint1_linear_54698_37384" x1="121.856" y1="13.8034" x2="143.262" y2="191.09" gradientUnits="userSpaceOnUse">
<stop stop-color="#AA80F9"/>
<stop offset="0.9964" stop-color="#6165D7"/>
</linearGradient>
<linearGradient id="paint2_linear_54698_37384" x1="102.101" y1="224.727" x2="86.2319" y2="369.726" gradientUnits="userSpaceOnUse">
<stop offset="0.00359712" stop-color="#E38DDD"/>
<stop offset="1" stop-color="#9571F6"/>
</linearGradient>
<linearGradient id="paint3_linear_54698_37384" x1="85.7676" y1="210.45" x2="179.9" y2="210.45" gradientUnits="userSpaceOnUse">
<stop stop-color="#85FFE6"/>
<stop offset="1" stop-color="#A4FBA6"/>
</linearGradient>
<linearGradient id="paint4_linear_54698_37384" x1="274.049" y1="146.212" x2="383.601" y2="427.685" gradientUnits="userSpaceOnUse">
<stop stop-color="#85FFE6"/>
<stop offset="1" stop-color="#A4FBA6"/>
</linearGradient>
<linearGradient id="paint5_linear_54698_37384" x1="153.59" y1="210.29" x2="272.782" y2="211.011" gradientUnits="userSpaceOnUse">
<stop stop-color="#85FFE6"/>
<stop offset="1" stop-color="#A4FBA6"/>
</linearGradient>
<linearGradient id="paint6_linear_54698_37384" x1="285.745" y1="52.5184" x2="367.81" y2="263.367" gradientUnits="userSpaceOnUse">
<stop stop-color="#782EFC"/>
<stop offset="0.0241871" stop-color="#8635FD"/>
<stop offset="0.0689207" stop-color="#993EFE"/>
<stop offset="0.1214" stop-color="#A645FE"/>
<stop offset="0.1883" stop-color="#AE49FF"/>
<stop offset="0.3183" stop-color="#B04AFF"/>
<stop offset="0.4119" stop-color="#A548FE"/>
<stop offset="0.5759" stop-color="#8842FC"/>
<stop offset="0.7892" stop-color="#5A39F9"/>
<stop offset="0.8658" stop-color="#4735F8"/>
<stop offset="1" stop-color="#4735F8"/>
</linearGradient>
<linearGradient id="paint7_linear_54698_37384" x1="256.489" y1="63.9053" x2="338.553" y2="274.754" gradientUnits="userSpaceOnUse">
<stop stop-color="#782EFC"/>
<stop offset="0.0241871" stop-color="#8635FD"/>
<stop offset="0.0689207" stop-color="#993EFE"/>
<stop offset="0.1214" stop-color="#A645FE"/>
<stop offset="0.1883" stop-color="#AE49FF"/>
<stop offset="0.3183" stop-color="#B04AFF"/>
<stop offset="0.4119" stop-color="#A548FE"/>
<stop offset="0.5759" stop-color="#8842FC"/>
<stop offset="0.7892" stop-color="#5A39F9"/>
<stop offset="0.8658" stop-color="#4735F8"/>
<stop offset="1" stop-color="#4735F8"/>
</linearGradient>
<linearGradient id="paint8_linear_54698_37384" x1="317.478" y1="214.363" x2="264.226" y2="294.991" gradientUnits="userSpaceOnUse">
<stop stop-color="#782EFC"/>
<stop offset="0.0241871" stop-color="#8635FD"/>
<stop offset="0.0689207" stop-color="#993EFE"/>
<stop offset="0.1214" stop-color="#A645FE"/>
<stop offset="0.1883" stop-color="#AE49FF"/>
<stop offset="0.3183" stop-color="#B04AFF"/>
<stop offset="0.4119" stop-color="#A548FE"/>
<stop offset="0.5759" stop-color="#8842FC"/>
<stop offset="0.7892" stop-color="#5A39F9"/>
<stop offset="0.8658" stop-color="#4735F8"/>
<stop offset="1" stop-color="#4735F8"/>
</linearGradient>
<linearGradient id="paint9_linear_54698_37384" x1="155.99" y1="126.533" x2="161.479" y2="135.39" gradientUnits="userSpaceOnUse">
<stop stop-color="#6A19FF"/>
<stop offset="0.9964" stop-color="#2DA8F3"/>
</linearGradient>
<linearGradient id="paint10_linear_54698_37384" x1="78.0877" y1="231.509" x2="75.8702" y2="236.058" gradientUnits="userSpaceOnUse">
<stop stop-color="#6A19FF"/>
<stop offset="0.9964" stop-color="#2DA8F3"/>
</linearGradient>
<linearGradient id="paint11_linear_54698_37384" x1="83.7105" y1="347.451" x2="83.7105" y2="333.168" gradientUnits="userSpaceOnUse">
<stop stop-color="#6A19FF"/>
<stop offset="0.9964" stop-color="#2DA8F3"/>
</linearGradient>
<linearGradient id="paint12_linear_54698_37384" x1="127.137" y1="351.522" x2="127.137" y2="334.308" gradientUnits="userSpaceOnUse">
<stop stop-color="#6A19FF"/>
<stop offset="0.9964" stop-color="#2DA8F3"/>
</linearGradient>
<linearGradient id="paint13_linear_54698_37384" x1="136.743" y1="283.904" x2="80.5669" y2="283.904" gradientUnits="userSpaceOnUse">
<stop stop-color="#311944"/>
<stop offset="1" stop-color="#893976"/>
</linearGradient>
<linearGradient id="paint14_linear_54698_37384" x1="138.528" y1="241.923" x2="97.9068" y2="309.981" gradientUnits="userSpaceOnUse">
<stop stop-color="#311944"/>
<stop offset="1" stop-color="#893976"/>
</linearGradient>
<linearGradient id="paint15_linear_54698_37384" x1="122.596" y1="232.413" x2="81.9742" y2="300.471" gradientUnits="userSpaceOnUse">
<stop stop-color="#311944"/>
<stop offset="1" stop-color="#893976"/>
</linearGradient>
<linearGradient id="paint16_linear_54698_37384" x1="91.4138" y1="190.509" x2="121.962" y2="97.1514" gradientUnits="userSpaceOnUse">
<stop stop-color="#6A19FF"/>
<stop offset="0.9964" stop-color="#2DA8F3"/>
</linearGradient>
<linearGradient id="paint17_linear_54698_37384" x1="131.096" y1="168.723" x2="87.5108" y2="258.126" gradientUnits="userSpaceOnUse">
<stop stop-color="#6A19FF"/>
<stop offset="0.9964" stop-color="#2DA8F3"/>
</linearGradient>
<linearGradient id="paint18_linear_54698_37384" x1="112.191" y1="157.526" x2="103.865" y2="170.726" gradientUnits="userSpaceOnUse">
<stop offset="0.00359712" stop-color="#E38DDD"/>
<stop offset="1" stop-color="#9571F6"/>
</linearGradient>
<linearGradient id="paint19_linear_54698_37384" x1="102.176" y1="155.498" x2="111.326" y2="170.263" gradientUnits="userSpaceOnUse">
<stop stop-color="#FFC444"/>
<stop offset="0.9964" stop-color="#F36F56"/>
</linearGradient>
<linearGradient id="paint20_linear_54698_37384" x1="105.442" y1="153.496" x2="110.669" y2="169.48" gradientUnits="userSpaceOnUse">
<stop stop-color="#FFC444"/>
<stop offset="0.9964" stop-color="#F36F56"/>
</linearGradient>
<linearGradient id="paint21_linear_54698_37384" x1="108.113" y1="92.3473" x2="31.431" y2="213.923" gradientUnits="userSpaceOnUse">
<stop stop-color="#444B8C"/>
<stop offset="0.9964" stop-color="#26264F"/>
</linearGradient>
<linearGradient id="paint22_linear_54698_37384" x1="135.928" y1="170.809" x2="93.0599" y2="258.74" gradientUnits="userSpaceOnUse">
<stop stop-color="#6A19FF"/>
<stop offset="0.9964" stop-color="#2DA8F3"/>
</linearGradient>
<linearGradient id="paint23_linear_54698_37384" x1="137.366" y1="171.779" x2="93.78" y2="261.182" gradientUnits="userSpaceOnUse">
<stop stop-color="#6A19FF"/>
<stop offset="0.9964" stop-color="#2DA8F3"/>
</linearGradient>
</defs>
</svg>
