<svg width="367" height="361" viewBox="0 0 367 361" fill="none" xmlns="http://www.w3.org/2000/svg">
<path opacity="0.1" d="M189.146 0.286447C95.3831 -2.48064 14.179 65.7044 1.90599 155.199C-11.5107 253.04 62.3252 341.068 153.185 355.168C266.182 372.697 375.792 271.241 365.95 161.174C358.538 78.261 284.449 3.10866 189.146 0.286447Z" fill="url(#paint0_linear_57_283)"/>
<path d="M165.942 266.864C179.106 257.549 181.47 233.119 178.237 216.726C174.476 197.599 164.611 197.081 162.841 181.977C159.541 153.854 192.357 144.065 191.28 115.424C190.4 92.0193 168.119 89.6712 168.317 63.709C168.449 44.9678 180.128 37.1847 174.883 20.8357C174.432 19.4356 169.384 4.43159 156.605 0.925877C143.705 -2.61291 130.465 7.62862 123.921 15.8858C111.824 31.1434 120.776 41.8479 113.045 65.2193C102.52 97.0243 79.69 95.966 76.7757 120.991C74.3673 141.651 89.3786 147.141 86.2443 169.994C83.3411 191.216 69.3415 194.203 68.7586 208.667C67.406 241.938 139.075 285.881 165.942 266.864Z" fill="url(#paint1_linear_57_283)"/>
<mask id="mask0_57_283" style="mask-type:luminance" maskUnits="userSpaceOnUse" x="68" y="0" width="124" height="272">
<path d="M165.942 266.864C179.106 257.549 181.47 233.119 178.237 216.726C174.476 197.599 164.611 197.081 162.841 181.977C159.541 153.854 192.357 144.065 191.28 115.424C190.4 92.0193 168.119 89.6712 168.317 63.709C168.449 44.9678 180.128 37.1847 174.883 20.8357C174.432 19.4356 169.384 4.43159 156.605 0.925877C143.705 -2.61291 130.465 7.62862 123.921 15.8858C111.824 31.1434 120.776 41.8479 113.045 65.2193C102.52 97.0243 79.69 95.966 76.7757 120.991C74.3673 141.651 89.3786 147.141 86.2443 169.994C83.3411 191.216 69.3415 194.203 68.7586 208.667C67.406 241.938 139.075 285.881 165.942 266.864Z" fill="white"/>
</mask>
<g mask="url(#mask0_57_283)">
<g opacity="0.7">
<path d="M146.95 282.496C146.873 282.496 146.796 282.474 146.73 282.441C134.369 275.165 124.064 265.607 116.113 254.043C108.569 243.074 100.772 231.741 101.399 217.553C101.883 206.76 106.886 201.005 113.221 193.707C119.269 186.751 126.791 178.097 132.048 162.056C135.05 152.906 138.79 141.507 135.908 127.87C134.237 119.955 131.146 115.479 128.419 111.532C125.571 107.398 123.096 103.826 123.569 97.6858C124.328 87.8632 129.552 81.5904 135.622 74.3254C139.295 69.9157 143.101 65.3737 146.433 59.4427C155.802 42.8181 156.055 20.4278 147.17 -7.11081C147.093 -7.34232 147.213 -7.6069 147.466 -7.68407C147.697 -7.76124 147.961 -7.63998 148.038 -7.38642C156.99 20.3837 156.726 43.0275 147.224 59.8836C143.859 65.8698 140.021 70.4559 136.315 74.8987C130.355 82.0424 125.208 88.216 124.482 97.7409C124.031 103.551 126.308 106.836 129.178 111.003C131.949 115.027 135.094 119.591 136.81 127.683C139.735 141.562 135.952 153.083 132.917 162.343C127.594 178.56 120.006 187.291 113.914 194.313C107.689 201.468 102.773 207.135 102.311 217.608C101.696 231.487 109.405 242.688 116.872 253.536C124.746 264.99 134.962 274.46 147.202 281.659C147.422 281.791 147.488 282.067 147.356 282.276C147.257 282.419 147.104 282.496 146.95 282.496Z" fill="white"/>
</g>
<g opacity="0.7">
<path d="M137.272 134.815C137.14 134.815 137.03 134.771 136.942 134.672C136.777 134.485 136.799 134.198 136.986 134.033C157.936 115.269 167.778 97.8622 172.342 86.5623C177.291 74.3254 177.291 66.421 177.291 66.3438C177.291 66.0903 177.489 65.8918 177.742 65.8808C177.984 65.8808 178.193 66.0792 178.193 66.3328C178.193 66.6525 178.204 74.4577 173.211 86.8379C168.603 98.237 158.706 115.799 137.602 134.705C137.492 134.771 137.382 134.815 137.272 134.815Z" fill="white"/>
</g>
<g opacity="0.7">
<path d="M127.198 175.385C127.099 175.385 126.989 175.352 126.912 175.286C115.211 165.705 106.325 154.847 100.486 142.996C95.8121 133.504 93.0737 123.383 92.3369 112.888C91.0942 95.0179 96.186 82.0865 96.241 81.9652C96.3399 81.7337 96.5929 81.6234 96.8238 81.7116C97.0547 81.8109 97.1647 82.0644 97.0767 82.2959C97.0328 82.4282 92.007 95.1943 93.2387 112.855C94.3824 129.16 101.256 153.094 127.484 174.569C127.682 174.723 127.704 175.01 127.55 175.208C127.462 175.33 127.33 175.385 127.198 175.385Z" fill="white"/>
</g>
<g opacity="0.7">
<path d="M108.063 242.412C107.865 242.412 107.689 242.28 107.634 242.093C107.568 241.861 107.7 241.596 107.942 241.53C138.833 232.446 154.945 215.932 163.017 203.684C171.759 190.433 173.211 179.21 173.222 179.1C173.255 178.857 173.475 178.681 173.728 178.703C173.97 178.736 174.146 178.957 174.124 179.21C174.113 179.331 172.628 190.764 163.764 204.18C155.604 216.549 139.35 233.218 108.195 242.39C108.151 242.401 108.096 242.412 108.063 242.412Z" fill="white"/>
</g>
<g opacity="0.7">
<path d="M147.851 56.9732C147.73 56.9732 147.609 56.9291 147.521 56.8299C129.86 37.6256 127.704 17.5835 129.013 4.15598C130.421 -10.385 136.106 -20.5384 136.161 -20.6376C136.293 -20.8581 136.568 -20.9352 136.777 -20.8029C136.997 -20.6706 137.074 -20.395 136.942 -20.1856C136.887 -20.0864 131.289 -10.0763 129.904 4.28827C128.617 17.5174 130.761 37.2728 148.181 56.2125C148.346 56.3999 148.335 56.6866 148.148 56.8519C148.071 56.9291 147.961 56.9732 147.851 56.9732Z" fill="white"/>
</g>
</g>
<path d="M144.772 347.352C148.148 347.451 155.582 344.684 157.221 343.163C168.13 333.032 189.817 315.393 191.368 299.705C191.632 297.026 180.194 292.672 178.919 289.971C172.298 285.429 169.714 284.26 165.535 276.83C153.196 254.903 194.183 223.958 155.285 204.588C126.791 190.4 99.837 196.717 110.46 150.569C121.095 104.411 97.6706 13.5045 43.3549 38.2099C12.1885 52.3871 34.524 96.6274 15.3667 123.571C-2.8338 149.18 5.28221 173.952 32.1156 195.35C58.9491 216.748 41.1554 227.066 28.3985 252.114C13.0793 282.221 60.8956 295.615 83.495 299.904C101.707 303.376 145.729 324.488 144.772 347.352Z" fill="url(#paint2_linear_57_283)"/>
<mask id="mask1_57_283" style="mask-type:luminance" maskUnits="userSpaceOnUse" x="5" y="34" width="187" height="314">
<path d="M144.772 347.352C148.148 347.451 155.582 344.684 157.221 343.163C168.13 333.032 189.817 315.393 191.368 299.705C191.632 297.026 180.194 292.672 178.919 289.971C172.298 285.429 169.714 284.26 165.535 276.83C153.196 254.903 194.183 223.958 155.285 204.588C126.791 190.4 99.837 196.717 110.46 150.569C121.095 104.411 97.6706 13.5045 43.3549 38.2099C12.1885 52.3871 34.524 96.6274 15.3667 123.571C-2.8338 149.18 5.28221 173.952 32.1156 195.35C58.9491 216.748 41.1554 227.066 28.3985 252.114C13.0793 282.221 60.8956 295.615 83.495 299.904C101.707 303.376 145.729 324.488 144.772 347.352Z" fill="white"/>
</mask>
<g mask="url(#mask1_57_283)">
<g opacity="0.7">
<path d="M173.662 322.702L174.069 322.118C83.4623 258.464 40.3418 147.824 58.7293 26.1383L58.0145 26.0281C49.3046 83.696 54.6713 141.066 73.5537 191.943C93.3928 245.411 128.012 290.632 173.662 322.702Z" fill="#FCFDFE"/>
<path d="M20.6017 263.899C50.4814 259.081 98.0227 266.401 126.572 280.225L126.891 279.575C98.2207 265.707 50.4923 258.364 20.4917 263.193L20.6017 263.899Z" fill="#FCFDFE"/>
<path d="M156.022 310.002L156.583 309.55C146.235 296.696 142.771 279.09 146.29 257.218C148.863 241.178 155.066 223.274 164.721 203.982L164.072 203.662C154.395 223.01 148.17 240.99 145.586 257.097C142.023 279.178 145.542 296.982 156.022 310.002Z" fill="#FCFDFE"/>
<path d="M71.1562 184.601L71.739 184.182C53.4725 158.937 22.6361 148.045 -0.040386 143.359L-0.18335 144.065C22.3611 148.728 53.0326 159.554 71.1562 184.601Z" fill="#FCFDFE"/>
<path d="M55.6499 114.939L56.3647 114.994C59.356 80.0028 84.0559 52.6737 98.5064 39.5107L98.0225 38.9816C83.4951 52.2217 58.6632 79.7052 55.6499 114.939Z" fill="#FCFDFE"/>
</g>
</g>
<path d="M361.166 323.529L21.6023 320.585V329.283C21.6023 331.654 23.0869 333.649 25.0884 334.013L121.106 351.155C122.239 351.365 123.393 351.409 124.559 351.31L357.482 331.764C359.56 331.587 361.177 329.57 361.177 327.145L361.166 323.529Z" fill="#BFC8D6"/>
<path d="M236.204 309.572L20.3925 325.502C16.5324 325.789 13.3872 322.757 13.3872 318.733V157.625C13.3872 153.612 16.5324 150.349 20.3925 150.349L28.0246 154.758L236.204 150.349C239.393 150.349 241.955 153.292 241.955 156.93V302.572C241.955 306.199 239.393 309.329 236.204 309.572Z" fill="#BFC8D6"/>
<path d="M239.646 309.572L23.8346 325.502C19.9746 325.789 16.8293 322.757 16.8293 318.733V157.625C16.8293 153.612 19.9636 150.349 23.8346 150.349H239.646C242.835 150.349 245.397 153.292 245.397 156.93V302.572C245.408 306.199 242.835 309.329 239.646 309.572Z" fill="white"/>
<path d="M232.926 299.308L31.9175 313.133C28.7723 313.353 26.2209 310.862 26.2209 307.588V166.532C26.2209 163.247 28.7833 160.579 31.9175 160.557L232.926 159.697C235.555 159.686 237.677 162.1 237.677 165.088V293.565C237.677 296.552 235.555 299.121 232.926 299.308Z" fill="#D8DEE8"/>
<path d="M103.213 173.808L48.9634 173.952L48.9524 168.759L103.202 168.781L103.213 173.808Z" fill="white"/>
<path d="M128.749 172.309L116.223 172.331L116.212 168.781L128.749 168.792V172.309Z" fill="white"/>
<path d="M128.76 177.193L116.234 177.248L116.223 173.709L128.749 173.676L128.76 177.193Z" fill="white"/>
<path d="M191.214 176.895L142.594 177.127L142.583 173.632L191.214 173.522V176.895Z" fill="white"/>
<path d="M199.197 181.536L151.062 181.9L151.051 178.438L199.186 178.174L199.197 181.536Z" fill="white"/>
<path d="M199.197 186.222L151.062 186.729V183.256L199.197 182.859V186.222Z" fill="white"/>
<path d="M199.208 190.907L151.073 191.546V188.085L199.208 187.544V190.907Z" fill="white"/>
<path d="M128.771 182.076L116.245 182.165L116.234 178.637L128.76 178.56L128.771 182.076Z" fill="white"/>
<path d="M128.771 186.96L116.245 187.093V183.554L128.771 183.443V186.96Z" fill="white"/>
<path d="M128.782 191.844L116.245 192.009V188.471L128.782 188.327V191.844Z" fill="white"/>
<path d="M128.793 196.739L116.256 196.937L116.245 193.398L128.782 193.222L128.793 196.739Z" fill="white"/>
<path d="M162.368 196.188L131.52 196.684V193.178L162.368 192.737V196.188Z" fill="white"/>
<path d="M128.804 201.611L116.267 201.865L116.256 198.315L128.793 198.095L128.804 201.611Z" fill="white"/>
<path d="M128.804 206.506L116.267 206.782V203.232L128.804 202.99V206.506Z" fill="white"/>
<path d="M128.815 211.39L116.278 211.699V208.16L128.815 207.873V211.39Z" fill="white"/>
<path d="M176.829 200.707L142.638 201.347L142.627 197.863L176.829 197.29V200.707Z" fill="white"/>
<path d="M194.612 205.051L151.084 206.01V202.537L194.601 201.678L194.612 205.051Z" fill="white"/>
<path d="M194.612 209.747L151.095 210.839V207.366L194.612 206.374V209.747Z" fill="white"/>
<path d="M128.815 216.274L116.289 216.626L116.278 213.077L128.815 212.768V216.274Z" fill="white"/>
<path d="M128.826 221.157L116.3 221.543L116.289 218.004L128.815 217.641L128.826 221.157Z" fill="white"/>
<path d="M128.837 226.041L116.3 226.46V222.932L128.826 222.524L128.837 226.041Z" fill="white"/>
<path d="M128.837 230.936L116.311 231.399V227.849L128.837 227.419V230.936Z" fill="white"/>
<path d="M128.848 235.809L116.322 236.316L116.311 232.766L128.848 232.292V235.809Z" fill="white"/>
<path d="M128.859 240.703L116.333 241.233L116.322 237.694L128.848 237.187L128.859 240.703Z" fill="white"/>
<path d="M128.87 245.587L116.333 246.149V242.611L128.859 242.07L128.87 245.587Z" fill="white"/>
<path d="M128.87 250.471L116.333 251.077V247.527L128.87 246.965V250.471Z" fill="white"/>
<path d="M128.881 255.355L116.344 255.994V252.455L128.881 251.838V255.355Z" fill="white"/>
<path d="M128.892 260.238L116.355 260.911L116.344 257.383L128.881 256.722L128.892 260.238Z" fill="white"/>
<path d="M128.903 265.133L116.366 265.839L116.355 262.3L128.892 261.617L128.903 265.133Z" fill="white"/>
<path d="M128.903 270.006L116.366 270.767V267.217L128.903 266.489V270.006Z" fill="white"/>
<path d="M128.903 274.901L116.377 275.683V272.145L128.903 271.384V274.901Z" fill="white"/>
<path d="M128.914 279.784L116.388 280.611L116.377 277.061L128.903 276.268L128.914 279.784Z" fill="white"/>
<path d="M128.925 284.679L116.399 285.528L116.388 281.978L128.914 281.162L128.925 284.679Z" fill="white"/>
<path d="M128.936 289.552L116.41 290.445L116.399 286.906L128.925 286.035L128.936 289.552Z" fill="white"/>
<path d="M128.936 294.447L116.41 295.373V291.834L128.936 290.919V294.447Z" fill="white"/>
<path d="M128.947 299.33L116.421 300.29V296.751L128.947 295.814V299.33Z" fill="white"/>
<path d="M165.579 172.243L131.41 172.298L131.399 168.792L165.568 168.803L165.579 172.243Z" fill="white"/>
<path d="M191.356 270.998L142.737 274.041V270.546L191.345 267.603L191.356 270.998Z" fill="white"/>
<path d="M199.33 275.165L151.205 278.329L151.194 274.857L199.33 271.803V275.165Z" fill="white"/>
<path d="M199.341 279.851L151.216 283.147L151.205 279.674L199.341 276.488V279.851Z" fill="white"/>
<path d="M220.092 283.059L173.2 286.399V282.97L220.081 279.729L220.092 283.059Z" fill="white"/>
<path d="M220.103 287.678L173.211 291.15V287.733L220.092 284.349L220.103 287.678Z" fill="white"/>
<path d="M220.103 292.297L173.222 295.913L173.211 292.495L220.103 288.968V292.297Z" fill="white"/>
<path d="M165.722 267.812L131.553 269.852L131.542 266.346L165.722 264.373V267.812Z" fill="white"/>
<path d="M191.279 219.239L142.66 220.739L142.649 217.255L191.268 215.855L191.279 219.239Z" fill="white"/>
<path d="M199.253 223.671L151.117 225.292V221.83L199.253 220.309V223.671Z" fill="white"/>
<path d="M199.264 228.356L151.128 230.12V226.648L199.264 224.994V228.356Z" fill="white"/>
<path d="M199.275 233.042L151.139 234.938L151.128 231.476L199.264 229.668L199.275 233.042Z" fill="white"/>
<path d="M162.434 239.281L131.597 240.582L131.586 237.076L162.434 235.831V239.281Z" fill="white"/>
<path d="M176.895 243.415L142.704 244.959L142.693 241.475L176.884 239.998L176.895 243.415Z" fill="white"/>
<path d="M194.667 247.307L151.161 249.391V245.929L194.667 243.923V247.307Z" fill="white"/>
<path d="M194.678 252.003L151.172 254.219L151.161 250.747L194.667 248.619L194.678 252.003Z" fill="white"/>
<path d="M204.322 256.171L161.345 258.486L161.334 255.046L204.322 252.819V256.171Z" fill="white"/>
<path d="M204.333 260.834L161.345 263.281V259.831L204.322 257.482L204.333 260.834Z" fill="white"/>
<path d="M165.645 215.248L131.465 216.197V212.691L165.634 211.809L165.645 215.248Z" fill="white"/>
<path d="M103.224 181.658L72.1677 181.889V176.763L103.213 176.63L103.224 181.658Z" fill="white"/>
<path d="M64.1397 181.944L69.9902 181.9L69.9792 176.774L64.1287 176.796L64.1397 181.944Z" fill="white"/>
<path d="M103.235 188.889L72.1787 189.242L72.1677 184.127L103.224 183.862L103.235 188.889Z" fill="white"/>
<path d="M64.1506 189.33L70.0012 189.264L69.9902 184.149L64.1396 184.193L64.1506 189.33Z" fill="white"/>
<path d="M103.235 196.11L72.1897 196.595L72.1787 191.48L103.235 191.083V196.11Z" fill="white"/>
<path d="M64.1616 196.717L70.0122 196.629L70.0012 191.513L64.1506 191.579L64.1616 196.717Z" fill="white"/>
<path d="M103.323 247.395L49.0842 249.854L49.0732 244.683L103.323 242.368V247.395Z" fill="white"/>
<path d="M103.334 255.244L72.2776 256.799V251.684L103.323 250.206L103.334 255.244Z" fill="white"/>
<path d="M64.2608 257.207L70.1003 256.909V251.783L64.2498 252.058L64.2608 257.207Z" fill="white"/>
<path d="M103.345 262.465L72.2996 264.152L72.2886 259.037L103.334 257.438L103.345 262.465Z" fill="white"/>
<path d="M64.2607 264.593L70.1113 264.273L70.1003 259.147L64.2607 259.456V264.593Z" fill="white"/>
<path d="M103.356 269.686L72.3106 271.516L72.2996 266.401L103.345 264.659L103.356 269.686Z" fill="white"/>
<path d="M64.2717 271.979L70.1223 271.638L70.1113 266.511L64.2607 266.842L64.2717 271.979Z" fill="white"/>
<path d="M103.246 203.386L49.0073 204.467V199.274L103.246 198.359V203.386Z" fill="white"/>
<path d="M103.268 211.236L72.2117 211.996V206.881L103.257 206.209L103.268 211.236Z" fill="white"/>
<path d="M64.1836 212.195L70.0342 212.04L70.0232 206.925L64.1726 207.046L64.1836 212.195Z" fill="white"/>
<path d="M103.279 218.457L72.2337 219.349L72.2227 214.234L103.268 213.429L103.279 218.457Z" fill="white"/>
<path d="M64.1946 219.581L70.0452 219.416L70.0342 214.289L64.1836 214.444L64.1946 219.581Z" fill="white"/>
<path d="M103.301 233.009L72.2556 234.155L72.2446 229.04L103.29 227.97L103.301 233.009Z" fill="white"/>
<path d="M64.2166 234.453L70.0671 234.232L70.0561 229.117L64.2056 229.315L64.2166 234.453Z" fill="white"/>
<path d="M103.312 240.218L72.2556 241.508V236.393L103.301 235.191L103.312 240.218Z" fill="white"/>
<path d="M64.2275 241.839L70.0781 241.596L70.0671 236.481L64.2275 236.702V241.839Z" fill="white"/>
<path d="M103.29 225.677L72.2446 226.714L72.2336 221.587L103.279 220.661L103.29 225.677Z" fill="white"/>
<path d="M64.2056 226.967L70.0561 226.78L70.0451 221.654L64.1946 221.83L64.2056 226.967Z" fill="white"/>
<path d="M103.367 276.918L49.1174 280.325V275.132L103.356 271.891L103.367 276.918Z" fill="white"/>
<path d="M103.378 284.767L72.3328 286.851L72.3218 281.736L103.367 279.729L103.378 284.767Z" fill="white"/>
<path d="M64.3047 287.391L70.1443 287.005V281.879L64.2937 282.254L64.3047 287.391Z" fill="white"/>
<path d="M103.389 291.988L72.3438 294.215V289.089L103.389 286.961V291.988Z" fill="white"/>
<path d="M64.3157 294.788L70.1662 294.37L70.1553 289.254L64.3047 289.64L64.3157 294.788Z" fill="white"/>
<path d="M103.4 299.209L72.3438 301.568V296.453L103.4 294.193V299.209Z" fill="white"/>
<path d="M64.3267 302.175L70.1772 301.734L70.1662 296.607L64.3157 297.037L64.3267 302.175Z" fill="white"/>
<path d="M109.987 298.735L108.8 298.823L108.602 168.781H109.79L109.987 298.735Z" fill="white"/>
<path d="M139.361 154.758C139.361 156.247 138.251 157.47 136.887 157.481C135.512 157.481 134.402 156.269 134.402 154.769C134.402 153.27 135.523 152.046 136.887 152.046C138.251 152.046 139.361 153.259 139.361 154.758Z" fill="white"/>
<path opacity="0.48" d="M23.8346 325.502L238.557 309.649L239.657 309.572C241.119 309.462 242.439 308.734 243.462 307.643C228.011 306.794 218.41 301.293 212.218 295.626C199.78 284.227 201.936 272.971 188.541 265.475C171.814 256.126 158.673 267.966 145.982 256.281C138.295 249.192 142.067 243.9 132.598 233.306C122.118 221.565 115.288 225.523 104.753 214.951C91.4241 201.589 98.0884 191.205 86.6183 181.613C72.6957 169.983 57.6733 180.754 44.4326 169.597C38.725 164.779 35.5798 157.79 33.9412 150.349H23.8456C19.9856 150.349 16.8404 153.612 16.8404 157.625V318.733C16.8294 322.757 19.9746 325.789 23.8346 325.502Z" fill="white"/>
<path d="M249.818 308.69L21.6133 325.447L121.106 343.218C122.239 343.427 123.393 343.472 124.559 343.372L361.177 323.518L253.458 308.8C252.249 308.635 251.028 308.602 249.818 308.69Z" fill="url(#paint3_linear_57_283)"/>
<path d="M54.9131 325.601L244.903 311.435L303.705 319.406L115.354 334.542L54.9131 325.601Z" fill="#D8DEE8"/>
<path d="M255.262 90.1782L155.945 83.8172C152.558 83.5967 149.798 88.8112 149.798 95.4588V287.457C149.798 294.105 152.558 299.154 155.945 298.746L255.262 286.708C258.088 286.366 260.354 281.218 260.354 275.198V101.401C260.354 95.3817 258.088 90.3656 255.262 90.1782Z" fill="url(#paint4_linear_57_283)"/>
<path opacity="0.74" d="M157.749 294.921C155.484 295.196 153.636 291.746 153.636 287.237V95.5691C153.636 91.0491 155.473 87.5103 157.738 87.6426L255.295 93.6619C257.187 93.7831 258.704 97.2007 258.704 101.302V275.364C258.704 279.465 257.176 282.97 255.295 283.202L157.749 294.921Z" fill="white"/>
<path d="M255.262 90.1782L155.945 83.8172C152.558 83.5967 149.798 88.8112 149.798 95.4588V104.091L260.365 109.206V101.39C260.354 95.3817 258.088 90.3656 255.262 90.1782Z" fill="url(#paint5_linear_57_283)"/>
<path d="M215.661 96.4841C215.661 99.5819 213.01 102.018 209.733 101.93C206.456 101.853 203.784 99.2733 203.784 96.1644C203.784 93.0556 206.445 90.6192 209.733 90.7184C213.01 90.8177 215.661 93.4084 215.661 96.4841Z" fill="url(#paint6_linear_57_283)"/>
<path opacity="0.1" d="M213.494 96.2857C213.494 98.4464 211.724 100.155 209.524 100.1C207.325 100.045 205.532 98.248 205.532 96.0762C205.532 93.9044 207.314 92.1957 209.524 92.2618C211.724 92.3169 213.494 94.1249 213.494 96.2857Z" fill="white"/>
<path d="M209.117 94.4667C209.117 95.051 208.6 95.503 207.941 95.4919C207.292 95.4699 206.764 94.9958 206.764 94.4116C206.764 93.8273 207.292 93.3753 207.941 93.3863C208.589 93.4194 209.117 93.8934 209.117 94.4667Z" fill="white"/>
<g opacity="0.5">
<path d="M220.972 162.663C209.392 129.678 189.234 140.427 176.422 103.727C174.102 97.0905 172.397 91.0492 171.309 84.8094L159.937 84.0929C156.55 83.8724 153.691 88.3262 153.691 94.9848V286.972C153.691 293.62 156.451 298.669 159.838 298.261L255.581 286.653C253.425 280.578 234.565 258.353 229.682 223.34C225.195 191.249 227.934 182.495 220.972 162.663Z" fill="white"/>
</g>
<path opacity="0.5" d="M208.128 201.446C203.707 201.534 199.308 200.388 195.426 198.117C191.214 195.669 187.695 191.998 185.242 187.511C182.867 183.157 181.613 178.163 181.613 173.081C181.613 157.151 193.655 144.539 208.128 144.958C222.237 145.366 233.465 158.088 233.465 173.312C233.465 188.537 222.237 201.159 208.128 201.446Z" fill="white"/>
<path d="M231.266 173.312C231.266 187.236 221.016 198.723 208.128 198.955C203.949 199.032 200.001 197.918 196.547 195.901C192.72 193.663 189.498 190.312 187.288 186.222C185.198 182.374 184 177.887 184 173.092C184 158.573 194.92 147.097 208.117 147.46C221.027 147.813 231.266 159.389 231.266 173.312Z" fill="white"/>
<path d="M222.919 169.189L222.908 176.586C222.908 177.292 222.655 177.975 222.193 178.472L216.463 184.788C216.002 185.296 215.375 185.582 214.715 185.582H206.038C206.038 185.582 200.077 192.042 196.547 195.901C192.72 193.663 189.498 190.312 187.288 186.222C190.862 182.374 196.976 175.749 196.976 175.749L196.932 166.157C196.932 165.43 197.196 164.735 197.68 164.217L203.597 157.9C204.069 157.404 204.707 157.129 205.356 157.14L212.229 157.272C212.801 157.283 213.307 157.669 213.527 158.242C213.747 158.826 213.626 159.477 213.219 159.907L206.676 166.962C206.093 167.591 206.093 168.627 206.676 169.255L209.018 171.824L209.667 172.529L211.999 175.098C212.581 175.727 213.505 175.738 214.088 175.109L220.554 168.054C220.95 167.624 221.544 167.491 222.061 167.734C222.589 168.021 222.919 168.572 222.919 169.189Z" fill="url(#paint7_linear_57_283)"/>
<path d="M242.472 260.878C242.472 263.711 241.318 266.081 239.888 266.192L175.114 271.097C173.508 271.219 172.199 268.881 172.199 265.872V245.433C172.199 242.423 173.497 239.921 175.114 239.844L239.888 236.658C241.318 236.591 242.472 238.829 242.472 241.652V260.878Z" fill="white"/>
<path d="M191.994 327.255V331.235C191.994 332.26 191.478 333.087 190.785 333.186L128.837 338.808C128.375 338.874 127.913 338.852 127.451 338.775C127.33 338.753 127.22 338.731 127.088 338.698L83.9239 330.551C83.462 330.43 83.1321 329.835 83.1321 329.129V324.929L128.925 319.24L134.819 316.44L140.681 317.289L144.134 316.616L152.041 318.921L191.994 327.255Z" fill="url(#paint8_linear_57_283)"/>
<path opacity="0.3" d="M191.994 327.255V331.235C191.994 332.26 191.477 333.087 190.785 333.186L128.837 338.808C128.375 338.874 127.803 338.852 127.462 338.775V317.333L134.83 316.429L140.692 317.278L144.145 316.605L152.052 318.91L191.994 327.255Z" fill="url(#paint9_linear_57_283)"/>
<path d="M144.156 316.628L83.1431 324.752L127.154 333.065C127.693 333.197 128.243 333.23 128.793 333.164L192.005 327.266L144.156 316.628Z" fill="url(#paint10_linear_57_283)"/>
<path d="M166.525 323.959C166.525 326.88 157.386 329.129 144.75 329.724C141.561 329.868 138.151 329.912 134.621 329.835C117.246 329.427 103.29 326.186 103.29 322.603C103.29 322.526 103.301 322.349 103.312 322.349H103.29L103.356 322.173C103.378 322.118 103.4 322.063 103.422 322.007L107.425 311.512L112.264 298.845L119.038 281.085L124.218 267.492L130.673 250.592C131.476 248.476 132.972 247.164 134.588 247.164C134.808 247.164 135.017 247.186 135.237 247.23C136.601 247.528 137.822 248.762 138.514 250.603L145.025 267.625L150.216 281.394L157.078 299.507L161.994 312.516L162.071 312.527L166.162 323.099C166.371 323.374 166.525 323.661 166.525 323.959Z" fill="url(#paint11_linear_57_283)"/>
<path d="M162.093 312.515C158.134 313.838 151.81 314.797 144.244 315.15C141.198 315.294 137.965 315.338 134.599 315.283C122.931 315.062 112.803 313.552 107.425 311.512L112.264 298.845C117.927 300.124 125.835 300.984 134.61 301.116C137.448 301.161 140.219 301.127 142.847 301.017C148.39 300.797 153.284 300.257 157.133 299.507L162.016 312.515H162.093Z" fill="white"/>
<path d="M150.292 281.372C147.279 281.692 143.958 281.923 140.439 282.022C138.547 282.077 136.612 282.1 134.621 282.077C128.936 282.022 123.624 281.659 119.049 281.074L124.229 267.481C127.473 267.735 130.97 267.889 134.61 267.9C135.897 267.911 137.173 267.9 138.415 267.867C140.703 267.823 142.913 267.735 145.025 267.592L150.292 281.372Z" fill="white"/>
<path opacity="0.2" d="M144.75 329.724C141.561 329.868 138.151 329.912 134.621 329.835C117.246 329.427 103.29 326.186 103.29 322.603C103.29 322.526 103.301 322.349 103.312 322.349H103.29L103.356 322.173C103.378 322.118 103.4 322.063 103.422 322.007L107.425 311.512L112.264 298.845L119.038 281.085L124.218 267.492L130.673 250.592C131.476 248.476 132.972 247.164 134.588 247.164C134.808 247.164 135.017 247.186 135.237 247.23C135.919 251.529 137.107 259.048 138.415 267.889C139.075 272.343 139.757 277.139 140.428 282.033C141.286 288.361 142.133 294.855 142.847 301.017C143.43 306.055 143.925 310.873 144.277 315.172C144.794 321.379 145.003 326.527 144.75 329.724Z" fill="url(#paint12_linear_57_283)"/>
<path d="M315.857 192.671C315.857 192.671 314.262 191.789 313.801 190.675C313.339 189.551 313.328 187.82 314.911 186.905C316.484 185.99 313.185 185.141 313.757 184.403C314.328 183.653 316.187 182.925 316.187 182.925C316.187 182.925 317.309 187.655 317.045 188.371C316.759 189.077 315.241 189.165 316.649 191.205L315.857 192.671Z" fill="url(#paint13_linear_57_283)"/>
<path d="M264.984 353.129C264.852 353.206 262.597 356.282 261.563 358.299L258.737 356.778C258.737 356.778 260.321 356.205 261.123 353.129C261.937 350.042 264.984 353.129 264.984 353.129Z" fill="url(#paint14_linear_57_283)"/>
<path d="M257.571 360.129C257.571 360.129 259.331 360.725 260.068 360.78L260.145 360.791C260.552 360.824 260.969 360.636 261.211 360.295C261.64 359.71 262.267 358.817 262.289 358.575C262.311 358.189 261.288 357.417 260.376 357.087C259.463 356.756 259.254 356.304 257.56 354.948C255.878 353.603 253.029 351.993 251.688 353.228C250.379 354.474 251.611 357.55 257.571 360.129Z" fill="url(#paint15_linear_57_283)"/>
<path d="M252.688 353.438C254.151 354.022 254.602 355.675 257.131 357.351C258.572 358.299 260.354 359.181 261.618 359.754C261.959 359.269 262.289 358.773 262.289 358.597C262.311 358.211 261.288 357.439 260.376 357.109C259.463 356.778 259.254 356.326 257.56 354.97C255.878 353.625 253.029 352.015 251.688 353.25C251.347 353.57 251.182 354 251.204 354.518C251.49 353.79 251.941 353.14 252.688 353.438Z" fill="url(#paint16_linear_57_283)"/>
<path d="M239.778 158.881L239.866 164.757C239.899 166.477 241.339 167.745 243.077 167.58L246.266 167.282C246.706 170.049 247.454 172.695 248.465 175.186L245.848 176.939C244.352 177.942 243.858 179.894 244.748 181.305L247.806 186.089C248.696 187.489 252.721 188.151 254.228 187.148L254.624 185.141C256.439 187.192 258.473 189.022 260.716 190.598L259.364 193.112C258.517 194.688 259.056 196.529 260.573 197.235L265.731 199.627C267.238 200.333 272.033 200.211 272.868 198.646L271.285 195.636C273.935 196.397 276.729 196.871 279.61 197.036L279.654 199.638C279.687 201.347 281.094 202.582 282.81 202.405L288.661 201.81C290.376 201.634 291.74 200.112 291.718 198.414L291.674 195.824C294.522 195.085 297.272 194.06 299.867 192.77L301.209 194.898C302.077 196.287 307.048 196.772 308.511 195.769L310.402 192.197C311.865 191.205 312.338 189.275 311.458 187.897L310.061 185.692C312.195 183.708 314.13 181.503 315.824 179.144L318.265 180.302C319.75 180.996 324.017 181.184 324.842 179.64L325.227 173.5C326.051 171.956 325.524 170.126 324.05 169.432L321.488 168.208C322.389 165.573 323.027 162.85 323.368 160.061L326.436 159.774C328.119 159.62 329.461 158.121 329.439 156.434L329.351 150.69C329.318 149.004 327.943 147.769 326.26 147.912L323.016 148.21C322.521 145.564 321.741 143.04 320.718 140.658L323.61 138.718C325.062 137.748 325.535 135.83 324.666 134.441L324.952 128.719C324.094 127.319 318.98 127.98 317.529 128.951L314.493 130.979C312.767 129.083 310.842 127.396 308.742 125.919L310.512 122.623C311.337 121.079 310.809 119.249 309.325 118.533L307.037 115.523C305.552 114.795 300.912 115.997 300.087 117.541L298.261 120.914C295.798 120.197 293.224 119.734 290.574 119.547L290.519 115.777C290.486 114.079 289.089 112.811 287.374 112.943L281.523 113.428C279.808 113.561 278.422 115.071 278.455 116.78L278.51 120.561C275.849 121.201 273.253 122.094 270.801 123.229L271.769 119.194C270.889 117.783 266.05 118.378 264.555 119.36L259.485 122.711C258 123.692 257.505 125.632 258.396 127.054L260.31 130.075C258.198 131.927 256.285 133.989 254.58 136.194L254.624 134.187C253.106 133.46 247.96 134.606 247.113 136.172L244.209 141.507C243.352 143.084 243.902 144.936 245.43 145.663L248.476 147.108C247.487 149.709 246.761 152.421 246.332 155.199L242.967 155.508C241.152 155.64 239.756 157.162 239.778 158.881ZM261.53 160.403C261.343 147.493 271.758 136.094 284.735 134.97C297.623 133.845 308.181 143.293 308.368 156.07C308.555 168.847 298.316 180.224 285.427 181.481C272.462 182.749 261.728 173.323 261.53 160.403Z" fill="url(#paint17_linear_57_283)"/>
<path d="M243.704 158.65L243.792 164.526C243.825 166.246 245.265 167.513 247.003 167.348L250.192 167.05C250.632 169.818 251.38 172.463 252.392 174.955L249.774 176.708C248.279 177.711 247.784 179.662 248.674 181.073L251.732 185.858C252.623 187.258 254.558 187.578 256.065 186.574L258.528 184.91C260.343 186.96 262.377 188.79 264.621 190.367L263.268 192.88C262.421 194.457 262.96 196.298 264.478 197.003L269.635 199.396C271.142 200.101 273.055 199.396 273.902 197.819L275.2 195.405C277.85 196.166 280.644 196.64 283.525 196.805L283.569 199.407C283.602 201.115 285.01 202.35 286.725 202.174L292.576 201.578C294.291 201.402 295.655 199.881 295.633 198.183L295.589 195.592C298.437 194.854 301.187 193.828 303.782 192.539L305.124 194.666C305.992 196.055 307.884 196.364 309.347 195.361L314.317 191.965C315.78 190.973 316.253 189.044 315.373 187.666L313.976 185.461C316.11 183.477 318.045 181.272 319.739 178.913L322.18 180.07C323.665 180.765 325.513 180.092 326.337 178.538L329.142 173.268C329.967 171.725 329.439 169.895 327.965 169.2L325.403 167.976C326.304 165.342 326.942 162.619 327.283 159.83L330.351 159.543C332.034 159.389 333.376 157.889 333.354 156.203L333.266 150.459C333.233 148.772 331.858 147.538 330.175 147.681L326.931 147.978C326.436 145.333 325.656 142.808 324.633 140.427L327.525 138.487C328.977 137.516 329.45 135.598 328.581 134.209L325.634 129.48C324.776 128.08 322.895 127.749 321.444 128.719L318.408 130.748C316.682 128.851 314.757 127.165 312.657 125.687L314.427 122.391C315.252 120.848 314.724 119.018 313.24 118.301L308.181 115.832C306.696 115.104 304.816 115.766 303.991 117.309L302.165 120.682C299.702 119.966 297.14 119.503 294.478 119.315L294.423 115.545C294.39 113.847 292.994 112.58 291.278 112.712L285.427 113.197C283.712 113.329 282.326 114.84 282.359 116.548L282.414 120.33C279.753 120.969 277.157 121.862 274.705 122.998L272.77 119.9C271.89 118.489 269.954 118.147 268.47 119.128L263.4 122.479C261.915 123.461 261.42 125.401 262.311 126.823L264.225 129.844C262.113 131.696 260.2 133.757 258.495 135.962L255.306 134.441C253.788 133.713 251.853 134.397 251.006 135.951L248.103 141.287C247.245 142.863 247.795 144.715 249.323 145.443L252.37 146.887C251.38 149.489 250.654 152.201 250.225 154.979L246.86 155.288C245.078 155.398 243.671 156.919 243.704 158.65ZM265.456 160.16C265.269 147.24 275.684 135.852 288.661 134.727C301.55 133.603 312.107 143.051 312.294 155.828C312.481 168.605 302.242 179.982 289.353 181.239C276.377 182.506 265.643 173.081 265.456 160.16Z" fill="url(#paint18_linear_57_283)"/>
<path d="M281.754 270.072C277.224 279.211 272.616 290.18 268.8 302.891C263.114 321.831 260.947 338.875 260.244 352.39C261.86 353.063 263.477 353.724 265.093 354.397C268.272 352.368 272.935 348.785 276.366 342.998C281.996 333.495 278.026 328.666 282.601 317.223C287.044 306.132 292.664 305.945 297.547 293.896C300.461 286.708 301.121 280.17 301.253 275.915C294.753 273.975 288.254 272.023 281.754 270.072Z" fill="url(#paint19_linear_57_283)"/>
<path opacity="0.3" d="M290.64 272.74C292.389 277.282 292.257 280.7 291.586 283.202C289.331 291.525 280.457 292.429 278.345 301.756C276.927 308.007 280.523 309.385 278.631 315.878C276.619 322.768 272.209 322.47 269.8 329.581C267.898 335.17 269.932 337.43 269.085 345.28C268.789 347.992 268.261 350.461 267.612 352.666C270.449 350.527 273.759 347.407 276.366 342.998C281.996 333.495 278.026 328.666 282.601 317.223C287.044 306.132 292.664 305.945 297.546 293.896C300.461 286.708 301.121 280.17 301.253 275.915C297.711 274.868 294.181 273.798 290.64 272.74Z" fill="url(#paint20_linear_57_283)"/>
<path d="M352.907 337C352.907 337 354.106 337.452 354.633 339.128C355.161 340.804 354.304 347.771 353.534 349.491C352.775 351.2 350.542 350.792 349.894 349.491C349.245 348.19 350.169 338.963 350.169 338.963L352.907 337Z" fill="url(#paint21_linear_57_283)"/>
<path d="M282.458 274.217C287.715 281.372 291.366 287.579 293.708 291.911C298.668 301.061 299.79 305.482 305.63 313.993C311.04 321.864 314.603 324.708 316.066 325.789C319.585 328.413 322.488 329.592 329.934 332.414C336.455 334.895 343.361 337.441 350.631 340.065C351.917 340.208 352.456 339.657 352.808 338.489C352.687 332.921 351.015 329.526 349.63 327.509C346.672 323.22 343.592 323.187 334.432 316.683C329.538 313.221 327.063 311.413 325.007 308.58C324.017 307.213 322.389 304.677 319.827 295.108C318.782 291.195 317.507 285.881 316.44 279.465C305.135 277.723 293.796 275.959 282.458 274.217Z" fill="url(#paint22_linear_57_283)"/>
<path d="M251.809 190.962C251.809 190.962 252.711 189.11 250.599 187.423C248.488 185.759 244.441 183.455 244.759 180.246C244.759 180.246 246.948 183.929 248.356 183.609C249.763 183.278 250.72 184.094 250.72 184.094C250.72 184.094 254.019 185.979 253.92 189.595C253.821 193.211 253.821 193.211 253.821 193.211L251.809 190.962Z" fill="url(#paint23_linear_57_283)"/>
<path d="M250.797 190.124C252.04 189.926 253.271 189.716 254.525 189.529C255.581 191.116 257.076 193.641 258.176 196.959C260.661 204.467 258.759 208.667 260.233 213.209C261.442 216.935 265.159 221.554 276.564 224.983C276.487 232.237 276.399 239.513 276.322 246.767C271.648 246.072 264.115 244.209 256.922 238.686C252.754 235.489 248.245 232.005 246.563 226.052C244.451 218.534 247.586 209.626 248.806 206.142C249.51 204.147 250.863 200.774 251.094 195.923C251.204 193.509 250.995 191.48 250.797 190.124Z" fill="url(#paint24_linear_57_283)"/>
<path d="M275.695 224.718C279.621 225.49 285.043 226.085 291.399 225.336C302.451 224.035 310.468 219.338 314.603 216.472C319.134 226.383 319.222 233.714 318.43 238.653C317.848 242.291 316.946 243.504 316.869 247.583C316.737 254.44 319.178 255.465 320.322 264.373C321.268 271.704 319.915 273.302 322.049 276.356C323.577 278.55 325.612 279.63 326.821 283.059C327.228 284.183 328.218 287.016 327.151 287.931C325.458 289.398 321.246 283.588 313.372 282.794C309.182 282.375 308.544 283.83 304.189 283.015C299.449 282.111 299.768 280.27 295.336 279.377C290.926 278.484 289.595 280.071 282.843 279.266C280.006 278.925 278.576 278.759 277.696 277.965C274.837 275.408 277.202 270.337 277.718 262.355C278.224 254.484 276.278 253.955 275.475 242.236C275.211 238.069 275.035 232.083 275.695 224.718Z" fill="url(#paint25_linear_57_283)"/>
<path d="M313.811 192.45C314.702 191.447 315.593 190.455 316.473 189.452C320.212 191.48 325.941 195.162 331.132 201.479C335.014 206.209 338.445 210.376 338.808 216.428C339.336 225.104 333.211 231.597 330.362 234.618C324.743 240.582 318.254 243.063 314.548 244.132C307.367 228.158 308.434 221.918 310.974 219.25C312.382 217.762 314.295 217.354 316.044 214.609C318.474 210.784 318.045 206.451 317.781 203.706C317.287 198.646 315.318 194.787 313.811 192.45Z" fill="url(#paint26_linear_57_283)"/>
<path d="M292.257 217.001C292.048 218.093 291.927 220.441 293.368 222.304C294.621 223.936 296.546 224.432 297.316 224.641C299.174 225.137 300.175 224.74 300.285 225.049C300.505 225.755 295.941 228.908 290.662 228.709C287.561 228.588 284.427 227.32 284.46 226.328C284.504 225.203 288.474 225.336 289.464 223.01C290.09 221.521 289.233 219.702 288.276 218.28C289.134 217.277 291.399 218.005 292.257 217.001Z" fill="url(#paint27_linear_57_283)"/>
<path d="M288.43 216.031C288.111 215.127 288.474 213.915 289.342 213.396C290.101 212.955 290.992 213.187 291.52 213.341C293.06 213.749 294.742 215.072 294.973 216.616C295.105 217.542 293.752 218.809 293.532 219.041C293.279 219.305 292.972 219.316 292.642 219.46C292.18 219.669 291.465 219.989 290.288 220.551C290.31 220.254 290.31 219.879 290.255 219.46C290.233 219.294 290.156 218.666 289.914 218.06C289.441 216.88 288.727 216.891 288.43 216.031Z" fill="url(#paint28_linear_57_283)"/>
<path d="M291.795 220.287C291.795 220.287 290.321 221.422 288.419 220.54C286.714 219.757 287.66 215.965 289.035 215.623C289.485 215.502 290.266 215.678 290.816 216.086C291.135 216.318 291.223 216.505 291.762 216.88C292.257 217.222 292.433 217.222 292.554 217.42C292.697 217.663 292.719 218.115 292.037 219.074C292.477 218.886 292.906 218.92 293.159 219.151C293.203 219.195 293.291 219.305 293.324 219.46C293.412 219.956 292.829 220.331 291.795 220.287Z" fill="url(#paint29_linear_57_283)"/>
<path opacity="0.3" d="M314.768 274.063C311.425 273.413 310.171 276.621 306.938 276.058C302.44 275.287 302.913 268.771 297.689 265.64C291.707 262.058 285.724 267.393 281.754 264.351C279.478 262.609 277.949 258.188 280.896 246.657C280.94 245.753 281.083 241.486 277.905 237.804C274.298 233.626 269.272 233.527 268.513 233.527C260.43 234.023 252.787 230.186 248.718 223.539C247.278 221.18 246.497 218.798 246.101 216.56C245.694 219.647 245.683 222.954 246.552 226.041C248.223 231.994 252.743 235.467 256.911 238.675C263.906 244.044 271.208 245.951 275.904 246.701C276.805 254.241 278.169 255.608 277.729 262.333C277.212 270.315 274.848 275.397 277.707 277.943C278.587 278.726 280.006 278.903 282.854 279.244C289.606 280.049 290.937 278.462 295.347 279.355C299.79 280.259 299.46 282.089 304.2 282.993C308.555 283.83 309.182 282.353 313.382 282.772C321.235 283.566 325.458 289.376 327.162 287.909C327.767 287.391 327.701 286.245 327.459 285.142C325.348 284.437 323.841 283.456 322.752 282.485C319.002 279.189 318.507 274.791 314.768 274.063Z" fill="url(#paint30_linear_57_283)"/>
<path d="M183.263 84.8315L183.329 89.2632C183.351 90.5641 184.439 91.5122 185.759 91.3909L188.156 91.1704C188.486 93.265 189.047 95.2604 189.817 97.1345L187.848 98.4464C186.716 99.2071 186.353 100.673 187.024 101.732L189.322 105.337C189.993 106.395 193.028 106.902 194.161 106.13L194.458 104.62C195.821 106.174 197.372 107.541 199.055 108.732L198.032 110.628C197.394 111.819 197.812 113.197 198.945 113.737L202.838 115.545C203.97 116.074 207.589 115.986 208.226 114.806L207.028 112.535C209.029 113.12 211.13 113.472 213.307 113.583L213.34 115.545C213.362 116.835 214.429 117.761 215.716 117.64L220.126 117.188C221.423 117.055 222.446 115.909 222.424 114.619L222.391 112.668C224.535 112.116 226.603 111.345 228.56 110.375L229.583 111.984C230.243 113.02 233.993 113.395 235.093 112.646L236.511 109.945C237.611 109.195 237.974 107.74 237.314 106.704L236.27 105.039C237.875 103.54 239.338 101.886 240.624 100.1L242.461 100.971C243.583 101.5 246.805 101.643 247.421 100.475L247.707 95.8447C248.323 94.6871 247.927 93.3091 246.816 92.78L244.88 91.8539C245.551 89.8696 246.035 87.819 246.299 85.7024L248.609 85.4819C249.873 85.3606 250.896 84.2362 250.874 82.9684L250.808 78.6358C250.786 77.368 249.752 76.431 248.477 76.5412L246.024 76.7617C245.65 74.7663 245.067 72.8591 244.287 71.0622L246.464 69.5959C247.553 68.8573 247.916 67.4131 247.256 66.3769L247.476 62.0553C246.816 61.008 242.967 61.5041 241.878 62.2317L239.591 63.7641C238.293 62.342 236.841 61.0632 235.247 59.9387L236.577 57.4582C237.204 56.3007 236.797 54.9116 235.687 54.3714L233.949 52.1004C232.827 51.5492 229.33 52.4532 228.703 53.6108L227.329 56.1684C225.481 55.6282 223.535 55.2864 221.533 55.1321L221.489 52.2989C221.467 51.009 220.411 50.0609 219.114 50.1712L214.704 50.535C213.406 50.6452 212.372 51.7697 212.394 53.0595L212.438 55.9038C210.426 56.3889 208.479 57.0614 206.632 57.9212L207.369 54.8786C206.698 53.8202 203.058 54.2722 201.936 55.0108L198.109 57.5354C196.987 58.274 196.624 59.7402 197.284 60.8096L198.725 63.0916C197.141 64.4917 195.69 66.0351 194.403 67.7108L194.436 66.2005C193.292 65.6493 189.41 66.5202 188.761 67.6998L186.573 71.7236C185.924 72.9032 186.342 74.3033 187.497 74.8545L189.784 75.9459C189.036 77.9082 188.486 79.9477 188.167 82.0423L185.627 82.2738C184.296 82.3731 183.241 83.5306 183.263 84.8315ZM199.66 85.967C199.517 76.2215 207.369 67.6446 217.156 66.7848C226.878 65.9359 234.829 73.0576 234.972 82.6928C235.115 92.328 227.384 100.905 217.673 101.853C207.908 102.823 199.813 95.7124 199.66 85.967Z" fill="url(#paint31_linear_57_283)"/>
<path d="M187.112 84.644L187.178 89.0758C187.2 90.3767 188.288 91.3247 189.608 91.2035L192.005 90.983C192.335 93.0776 192.896 95.073 193.666 96.9471L191.698 98.259C190.565 99.0197 190.202 100.486 190.873 101.544L193.171 105.149C193.842 106.207 195.305 106.45 196.437 105.689L198.296 104.433C199.66 105.987 201.21 107.354 202.893 108.545L201.87 110.441C201.232 111.631 201.65 113.009 202.783 113.55L206.676 115.358C207.809 115.887 209.249 115.358 209.887 114.178L210.866 112.348C212.867 112.932 214.968 113.285 217.145 113.395L217.178 115.358C217.2 116.647 218.267 117.574 219.554 117.452L223.964 117C225.261 116.868 226.284 115.721 226.262 114.432L226.229 112.48C228.374 111.929 230.441 111.157 232.399 110.187L233.421 111.797C234.081 112.833 235.511 113.076 236.611 112.315L240.35 109.746C241.449 108.997 241.812 107.541 241.152 106.505L240.108 104.84C241.713 103.341 243.176 101.688 244.463 99.9016L246.299 100.773C247.421 101.302 248.818 100.784 249.433 99.615L251.545 95.6463C252.161 94.4887 251.765 93.1107 250.654 92.5815L248.719 91.6555C249.389 89.6711 249.873 87.6206 250.137 85.5039L252.447 85.2835C253.711 85.1622 254.734 84.0377 254.712 82.7699L254.646 78.4374C254.624 77.1696 253.59 76.2325 252.315 76.3428L249.862 76.5633C249.488 74.5679 248.906 72.6607 248.125 70.8637L250.302 69.3975C251.391 68.6589 251.754 67.2147 251.094 66.1784L248.873 62.6176C248.213 61.5703 246.805 61.3167 245.705 62.0443L243.418 63.5767C242.12 62.1546 240.669 60.8757 239.074 59.7513L240.405 57.2708C241.031 56.1133 240.625 54.7242 239.514 54.184L235.698 52.3209C234.576 51.7697 233.157 52.2768 232.531 53.4344L231.156 55.992C229.308 55.4518 227.362 55.1101 225.36 54.9557L225.316 52.1225C225.294 50.8326 224.239 49.8846 222.941 49.9948L218.531 50.3586C217.233 50.4688 216.2 51.5933 216.222 52.8832L216.266 55.7274C214.253 56.2125 212.306 56.885 210.459 57.7449L208.985 55.4187C208.314 54.3604 206.874 54.0958 205.741 54.8344L201.914 57.359C200.792 58.0976 200.429 59.5639 201.089 60.6332L202.53 62.9152C200.946 64.3153 199.495 65.8587 198.208 67.5344L195.811 66.3879C194.667 65.8367 193.215 66.3438 192.566 67.5234L190.378 71.5472C189.729 72.7268 190.147 74.1269 191.302 74.6781L193.589 75.7695C192.841 77.7318 192.291 79.7713 191.972 81.8659L189.432 82.0974C188.156 82.1967 187.101 83.3432 187.112 84.644ZM203.52 85.7906C203.377 76.0451 211.229 67.4683 221.016 66.6084C230.738 65.7595 238.689 72.8812 238.832 82.5164C238.975 92.1516 231.244 100.728 221.533 101.677C211.757 102.636 203.674 95.525 203.52 85.7906Z" fill="url(#paint32_linear_57_283)"/>
<defs>
<linearGradient id="paint0_linear_57_283" x1="0.326958" y1="178.682" x2="366.569" y2="178.682" gradientUnits="userSpaceOnUse">
<stop stop-color="#444B8C"/>
<stop offset="0.9964" stop-color="#26264F"/>
</linearGradient>
<linearGradient id="paint1_linear_57_283" x1="133.423" y1="81.6468" x2="125.687" y2="266.392" gradientUnits="userSpaceOnUse">
<stop stop-color="#FFC444"/>
<stop offset="0.5917" stop-color="#F8924F"/>
<stop offset="0.9964" stop-color="#F36F56"/>
</linearGradient>
<linearGradient id="paint2_linear_57_283" x1="88.6505" y1="308.664" x2="112.777" y2="102.555" gradientUnits="userSpaceOnUse">
<stop stop-color="#AA80F9"/>
<stop offset="0.9964" stop-color="#6165D7"/>
</linearGradient>
<linearGradient id="paint3_linear_57_283" x1="21.6092" y1="326.032" x2="361.171" y2="326.032" gradientUnits="userSpaceOnUse">
<stop offset="0.494" stop-color="#EBEFF2"/>
<stop offset="1" stop-color="white"/>
</linearGradient>
<linearGradient id="paint4_linear_57_283" x1="265.264" y1="64.7252" x2="86.4227" y2="421.533" gradientUnits="userSpaceOnUse">
<stop offset="0.00359712" stop-color="#E38DDD"/>
<stop offset="1" stop-color="#9571F6"/>
</linearGradient>
<linearGradient id="paint5_linear_57_283" x1="173.971" y1="-23.3703" x2="198.556" y2="74.7279" gradientUnits="userSpaceOnUse">
<stop offset="0.00359712" stop-color="#E38DDD"/>
<stop offset="1" stop-color="#9571F6"/>
</linearGradient>
<linearGradient id="paint6_linear_57_283" x1="203.789" y1="96.3318" x2="215.663" y2="96.3318" gradientUnits="userSpaceOnUse">
<stop stop-color="#444B8C"/>
<stop offset="0.9964" stop-color="#26264F"/>
</linearGradient>
<linearGradient id="paint7_linear_57_283" x1="215.414" y1="159.792" x2="182.167" y2="229.572" gradientUnits="userSpaceOnUse">
<stop stop-color="#444B8C"/>
<stop offset="0.9964" stop-color="#26264F"/>
</linearGradient>
<linearGradient id="paint8_linear_57_283" x1="83.1258" y1="327.653" x2="191.992" y2="327.653" gradientUnits="userSpaceOnUse">
<stop stop-color="#FFC444"/>
<stop offset="0.9964" stop-color="#F36F56"/>
</linearGradient>
<linearGradient id="paint9_linear_57_283" x1="164.438" y1="311.52" x2="145.96" y2="362.327" gradientUnits="userSpaceOnUse">
<stop stop-color="#FFC444"/>
<stop offset="0.5917" stop-color="#F8924F"/>
<stop offset="0.9964" stop-color="#F36F56"/>
</linearGradient>
<linearGradient id="paint10_linear_57_283" x1="145.43" y1="304.268" x2="125.856" y2="358.087" gradientUnits="userSpaceOnUse">
<stop stop-color="#FFC444"/>
<stop offset="0.5917" stop-color="#F8924F"/>
<stop offset="0.9964" stop-color="#F36F56"/>
</linearGradient>
<linearGradient id="paint11_linear_57_283" x1="137.961" y1="223.39" x2="133.98" y2="352.698" gradientUnits="userSpaceOnUse">
<stop stop-color="#FFC444"/>
<stop offset="0.9964" stop-color="#F36F56"/>
</linearGradient>
<linearGradient id="paint12_linear_57_283" x1="103.288" y1="288.514" x2="144.859" y2="288.514" gradientUnits="userSpaceOnUse">
<stop stop-color="#FFC444"/>
<stop offset="0.9964" stop-color="#F36F56"/>
</linearGradient>
<linearGradient id="paint13_linear_57_283" x1="315.16" y1="190.899" x2="314.28" y2="209.018" gradientUnits="userSpaceOnUse">
<stop stop-color="#FFC444"/>
<stop offset="0.9964" stop-color="#F36F56"/>
</linearGradient>
<linearGradient id="paint14_linear_57_283" x1="258.749" y1="355.025" x2="264.982" y2="355.025" gradientUnits="userSpaceOnUse">
<stop stop-color="#FFC444"/>
<stop offset="0.9964" stop-color="#F36F56"/>
</linearGradient>
<linearGradient id="paint15_linear_57_283" x1="251.22" y1="356.787" x2="262.298" y2="356.787" gradientUnits="userSpaceOnUse">
<stop stop-color="#444B8C"/>
<stop offset="0.9964" stop-color="#26264F"/>
</linearGradient>
<linearGradient id="paint16_linear_57_283" x1="258.305" y1="352.753" x2="257.075" y2="355.589" gradientUnits="userSpaceOnUse">
<stop stop-color="#444B8C"/>
<stop offset="0.9964" stop-color="#26264F"/>
</linearGradient>
<linearGradient id="paint17_linear_57_283" x1="332.493" y1="76.0392" x2="227.496" y2="259.865" gradientUnits="userSpaceOnUse">
<stop stop-color="#311944"/>
<stop offset="1" stop-color="#893976"/>
</linearGradient>
<linearGradient id="paint18_linear_57_283" x1="334.218" y1="77.0703" x2="230.858" y2="258.031" gradientUnits="userSpaceOnUse">
<stop stop-color="#FF9085"/>
<stop offset="1" stop-color="#FB6FBB"/>
</linearGradient>
<linearGradient id="paint19_linear_57_283" x1="287.466" y1="291.92" x2="253.464" y2="350.779" gradientUnits="userSpaceOnUse">
<stop stop-color="#311944"/>
<stop offset="1" stop-color="#893976"/>
</linearGradient>
<linearGradient id="paint20_linear_57_283" x1="291.378" y1="294.18" x2="257.376" y2="353.039" gradientUnits="userSpaceOnUse">
<stop stop-color="#311944"/>
<stop offset="1" stop-color="#893976"/>
</linearGradient>
<linearGradient id="paint21_linear_57_283" x1="349.672" y1="343.815" x2="354.797" y2="343.815" gradientUnits="userSpaceOnUse">
<stop stop-color="#444B8C"/>
<stop offset="0.9964" stop-color="#26264F"/>
</linearGradient>
<linearGradient id="paint22_linear_57_283" x1="329.737" y1="279.163" x2="307.012" y2="330.062" gradientUnits="userSpaceOnUse">
<stop stop-color="#311944"/>
<stop offset="1" stop-color="#893976"/>
</linearGradient>
<linearGradient id="paint23_linear_57_283" x1="249.23" y1="187.738" x2="248.372" y2="205.396" gradientUnits="userSpaceOnUse">
<stop stop-color="#FFC444"/>
<stop offset="0.9964" stop-color="#F36F56"/>
</linearGradient>
<linearGradient id="paint24_linear_57_283" x1="258.707" y1="217.569" x2="283.011" y2="285.452" gradientUnits="userSpaceOnUse">
<stop stop-color="#AA80F9"/>
<stop offset="0.9964" stop-color="#6165D7"/>
</linearGradient>
<linearGradient id="paint25_linear_57_283" x1="282.435" y1="209.074" x2="306.738" y2="276.957" gradientUnits="userSpaceOnUse">
<stop stop-color="#AA80F9"/>
<stop offset="0.9964" stop-color="#6165D7"/>
</linearGradient>
<linearGradient id="paint26_linear_57_283" x1="315.122" y1="197.371" x2="339.426" y2="265.255" gradientUnits="userSpaceOnUse">
<stop stop-color="#AA80F9"/>
<stop offset="0.9964" stop-color="#6165D7"/>
</linearGradient>
<linearGradient id="paint27_linear_57_283" x1="294.399" y1="233.07" x2="288.801" y2="212.956" gradientUnits="userSpaceOnUse">
<stop stop-color="#FFC444"/>
<stop offset="0.9964" stop-color="#F36F56"/>
</linearGradient>
<linearGradient id="paint28_linear_57_283" x1="291.97" y1="226.123" x2="291.573" y2="213.882" gradientUnits="userSpaceOnUse">
<stop stop-color="#311944"/>
<stop offset="1" stop-color="#6B3976"/>
</linearGradient>
<linearGradient id="paint29_linear_57_283" x1="291.095" y1="217.076" x2="284.912" y2="232.013" gradientUnits="userSpaceOnUse">
<stop stop-color="#FFC444"/>
<stop offset="0.9964" stop-color="#F36F56"/>
</linearGradient>
<linearGradient id="paint30_linear_57_283" x1="255.805" y1="168.06" x2="293.051" y2="272.094" gradientUnits="userSpaceOnUse">
<stop stop-color="#AA80F9"/>
<stop offset="0.9964" stop-color="#6165D7"/>
</linearGradient>
<linearGradient id="paint31_linear_57_283" x1="253.185" y1="22.3624" x2="174.011" y2="160.978" gradientUnits="userSpaceOnUse">
<stop stop-color="#311944"/>
<stop offset="1" stop-color="#893976"/>
</linearGradient>
<linearGradient id="paint32_linear_57_283" x1="255.376" y1="23.1344" x2="177.436" y2="159.59" gradientUnits="userSpaceOnUse">
<stop stop-color="#FF9085"/>
<stop offset="1" stop-color="#FB6FBB"/>
</linearGradient>
</defs>
</svg>
