<svg width="316" height="330" viewBox="0 0 316 330" fill="none" xmlns="http://www.w3.org/2000/svg">
<path opacity="0.05" d="M276.918 285.373C270.501 292.05 264.43 296.349 259.627 299.753C203.223 339.735 136.475 328.077 122.3 325.233C101.353 321.026 60.8682 312.903 31.5935 278.9C-12.7057 227.457 -5.80438 146.394 28.5438 92.8902C34.8296 83.1071 68.0214 28.7823 135.487 20.0717C176.317 14.8024 223.908 25.4342 258.368 53.9536C330.711 113.827 325.554 234.788 276.918 285.373Z" fill="black"/>
<path d="M129.425 304.594C127.448 269.042 114.27 236.606 67.4525 213.533C67.4525 213.524 60.1874 300.751 129.425 304.594Z" fill="#BDD0FB"/>
<path opacity="0.51" d="M116.573 289.159C116.48 289.159 116.387 289.122 116.312 289.056C89.8258 263.204 73.2813 225.294 73.1227 224.911C73.0388 224.725 73.132 224.501 73.3186 224.417C73.5051 224.333 73.7289 224.426 73.8128 224.613C73.9807 224.995 90.46 262.775 116.834 288.506C116.984 288.655 116.984 288.889 116.844 289.038C116.769 289.122 116.666 289.159 116.573 289.159Z" fill="white"/>
<path d="M211.038 302.374C243.008 305.321 273.682 297.86 300.466 259.166C300.466 259.166 223.637 241.129 211.038 302.374Z" fill="#BDD0FB"/>
<path opacity="0.51" d="M229.177 291.929C229.093 291.929 229 291.901 228.935 291.836C228.776 291.705 228.758 291.463 228.888 291.304C238.447 280.038 254.097 272.876 265.54 268.856C277.925 264.501 288.193 262.785 288.296 262.766C288.501 262.729 288.697 262.869 288.725 263.074C288.762 263.279 288.622 263.475 288.417 263.503C288.007 263.568 247.559 270.451 229.457 291.78C229.392 291.882 229.28 291.929 229.177 291.929Z" fill="white"/>
<path d="M221.231 0.0484623L83.4375 9.03887C72.1063 9.77563 63.4236 19.4189 63.8713 30.7688C65.8578 81.1766 74.1953 257.403 78.0284 305.265C78.6905 313.491 85.7131 319.73 93.9574 319.432C126.03 318.266 203.101 314.75 238.475 306.86C245.927 305.2 251.14 298.476 250.888 290.856C249.49 248.6 241.6 61.7223 237.394 13.9071C236.666 5.6628 229.485 -0.492454 221.231 0.0484623Z" fill="url(#paint0_linear_54784_32799)"/>
<path d="M222.462 8.64717L91.5513 17.1899C84.9298 17.6189 79.8843 23.2892 80.2201 29.9108L94.3492 297.282C94.6756 303.848 100.309 308.884 106.874 308.483L236.647 300.462C241.339 300.173 244.938 296.182 244.752 291.491L232.423 17.6096C232.208 12.3496 227.713 8.31142 222.462 8.64717Z" fill="#91B3FA"/>
<path d="M158.634 33.4641C162.693 33.4641 165.983 30.1738 165.983 26.1151C165.983 22.0563 162.693 18.7661 158.634 18.7661C154.576 18.7661 151.285 22.0563 151.285 26.1151C151.285 30.1738 154.576 33.4641 158.634 33.4641Z" fill="black"/>
<path opacity="0.65" d="M158.634 35.2453C153.598 35.2453 149.504 31.1512 149.504 26.115C149.504 21.0789 153.598 16.9847 158.634 16.9847C163.67 16.9847 167.764 21.0789 167.764 26.115C167.764 31.1512 163.67 35.2453 158.634 35.2453ZM158.634 18.9899C154.708 18.9899 151.509 22.1887 151.509 26.115C151.509 30.0413 154.708 33.2402 158.634 33.2402C162.561 33.2402 165.759 30.0413 165.759 26.115C165.759 22.1887 162.57 18.9899 158.634 18.9899Z" fill="white"/>
<path d="M206.328 304.043C240.62 287.023 267.079 260.239 270.035 204.198C270.035 204.198 180.775 234.004 206.328 304.043Z" fill="#7D97F4"/>
<path opacity="0.51" d="M211.877 291.397C211.84 291.397 211.793 291.388 211.756 291.379C211.56 291.313 211.458 291.099 211.523 290.903C219.711 267.569 231.872 249.569 240.639 238.583C250.142 226.674 257.808 220.201 257.883 220.136C258.042 220.006 258.284 220.024 258.415 220.183C258.545 220.341 258.527 220.584 258.368 220.714C258.06 220.966 227.825 246.697 212.232 291.155C212.176 291.295 212.036 291.397 211.877 291.397Z" fill="white"/>
<path d="M249.508 29.8642C251.215 29.9481 252.94 30.0973 254.628 30.3305C254.861 30.3584 255.085 30.3398 255.3 30.2745C255.878 30.0973 256.326 29.603 256.419 28.9688C256.54 28.1015 255.925 27.2995 255.057 27.1876C253.276 26.9451 251.467 26.7865 249.667 26.7026C248.79 26.6653 248.044 27.3368 248.007 28.2134C247.951 29.0808 248.631 29.8269 249.508 29.8642Z" fill="url(#paint1_linear_54784_32799)"/>
<path d="M205.05 44.2637C204.444 43.6296 203.437 43.6109 202.803 44.2171C201.507 45.4575 200.248 46.7725 199.063 48.1248C198.485 48.7869 198.55 49.7848 199.203 50.363C199.632 50.7361 200.201 50.848 200.714 50.6895C200.984 50.6055 201.245 50.447 201.441 50.2231C202.57 48.9455 203.763 47.6958 204.995 46.5113C205.638 45.8958 205.657 44.8886 205.05 44.2637Z" fill="url(#paint2_linear_54784_32799)"/>
<path d="M185.596 80.1228C184.729 80.0015 183.927 80.6171 183.806 81.4844C183.563 83.2657 183.395 85.075 183.311 86.8749C183.265 87.7516 183.945 88.4977 184.822 88.535C185.009 88.5443 185.186 88.5163 185.363 88.4697C185.988 88.2832 186.454 87.7143 186.491 87.0241C186.575 85.3175 186.734 83.6014 186.967 81.9041C187.07 81.0367 186.463 80.2347 185.596 80.1228Z" fill="url(#paint3_linear_54784_32799)"/>
<path d="M195.929 54.6531C195.202 54.1681 194.213 54.3733 193.729 55.1007C192.74 56.6022 191.798 58.1597 190.94 59.7358C190.52 60.5006 190.809 61.4705 191.574 61.8902C191.966 62.1047 192.395 62.1326 192.787 62.0114C193.169 61.8995 193.514 61.629 193.719 61.2466C194.531 59.7545 195.426 58.2623 196.368 56.8354C196.862 56.1173 196.657 55.1287 195.929 54.6531Z" fill="url(#paint4_linear_54784_32799)"/>
<path d="M236.069 30.7408C237.748 30.4424 239.464 30.2092 241.161 30.0507C241.273 30.0414 241.376 30.0227 241.478 29.9854C242.187 29.7709 242.672 29.0808 242.597 28.316C242.514 27.4394 241.739 26.8052 240.872 26.8798C239.082 27.0477 237.282 27.2901 235.51 27.6072C234.642 27.7565 234.073 28.5865 234.223 29.4445C234.381 30.3211 235.202 30.8994 236.069 30.7408Z" fill="url(#paint5_linear_54784_32799)"/>
<path d="M189.336 66.805C188.515 66.4973 187.601 66.9076 187.294 67.7283C186.659 69.407 186.09 71.1417 185.606 72.867C185.372 73.7064 185.857 74.583 186.706 74.8255C187.004 74.9095 187.312 74.9001 187.592 74.8162C188.096 74.667 188.506 74.266 188.664 73.725C189.131 72.0836 189.672 70.4422 190.269 68.8381C190.567 68.0268 190.157 67.1128 189.336 66.805Z" fill="url(#paint6_linear_54784_32799)"/>
<path d="M184.925 93.9254C184.048 94.0094 183.405 94.7741 183.488 95.6508C183.647 97.4321 183.889 99.2413 184.207 101.013C184.356 101.881 185.186 102.45 186.044 102.3C186.109 102.291 186.165 102.272 186.23 102.254C186.986 102.021 187.471 101.256 187.331 100.463C187.032 98.775 186.799 97.0684 186.65 95.371C186.575 94.4943 185.801 93.8508 184.925 93.9254Z" fill="url(#paint7_linear_54784_32799)"/>
<path d="M210.945 41.4006C211.112 41.354 211.271 41.27 211.411 41.1675C212.791 40.1696 214.237 39.2183 215.701 38.3416C216.456 37.894 216.699 36.9147 216.251 36.1686C215.804 35.4132 214.824 35.1707 214.078 35.6184C212.539 36.5417 211.019 37.5396 209.564 38.5934C208.856 39.1064 208.697 40.095 209.21 40.8131C209.602 41.3726 210.31 41.5871 210.945 41.4006Z" fill="url(#paint8_linear_54784_32799)"/>
<path d="M222.985 34.6298C223.041 34.6112 223.097 34.5925 223.143 34.5739C224.71 33.9117 226.333 33.3055 227.956 32.7832C228.786 32.5128 229.243 31.6175 228.972 30.7875C228.702 29.9668 227.825 29.5098 227.004 29.7616C226.995 29.7616 226.986 29.7709 226.976 29.7709C225.27 30.3211 223.563 30.9647 221.903 31.6548C221.091 31.9999 220.718 32.9231 221.054 33.7345C221.39 34.4806 222.22 34.8537 222.985 34.6298Z" fill="url(#paint9_linear_54784_32799)"/>
<path d="M189.336 108.539C189.075 107.719 188.189 107.234 187.359 107.486C187.349 107.486 187.34 107.495 187.331 107.495C186.491 107.747 186.044 108.679 186.314 109.509C186.864 111.225 187.517 112.979 188.207 114.629C188.524 115.385 189.355 115.749 190.119 115.525C190.175 115.506 190.213 115.469 190.268 115.441C191.08 115.105 191.462 114.172 191.117 113.37C190.464 111.804 189.867 110.172 189.336 108.539Z" fill="url(#paint10_linear_54784_32799)"/>
<path d="M267.209 31.7201C267.48 30.89 267.023 29.9947 266.193 29.7243C265.372 29.4538 264.533 29.202 263.703 28.9688C262.863 28.7264 261.987 29.2206 261.744 30.0693C261.511 30.9087 261.996 31.7853 262.845 32.0278C263.637 32.2516 264.43 32.4941 265.213 32.7459C265.53 32.8485 265.866 32.8485 266.165 32.7553C266.64 32.606 267.041 32.2423 267.209 31.7201Z" fill="url(#paint11_linear_54784_32799)"/>
<path d="M240.742 149.948C239.072 149.78 237.384 149.547 235.733 149.239C234.866 149.08 234.045 149.649 233.887 150.507C233.728 151.365 234.297 152.195 235.155 152.354C236.89 152.671 238.671 152.923 240.425 153.1C240.639 153.118 240.844 153.1 241.04 153.044C241.637 152.867 242.094 152.335 242.159 151.682C242.243 150.806 241.609 150.032 240.742 149.948Z" fill="url(#paint12_linear_54784_32799)"/>
<path d="M306.202 66.4599C306.547 67.1687 307.349 67.5045 308.086 67.29C308.17 67.262 308.244 67.234 308.319 67.1967C309.112 66.8143 309.438 65.8631 309.056 65.0797C308.683 64.3056 308.282 63.5222 307.871 62.7575C307.461 61.9834 306.5 61.6943 305.726 62.114C304.952 62.5243 304.663 63.4942 305.083 64.259C305.474 64.9771 305.848 65.7232 306.202 66.4599Z" fill="url(#paint13_linear_54784_32799)"/>
<path d="M313.42 85.3174C312.553 85.4014 311.91 86.1754 311.993 87.0521C312.152 88.7215 312.245 90.4188 312.273 92.0975C312.283 92.9742 313.001 93.6736 313.877 93.6643C314.027 93.6643 314.176 93.6363 314.316 93.599C314.978 93.4032 315.453 92.7783 315.444 92.0602C315.425 90.2976 315.323 88.507 315.155 86.7443C315.062 85.877 314.288 85.2335 313.42 85.3174Z" fill="url(#paint14_linear_54784_32799)"/>
<path d="M313.579 98.9243C312.711 98.8124 311.919 99.4279 311.807 100.305C311.602 101.974 311.313 103.643 310.967 105.294C310.781 106.152 311.331 106.991 312.189 107.178C312.46 107.234 312.73 107.225 312.973 107.15C313.504 106.991 313.943 106.544 314.064 105.956C314.427 104.222 314.735 102.459 314.95 100.706C315.062 99.8289 314.446 99.0362 313.579 98.9243Z" fill="url(#paint15_linear_54784_32799)"/>
<path d="M302.863 125.093C301.958 126.511 300.989 127.91 299.972 129.244C299.44 129.943 299.58 130.941 300.28 131.463C300.699 131.78 301.231 131.864 301.697 131.715C302.005 131.622 302.294 131.435 302.499 131.155C303.572 129.747 304.588 128.274 305.54 126.791C306.006 126.054 305.792 125.075 305.055 124.599C304.318 124.133 303.339 124.347 302.863 125.093Z" fill="url(#paint16_linear_54784_32799)"/>
<path d="M284.239 143.699C282.821 144.594 281.338 145.443 279.856 146.217C279.082 146.618 278.774 147.579 279.175 148.353C279.529 149.043 280.322 149.36 281.04 149.146C281.133 149.118 281.227 149.08 281.31 149.034C282.877 148.222 284.435 147.327 285.927 146.385C286.664 145.919 286.887 144.939 286.421 144.193C285.955 143.447 284.976 143.233 284.239 143.699Z" fill="url(#paint17_linear_54784_32799)"/>
<path d="M294.581 135.427C293.388 136.611 292.138 137.768 290.86 138.849C290.189 139.418 290.105 140.416 290.674 141.088C291.093 141.591 291.756 141.759 292.343 141.582C292.548 141.517 292.735 141.424 292.912 141.274C294.264 140.136 295.579 138.924 296.829 137.674C297.445 137.059 297.454 136.052 296.829 135.427C296.204 134.811 295.197 134.811 294.581 135.427Z" fill="url(#paint18_linear_54784_32799)"/>
<path d="M310.734 112.242C309.914 111.944 309 112.373 308.701 113.193C308.132 114.769 307.489 116.345 306.789 117.875C306.426 118.668 306.771 119.61 307.573 119.983C307.937 120.151 308.338 120.169 308.692 120.057C309.112 119.927 309.475 119.628 309.681 119.199C310.417 117.595 311.098 115.935 311.695 114.275C311.993 113.445 311.564 112.54 310.734 112.242Z" fill="url(#paint19_linear_54784_32799)"/>
<path d="M259.422 152.559C257.753 152.764 256.055 152.904 254.376 152.969C253.5 152.997 252.819 153.743 252.856 154.62C252.894 155.497 253.63 156.177 254.507 156.14C256.27 156.066 258.06 155.926 259.814 155.702C259.907 155.693 259.991 155.674 260.075 155.646C260.802 155.422 261.287 154.713 261.194 153.93C261.082 153.063 260.289 152.447 259.422 152.559Z" fill="url(#paint20_linear_54784_32799)"/>
<path d="M272.32 149.491C270.744 150.05 269.13 150.554 267.489 150.983C266.65 151.207 266.137 152.074 266.361 152.923C266.584 153.771 267.452 154.275 268.3 154.051C269.009 153.865 269.718 153.659 270.417 153.454C271.415 153.156 272.413 152.829 273.383 152.475C274.213 152.186 274.642 151.272 274.344 150.451C274.055 149.631 273.15 149.202 272.32 149.491Z" fill="url(#paint21_linear_54784_32799)"/>
<path d="M312.292 73.0909C312.021 72.2608 311.126 71.7852 310.296 72.0743C309.466 72.3448 309.009 73.2401 309.28 74.0701C309.419 74.4898 309.55 74.9188 309.681 75.3478C310.035 76.5322 310.361 77.7353 310.65 78.9383C310.856 79.787 311.704 80.3186 312.562 80.1134C312.59 80.1041 312.628 80.0948 312.656 80.0855C313.448 79.843 313.933 79.0223 313.737 78.2016C313.439 76.9332 313.094 75.6649 312.721 74.4152C312.581 73.9862 312.441 73.5385 312.292 73.0909Z" fill="url(#paint22_linear_54784_32799)"/>
<path d="M227.732 147.187C226.958 146.926 226.174 146.655 225.4 146.366C224.579 146.059 223.665 146.469 223.358 147.29C223.05 148.11 223.46 149.024 224.281 149.332C225.092 149.64 225.922 149.929 226.734 150.199C227.051 150.302 227.387 150.302 227.685 150.209C228.161 150.069 228.562 149.696 228.739 149.192C229.019 148.362 228.571 147.467 227.732 147.187Z" fill="url(#paint23_linear_54784_32799)"/>
<path d="M298.61 76.84L289.676 75.5809C287.969 71.7759 285.684 68.3345 282.97 65.3222L271.443 67.5418L262.63 77.0918L270.408 93.9348L250.721 93.2726L239.212 101.843L240.77 116.961L228.674 114.611L224.551 118.696L222.229 127.388C222.145 127.695 222.267 128.013 222.528 128.19L231.499 134.242C231.761 134.42 232.106 134.41 232.357 134.224L239.567 128.796C243.502 130.297 247.718 131.174 252.045 131.342L256.559 139.148C256.717 139.418 257.034 139.568 257.342 139.502L267.974 137.432C268.282 137.376 268.524 137.124 268.571 136.807L269.83 127.873C273.784 126.091 277.356 123.704 280.452 120.841L289.172 123.172C289.48 123.256 289.797 123.135 289.974 122.874L296.027 113.902C296.204 113.641 296.195 113.296 296.008 113.044L290.581 105.835C292.082 101.899 292.959 97.6839 293.127 93.3566L300.933 88.8427C301.203 88.6842 301.352 88.3671 301.287 88.0593L299.217 77.4275C299.17 77.1291 298.927 76.8866 298.61 76.84Z" fill="url(#paint24_linear_54784_32799)"/>
<path d="M257.156 99.3719C253.332 101.172 248.837 99.8009 246.608 96.3503L244.575 97.8704C247.223 101.825 252.185 103.625 256.745 102.244C257.249 102.095 257.743 101.899 258.238 101.675C261.539 100.127 263.703 97.115 264.309 93.7669L261.735 93.6736C261.175 96.0891 259.562 98.2435 257.156 99.3719Z" fill="url(#paint25_linear_54784_32799)"/>
<path d="M279.324 83.8439C277.617 78.2016 274.129 73.3334 269.298 69.8734L268.431 70.8153C273.103 74.1167 276.479 78.7891 278.111 84.217C278.363 85.047 278.578 85.8957 278.746 86.763C279.706 91.6965 279.165 96.5741 277.449 100.939C274.362 108.773 267.461 114.928 258.592 116.653C256.811 116.998 254.992 117.157 253.183 117.12C252.828 117.11 252.539 117.39 252.539 117.744C252.539 117.81 252.549 117.875 252.567 117.94C252.642 118.192 252.884 118.388 253.164 118.388C253.276 118.388 253.379 118.332 253.49 118.332C253.546 118.332 253.602 118.276 253.658 118.276C253.677 118.276 253.696 118.276 253.714 118.276C255.141 118.276 256.568 118.22 257.986 117.996C258.275 117.95 258.555 117.931 258.844 117.875C259.748 117.698 260.644 117.493 261.511 117.232C267.386 115.46 272.441 111.757 275.92 106.59C279.921 100.668 281.366 93.5431 280.005 86.5205C279.809 85.6066 279.585 84.7112 279.324 83.8439Z" fill="url(#paint26_linear_54784_32799)"/>
<path d="M231.555 110.097L230.063 95.6881L241.572 87.1174L260.756 87.7609C260.989 87.7702 261.147 87.5277 261.054 87.3132L253.49 70.9272L262.304 61.3772L273.831 59.1576C273.719 59.0363 273.616 58.9151 273.504 58.7939L275.836 50.0739C275.92 49.7662 275.799 49.4491 275.537 49.2719L266.566 43.2192C266.305 43.042 265.96 43.0513 265.708 43.2378L258.499 48.6657C254.563 47.1642 250.348 46.2875 246.02 46.1196L241.506 38.3136C241.348 38.0432 241.031 37.894 240.723 37.9592L230.091 40.0297C229.783 40.0856 229.541 40.3374 229.494 40.6545L228.235 49.589C224.281 51.3702 220.709 53.7577 217.613 56.6209L208.893 54.2893C208.585 54.2054 208.259 54.3266 208.091 54.5878L202.038 63.5595C201.861 63.8206 201.87 64.1657 202.057 64.4175L207.485 71.6266C205.983 75.5623 205.106 79.7777 204.939 84.105L197.133 88.6189C196.862 88.7774 196.713 89.0945 196.778 89.4023L198.849 100.034C198.905 100.342 199.156 100.584 199.473 100.631L208.408 101.89C210.189 105.844 212.577 109.416 215.44 112.512L215.43 112.54L219.553 108.456L230.949 110.666C231.276 110.74 231.593 110.451 231.555 110.097Z" fill="url(#paint27_linear_54784_32799)"/>
<path d="M237.459 90.195C237.254 89.8872 237.067 89.5608 236.909 89.2157C234.95 85.0563 236.75 80.0761 240.91 78.1176C241.292 77.9404 241.674 77.7912 242.066 77.67C243.773 77.157 245.582 77.2037 247.289 77.8192C249.387 78.5746 251.066 80.1041 252.008 82.1185C252.828 83.8718 252.978 85.765 252.577 87.5184L255.151 87.6116C255.542 85.4573 255.3 83.1724 254.302 81.046C253.061 78.416 250.879 76.4203 248.147 75.441C245.414 74.4524 242.458 74.5923 239.828 75.8327C234.4 78.3881 232.05 84.8791 234.605 90.3069C234.838 90.8105 235.118 91.2768 235.416 91.7245L237.459 90.195Z" fill="url(#paint28_linear_54784_32799)"/>
<path d="M259.534 63.2797C253.612 59.2788 246.477 57.8333 239.464 59.1949C224.98 62.0114 215.486 76.0845 218.303 90.568C218.48 91.4633 218.695 92.34 218.956 93.2073C220.084 96.9564 222.024 100.416 224.645 103.336C224.878 103.597 225.279 103.615 225.54 103.382C225.727 103.214 225.792 102.953 225.727 102.729C225.699 102.645 225.652 102.561 225.587 102.487C223.087 99.7077 221.241 96.4155 220.168 92.8436C219.916 92.0229 219.711 91.1836 219.543 90.3256C216.857 76.5322 225.894 63.1212 239.697 60.4353C246.384 59.1389 253.173 60.5192 258.816 64.3243C258.974 64.4269 259.123 64.5388 259.273 64.6507L260.14 63.7087C259.944 63.5688 259.739 63.4196 259.534 63.2797Z" fill="url(#paint29_linear_54784_32799)"/>
<path d="M71.9349 84.742C84.1249 72.552 84.1249 52.7882 71.9349 40.5983C59.745 28.4083 39.9812 28.4083 27.7912 40.5983C15.6013 52.7882 15.6013 72.552 27.7912 84.742C39.9812 96.9319 59.745 96.9319 71.9349 84.742Z" fill="white"/>
<path d="M49.8634 92.8436C66.5259 92.8436 80.0335 79.336 80.0335 62.6735C80.0335 46.0111 66.5259 32.5034 49.8634 32.5034C33.201 32.5034 19.6934 46.0111 19.6934 62.6735C19.6934 79.336 33.201 92.8436 49.8634 92.8436Z" fill="url(#paint30_linear_54784_32799)"/>
<path opacity="0.7" d="M74.7362 50.4563C74.7828 50.4563 74.8294 50.4469 74.8761 50.419C75.0346 50.335 75.0999 50.1485 75.016 49.99C70.1943 40.4307 60.5511 34.4992 49.854 34.4992C48.1473 34.4992 46.4407 34.6485 44.7713 34.9562C44.5941 34.9842 44.4822 35.1521 44.5101 35.3293C44.5381 35.5065 44.706 35.6184 44.8832 35.5811C46.5153 35.2826 48.1846 35.1334 49.854 35.1334C60.3086 35.1334 69.7374 40.9343 74.4471 50.2791C74.5123 50.391 74.6243 50.4563 74.7362 50.4563Z" fill="white"/>
<path d="M67.2549 81.3834C77.2268 71.4115 77.2268 55.2438 67.2549 45.2718C57.2829 35.2999 41.1152 35.2999 31.1433 45.2718C21.1714 55.2438 21.1714 71.4115 31.1433 81.3834C41.1152 91.3553 57.283 91.3553 67.2549 81.3834Z" fill="white"/>
<path d="M50.7867 68.2972L47.8956 68.2319C47.0935 68.2133 46.4221 67.5231 46.3848 66.7117L45.3309 46.3528C45.3123 45.9331 45.4615 45.588 45.7506 45.2989C46.0397 45.0191 46.4407 44.9259 46.8511 44.9538L51.8312 45.2989C52.2416 45.3269 52.6239 45.4668 52.9131 45.7839C53.1928 46.101 53.3421 46.4833 53.3141 46.8937L52.2882 66.8889C52.2323 67.6817 51.5794 68.3158 50.7867 68.2972Z" fill="url(#paint31_linear_54784_32799)"/>
<path d="M46.3195 73.268C47.0376 72.5779 48.0542 72.2421 49.3598 72.2701C50.7028 72.2888 51.7287 72.6432 52.4281 73.3333C53.1276 74.0141 53.4727 75.0213 53.4727 76.3363C53.4727 77.6047 53.1183 78.5932 52.4095 79.2834C51.6914 79.9828 50.6841 80.3372 49.3692 80.3372C48.0821 80.3372 47.0656 79.9735 46.3382 79.2554C45.6107 78.5279 45.2377 77.5301 45.2377 76.271C45.2377 74.956 45.6014 73.9581 46.3195 73.268Z" fill="url(#paint32_linear_54784_32799)"/>
<path d="M163.792 49.076L83.2229 184.454C81.451 187.429 83.7639 191.067 87.4477 191.095L247.158 192.41C250.851 192.438 253.229 188.819 251.495 185.816L172.353 49.1226C170.534 45.9797 165.657 45.9518 163.792 49.076Z" fill="url(#paint33_linear_54784_32799)"/>
<path d="M164.202 57.1618L91.0289 180.108C89.4248 182.804 91.5232 186.114 94.862 186.133L239.912 187.327C243.26 187.355 245.423 184.063 243.847 181.339L171.971 57.1991C170.32 54.3453 165.89 54.3266 164.202 57.1618Z" fill="url(#paint34_linear_54784_32799)"/>
<path d="M149 160.396L144.895 160.45V167.881L137.811 168V160.537L123 160.733V155.399L138.208 132L144.895 132.011V154.562L149 154.519V160.396ZM137.8 154.628V148.523C137.8 147.502 137.843 146.024 137.918 144.091C137.993 142.157 138.058 141.027 138.111 140.712H137.918C137.34 142.059 136.632 143.374 135.818 144.666L129.473 154.715L137.8 154.628Z" fill="url(#paint35_linear_54784_32799)"/>
<path d="M177 149.433C177 155.676 176.023 160.304 174.081 163.337C172.128 166.371 169.121 167.921 165.049 167.998C161.077 168.064 158.081 166.558 156.051 163.458C154.021 160.359 153 155.742 153 149.631C153 143.245 153.988 138.54 155.963 135.518C157.938 132.495 160.967 130.989 165.049 131C169 131 171.985 132.583 173.993 135.715C176.001 138.826 177 143.41 177 149.433ZM160.276 149.565C160.276 153.984 160.638 157.149 161.373 159.051C162.108 160.952 163.326 161.898 165.06 161.865C166.75 161.843 167.968 160.853 168.715 158.919C169.461 156.984 169.834 153.841 169.834 149.488C169.834 145.091 169.461 141.926 168.704 140.013C167.947 138.09 166.728 137.133 165.06 137.133C163.348 137.133 162.13 138.101 161.395 140.035C160.638 141.97 160.276 145.146 160.276 149.565Z" fill="url(#paint36_linear_54784_32799)"/>
<path d="M205.989 159.613L202.042 159.668V166.891L195.228 167V159.744L181 159.928V154.747L195.621 132L202.053 132.011V153.932L206 153.889V159.613H205.989ZM195.228 153.997V148.055C195.228 147.067 195.261 145.633 195.337 143.743C195.413 141.863 195.468 140.766 195.522 140.462H195.337C194.781 141.777 194.105 143.047 193.32 144.308L187.225 154.073L195.228 153.997Z" fill="url(#paint37_linear_54784_32799)"/>
<path d="M147.706 126.839L138.194 127.147V110.145L147.706 109.931V112.869L141.71 113.008V116.73L147.296 116.58V119.518L141.71 119.677V124.051L147.706 123.864V126.839Z" fill="url(#paint38_linear_54784_32799)"/>
<path d="M155.158 120.143V126.606L151.698 126.718V109.847L156.454 109.744C158.665 109.698 160.297 110.071 161.35 110.882C162.404 111.684 162.936 112.934 162.936 114.622C162.936 115.61 162.675 116.487 162.152 117.27C161.63 118.054 160.884 118.679 159.924 119.136C162.358 122.838 163.943 125.226 164.68 126.298L160.884 126.419L157.014 120.087L155.158 120.143ZM155.158 117.242L156.268 117.214C157.359 117.187 158.161 116.972 158.683 116.59C159.205 116.198 159.457 115.601 159.457 114.799C159.457 114.006 159.196 113.447 158.665 113.12C158.133 112.794 157.312 112.645 156.202 112.673L155.158 112.701V117.242Z" fill="url(#paint39_linear_54784_32799)"/>
<path d="M170.658 119.705V126.112L167.254 126.224V109.502L171.926 109.399C174.099 109.353 175.694 109.726 176.729 110.528C177.764 111.33 178.287 112.561 178.287 114.239C178.287 115.219 178.026 116.095 177.513 116.869C177 117.644 176.272 118.259 175.33 118.725C177.718 122.391 179.275 124.759 180.003 125.823L176.272 125.944L172.467 119.667L170.658 119.705ZM170.658 116.832L171.749 116.804C172.822 116.776 173.605 116.571 174.118 116.179C174.631 115.797 174.883 115.2 174.883 114.407C174.883 113.615 174.622 113.064 174.099 112.738C173.577 112.421 172.775 112.272 171.684 112.29L170.658 112.318V116.832Z" fill="url(#paint40_linear_54784_32799)"/>
<path d="M196.752 117.028C196.752 119.751 196.118 121.859 194.841 123.36C193.563 124.862 191.726 125.655 189.329 125.729C186.923 125.804 185.076 125.132 183.78 123.696C182.483 122.26 181.84 120.162 181.84 117.41C181.84 114.659 182.493 112.523 183.789 111.041C185.085 109.558 186.941 108.793 189.348 108.737C191.754 108.681 193.582 109.371 194.85 110.798C196.118 112.225 196.752 114.305 196.752 117.028ZM185.347 117.345C185.347 119.192 185.682 120.572 186.344 121.495C187.007 122.409 188.005 122.847 189.329 122.81C191.977 122.726 193.292 120.842 193.292 117.14C193.292 113.428 191.977 111.609 189.348 111.665C188.023 111.693 187.025 112.188 186.354 113.148C185.682 114.09 185.347 115.489 185.347 117.345Z" fill="url(#paint41_linear_54784_32799)"/>
<path d="M68.4411 316.541C68.4411 316.541 67.639 321.082 67.2473 325.578C67.0981 327.331 68.4504 328.86 70.2131 328.935C76.2004 329.187 88.9959 329.672 93.5937 329.467C94.2838 329.439 94.7315 328.73 94.4797 328.086C94.2652 327.545 93.8548 327.116 93.3232 326.874L72.1809 317.156L68.4411 316.541Z" fill="url(#paint42_linear_54784_32799)"/>
<path d="M67.7882 313.883L68.4317 319.31C68.4317 319.31 72.1342 321.036 74.6616 319.096L73.1321 313.043L67.7882 313.883Z" fill="url(#paint43_linear_54784_32799)"/>
<path d="M68.2639 211.799C67.9841 213.216 66.7717 282.556 74.186 313.631C74.3073 314.134 74.0461 314.657 73.5705 314.862C72.4327 315.328 70.2038 316 67.5365 316.093C66.7065 316.121 65.9697 315.58 65.7365 314.787C63.6195 307.578 53.4633 271.458 52.139 236.951C50.6562 198.397 52.139 235.636 52.139 235.636L53.0064 211.799H68.2639Z" fill="url(#paint44_linear_54784_32799)"/>
<path d="M44.1185 318.909C44.1185 318.909 42.8408 321.204 41.6098 327.294C41.386 328.394 42.1507 329.448 43.2698 329.56C45.247 329.756 48.2873 330.008 50.7214 329.989C51.8406 329.98 52.7172 329 52.5867 327.891C52.3162 325.671 51.4768 322.024 48.8749 319.18L44.1185 318.909Z" fill="url(#paint45_linear_54784_32799)"/>
<path d="M42.9994 311.933L44.5009 320.14C44.5009 320.14 45.9931 321.25 48.9308 320.448L48.2127 311.616L42.9994 311.933Z" fill="url(#paint46_linear_54784_32799)"/>
<path d="M38.9332 213.925C32.8712 250.511 40.2482 304.351 42.7383 314.88C42.8875 315.524 43.4097 316.018 44.0626 316.13C45.1724 316.317 47.0003 316.466 48.8003 315.944C49.4251 315.766 49.8541 315.207 49.8821 314.554C50.2178 306.039 49.6116 253.738 55.2633 233.072C55.5524 232.027 56.1866 231.113 57.0725 230.479L68.0401 222.682L68.8795 210.083L38.9332 213.925Z" fill="url(#paint47_linear_54784_32799)"/>
<path d="M92.9036 161.773C91.9803 168.329 91.0104 169.831 90.2549 169.868C87.8488 169.99 88.3338 155.217 79.5392 147.737C73.9808 143.018 66.3893 142.627 60.4299 143.177C63.2091 153.146 65.9883 163.107 68.7675 173.076C69.9799 176.051 75.2678 188.101 87.2426 191.757C89.6767 192.503 93.3046 193.613 96.6807 192.158C103.34 189.295 106.464 177.562 103.489 162.883C102.081 162.37 100.15 161.81 92.9036 161.773Z" fill="url(#paint48_linear_54784_32799)"/>
<path d="M90.7772 136.22L91.8777 142.449C93.6497 150.069 93.8176 156.42 92.8943 161.783C94.4144 161.848 96.0092 161.95 97.6786 162.118C99.7303 162.323 101.67 162.585 103.479 162.892C102.519 155.142 97.3708 142.282 97.3708 142.282C94.2652 137.786 93.8922 140.705 90.7772 136.22Z" fill="url(#paint49_linear_54784_32799)"/>
<path d="M103.377 123.088C102.127 123.051 100.933 123.592 100.131 124.543L92.2693 133.851C92.2693 133.851 90.8424 133.562 90.7026 130.82C90.572 128.078 87.6622 127.751 87.6622 127.751C87.6622 127.751 88.0819 131.575 88.884 137.227C89.3409 140.463 91.2528 142.822 92.8009 144.249L97.3428 142.683C101.512 136.723 104.104 130.148 105.54 123.144L103.377 123.088Z" fill="url(#paint50_linear_54784_32799)"/>
<path d="M29.3179 148.427C29.8401 148.288 33.4214 144.594 33.9623 144.492C42.7848 142.813 64.8039 136.882 79.5392 147.756C79.5765 148.073 79.5951 148.325 79.6138 148.53C79.7537 148.726 79.9495 149.052 80.22 149.575C81.6096 152.27 83.2789 154.89 85.1908 157.343C84.7711 157.763 84.4167 158.248 84.1649 158.798C80.621 166.38 67.2007 196.681 69.5602 215.203C69.6814 216.163 69.0286 217.04 68.0773 217.17C62.864 217.889 47.3453 219.651 39.3341 216.34C38.8678 216.145 38.5694 215.688 38.5787 215.184C38.6347 211.463 38.4761 195.338 32.5634 175.893C32.3395 175.165 32.1623 174.429 32.0225 173.692C31.9478 173.841 31.8826 173.99 31.808 174.14L29.3179 148.427Z" fill="url(#paint51_linear_54784_32799)"/>
<path d="M42.7755 142.804C26.3242 144.007 22.8829 153.408 11.5143 147.663L13.5287 165.27C17.7441 169.924 24.1139 173.095 32.1344 174.289L42.7755 142.804Z" fill="url(#paint52_linear_54784_32799)"/>
<path d="M54.0136 126.884C51.1971 132.508 50.022 138.225 49.6676 143.559C50.2738 143.783 58.3689 149.397 63.7781 143.97C62.6216 140.239 62.8081 134.625 63.1066 128.87L54.0136 126.884Z" fill="url(#paint53_linear_54784_32799)"/>
<path d="M68.6929 112.111C68.8515 112.363 72.8897 131.426 72.8897 131.426L61.9501 133.506L55.4312 116C55.4405 116 66.1003 107.915 68.6929 112.111Z" fill="url(#paint54_linear_54784_32799)"/>
<path d="M59.6186 117.558C59.3294 117.959 59.2362 118.472 59.3668 118.948L62.034 128.292C62.0713 128.432 62.1366 128.572 62.2112 128.693C62.6402 129.383 64.1884 131.463 66.2774 129.757C68.0587 128.302 69.7188 126.987 71.2016 126.651C72.069 126.455 72.9176 127.024 73.1042 127.891C73.4772 129.682 74.158 133.31 74.3072 136.621C74.3445 137.451 73.729 138.169 72.9083 138.262C70.7353 138.532 66.4733 138.924 62.9107 138.476C62.3231 138.402 61.8289 138.01 61.6144 137.46C60.6817 135.035 58.0238 128.255 56.9886 126.455C56.0187 124.786 53.4447 124.627 52.2602 124.646C51.8126 124.655 51.3836 124.478 51.0665 124.151C50.1339 123.182 48.6324 120.981 51.1784 118.63C51.8126 118.043 51.8406 117.045 51.2623 116.401C50.2365 115.245 49.2945 113.352 51.253 111.207C53.2302 109.034 55.6176 109.435 57.1565 110.05C57.8373 110.321 58.6486 110.144 59.087 109.565C59.2828 109.304 59.5906 109.127 60.0569 109.155C60.9335 109.211 61.6796 108.595 61.7449 107.719C61.8475 106.217 62.5563 104.417 65.1676 103.783C69.9613 102.608 72.6192 107.327 72.7031 110.74C72.7871 114.154 67.5178 115.133 64.4775 114.713C62.2392 114.415 60.4206 116.457 59.6186 117.558Z" fill="url(#paint55_linear_54784_32799)"/>
<path d="M58.6207 130.018C58.6207 130.018 57.6042 123.984 55.1701 123.545C52.7359 123.107 50.2272 124.972 52.4655 128.423C55.2447 132.722 58.6207 130.018 58.6207 130.018Z" fill="url(#paint56_linear_54784_32799)"/>
<path d="M54.6104 108.297C55.0301 108.278 55.4964 108.316 56 108.428C57.1564 108.67 58.6952 109.267 58.2942 110.377C57.688 112.046 54.5637 110.489 52.9037 113.175C51.4395 115.543 52.6332 118.127 52.1856 120.682C51.9711 121.923 51.169 123.769 50.0592 124.497C49.5649 124.823 45.6386 125.439 45.4241 124.748C45.4241 124.748 44.333 121.214 44.333 121.204C43.3537 118.024 47.1215 112.718 49.0613 110.573C50.5722 108.922 52.6053 108.381 54.6104 108.297Z" fill="url(#paint57_linear_54784_32799)"/>
<path d="M50.8893 121.074L47.1401 124.198C39.9404 127.257 34.7177 130.866 30.922 134.765C29.551 132.181 27.3314 129.197 23.7875 126.875C31.0432 123.303 36.4431 121.82 36.4431 121.82C51.0851 115.935 50.8893 121.074 50.8893 121.074Z" fill="url(#paint58_linear_54784_32799)"/>
<path d="M30.922 134.774C19.0871 146.963 22.5471 140.771 22.4539 151.151C22.4165 155.021 19.0591 169.812 19.0591 169.812C-17.1263 154.182 13.0717 132.843 23.7875 126.884C27.3314 129.206 29.551 132.191 30.922 134.774Z" fill="url(#paint59_linear_54784_32799)"/>
<defs>
<linearGradient id="paint0_linear_54784_32799" x1="288.834" y1="151.636" x2="166.294" y2="159.631" gradientUnits="userSpaceOnUse">
<stop stop-color="#09005D"/>
<stop offset="1" stop-color="#1A0F91"/>
</linearGradient>
<linearGradient id="paint1_linear_54784_32799" x1="255.924" y1="-13.2833" x2="237.095" y2="198.595" gradientUnits="userSpaceOnUse">
<stop stop-color="#4042E2"/>
<stop offset="1" stop-color="#4F52FF"/>
</linearGradient>
<linearGradient id="paint2_linear_54784_32799" x1="207.842" y1="-17.5559" x2="189.013" y2="194.317" gradientUnits="userSpaceOnUse">
<stop stop-color="#4042E2"/>
<stop offset="1" stop-color="#4F52FF"/>
</linearGradient>
<linearGradient id="paint3_linear_54784_32799" x1="194.273" y1="-18.7627" x2="175.445" y2="193.112" gradientUnits="userSpaceOnUse">
<stop stop-color="#4042E2"/>
<stop offset="1" stop-color="#4F52FF"/>
</linearGradient>
<linearGradient id="paint4_linear_54784_32799" x1="200.491" y1="-18.2094" x2="181.663" y2="193.664" gradientUnits="userSpaceOnUse">
<stop stop-color="#4042E2"/>
<stop offset="1" stop-color="#4F52FF"/>
</linearGradient>
<linearGradient id="paint5_linear_54784_32799" x1="242.25" y1="-14.4971" x2="223.422" y2="197.373" gradientUnits="userSpaceOnUse">
<stop stop-color="#4042E2"/>
<stop offset="1" stop-color="#4F52FF"/>
</linearGradient>
<linearGradient id="paint6_linear_54784_32799" x1="195.895" y1="-18.6186" x2="177.066" y2="193.256" gradientUnits="userSpaceOnUse">
<stop stop-color="#4042E2"/>
<stop offset="1" stop-color="#4F52FF"/>
</linearGradient>
<linearGradient id="paint7_linear_54784_32799" x1="195.795" y1="-18.6279" x2="176.966" y2="193.247" gradientUnits="userSpaceOnUse">
<stop stop-color="#4042E2"/>
<stop offset="1" stop-color="#4F52FF"/>
</linearGradient>
<linearGradient id="paint8_linear_54784_32799" x1="217.584" y1="-16.6898" x2="198.756" y2="195.183" gradientUnits="userSpaceOnUse">
<stop stop-color="#4042E2"/>
<stop offset="1" stop-color="#4F52FF"/>
</linearGradient>
<linearGradient id="paint9_linear_54784_32799" x1="229.253" y1="-15.6525" x2="210.424" y2="196.219" gradientUnits="userSpaceOnUse">
<stop stop-color="#4042E2"/>
<stop offset="1" stop-color="#4F52FF"/>
</linearGradient>
<linearGradient id="paint10_linear_54784_32799" x1="200.275" y1="-18.23" x2="181.446" y2="193.646" gradientUnits="userSpaceOnUse">
<stop stop-color="#4042E2"/>
<stop offset="1" stop-color="#4F52FF"/>
</linearGradient>
<linearGradient id="paint11_linear_54784_32799" x1="268.312" y1="-12.1819" x2="249.483" y2="199.696" gradientUnits="userSpaceOnUse">
<stop stop-color="#4042E2"/>
<stop offset="1" stop-color="#4F52FF"/>
</linearGradient>
<linearGradient id="paint12_linear_54784_32799" x1="252.653" y1="-13.5783" x2="233.823" y2="198.303" gradientUnits="userSpaceOnUse">
<stop stop-color="#4042E2"/>
<stop offset="1" stop-color="#4F52FF"/>
</linearGradient>
<linearGradient id="paint13_linear_54784_32799" x1="313.323" y1="-5.88214" x2="294.494" y2="205.994" gradientUnits="userSpaceOnUse">
<stop stop-color="#4042E2"/>
<stop offset="1" stop-color="#4F52FF"/>
</linearGradient>
<linearGradient id="paint14_linear_54784_32799" x1="322.118" y1="-5.10043" x2="303.29" y2="206.775" gradientUnits="userSpaceOnUse">
<stop stop-color="#4042E2"/>
<stop offset="1" stop-color="#4F52FF"/>
</linearGradient>
<linearGradient id="paint15_linear_54784_32799" x1="322.556" y1="-5.06114" x2="303.728" y2="206.813" gradientUnits="userSpaceOnUse">
<stop stop-color="#4042E2"/>
<stop offset="1" stop-color="#4F52FF"/>
</linearGradient>
<linearGradient id="paint16_linear_54784_32799" x1="314.617" y1="-5.76604" x2="295.788" y2="206.107" gradientUnits="userSpaceOnUse">
<stop stop-color="#4042E2"/>
<stop offset="1" stop-color="#4F52FF"/>
</linearGradient>
<linearGradient id="paint17_linear_54784_32799" x1="296.493" y1="-7.37566" x2="277.665" y2="204.496" gradientUnits="userSpaceOnUse">
<stop stop-color="#4042E2"/>
<stop offset="1" stop-color="#4F52FF"/>
</linearGradient>
<linearGradient id="paint18_linear_54784_32799" x1="306.654" y1="-6.47352" x2="287.826" y2="205.399" gradientUnits="userSpaceOnUse">
<stop stop-color="#4042E2"/>
<stop offset="1" stop-color="#4F52FF"/>
</linearGradient>
<linearGradient id="paint19_linear_54784_32799" x1="320.007" y1="-5.2873" x2="301.179" y2="206.587" gradientUnits="userSpaceOnUse">
<stop stop-color="#4042E2"/>
<stop offset="1" stop-color="#4F52FF"/>
</linearGradient>
<linearGradient id="paint20_linear_54784_32799" x1="271.597" y1="-9.58681" x2="252.769" y2="202.283" gradientUnits="userSpaceOnUse">
<stop stop-color="#4042E2"/>
<stop offset="1" stop-color="#4F52FF"/>
</linearGradient>
<linearGradient id="paint21_linear_54784_32799" x1="284.61" y1="-8.43112" x2="265.782" y2="203.44" gradientUnits="userSpaceOnUse">
<stop stop-color="#4042E2"/>
<stop offset="1" stop-color="#4F52FF"/>
</linearGradient>
<linearGradient id="paint22_linear_54784_32799" x1="318.729" y1="-5.40184" x2="299.901" y2="206.474" gradientUnits="userSpaceOnUse">
<stop stop-color="#4042E2"/>
<stop offset="1" stop-color="#4F52FF"/>
</linearGradient>
<linearGradient id="paint23_linear_54784_32799" x1="240.519" y1="-14.6543" x2="221.69" y2="197.224" gradientUnits="userSpaceOnUse">
<stop stop-color="#4042E2"/>
<stop offset="1" stop-color="#4F52FF"/>
</linearGradient>
<linearGradient id="paint24_linear_54784_32799" x1="159.499" y1="428.943" x2="192.208" y2="327.51" gradientUnits="userSpaceOnUse">
<stop stop-color="#09005D"/>
<stop offset="1" stop-color="#1A0F91"/>
</linearGradient>
<linearGradient id="paint25_linear_54784_32799" x1="244.567" y1="98.1873" x2="264.304" y2="98.1873" gradientUnits="userSpaceOnUse">
<stop stop-color="#4042E2"/>
<stop offset="1" stop-color="#4F52FF"/>
</linearGradient>
<linearGradient id="paint26_linear_54784_32799" x1="252.524" y1="94.125" x2="280.483" y2="94.125" gradientUnits="userSpaceOnUse">
<stop stop-color="#4042E2"/>
<stop offset="1" stop-color="#4F52FF"/>
</linearGradient>
<linearGradient id="paint27_linear_54784_32799" x1="123.15" y1="417.223" x2="155.86" y2="315.789" gradientUnits="userSpaceOnUse">
<stop stop-color="#09005D"/>
<stop offset="1" stop-color="#1A0F91"/>
</linearGradient>
<linearGradient id="paint28_linear_54784_32799" x1="233.573" y1="83.2437" x2="255.335" y2="83.2437" gradientUnits="userSpaceOnUse">
<stop stop-color="#4042E2"/>
<stop offset="1" stop-color="#4F52FF"/>
</linearGradient>
<linearGradient id="paint29_linear_54784_32799" x1="217.805" y1="81.1202" x2="260.146" y2="81.1202" gradientUnits="userSpaceOnUse">
<stop stop-color="#4042E2"/>
<stop offset="1" stop-color="#4F52FF"/>
</linearGradient>
<linearGradient id="paint30_linear_54784_32799" x1="69.3571" y1="-13.189" x2="41.0576" y2="96.9175" gradientUnits="userSpaceOnUse">
<stop stop-color="#FE7062"/>
<stop offset="1" stop-color="#FF928E"/>
</linearGradient>
<linearGradient id="paint31_linear_54784_32799" x1="149.874" y1="-65.6303" x2="105.722" y2="-12.2522" gradientUnits="userSpaceOnUse">
<stop stop-color="#E1473D"/>
<stop offset="1" stop-color="#E9605A"/>
</linearGradient>
<linearGradient id="paint32_linear_54784_32799" x1="159.889" y1="-57.3456" x2="115.737" y2="-3.96751" gradientUnits="userSpaceOnUse">
<stop stop-color="#E1473D"/>
<stop offset="1" stop-color="#E9605A"/>
</linearGradient>
<linearGradient id="paint33_linear_54784_32799" x1="143.274" y1="51.0444" x2="170.66" y2="206.016" gradientUnits="userSpaceOnUse">
<stop stop-color="#09005D"/>
<stop offset="1" stop-color="#1A0F91"/>
</linearGradient>
<linearGradient id="paint34_linear_54784_32799" x1="215.441" y1="71.4606" x2="73.7294" y2="399.671" gradientUnits="userSpaceOnUse">
<stop stop-color="#62FECA"/>
<stop offset="1" stop-color="#FF928E"/>
</linearGradient>
<linearGradient id="paint35_linear_54784_32799" x1="121.09" y1="194.642" x2="206.197" y2="-9.52349" gradientUnits="userSpaceOnUse">
<stop stop-color="#09005D"/>
<stop offset="1" stop-color="#1A0F91"/>
</linearGradient>
<linearGradient id="paint36_linear_54784_32799" x1="142.63" y1="203.953" x2="228.023" y2="-3.35162" gradientUnits="userSpaceOnUse">
<stop stop-color="#09005D"/>
<stop offset="1" stop-color="#1A0F91"/>
</linearGradient>
<linearGradient id="paint37_linear_54784_32799" x1="169.851" y1="214.451" x2="253.927" y2="9.26326" gradientUnits="userSpaceOnUse">
<stop stop-color="#09005D"/>
<stop offset="1" stop-color="#1A0F91"/>
</linearGradient>
<linearGradient id="paint38_linear_54784_32799" x1="140.615" y1="124.165" x2="212.986" y2="-51.811" gradientUnits="userSpaceOnUse">
<stop stop-color="#09005D"/>
<stop offset="1" stop-color="#1A0F91"/>
</linearGradient>
<linearGradient id="paint39_linear_54784_32799" x1="153.501" y1="129.464" x2="225.872" y2="-46.512" gradientUnits="userSpaceOnUse">
<stop stop-color="#09005D"/>
<stop offset="1" stop-color="#1A0F91"/>
</linearGradient>
<linearGradient id="paint40_linear_54784_32799" x1="166.565" y1="134.836" x2="238.936" y2="-41.1394" gradientUnits="userSpaceOnUse">
<stop stop-color="#09005D"/>
<stop offset="1" stop-color="#1A0F91"/>
</linearGradient>
<linearGradient id="paint41_linear_54784_32799" x1="179.813" y1="140.285" x2="252.183" y2="-35.6873" gradientUnits="userSpaceOnUse">
<stop stop-color="#09005D"/>
<stop offset="1" stop-color="#1A0F91"/>
</linearGradient>
<linearGradient id="paint42_linear_54784_32799" x1="92.9158" y1="310.271" x2="15.4891" y2="394.49" gradientUnits="userSpaceOnUse">
<stop stop-color="#09005D"/>
<stop offset="1" stop-color="#1A0F91"/>
</linearGradient>
<linearGradient id="paint43_linear_54784_32799" x1="67.7842" y1="316.526" x2="74.6616" y2="316.526" gradientUnits="userSpaceOnUse">
<stop stop-color="#FEBBBA"/>
<stop offset="1" stop-color="#FF928E"/>
</linearGradient>
<linearGradient id="paint44_linear_54784_32799" x1="-339.488" y1="735.481" x2="-265.354" y2="648.593" gradientUnits="userSpaceOnUse">
<stop stop-color="#020039"/>
<stop offset="1" stop-color="#090056"/>
</linearGradient>
<linearGradient id="paint45_linear_54784_32799" x1="75.5465" y1="294.303" x2="-1.88035" y2="378.521" gradientUnits="userSpaceOnUse">
<stop stop-color="#09005D"/>
<stop offset="1" stop-color="#1A0F91"/>
</linearGradient>
<linearGradient id="paint46_linear_54784_32799" x1="42.9981" y1="316.174" x2="48.9362" y2="316.174" gradientUnits="userSpaceOnUse">
<stop stop-color="#FEBBBA"/>
<stop offset="1" stop-color="#FF928E"/>
</linearGradient>
<linearGradient id="paint47_linear_54784_32799" x1="-349.881" y1="726.614" x2="-275.748" y2="639.726" gradientUnits="userSpaceOnUse">
<stop stop-color="#020039"/>
<stop offset="1" stop-color="#090056"/>
</linearGradient>
<linearGradient id="paint48_linear_54784_32799" x1="92.4297" y1="133.573" x2="65.6853" y2="208.909" gradientUnits="userSpaceOnUse">
<stop stop-color="#D588E1"/>
<stop offset="1" stop-color="#4042E2"/>
</linearGradient>
<linearGradient id="paint49_linear_54784_32799" x1="67.6032" y1="110.788" x2="137.157" y2="214.957" gradientUnits="userSpaceOnUse">
<stop stop-color="#FEBBBA"/>
<stop offset="1" stop-color="#FF928E"/>
</linearGradient>
<linearGradient id="paint50_linear_54784_32799" x1="78.687" y1="103.387" x2="148.241" y2="207.555" gradientUnits="userSpaceOnUse">
<stop stop-color="#FEBBBA"/>
<stop offset="1" stop-color="#FF928E"/>
</linearGradient>
<linearGradient id="paint51_linear_54784_32799" x1="69.5456" y1="125.449" x2="42.801" y2="200.785" gradientUnits="userSpaceOnUse">
<stop stop-color="#B993FE"/>
<stop offset="1" stop-color="#4042E2"/>
</linearGradient>
<linearGradient id="paint52_linear_54784_32799" x1="38.3657" y1="114.38" x2="11.6212" y2="189.716" gradientUnits="userSpaceOnUse">
<stop stop-color="#AA80F9"/>
<stop offset="1" stop-color="#4042E2"/>
</linearGradient>
<linearGradient id="paint53_linear_54784_32799" x1="64.4085" y1="125.08" x2="36.7409" y2="177.017" gradientUnits="userSpaceOnUse">
<stop stop-color="#FEBBBA"/>
<stop offset="1" stop-color="#FF928E"/>
</linearGradient>
<linearGradient id="paint54_linear_54784_32799" x1="26.8791" y1="117.725" x2="80.3944" y2="124.144" gradientUnits="userSpaceOnUse">
<stop stop-color="#FEBBBA"/>
<stop offset="1" stop-color="#FF928E"/>
</linearGradient>
<linearGradient id="paint55_linear_54784_32799" x1="54.2374" y1="129.549" x2="76.9592" y2="115.506" gradientUnits="userSpaceOnUse">
<stop stop-color="#09005D"/>
<stop offset="1" stop-color="#1A0F91"/>
</linearGradient>
<linearGradient id="paint56_linear_54784_32799" x1="26.1659" y1="123.669" x2="79.6814" y2="130.087" gradientUnits="userSpaceOnUse">
<stop stop-color="#FEBBBA"/>
<stop offset="1" stop-color="#FF928E"/>
</linearGradient>
<linearGradient id="paint57_linear_54784_32799" x1="57.6084" y1="111.981" x2="14.4313" y2="141.253" gradientUnits="userSpaceOnUse">
<stop stop-color="#FEBBBA"/>
<stop offset="1" stop-color="#FF928E"/>
</linearGradient>
<linearGradient id="paint58_linear_54784_32799" x1="56.7451" y1="111.111" x2="11.8288" y2="141.562" gradientUnits="userSpaceOnUse">
<stop stop-color="#FEBBBA"/>
<stop offset="1" stop-color="#FF928E"/>
</linearGradient>
<linearGradient id="paint59_linear_54784_32799" x1="27.8644" y1="110.652" x2="1.11995" y2="185.988" gradientUnits="userSpaceOnUse">
<stop stop-color="#9D7BF3"/>
<stop offset="1" stop-color="#4042E2"/>
</linearGradient>
</defs>
</svg>
