<svg width="338" height="336" viewBox="0 0 338 336" fill="none" xmlns="http://www.w3.org/2000/svg">
<g clip-path="url(#clip0_54698_37227)">
<path opacity="0.05" d="M174.221 5.21188C137.664 19.9168 134.165 57.5095 101.257 60.7379C72.5746 63.5463 61.6765 36.3292 41.5506 41.2091C10.8998 48.6362 -8.36776 122.581 3.93921 183.378C16.6474 246.154 70.0647 329.616 158.546 335.307C257.888 341.699 333.055 245.678 337.646 161.414C338.14 152.298 341.07 75.9466 283.379 30.8428C280.487 28.5849 223.636 -14.6715 174.221 5.21188Z" fill="black"/>
<mask id="mask0_54698_37227" style="mask-type:luminance" maskUnits="userSpaceOnUse" x="85" y="27" width="59" height="151">
<path d="M112.631 177.898L136.181 172.654C136.181 172.654 137.926 159.582 130.256 152.342C114.609 137.571 128.633 124.891 133.718 118.705C141.387 109.375 144.065 97.8047 129.407 96.2932C114.739 94.7817 123.753 70.5689 138.299 57.2823C152.537 44.2755 137.637 11.46 104.233 36.7738C84.2846 51.8892 93.0087 74.6744 94.6788 87.2239C96.349 99.7735 78.2664 104.868 87.8862 118.519C96.0971 130.172 108.357 137.273 102.563 147.835C96.7689 158.397 98.1684 168.474 112.631 177.898Z" fill="white"/>
</mask>
<g mask="url(#mask0_54698_37227)">
<path d="M112.631 177.898L136.181 172.654C136.181 172.654 137.926 159.582 130.256 152.342C114.609 137.571 128.633 124.891 133.718 118.705C141.387 109.375 143.384 99.0737 130.863 95.4721C116.699 91.3947 123.743 70.5783 138.299 57.2823C152.537 44.2755 137.637 11.46 104.233 36.7738C84.2846 51.8892 93.0087 74.6744 94.6788 87.2239C96.349 99.7735 78.2664 104.868 87.8862 118.519C96.0971 130.172 108.357 137.273 102.563 147.835C96.7689 158.397 98.1684 168.474 112.631 177.898Z" fill="url(#paint0_linear_54698_37227)"/>
</g>
<mask id="mask1_54698_37227" style="mask-type:luminance" maskUnits="userSpaceOnUse" x="85" y="27" width="59" height="151">
<path d="M112.631 177.898L136.181 172.654C136.181 172.654 137.926 159.582 130.256 152.342C114.609 137.571 128.633 124.891 133.718 118.705C141.387 109.375 144.065 97.8047 129.407 96.2932C114.739 94.7817 123.753 70.5689 138.299 57.2823C152.537 44.2755 137.637 11.46 104.233 36.7738C84.2846 51.8892 93.0087 74.6744 94.6788 87.2239C96.349 99.7735 78.2664 104.868 87.8862 118.519C96.0971 130.172 108.357 137.273 102.563 147.835C96.7689 158.397 98.1684 168.474 112.631 177.898Z" fill="white"/>
</mask>
<g mask="url(#mask1_54698_37227)">
<g opacity="0.5">
<path d="M123.314 177.817L123.781 177.621C123.659 177.332 111.446 148.192 108.049 115.666C104.924 85.6966 108.852 46.6203 145.343 30.6931L145.138 30.2266C128.894 37.3178 117.641 49.5034 111.688 66.4477C106.939 79.9863 105.539 96.5666 107.536 115.732C110.951 148.332 123.183 177.528 123.314 177.817Z" fill="#BEB8F2"/>
<path d="M109.514 73.6383L109.99 73.4704C104.289 57.5058 105.353 32.7799 105.362 32.528L104.849 32.5C104.84 32.7519 103.776 57.5711 109.514 73.6383Z" fill="#BEB8F2"/>
<path d="M113.788 62.4494C128.203 48.295 144.961 49.8159 145.129 49.8346L145.185 49.3307C145.017 49.3121 128.035 47.7632 113.442 62.0949L113.788 62.4494Z" fill="#BEB8F2"/>
<path d="M111.427 136.812C111.763 112.133 142.367 99.2753 142.675 99.182L142.554 98.6875C142.246 98.7528 111.259 111.909 110.914 136.803L111.427 136.812Z" fill="#BEB8F2"/>
<path d="M109.066 126.911L109.533 126.705C103.048 112.346 84.4151 105.628 84.2285 105.562L84.0605 106.038C84.2378 106.104 102.675 112.756 109.066 126.911Z" fill="#BEB8F2"/>
<path d="M121.961 172.994C120.645 163.71 132.066 153.587 132.178 153.484L131.842 153.102C131.366 153.521 120.104 163.514 121.457 173.069L121.961 172.994Z" fill="#BEB8F2"/>
<path d="M118.976 166.13L119.451 165.934C116.643 159.076 104.093 153.525 99.9693 151.705C99.3908 151.444 98.8869 151.229 98.803 151.164L98.5044 151.575C98.6164 151.659 98.9523 151.808 99.764 152.162C103.832 153.982 116.242 159.459 118.976 166.13Z" fill="#BEB8F2"/>
</g>
</g>
<path d="M94.5848 114.158C101.107 114.121 105.054 119.075 107.34 123.106C107.05 123.666 107.032 124.058 106.873 124.683C105.408 130.328 103.579 132.418 101.256 137.746C100.752 138.894 98.261 141.814 97.1693 142.943L95.098 145.014C95.098 145.014 80.1785 143.251 80.2438 134.704C80.3091 126.157 66.3506 122.686 59.1848 119.934C54.7808 118.245 53.3159 116.062 51.795 115.185C35.7372 105.863 28.3194 108.383 24.9604 102.15C21.2468 95.2639 29.2244 90.2255 25.5855 82.5184C21.4708 73.8224 8.53866 74.4009 6.49528 65.3036C6.14072 63.7454 5.82348 62.1312 6.21536 60.0319C7.16708 54.8534 11.6457 52.5115 9.55569 47.417C5.35695 37.1814 8.14678 25.229 19.2594 22.6724C30.2228 20.1532 41.6434 35.194 44.1906 60.0785C48.0161 77.5639 51.0019 79.2528 59.0262 81.912C64.6525 83.7687 81.1208 85.0937 82.6697 95.3199C84.2186 105.546 87.1297 114.196 94.5848 114.158Z" fill="url(#paint1_linear_54698_37227)"/>
<mask id="mask2_54698_37227" style="mask-type:luminance" maskUnits="userSpaceOnUse" x="6" y="22" width="104" height="123">
<path d="M109.897 128.462L95.7702 144.828C95.7702 144.828 80.1789 143.251 80.2442 134.704C80.3095 126.157 66.351 122.686 59.1852 119.934C39.7404 112.469 52.5045 91.9609 28.4224 80.2698C22.0217 77.1627 8.62304 73.4958 6.48635 65.3036C4.05108 55.9637 12.234 53.967 9.54676 47.417C5.34802 37.1814 8.13785 25.229 19.2505 22.6724C30.2139 20.1532 41.6344 35.194 44.1817 60.0785C48.0072 77.5639 50.993 79.2527 59.0172 81.9119C64.6435 83.7687 81.1119 85.0937 82.6608 95.3199C84.2097 105.546 87.1208 114.196 94.5852 114.158C105.94 114.102 109.897 128.462 109.897 128.462Z" fill="white"/>
</mask>
<g mask="url(#mask2_54698_37227)">
<g opacity="0.5">
<path d="M102.843 135.166L102.6 135.52C100.631 134.214 98.6533 132.871 96.7405 131.527C82.5488 121.581 69.8779 110.571 59.0825 98.8048C49.9386 88.8305 42.0077 78.175 35.5136 67.137C30.2885 58.2544 25.9685 49.0731 22.6561 39.8546C20.3328 33.3698 18.5227 26.9318 17.2911 20.727C17.0765 19.6446 16.9179 18.525 16.7592 17.4333C16.554 15.9871 16.3394 14.4848 15.9941 13.0759L16.3954 12.9453C16.7499 14.3729 16.9552 15.8844 17.1698 17.34C17.3191 18.4223 17.4777 19.542 17.6923 20.615C18.9239 26.8105 20.7154 33.2206 23.0387 39.6866C26.3417 48.8865 30.6617 58.0398 35.8682 66.9038C42.3529 77.9231 50.2652 88.5599 59.3904 98.5063C70.1672 110.253 82.8101 121.245 96.9831 131.172C98.9052 132.516 100.874 133.86 102.843 135.166Z" fill="#FCFDFE"/>
<path d="M44.3403 79.9582L44.0137 80.2288C33.6848 66.5689 4.80682 60.1868 4.51758 60.1215L4.62954 59.7109C4.91879 59.7763 33.9274 66.1863 44.3403 79.9582Z" fill="#FCFDFE"/>
<path d="M76.7265 115.334L76.428 115.642C68.2824 107.282 70.8483 83.7504 70.8763 83.5078L71.2868 83.5265C71.2495 83.7597 68.7023 107.105 76.7265 115.334Z" fill="#FCFDFE"/>
<path d="M81.7835 119.651L81.5409 120.006C75.2894 115.667 64.2327 113.344 50.4142 113.456C49.7238 113.465 49.7238 113.465 49.6584 113.418L49.901 113.064L49.7797 113.241L49.8264 113.036C49.873 113.045 50.1343 113.036 50.4422 113.036C64.3354 112.914 75.4667 115.266 81.7835 119.651Z" fill="#FCFDFE"/>
<path d="M99.2786 132.72L98.9521 132.991C93.8389 126.291 97.1233 113.443 97.1513 113.312L97.5431 113.387C97.5151 113.527 94.2868 126.179 99.2786 132.72Z" fill="#FCFDFE"/>
<path d="M102.572 135.75C95.8822 134.304 88.4178 134.798 79.759 137.28L79.675 136.879C88.3991 134.378 95.9288 133.875 102.684 135.339L102.572 135.75Z" fill="#FCFDFE"/>
<path d="M25.082 45.0765L24.7368 45.3284C19.4277 37.3695 11.954 30.4089 9.50006 28.1229C8.90291 27.5724 8.69764 27.3765 8.63232 27.2925L8.96822 27.0312C9.01488 27.0966 9.35077 27.4138 9.78931 27.815C12.2526 30.101 19.7543 37.0802 25.082 45.0765Z" fill="#FCFDFE"/>
<path d="M31.735 59.4575L31.3431 59.5974C28.8519 50.8081 37.8652 33.8732 38.2477 33.1641L38.6023 33.3413C38.509 33.5186 29.2904 50.8361 31.735 59.4575Z" fill="#FCFDFE"/>
</g>
</g>
<path d="M140.23 156.87C139.203 157.943 134.128 152.046 123.771 149.732C121.186 149.153 107.284 145.02 100.519 153.567C99.2035 155.228 97.8879 156.879 96.5723 158.54C91.6644 157.187 87.2977 155.004 89.6397 148.762C93.2693 139.067 79.8893 129.195 73.4699 127.983C65.5296 126.48 47.1391 122.599 52.5322 107.53C57.0108 94.9804 62.4132 87.6653 50.2555 77.8682C38.0885 68.0805 35.5133 55.1764 45.1424 43.6625C55.2754 31.5515 46.8126 9.63409 59.8567 3.10272C82.5858 -8.28052 98.4664 28.0992 90.3488 55.9042C82.2406 83.6998 99.1102 76.4967 109.934 83.3173C110.904 84.0077 112.35 85.1554 113.806 86.8256C122.754 97.1451 116.353 109.704 119.236 124.185C123.183 143.938 141.947 155.06 140.23 156.87Z" fill="url(#paint2_linear_54698_37227)"/>
<mask id="mask3_54698_37227" style="mask-type:luminance" maskUnits="userSpaceOnUse" x="39" y="0" width="82" height="160">
<path d="M120.86 132.303L100.305 159.781C95.3968 158.68 87.018 155.741 89.6305 148.771C93.2601 139.067 79.8801 129.205 73.4607 127.992C65.5205 126.49 47.13 122.608 52.523 107.539C57.0017 94.9898 62.4041 87.6746 50.2464 77.8776C38.0887 68.0805 35.5135 55.1764 45.1426 43.6625C55.2755 31.5515 46.8127 9.63409 59.8568 3.10272C82.586 -8.28052 98.4665 28.0992 90.349 55.9042C82.2408 83.6998 99.1104 76.4967 109.934 83.3173C124.704 92.6385 106.901 110.534 108.562 119.818C109.878 127.096 116.465 130.632 120.86 132.303Z" fill="white"/>
</mask>
<g mask="url(#mask3_54698_37227)">
<g opacity="0.5">
<path d="M107.06 142.237L106.51 142.741C72.0426 104.681 57.1324 48.9129 67.6199 -2.79688L68.329 -2.69424C57.8882 48.8009 72.733 104.336 107.06 142.237Z" fill="#FCFDFE"/>
<path d="M90.1345 119.766L89.696 120.364C73.3116 108.56 49.6493 114.056 49.4067 114.112L49.2761 113.403C49.5094 113.347 73.4888 107.777 90.1345 119.766Z" fill="#FCFDFE"/>
<path d="M100.921 135.053L100.258 135.379C91.7673 116.588 113.134 83.4921 113.358 83.1562L113.955 83.5295C113.741 83.8654 92.5884 116.616 100.921 135.053Z" fill="#FCFDFE"/>
<path d="M70.3723 72.9967L69.7379 73.3792C61.7229 59.1781 36.9877 54.0464 36.7451 53.9904L36.9224 53.2812C37.1743 53.3372 62.2081 58.5343 70.3723 72.9967Z" fill="#FCFDFE"/>
<path d="M65.259 40.0882L64.5405 40.0509C66.6119 20.9886 86.346 3.37259 86.5419 3.19531L86.9991 3.72715C86.8125 3.90443 67.3024 21.3245 65.259 40.0882Z" fill="#FCFDFE"/>
</g>
</g>
<path d="M16.4514 157.969L148.954 59.3269C155.896 54.1578 165.637 55.0908 171.478 61.4822L267.807 166.973L158.966 221.118L16.4514 157.969Z" fill="url(#paint3_linear_54698_37227)"/>
<path d="M18.0098 160.641L150.513 61.9987C157.455 56.8296 167.196 57.7627 173.036 64.1541L269.365 169.645L160.524 223.79L18.0098 160.641Z" fill="#D8DEE8"/>
<path d="M257.543 164.076L22.3392 155.958C17.3753 155.79 13.2512 159.765 13.2512 164.738V316.322C13.2512 321.435 17.5992 325.466 22.6937 325.083L257.898 307.439C262.479 307.094 266.025 303.278 266.025 298.678V172.856C266.025 168.125 262.274 164.244 257.543 164.076Z" fill="url(#paint4_linear_54698_37227)"/>
<path d="M261.592 164.076L26.3885 155.958C21.4246 155.79 17.3005 159.765 17.3005 164.738V316.322C17.3005 321.435 21.6486 325.466 26.743 325.083L261.947 307.439C266.528 307.094 270.074 303.278 270.074 298.678V172.856C270.065 168.125 266.323 164.244 261.592 164.076Z" fill="url(#paint5_linear_54698_37227)"/>
<path d="M169.248 248.375L267.797 166.985C266.258 165.278 264.056 164.167 261.583 164.083L26.3791 155.966C24.1397 155.891 22.0777 156.656 20.4822 157.972L152.229 249.094C157.436 252.686 164.378 252.397 169.248 248.375Z" fill="url(#paint6_linear_54698_37227)"/>
<path d="M169.248 248.375C164.378 252.396 157.436 252.695 152.248 249.102L20.5009 157.98C18.5601 159.585 17.3098 162.021 17.3098 164.745V316.329C17.3098 321.442 21.6578 325.473 26.7523 325.09L261.956 307.446C266.538 307.101 270.083 303.285 270.083 298.685V172.853C270.083 170.595 269.225 168.533 267.816 166.975L169.248 248.375Z" fill="url(#paint7_linear_54698_37227)"/>
<path d="M169.248 248.375L267.797 166.985C266.258 165.278 264.056 164.167 261.583 164.083L26.3793 155.966C24.14 155.891 22.0779 156.656 20.4824 157.972L152.229 249.094C157.436 252.686 164.378 252.397 169.248 248.375Z" fill="url(#paint8_linear_54698_37227)"/>
<path opacity="0.37" d="M267.797 166.973L169.248 248.363C164.378 252.384 157.436 252.683 152.248 249.091L20.5011 157.969C18.5603 159.574 17.3101 162.009 17.3101 164.733V187.089C22.0686 185.093 26.0994 184.701 29.3744 184.981C38.425 185.736 40.5897 191.391 57.9165 199.546C74.1237 207.169 75.8218 203.922 82.969 209.445C96.7315 220.091 90.7133 232.38 102.778 243.819C115.337 255.725 126.179 246.487 144.14 257.796C163.118 269.758 157.044 283.866 172.682 292.17C194.59 303.796 216.974 281.626 235.598 293.336C241.233 296.872 244.826 302.452 247.149 308.545L261.957 307.434C266.538 307.089 270.083 303.273 270.083 298.673V172.851C270.065 170.593 269.206 168.531 267.797 166.973Z" fill="url(#paint9_linear_54698_37227)"/>
<path d="M173.13 232.274C167.634 234.178 161.159 232.909 156.792 228.598L95.2197 167.819C89.612 162.286 89.5747 153.375 95.1544 147.861C100.771 142.309 112.649 141.087 118.359 146.657L181.061 207.893C186.976 213.669 186.855 222.748 180.809 228.122C179.325 229.456 174.94 231.64 173.13 232.274Z" fill="url(#paint10_linear_54698_37227)"/>
<path opacity="0.3" d="M95.1453 147.869C100.762 142.317 112.64 141.095 118.35 146.665L175.686 202.658C170.359 203.441 164.704 205.942 157.221 203.441C144.765 199.28 144.952 187.169 133.904 181.085C128.856 178.305 120.907 176.485 107.928 180.376L95.2012 167.817C89.6029 162.284 89.5656 153.374 95.1453 147.869Z" fill="url(#paint11_linear_54698_37227)"/>
<path d="M70.559 140.997C70.8203 140.885 71.0909 140.801 71.3708 140.727L90.2371 132.562L110.923 181.846L92.5138 189.283C92.0939 189.6 91.6367 189.861 91.1515 190.067C84.6574 192.791 74.7764 184.02 69.0941 170.472C63.4025 156.915 64.0556 143.722 70.559 140.997Z" fill="url(#paint12_linear_54698_37227)"/>
<path d="M90.228 132.558C89.9388 151.984 96.806 168.331 110.914 181.842L270.923 167.986L214.324 29.0547L90.228 132.558Z" fill="url(#paint13_linear_54698_37227)"/>
<path opacity="0.3" d="M215.807 143.298C200.272 143.848 187.947 126.148 172.103 132.027C159.675 136.636 160.972 150.044 148.469 153.785C135.668 157.62 128.073 145.276 112.397 146.377C105.269 146.881 98.9146 150.007 93.335 154.457C96.6006 164.618 102.442 173.725 110.914 181.833L270.923 167.977L242.866 124.516C232.378 138.465 223.337 143.037 215.807 143.298Z" fill="url(#paint14_linear_54698_37227)"/>
<path d="M214.212 109.801C230.792 149.307 259.586 174.882 278.527 166.932C297.468 158.983 299.381 120.513 282.801 81.0166C266.22 41.5112 237.426 15.9362 218.485 23.8858C199.535 31.8354 197.632 70.3052 214.212 109.801Z" fill="url(#paint15_linear_54698_37227)"/>
<path d="M277.51 164.511C281.532 162.822 284.779 159.482 287.149 154.564C289.565 149.563 290.984 143.209 291.357 135.679C292.141 119.836 288.24 100.783 280.375 82.0382C272.5 63.2932 261.639 47.1607 249.78 36.6265C244.135 31.616 238.611 28.1731 233.349 26.4003C228.18 24.6554 223.524 24.6275 219.502 26.3163C215.481 28.0051 212.234 31.3454 209.864 36.2626C207.447 41.2638 206.029 47.6179 205.656 55.1476C205.329 61.7723 205.815 68.9568 207.074 76.4492C208.828 86.8714 219.428 94.0653 224.009 104.973C228.88 116.57 227.527 130.986 234.217 139.878C238.341 145.355 242.717 150.188 247.242 154.201C252.887 159.211 258.411 162.654 263.673 164.427C268.833 166.172 273.489 166.2 277.51 164.511Z" fill="url(#paint16_linear_54698_37227)"/>
<mask id="mask4_54698_37227" style="mask-type:luminance" maskUnits="userSpaceOnUse" x="205" y="25" width="87" height="141">
<path d="M277.51 164.511C281.532 162.822 284.779 159.482 287.149 154.564C289.565 149.563 290.984 143.209 291.357 135.679C292.141 119.836 288.24 100.783 280.375 82.0382C272.5 63.2932 261.639 47.1607 249.78 36.6265C244.135 31.616 238.611 28.1731 233.349 26.4003C228.18 24.6554 223.524 24.6275 219.502 26.3163C215.481 28.0051 212.234 31.3454 209.864 36.2626C207.447 41.2638 206.029 47.6179 205.656 55.1476C204.872 70.9909 208.772 90.0438 216.638 108.789C224.513 127.534 235.374 143.666 247.233 154.201C252.878 159.211 258.401 162.654 263.664 164.427C268.833 166.172 273.489 166.2 277.51 164.511Z" fill="white"/>
</mask>
<g mask="url(#mask4_54698_37227)">
<path d="M251.721 95.1632C259.325 113.283 253.372 132.709 238.621 138.466C224.103 144.139 206.505 134.389 199.106 116.773C191.707 99.1567 197.156 79.9451 211.46 73.7776C225.997 67.5075 244.117 77.0433 251.721 95.1632Z" fill="url(#paint17_linear_54698_37227)"/>
</g>
<mask id="mask5_54698_37227" style="mask-type:luminance" maskUnits="userSpaceOnUse" x="205" y="25" width="87" height="141">
<path d="M277.51 164.511C281.532 162.822 284.779 159.482 287.149 154.564C289.565 149.563 290.984 143.209 291.357 135.679C292.141 119.836 288.24 100.783 280.375 82.0382C272.5 63.2932 261.639 47.1607 249.78 36.6265C244.135 31.616 238.611 28.1731 233.349 26.4003C228.18 24.6554 223.524 24.6275 219.502 26.3163C215.481 28.0051 212.234 31.3454 209.864 36.2626C207.447 41.2638 206.029 47.6179 205.656 55.1476C204.872 70.9909 208.772 90.0438 216.638 108.789C224.513 127.534 235.374 143.666 247.233 154.201C252.878 159.211 258.401 162.654 263.664 164.427C268.833 166.172 273.489 166.2 277.51 164.511Z" fill="white"/>
</mask>
<g mask="url(#mask5_54698_37227)">
<path opacity="0.3" d="M249.295 95.8375C254.94 109.292 253.577 122.43 246.356 125.145C239.246 127.813 229.103 119.341 223.617 106.26C218.121 93.1783 219.232 80.1436 226.192 77.1018C233.255 74.0134 243.64 82.3829 249.295 95.8375Z" fill="url(#paint18_linear_54698_37227)"/>
</g>
<path d="M284.256 27.4603C289.061 37.8825 282.334 51.2345 269.243 57.2714C256.143 63.3082 241.634 59.744 236.829 49.3218C232.024 38.8996 238.751 25.5476 251.842 19.5107C264.942 13.4739 279.451 17.0288 284.256 27.4603Z" fill="url(#paint19_linear_54698_37227)"/>
<path d="M257.263 50.7797L248.987 32.8184C248.455 31.6614 249.071 30.4578 250.135 30.5698L269.402 32.5758C270.625 32.7064 271.399 34.3953 270.709 35.403L259.717 51.3582C259.111 52.2446 257.795 51.9367 257.263 50.7797Z" fill="white"/>
<g opacity="0.3">
<path d="M272.78 49.7996C267.349 45.5449 267.844 38.9948 262.311 37.1754C256.694 35.3279 253.158 41.0849 246.29 40.637C243.631 40.4597 240.254 39.3494 236.409 35.6172C234.823 40.1985 234.842 45.0037 236.829 49.3144C241.634 59.7366 256.143 63.3009 269.244 57.264C272.248 55.8831 274.907 54.1103 277.184 52.0856C275.327 51.5071 273.899 50.6767 272.78 49.7996Z" fill="url(#paint20_linear_54698_37227)"/>
</g>
<path d="M331.152 67.8458C335.08 81.4404 324.415 96.4625 307.331 101.389C290.256 106.316 273.228 99.2896 269.3 85.6951C265.371 72.1005 276.036 57.0783 293.12 52.1518C310.205 47.2253 327.233 54.2512 331.152 67.8458Z" fill="url(#paint21_linear_54698_37227)"/>
<path d="M295.584 60.6737C289.472 62.4372 285.954 68.8193 287.718 74.9308C288.856 78.8869 296.162 86.7619 301.163 91.8097C303.244 93.9091 306.818 92.8734 307.452 89.9902C308.992 83.0577 310.979 72.5048 309.841 68.5487C308.068 62.4279 301.686 58.9103 295.584 60.6737ZM300.482 77.674C297.198 78.6163 293.773 76.7316 292.831 73.4472C291.889 70.1629 293.773 66.7386 297.058 65.7962C300.342 64.8538 303.766 66.7386 304.709 70.0229C305.661 73.2979 303.766 76.7222 300.482 77.674Z" fill="white"/>
<g opacity="0.3">
<path d="M313.032 92.9543C307.2 86.7588 309.01 78.8745 302.61 75.6368C296.106 72.3431 290.732 78.6972 282.437 76.8871C279.237 76.1873 275.327 74.1999 271.324 68.9375C268.544 74.2279 267.676 80.0875 269.3 85.7045C273.228 99.299 290.247 106.325 307.331 101.398C311.24 100.269 314.823 98.6086 317.958 96.5652C315.812 95.4922 314.235 94.2326 313.032 92.9543Z" fill="url(#paint22_linear_54698_37227)"/>
</g>
<path d="M316.521 138.114C314.711 149.199 302.451 156.449 288.931 154.284C275.187 152.073 265.39 140.997 267.247 129.577C269.113 118.156 281.886 110.99 295.574 113.537C309.038 116.038 318.331 127.029 316.521 138.114Z" fill="url(#paint23_linear_54698_37227)"/>
<path d="M316.521 138.114C314.711 149.199 302.451 156.449 288.931 154.284C275.187 152.073 265.39 140.997 267.247 129.577C269.113 118.156 281.886 110.99 295.574 113.537C309.038 116.038 318.331 127.029 316.521 138.114Z" fill="url(#paint24_linear_54698_37227)"/>
<path d="M306.883 130.847C306.314 127.824 304.084 125.351 301.079 124.81C297.142 124.101 293.381 126.974 292.682 131.239C293.372 126.984 290.722 122.953 286.738 122.235C283.668 121.684 280.701 123.252 279.171 125.957C273.442 135.596 289.92 148.229 289.92 148.229C289.92 148.229 309.131 141.679 306.883 130.847Z" fill="white"/>
<g opacity="0.3">
<path d="M295.742 150.075C293.764 143.581 297.664 138.487 294.305 133.915C290.872 129.249 284.938 132.002 279.685 127.756C277.641 126.105 275.532 123.259 274.478 117.969C270.662 120.861 268.021 124.864 267.247 129.576C265.381 140.997 275.187 152.072 288.931 154.283C292.047 154.787 295.099 154.787 297.963 154.358C296.825 152.865 296.153 151.409 295.742 150.075Z" fill="url(#paint25_linear_54698_37227)"/>
</g>
<path d="M289.21 217.044C289.21 217.044 305.977 188.017 328.65 237.385C346.304 275.827 334.893 318.588 294.053 330.326C253.213 342.064 189.42 318.365 209.444 301.663C251.907 266.226 284.144 234.819 289.21 217.044Z" fill="url(#paint26_linear_54698_37227)"/>
<g opacity="0.3">
<path d="M310.241 243.125C311.436 246.642 311.706 256.654 311.202 268.177C310.755 278.45 311.688 283.825 295.341 291.298C289.733 293.864 285.861 301.991 277.286 306.824C273.395 309.017 258.746 316.948 239.815 313.747C227.293 311.629 217.972 305.481 211.692 299.761C253.045 265.107 284.237 234.503 289.21 217.037C289.21 217.037 295.341 206.437 305.184 208.947C302.796 211.616 301.984 218.791 310.241 243.125Z" fill="url(#paint27_linear_54698_37227)"/>
</g>
<g opacity="0.3">
<path d="M228.674 318.642C247.988 329.307 280.253 335.82 304.289 317.97C326.542 301.446 328.529 273.762 329.266 265.309C330.563 250.548 327.68 237.69 323.519 227.324C325.189 230.245 326.896 233.576 328.651 237.383C346.304 275.824 334.893 318.586 294.053 330.324C253.848 341.875 191.417 319.09 208.557 302.444C213.428 307.94 220.006 313.846 228.674 318.642Z" fill="url(#paint28_linear_54698_37227)"/>
</g>
<path opacity="0.3" d="M259.101 321.804C259.67 321.804 260.249 321.795 260.827 321.786C275.747 321.45 296.684 316.495 311.744 294.783C324.461 276.449 322.763 255.744 319.096 241.618C315.131 226.325 308.058 215.203 307.993 215.091C307.909 214.97 307.75 214.933 307.629 215.007C307.508 215.082 307.47 215.25 307.545 215.371C307.62 215.483 314.646 226.54 318.592 241.758C322.231 255.782 323.92 276.309 311.315 294.475C296.386 316.001 275.616 320.918 260.818 321.245C244.76 321.599 232.108 316.803 231.986 316.757C231.846 316.701 231.697 316.775 231.641 316.906C231.585 317.046 231.66 317.195 231.79 317.251C231.912 317.307 243.78 321.804 259.101 321.804Z" fill="url(#paint29_linear_54698_37227)"/>
<path d="M178.999 319.065C180.062 317.917 181.975 312.981 178.495 311.973C174.996 310.956 173.055 309.659 168.231 305.806C163.417 301.943 162.176 305.265 168.978 311.535C175.78 317.796 177.478 320.697 178.999 319.065Z" fill="url(#paint30_linear_54698_37227)"/>
<path d="M183.552 311.861L180.688 314.362C180.09 314.884 179.223 314.95 178.551 314.53C178.234 314.334 178.038 313.998 178.01 313.625C177.982 313.251 178.131 312.897 178.411 312.654L182.6 309.071L183.552 311.861Z" fill="url(#paint31_linear_54698_37227)"/>
<path d="M269.383 287.771C274.45 292.203 263.878 306.749 246.99 302.037C226.528 296.327 200.505 298.893 182.973 313.168C181.956 312.263 179.437 310.845 180.585 309.679C196.428 293.658 211.105 284.458 223.263 281.986C241.644 278.254 254.968 275.137 269.383 287.771Z" fill="url(#paint32_linear_54698_37227)"/>
<g opacity="0.24">
<path d="M210.022 293.863C207.055 295.589 206.421 292.081 204.891 289.776C211.459 285.736 217.636 283.133 223.262 281.995C241.644 278.262 254.968 275.146 269.383 287.77C274.45 292.202 263.878 306.748 246.99 302.036C240.888 300.329 234.282 299.387 227.554 299.247C222.152 295.841 217.72 288.041 210.022 293.863Z" fill="#552D63"/>
</g>
<path d="M272.369 302.923L273.405 303.324C273.405 303.324 280.132 296.979 281.326 295.356C282.791 293.378 266.323 288.349 260.976 281.771C255.36 274.857 259.801 289.982 259.801 289.982L272.369 302.923Z" fill="url(#paint33_linear_54698_37227)"/>
<path d="M278.471 240.641C278.471 240.641 272.5 241.462 265.959 253.06C261.042 261.784 250.359 269.015 250.359 269.015L249.258 275.882L258.122 277.44L261.294 275.35L269.943 256.941L278.471 240.641Z" fill="url(#paint34_linear_54698_37227)"/>
<path d="M290.041 239.904C290.041 239.904 304.755 241.714 305.072 258.649C305.361 274.268 299.726 280.324 285.898 293.349C284.508 294.655 282.25 294.655 282.082 294.851C281.186 295.868 280.272 296.923 279.348 298.024C266.966 286.146 253.017 282.124 253.017 282.124C253.017 282.124 265.921 255.42 271.594 246.566C277.444 237.44 286.262 238.999 290.041 239.904Z" fill="url(#paint35_linear_54698_37227)"/>
<g opacity="0.3">
<path d="M265.614 279.335C271.828 282.656 280.627 282.283 283.864 278.168C286.3 275.071 286.701 273.914 289.668 269.052C292.057 265.143 293.214 264.509 298.429 261.215C300.398 259.974 302.628 258.173 304.821 255.477C304.961 256.466 305.045 257.52 305.063 258.63C305.353 274.25 299.717 280.305 285.889 293.331C284.499 294.637 282.241 294.637 282.073 294.833C281.177 295.85 280.263 296.904 279.339 298.005C266.957 286.127 253.008 282.106 253.008 282.106C253.008 282.106 255.154 277.907 257.991 272.001C260.053 275.463 261.63 277.207 265.614 279.335Z" fill="url(#paint36_linear_54698_37227)"/>
</g>
<path d="M275.756 279.84C275.756 279.84 272.966 279.971 270.988 279.169C269.01 278.366 269.169 278.189 266.892 277.9C264.681 277.62 260.314 276.304 262.787 274.055C265.539 271.555 270.251 272.255 271.604 273.915C272.91 275.52 275.168 276.528 275.168 276.528L275.756 279.84Z" fill="url(#paint37_linear_54698_37227)"/>
<path d="M300.622 248.338C300.622 248.338 308.795 249.29 304.028 275.602C301.555 289.252 289.332 287.33 274.571 281.685C273.573 279.595 274.86 275.163 274.86 275.163C274.86 275.163 293.195 282.721 293.671 271.692C294.202 259.329 295.854 247.032 300.622 248.338Z" fill="url(#paint38_linear_54698_37227)"/>
<path d="M286.617 245.501C290.116 245.501 293.671 242.907 293.839 242.785C293.895 242.739 293.914 242.655 293.867 242.599C293.82 242.543 293.736 242.524 293.68 242.571C293.634 242.608 288.959 246.014 285.18 245.062C284.135 244.801 283.417 244.288 283.053 243.541C282.353 242.114 283.146 240.285 283.155 240.266C283.183 240.201 283.155 240.117 283.09 240.089C283.025 240.061 282.941 240.089 282.913 240.154C282.876 240.238 282.064 242.114 282.82 243.653C283.221 244.474 283.995 245.034 285.124 245.314C285.609 245.445 286.113 245.501 286.617 245.501Z" fill="#9F73F8"/>
<path d="M281.42 294.3C281.457 294.3 281.494 294.282 281.522 294.254C281.569 294.198 281.569 294.114 281.513 294.067C281.382 293.946 268.208 282.161 256.32 279.25C256.246 279.232 256.181 279.278 256.162 279.344C256.143 279.418 256.19 279.483 256.255 279.502C268.077 282.395 281.205 294.142 281.336 294.254C281.354 294.291 281.382 294.3 281.42 294.3Z" fill="#AE87F9"/>
<path d="M290.564 231.953C290.564 231.953 290.013 238.326 290.508 239.539C291.012 240.742 289.425 242.394 286.3 243.028C283.174 243.663 285.647 236.674 285.647 236.674L290.564 231.953Z" fill="url(#paint39_linear_54698_37227)"/>
<path d="M281.55 232.428C278.303 230.655 278.369 222.341 280.207 221.707C281.261 221.343 281.784 223.909 285.264 225.392C287.979 226.549 289.901 225.952 290.89 227.548C291.357 228.294 291.534 229.404 291.385 230.328C291.31 230.804 291.096 231.429 290.573 232.633C290.116 233.706 290.153 233.659 290.013 233.976C289.668 234.732 288.968 236.02 287.541 237.643C287.345 237.186 287.074 236.626 286.692 236.029C286.542 235.796 285.954 234.91 285.18 234.219C283.752 232.95 282.483 232.931 281.55 232.428Z" fill="url(#paint40_linear_54698_37227)"/>
<path d="M289.444 235.945C289.444 235.945 288.231 238.921 284.9 239.239C281.923 239.519 280.43 232.987 282.082 231.28C282.632 230.711 283.864 230.319 284.928 230.44C285.562 230.515 285.805 230.729 286.841 230.832C287.792 230.925 288.035 230.776 288.352 230.963C288.744 231.196 289.108 231.868 288.847 233.892C289.313 233.23 289.957 232.903 290.47 233.053C290.554 233.081 290.778 233.183 290.927 233.37C291.459 234.051 290.927 235.133 289.444 235.945Z" fill="url(#paint41_linear_54698_37227)"/>
<path d="M273.797 283.376C273.927 283.394 274.058 283.488 274.086 283.618C274.095 283.637 274.039 284.299 274.039 284.327C274.049 284.486 273.955 284.626 273.806 284.673L261.294 288.731L237.912 279.578L249.015 280.427L273.797 283.376Z" fill="#26264F"/>
<path d="M273.806 283.281C273.965 283.3 274.077 283.43 274.095 283.58C274.105 283.738 274.011 283.878 273.862 283.925L261.35 287.993L237.968 278.84L249.08 279.689L273.806 283.281Z" fill="#444B8C"/>
<path d="M261.9 287.817L260.034 263.427C260.006 263.035 259.707 262.718 259.325 262.653L231.324 258.267C231.072 258.23 230.82 258.305 230.634 258.472C230.447 258.64 230.344 258.883 230.354 259.144L231.408 281.873C231.427 282.265 231.716 282.592 232.098 282.667L261.182 288.05L261.9 287.817Z" fill="url(#paint42_linear_54698_37227)"/>
<path d="M261.303 288.732L259.381 263.81C259.353 263.418 259.054 263.101 258.672 263.035L230.671 258.65C230.419 258.613 230.167 258.687 229.98 258.855C229.794 259.023 229.691 259.266 229.701 259.527L230.755 282.266C230.774 282.657 231.053 282.984 231.445 283.059L261.303 288.732Z" fill="#26264F"/>
<path d="M261.303 288.73L231.436 283.048C231.054 282.973 230.764 282.646 230.746 282.254L230.428 275.396C239.33 280.454 250.48 281.088 260.865 283.122L261.303 288.73Z" fill="#1F1F44"/>
<path d="M210.713 283.626C211.124 282.208 212.019 280.641 208.8 279.502C206.458 278.672 202.4 278.401 198.705 278.215C193.536 277.954 192.341 281.042 199.899 283.011C204.863 284.298 210.135 285.642 210.713 283.626Z" fill="url(#paint43_linear_54698_37227)"/>
<path d="M206.682 281.453C206.636 282.246 207.14 282.871 207.802 282.964C209.332 283.179 209.043 282.395 209.09 281.602C209.136 280.809 209.762 280.259 207.97 280.091C207.317 280.025 206.729 280.66 206.682 281.453Z" fill="url(#paint44_linear_54698_37227)"/>
<path d="M222.395 276.891L220.883 276.648C220.883 276.648 217.944 276.919 209.827 279.158C208.091 279.448 205.721 284.514 210.806 284.71C215.891 284.906 222.087 288.694 222.087 288.694L222.395 276.891Z" fill="url(#paint45_linear_54698_37227)"/>
<path d="M275.224 300.468C275.224 300.468 274.487 307.046 259.185 306.449C243.892 305.851 216.573 289.971 216.741 281.639C216.908 273.307 227.079 276.638 237.604 281.452C246.486 285.52 260.211 287.871 263.029 288.31C266.64 288.87 276.092 297.314 275.224 300.468Z" fill="url(#paint46_linear_54698_37227)"/>
<g opacity="0.2">
<path d="M255.21 292.231C248.128 291.512 246.542 286.427 237.734 284.962C232.024 284.01 230.009 285.699 227.097 283.749C224.802 282.21 223.626 279.532 223.067 276.611C226.967 276.938 232.239 279 237.613 281.463C246.244 285.41 259.437 287.743 262.768 288.274C262.871 288.293 265.101 287.491 265.101 287.491C265.101 287.491 266.762 288.442 267.956 289.189C263.309 291.671 257.804 292.492 255.21 292.231Z" fill="url(#paint47_linear_54698_37227)"/>
</g>
</g>
<defs>
<linearGradient id="paint0_linear_54698_37227" x1="123.78" y1="31.5262" x2="106.571" y2="175.238" gradientUnits="userSpaceOnUse">
<stop stop-color="#FF9085"/>
<stop offset="1" stop-color="#FB6FBB"/>
</linearGradient>
<linearGradient id="paint1_linear_54698_37227" x1="2.57835" y1="32.636" x2="109.04" y2="165.235" gradientUnits="userSpaceOnUse">
<stop stop-color="#72FFEE"/>
<stop offset="0.9964" stop-color="#F36F56"/>
</linearGradient>
<linearGradient id="paint2_linear_54698_37227" x1="60.5391" y1="80.2158" x2="300.437" y2="75.1329" gradientUnits="userSpaceOnUse">
<stop offset="0.00359712" stop-color="#E38DDD"/>
<stop offset="1" stop-color="#9571F6"/>
</linearGradient>
<linearGradient id="paint3_linear_54698_37227" x1="129.325" y1="116.119" x2="151.901" y2="197.881" gradientUnits="userSpaceOnUse">
<stop stop-color="#72FFEE"/>
<stop offset="0.9964" stop-color="#F36F56"/>
</linearGradient>
<linearGradient id="paint4_linear_54698_37227" x1="65.2013" y1="239.615" x2="-39.074" y2="250.683" gradientUnits="userSpaceOnUse">
<stop stop-color="#72FFEE"/>
<stop offset="0.9964" stop-color="#F36F56"/>
</linearGradient>
<linearGradient id="paint5_linear_54698_37227" x1="120.885" y1="194.098" x2="207.684" y2="386.338" gradientUnits="userSpaceOnUse">
<stop stop-color="#72FFEE"/>
<stop offset="0.9964" stop-color="#F36F56"/>
</linearGradient>
<linearGradient id="paint6_linear_54698_37227" x1="141.533" y1="219.567" x2="150.077" y2="32.8841" gradientUnits="userSpaceOnUse">
<stop stop-color="#72FFEE"/>
<stop offset="0.9964" stop-color="#F36F56"/>
</linearGradient>
<linearGradient id="paint7_linear_54698_37227" x1="120.883" y1="194.097" x2="207.682" y2="386.336" gradientUnits="userSpaceOnUse">
<stop stop-color="#72FFEE"/>
<stop offset="0.9964" stop-color="#F36F56"/>
</linearGradient>
<linearGradient id="paint8_linear_54698_37227" x1="150.037" y1="79.0735" x2="137.363" y2="258.518" gradientUnits="userSpaceOnUse">
<stop stop-color="white"/>
<stop offset="1" stop-color="#D8DEE8"/>
</linearGradient>
<linearGradient id="paint9_linear_54698_37227" x1="145.474" y1="182.991" x2="232.273" y2="375.231" gradientUnits="userSpaceOnUse">
<stop stop-color="#72FFEE"/>
<stop offset="0.9964" stop-color="#F36F56"/>
</linearGradient>
<linearGradient id="paint10_linear_54698_37227" x1="148.599" y1="154.921" x2="127.673" y2="221.199" gradientUnits="userSpaceOnUse">
<stop stop-color="#311944"/>
<stop offset="1" stop-color="#893976"/>
</linearGradient>
<linearGradient id="paint11_linear_54698_37227" x1="141.677" y1="152.734" x2="120.75" y2="219.012" gradientUnits="userSpaceOnUse">
<stop stop-color="#311944"/>
<stop offset="1" stop-color="#893976"/>
</linearGradient>
<linearGradient id="paint12_linear_54698_37227" x1="64.4607" y1="149.42" x2="114.477" y2="174.829" gradientUnits="userSpaceOnUse">
<stop stop-color="#311944"/>
<stop offset="1" stop-color="#893976"/>
</linearGradient>
<linearGradient id="paint13_linear_54698_37227" x1="130.086" y1="57.191" x2="257.147" y2="252.693" gradientUnits="userSpaceOnUse">
<stop stop-color="#AA80F9"/>
<stop offset="0.9964" stop-color="#6165D7"/>
</linearGradient>
<linearGradient id="paint14_linear_54698_37227" x1="117.159" y1="63.0698" x2="245.804" y2="261.01" gradientUnits="userSpaceOnUse">
<stop stop-color="#AA80F9"/>
<stop offset="0.9964" stop-color="#6165D7"/>
</linearGradient>
<linearGradient id="paint15_linear_54698_37227" x1="191.549" y1="66.4715" x2="305.459" y2="124.341" gradientUnits="userSpaceOnUse">
<stop offset="0.00359712" stop-color="#E38DDD"/>
<stop offset="1" stop-color="#9571F6"/>
</linearGradient>
<linearGradient id="paint16_linear_54698_37227" x1="204.609" y1="112.536" x2="278.843" y2="83.5742" gradientUnits="userSpaceOnUse">
<stop stop-color="#311944"/>
<stop offset="1" stop-color="#893976"/>
</linearGradient>
<linearGradient id="paint17_linear_54698_37227" x1="184.094" y1="42.3817" x2="267.054" y2="170.028" gradientUnits="userSpaceOnUse">
<stop stop-color="#72FFEE"/>
<stop offset="0.9964" stop-color="#F36F56"/>
</linearGradient>
<linearGradient id="paint18_linear_54698_37227" x1="205.964" y1="54.1336" x2="267.176" y2="148.317" gradientUnits="userSpaceOnUse">
<stop stop-color="#72FFEE"/>
<stop offset="0.9964" stop-color="#F36F56"/>
</linearGradient>
<linearGradient id="paint19_linear_54698_37227" x1="244.79" y1="26.5473" x2="303.021" y2="70.3115" gradientUnits="userSpaceOnUse">
<stop stop-color="#72FFEE"/>
<stop offset="0.9964" stop-color="#F36F56"/>
</linearGradient>
<linearGradient id="paint20_linear_54698_37227" x1="237.342" y1="34.2714" x2="296.601" y2="81.869" gradientUnits="userSpaceOnUse">
<stop stop-color="#72FFEE"/>
<stop offset="0.9964" stop-color="#F36F56"/>
</linearGradient>
<linearGradient id="paint21_linear_54698_37227" x1="283.227" y1="59.4303" x2="346.084" y2="123.548" gradientUnits="userSpaceOnUse">
<stop stop-color="#AA80F9"/>
<stop offset="0.9964" stop-color="#6165D7"/>
</linearGradient>
<linearGradient id="paint22_linear_54698_37227" x1="272.72" y1="67.4615" x2="336.121" y2="136.441" gradientUnits="userSpaceOnUse">
<stop stop-color="#AA80F9"/>
<stop offset="0.9964" stop-color="#6165D7"/>
</linearGradient>
<linearGradient id="paint23_linear_54698_37227" x1="285.521" y1="115.452" x2="309.02" y2="183.44" gradientUnits="userSpaceOnUse">
<stop stop-color="#FF9085"/>
<stop offset="1" stop-color="#FB6FBB"/>
</linearGradient>
<linearGradient id="paint24_linear_54698_37227" x1="285.521" y1="115.452" x2="309.02" y2="183.44" gradientUnits="userSpaceOnUse">
<stop stop-color="#FF9085"/>
<stop offset="1" stop-color="#FB6FBB"/>
</linearGradient>
<linearGradient id="paint25_linear_54698_37227" x1="275.606" y1="117.5" x2="297.903" y2="189.432" gradientUnits="userSpaceOnUse">
<stop stop-color="#FF9085"/>
<stop offset="1" stop-color="#FB6FBB"/>
</linearGradient>
<linearGradient id="paint26_linear_54698_37227" x1="304.643" y1="225.659" x2="205.14" y2="438.219" gradientUnits="userSpaceOnUse">
<stop stop-color="#AA80F9"/>
<stop offset="0.9964" stop-color="#6165D7"/>
</linearGradient>
<linearGradient id="paint27_linear_54698_37227" x1="258.937" y1="257.299" x2="268.13" y2="311.366" gradientUnits="userSpaceOnUse">
<stop stop-color="#AA80F9"/>
<stop offset="0.9964" stop-color="#6165D7"/>
</linearGradient>
<linearGradient id="paint28_linear_54698_37227" x1="304.643" y1="225.656" x2="205.14" y2="438.218" gradientUnits="userSpaceOnUse">
<stop stop-color="#AA80F9"/>
<stop offset="0.9964" stop-color="#6165D7"/>
</linearGradient>
<linearGradient id="paint29_linear_54698_37227" x1="321.764" y1="268.389" x2="231.623" y2="268.389" gradientUnits="userSpaceOnUse">
<stop stop-color="#AA80F9"/>
<stop offset="0.9964" stop-color="#6165D7"/>
</linearGradient>
<linearGradient id="paint30_linear_54698_37227" x1="179.735" y1="318.435" x2="166.163" y2="302.848" gradientUnits="userSpaceOnUse">
<stop stop-color="#40447E"/>
<stop offset="0.9964" stop-color="#3C3B6B"/>
</linearGradient>
<linearGradient id="paint31_linear_54698_37227" x1="215.844" y1="268.12" x2="67.2411" y2="456.182" gradientUnits="userSpaceOnUse">
<stop stop-color="#72FFEE"/>
<stop offset="0.9964" stop-color="#F36F56"/>
</linearGradient>
<linearGradient id="paint32_linear_54698_37227" x1="274.615" y1="276.396" x2="169.309" y2="324.325" gradientUnits="userSpaceOnUse">
<stop stop-color="#311944"/>
<stop offset="1" stop-color="#6B3976"/>
</linearGradient>
<linearGradient id="paint33_linear_54698_37227" x1="311.749" y1="303.028" x2="220.319" y2="280.184" gradientUnits="userSpaceOnUse">
<stop stop-color="#311944"/>
<stop offset="1" stop-color="#893976"/>
</linearGradient>
<linearGradient id="paint34_linear_54698_37227" x1="261.398" y1="250.055" x2="271.248" y2="282.89" gradientUnits="userSpaceOnUse">
<stop stop-color="#72FFEE"/>
<stop offset="0.9964" stop-color="#F36F56"/>
</linearGradient>
<linearGradient id="paint35_linear_54698_37227" x1="280.166" y1="274.598" x2="312.163" y2="426.73" gradientUnits="userSpaceOnUse">
<stop stop-color="#72FFEE"/>
<stop offset="0.9964" stop-color="#F36F56"/>
</linearGradient>
<linearGradient id="paint36_linear_54698_37227" x1="273.611" y1="291.041" x2="286.139" y2="252.129" gradientUnits="userSpaceOnUse">
<stop stop-color="#72FFEE"/>
<stop offset="0.9964" stop-color="#F36F56"/>
</linearGradient>
<linearGradient id="paint37_linear_54698_37227" x1="277.268" y1="278.432" x2="229.507" y2="262.583" gradientUnits="userSpaceOnUse">
<stop stop-color="#AB316D"/>
<stop offset="1" stop-color="#792D3D"/>
</linearGradient>
<linearGradient id="paint38_linear_54698_37227" x1="290.578" y1="272.407" x2="322.575" y2="424.539" gradientUnits="userSpaceOnUse">
<stop stop-color="#72FFEE"/>
<stop offset="0.9964" stop-color="#F36F56"/>
</linearGradient>
<linearGradient id="paint39_linear_54698_37227" x1="288.979" y1="246.815" x2="286.502" y2="228.167" gradientUnits="userSpaceOnUse">
<stop stop-color="#AB316D"/>
<stop offset="1" stop-color="#792D3D"/>
</linearGradient>
<linearGradient id="paint40_linear_54698_37227" x1="296.411" y1="247.815" x2="281.78" y2="222.885" gradientUnits="userSpaceOnUse">
<stop stop-color="#311944"/>
<stop offset="1" stop-color="#6B3976"/>
</linearGradient>
<linearGradient id="paint41_linear_54698_37227" x1="286.029" y1="231.764" x2="289.011" y2="259.542" gradientUnits="userSpaceOnUse">
<stop stop-color="#AB316D"/>
<stop offset="1" stop-color="#792D3D"/>
</linearGradient>
<linearGradient id="paint42_linear_54698_37227" x1="262.737" y1="274.171" x2="229.555" y2="272.14" gradientUnits="userSpaceOnUse">
<stop stop-color="#40447E"/>
<stop offset="0.9964" stop-color="#3C3B6B"/>
</linearGradient>
<linearGradient id="paint43_linear_54698_37227" x1="210.612" y1="283.894" x2="195.316" y2="277.674" gradientUnits="userSpaceOnUse">
<stop stop-color="#40447E"/>
<stop offset="0.9964" stop-color="#3C3B6B"/>
</linearGradient>
<linearGradient id="paint44_linear_54698_37227" x1="213.769" y1="276.33" x2="37.217" y2="438.438" gradientUnits="userSpaceOnUse">
<stop stop-color="#72FFEE"/>
<stop offset="0.9964" stop-color="#F36F56"/>
</linearGradient>
<linearGradient id="paint45_linear_54698_37227" x1="281.933" y1="292.329" x2="206.357" y2="280.263" gradientUnits="userSpaceOnUse">
<stop stop-color="#311944"/>
<stop offset="1" stop-color="#6B3976"/>
</linearGradient>
<linearGradient id="paint46_linear_54698_37227" x1="310.254" y1="309.011" x2="218.823" y2="286.167" gradientUnits="userSpaceOnUse">
<stop stop-color="#311944"/>
<stop offset="1" stop-color="#893976"/>
</linearGradient>
<linearGradient id="paint47_linear_54698_37227" x1="278.004" y1="294.94" x2="222.785" y2="279.557" gradientUnits="userSpaceOnUse">
<stop stop-color="#311944"/>
<stop offset="1" stop-color="#6B3976"/>
</linearGradient>
<clipPath id="clip0_54698_37227">
<rect width="337.648" height="335.61" fill="white" transform="translate(0.176025)"/>
</clipPath>
</defs>
</svg>
