<svg width="382" height="378" viewBox="0 0 382 378" fill="none" xmlns="http://www.w3.org/2000/svg">
<path opacity="0.05" d="M167.327 0.0326905C118.623 0.901639 43.2651 19.5143 21.5758 67.3387C13.9974 84.0418 14.5097 108.598 15.5344 157.72C15.8333 172.16 16.335 193.197 19.8467 219.308C27.1369 273.548 32.1003 310.462 50.8969 331.96C97.9793 385.824 268.046 384.269 340.671 287.29C380.292 234.381 386.387 159.125 350.16 96.9366C310.282 28.4613 232.534 -1.12591 167.327 0.0326905Z" fill="black"/>
<path d="M66.6408 152.26L39.5719 326.768C39.0595 330.137 41.4505 333.173 44.4925 333.033L179.954 326.607L66.6408 152.26Z" fill="url(#paint0_linear_54768_32329)"/>
<path d="M96.1432 313.766C100.423 300.667 104.778 280.66 99.6763 258.464C93.827 232.965 80.8583 227.869 69.2238 200.61C52.6046 161.7 71.4119 133.518 54.2163 121.632C45.8267 115.828 32.6338 115.828 24.5003 121.653C1.29535 138.26 7.65697 210.608 44.4711 238.843C61.1223 251.609 75.6494 250.097 88.1378 266.618C99.1853 281.207 98.3207 300.474 96.1432 313.766Z" fill="url(#paint1_linear_54768_32329)"/>
<mask id="mask0_54768_32329" style="mask-type:luminance" maskUnits="userSpaceOnUse" x="10" y="117" width="92" height="197">
<path d="M96.1432 313.766C100.423 300.667 104.778 280.66 99.6763 258.464C93.827 232.965 80.8583 227.869 69.2238 200.61C52.6046 161.7 71.4119 133.518 54.2163 121.632C45.8267 115.828 32.6338 115.828 24.5003 121.653C1.29535 138.26 7.65697 210.608 44.4711 238.843C61.1223 251.609 75.6494 250.097 88.1378 266.618C99.1853 281.207 98.3207 300.474 96.1432 313.766Z" fill="white"/>
</mask>
<g mask="url(#mask0_54768_32329)">
<g opacity="0.7">
<path d="M98.7265 280.81C97.3282 275.307 95.4603 269.89 93.1547 264.719C87.8605 252.843 82.0219 246.31 74.6249 238.039C69.8003 232.643 64.3246 226.517 57.995 217.742C46.1577 201.328 42.4859 195.557 39.1984 186.256C32.6873 167.858 33.6907 151.359 34.8648 143.162C36.5299 131.534 40.4152 120.473 46.4032 110.271L46.8195 110.518C40.8635 120.656 36.9996 131.662 35.3451 143.227C34.171 151.38 33.1783 167.783 39.6574 186.084C42.9236 195.321 46.5954 201.071 58.39 217.452C64.6982 226.206 70.1632 232.31 74.9878 237.706C82.4168 246.01 88.2768 252.564 93.603 264.504C95.9193 269.696 97.7978 275.135 99.2068 280.671L98.7265 280.81Z" fill="white"/>
<path d="M36.0815 173.318L35.7293 173.125C35.6653 173.093 28.7806 169.285 22.6752 161.561C17.0287 154.427 10.9019 142.379 13.7412 125.526L14.2108 125.612C11.4036 142.294 17.4663 154.212 23.0488 161.271C28.3217 167.944 34.1496 171.645 35.6119 172.514C36.0175 159.072 44.5886 150.361 51.7614 145.405C59.5854 139.998 67.4627 137.777 67.5374 137.756L67.6655 138.217C67.5908 138.238 59.7775 140.438 52.0176 145.812C44.8768 150.758 36.3164 159.469 36.0815 172.932V173.318Z" fill="white"/>
<path d="M38.0135 216.573C31.0541 216.573 22.8886 214.856 15.3315 208.945L15.6304 208.559C32.4844 221.743 52.4979 213.783 54.622 212.882C51.217 199.601 54.2377 189.796 57.3865 183.907C60.8128 177.481 65.1464 174.187 65.1891 174.155L65.4773 174.541C65.3065 174.67 48.5379 187.661 55.145 212.968L55.1984 213.161L55.0169 213.247C54.8782 213.301 47.5986 216.573 38.0135 216.573Z" fill="white"/>
<path d="M53.512 241.912C48.2925 241.912 42.0589 240.957 34.79 238.296L34.9501 237.846C58.6034 246.535 71.2946 236.88 72.6929 235.722C66.9183 222.097 75.0625 200.105 75.1479 199.88L75.5962 200.052C75.5108 200.277 67.3666 222.269 73.2052 235.689L73.2693 235.85L73.1412 235.968C73.0558 236.043 66.4487 241.912 53.512 241.912Z" fill="white"/>
</g>
</g>
<path d="M138.369 324.612C139.821 315.815 140.653 302.073 133.523 289.779C121.088 268.334 98.4275 275.446 76.7276 252.478C59.2331 233.952 64.7408 219.544 45.3571 207.239C42.1123 205.18 24.9594 193.84 12.2148 200.663C5.03129 204.515 2.42687 212.421 1.93587 213.901C-5.45044 236.322 17.2742 271.434 46.8941 287.494C63.9083 296.72 69.4053 293.705 99.3455 304.465C116.947 310.773 130.161 318.915 138.369 324.612Z" fill="url(#paint2_linear_54768_32329)"/>
<mask id="mask1_54768_32329" style="mask-type:luminance" maskUnits="userSpaceOnUse" x="0" y="198" width="140" height="127">
<path d="M138.369 324.612C139.821 315.815 140.653 302.073 133.523 289.779C121.088 268.334 98.4275 275.446 76.7276 252.478C59.2331 233.952 64.7408 219.544 45.3571 207.239C42.1123 205.18 24.9594 193.84 12.2148 200.663C5.03129 204.515 2.42687 212.421 1.93587 213.901C-5.45044 236.322 17.2742 271.434 46.8941 287.494C63.9083 296.72 69.4053 293.705 99.3455 304.465C116.947 310.773 130.161 318.915 138.369 324.612Z" fill="white"/>
</mask>
<g mask="url(#mask1_54768_32329)">
<g opacity="0.7">
<path d="M140.845 335.222C136.512 314.302 128.314 300.26 116.477 293.48C110.702 290.176 106.091 289.65 101.203 289.092C95.855 288.481 90.3366 287.859 83.025 283.417C75.9163 279.094 73.3652 274.942 70.1524 269.686C67.2918 265.019 63.7374 259.215 55.7533 251.481C48.762 244.701 43.6599 241.525 39.1662 238.725C34.2455 235.657 30.3496 233.233 25.8345 227.29C18.4802 217.602 14.627 205.18 14.4028 190.386L14.8832 190.375C15.1073 205.072 18.9179 217.388 26.2188 227C30.6805 232.879 34.5444 235.282 39.4223 238.318C43.9374 241.128 49.0608 244.315 56.0949 251.127C64.1216 258.904 67.6974 264.74 70.5687 269.428C73.7495 274.631 76.2685 278.729 83.2812 282.999C90.4967 287.386 95.9724 288.009 101.267 288.609C106.198 289.167 110.862 289.704 116.722 293.061C128.688 299.906 136.96 314.066 141.326 335.125L140.845 335.222Z" fill="white"/>
<path d="M39.4224 240.023C9.71708 240.023 -5.87742 217.763 -6.02686 217.538L-5.63192 217.27C-5.47182 217.495 9.98392 239.551 39.4224 239.551C39.9241 239.551 40.4151 239.541 40.9274 239.53C39.9454 236.344 32.0575 209.449 42.315 197.885L42.6779 198.207C32.0041 210.243 41.3864 239.39 41.4825 239.691L41.5785 240.002L41.2583 240.013C40.6499 240.013 40.0308 240.023 39.4224 240.023Z" fill="white"/>
<path d="M38.2696 264.901C28.5351 264.901 16.1214 262.884 3.6543 255.375L3.8998 254.956C19.3876 264.29 34.8006 265.073 45.0155 264.086C55.1129 263.11 62.2431 260.267 63.4813 259.741C59.3611 244.443 63.033 222.88 63.0756 222.666L63.5453 222.752C63.5026 222.966 59.8201 244.615 63.9936 259.816L64.047 260.02L63.8548 260.106C63.7801 260.138 56.2124 263.485 45.0689 264.569C43.0088 264.772 40.7246 264.901 38.2696 264.901Z" fill="white"/>
<path d="M51.4626 300.421C50.7155 300.421 49.9683 300.41 49.2104 300.399L49.2211 299.917C64.7836 300.26 76.7703 296.999 84.0819 294.209C91.0199 291.56 95.1721 288.824 96.1114 288.17C84.701 273.891 89.1734 250.612 89.2161 250.376L89.6857 250.472C89.643 250.708 85.1707 273.988 96.6451 288.062L96.8052 288.255L96.6024 288.406C96.4423 288.534 80.0259 300.421 51.4626 300.421Z" fill="white"/>
</g>
</g>
<path d="M108.087 356.784L38.5686 333.301L138.561 326.596L108.087 356.784Z" fill="#D8DEE8"/>
<path d="M314.413 155.896L71.8389 148.355C68.3058 148.247 65.9789 150.972 66.6727 154.437L106.017 353.051C106.7 356.516 110.083 359.123 113.542 358.876L351.195 341.615C353.885 341.422 355.571 338.794 354.963 335.758L320.454 161.561C319.857 158.514 317.156 155.982 314.413 155.896Z" fill="url(#paint3_linear_54768_32329)"/>
<path d="M315.715 155.896L73.1411 148.355C69.6081 148.247 67.2812 150.972 67.975 154.437L107.319 353.051C108.002 356.516 111.386 359.123 114.844 358.876L352.497 341.615C355.187 341.422 356.873 338.794 356.265 335.758L321.757 161.561C321.169 158.514 318.458 155.982 315.715 155.896Z" fill="url(#paint4_linear_54768_32329)"/>
<g opacity="0.3">
<path d="M252.419 261.136C204.675 235.067 159.429 255.332 126.852 221.883C106.796 201.285 103.113 172.127 103.711 149.299L73.1518 148.344C69.6188 148.237 67.2919 150.962 67.9857 154.427L107.33 353.04C108.013 356.505 111.396 359.112 114.855 358.866L321.063 343.89C298.52 294.724 273.105 272.443 252.419 261.136Z" fill="url(#paint5_linear_54768_32329)"/>
</g>
<path d="M344.396 334.996L119.263 350.444C115.527 350.702 111.876 347.87 111.129 344.115L76.087 167.171C75.3398 163.416 77.8375 160.456 81.6481 160.552L310.986 166.345C313.986 166.42 316.932 169.167 317.594 172.481L348.526 328.635C349.178 331.95 347.331 334.793 344.396 334.996Z" fill="#D8DEE8"/>
<path d="M345.399 334.932L120.544 350.358C116.808 350.616 113.168 347.784 112.421 344.029L77.4 167.203C76.6528 163.449 79.1505 160.488 82.961 160.584L312.022 166.367C315.011 166.442 317.967 169.188 318.618 172.492L349.541 328.56C350.181 331.885 348.345 334.728 345.399 334.932Z" fill="url(#paint6_linear_54768_32329)"/>
<path d="M197.064 224.393L172.514 224.543C171.778 224.543 171.063 223.943 170.913 223.181L166.857 202.691C166.708 201.929 167.188 201.318 167.925 201.328L192.528 201.468C193.243 201.468 193.948 202.079 194.097 202.83L198.1 223.041C198.238 223.782 197.779 224.393 197.064 224.393ZM173.304 221.797L195.228 221.69L191.759 204.161L169.803 204.064L173.304 221.797Z" fill="#D8DEE8"/>
<path d="M228.083 224.2L204.323 224.35C203.607 224.35 202.914 223.749 202.764 223.009L198.772 202.852C198.623 202.112 199.082 201.5 199.797 201.511L223.61 201.64C224.304 201.64 224.987 202.24 225.137 202.98L229.075 222.87C229.214 223.599 228.776 224.2 228.083 224.2ZM205.07 221.647L226.289 221.54L222.874 204.289L201.622 204.203L205.07 221.647Z" fill="#D8DEE8"/>
<path d="M258.119 224.018L235.106 224.157C234.412 224.157 233.74 223.567 233.59 222.838L229.662 203.002C229.513 202.272 229.961 201.682 230.655 201.682L253.721 201.811C254.394 201.811 255.055 202.401 255.205 203.131L259.079 222.709C259.218 223.417 258.791 224.007 258.119 224.018ZM235.832 221.497L256.379 221.4L253.017 204.429L232.427 204.343L235.832 221.497Z" fill="#D8DEE8"/>
<path d="M287.226 223.835L264.929 223.975C264.256 223.975 263.605 223.395 263.456 222.677L259.592 203.152C259.453 202.433 259.88 201.843 260.542 201.854L282.893 201.983C283.544 201.983 284.195 202.562 284.334 203.281L288.155 222.548C288.283 223.245 287.878 223.835 287.226 223.835ZM265.612 221.357L285.529 221.261L282.22 204.547L262.271 204.461L265.612 221.357Z" fill="#D8DEE8"/>
<path d="M315.438 223.664L293.823 223.803C293.172 223.803 292.531 223.235 292.393 222.526L288.582 203.302C288.443 202.594 288.849 202.015 289.5 202.026L311.168 202.144C311.798 202.144 312.427 202.723 312.566 203.42L316.323 222.398C316.473 223.084 316.067 223.653 315.438 223.664ZM294.485 221.218L313.794 221.121L310.538 204.665L291.197 204.579L294.485 221.218Z" fill="#D8DEE8"/>
<path d="M137.429 252.736L111.268 253.262C110.478 253.272 109.72 252.65 109.56 251.867L105.365 230.669C105.205 229.886 105.717 229.242 106.507 229.242L132.733 229.028C133.502 229.017 134.249 229.639 134.398 230.411L138.54 251.298C138.689 252.081 138.187 252.725 137.429 252.736ZM112.122 250.408L135.487 249.968L131.9 231.849L108.493 232.074L112.122 250.408Z" fill="#D8DEE8"/>
<path d="M170.454 252.071L145.157 252.586C144.4 252.596 143.663 251.985 143.503 251.223L139.372 230.39C139.223 229.618 139.714 228.985 140.472 228.985L165.833 228.77C166.569 228.759 167.295 229.371 167.444 230.132L171.511 250.676C171.671 251.427 171.202 252.049 170.454 252.071ZM145.979 249.764L168.576 249.335L165.043 231.516L142.414 231.742L145.979 249.764Z" fill="#D8DEE8"/>
<path d="M202.412 251.416L177.937 251.91C177.2 251.921 176.485 251.32 176.336 250.569L172.28 230.079C172.13 229.317 172.6 228.706 173.336 228.695L197.876 228.491C198.591 228.48 199.295 229.081 199.445 229.832L203.447 250.043C203.586 250.783 203.127 251.406 202.412 251.416ZM178.727 249.153L200.587 248.745L197.118 231.216L175.215 231.431L178.727 249.153Z" fill="#D8DEE8"/>
<path d="M233.345 250.794L209.649 251.277C208.934 251.288 208.24 250.698 208.091 249.957L204.099 229.8C203.949 229.06 204.408 228.448 205.123 228.437L228.873 228.244C229.566 228.234 230.249 228.834 230.388 229.564L234.327 249.453C234.476 250.172 234.039 250.783 233.345 250.794ZM210.407 248.552L231.562 248.155L228.147 230.905L206.948 231.109L210.407 248.552Z" fill="#D8DEE8"/>
<path d="M263.306 250.183L240.358 250.644C239.674 250.655 238.991 250.075 238.853 249.346L234.925 229.51C234.775 228.781 235.223 228.18 235.907 228.169L258.909 227.976C259.581 227.965 260.243 228.555 260.382 229.274L264.256 248.852C264.395 249.571 263.968 250.172 263.306 250.183ZM241.073 247.973L261.566 247.587L258.204 230.615L237.678 230.819L241.073 247.973Z" fill="#D8DEE8"/>
<path d="M292.328 249.603L270.095 250.054C269.433 250.065 268.771 249.496 268.633 248.767L264.769 229.242C264.63 228.523 265.057 227.933 265.719 227.923L288.006 227.74C288.657 227.729 289.297 228.309 289.436 229.017L293.257 248.284C293.385 249.003 292.98 249.582 292.328 249.603ZM270.778 247.415L290.631 247.039L287.322 230.326L267.426 230.519L270.778 247.415Z" fill="#D8DEE8"/>
<path d="M320.465 249.035L298.904 249.475C298.252 249.485 297.623 248.927 297.473 248.209L293.663 228.985C293.524 228.277 293.93 227.697 294.581 227.687L316.185 227.504C316.814 227.504 317.444 228.062 317.583 228.77L321.34 247.747C321.489 248.434 321.094 249.013 320.465 249.035ZM299.565 246.868L318.821 246.503L315.565 230.047L296.278 230.24L299.565 246.868Z" fill="#D8DEE8"/>
<path d="M142.959 280.671L116.861 281.572C116.082 281.604 115.313 280.982 115.164 280.199L110.969 259.001C110.809 258.218 111.321 257.563 112.111 257.553L138.262 256.963C139.031 256.941 139.767 257.553 139.927 258.325L144.069 279.212C144.218 279.995 143.716 280.639 142.959 280.671ZM117.726 278.686L141.027 277.914L137.44 259.795L114.096 260.353L117.726 278.686Z" fill="#D8DEE8"/>
<path d="M175.898 279.534L150.665 280.403C149.907 280.424 149.171 279.823 149.021 279.051L144.891 258.218C144.741 257.445 145.232 256.812 145.99 256.791L171.276 256.222C172.013 256.201 172.739 256.812 172.888 257.563L176.955 278.107C177.115 278.879 176.635 279.512 175.898 279.534ZM151.487 277.571L174.019 276.83L170.486 259.012L147.911 259.548L151.487 277.571Z" fill="#D8DEE8"/>
<path d="M207.77 278.44L183.359 279.276C182.623 279.298 181.908 278.708 181.758 277.946L177.702 257.456C177.553 256.694 178.022 256.072 178.759 256.051L203.223 255.504C203.938 255.493 204.643 256.083 204.782 256.823L208.784 277.034C208.934 277.796 208.485 278.418 207.77 278.44ZM184.138 276.498L205.934 275.779L202.465 258.25L180.627 258.765L184.138 276.498Z" fill="#D8DEE8"/>
<path d="M238.618 277.388L214.986 278.204C214.281 278.225 213.588 277.646 213.438 276.895L209.446 256.737C209.297 255.997 209.756 255.375 210.46 255.364L234.145 254.838C234.839 254.828 235.512 255.407 235.661 256.137L239.6 276.026C239.749 276.745 239.301 277.356 238.618 277.388ZM215.733 275.457L236.835 274.76L233.42 257.51L212.285 258.014L215.733 275.457Z" fill="#D8DEE8"/>
<path d="M268.483 276.358L245.598 277.141C244.915 277.163 244.243 276.594 244.093 275.854L240.165 256.019C240.016 255.289 240.464 254.678 241.147 254.667L264.086 254.152C264.758 254.141 265.42 254.71 265.559 255.439L269.433 275.017C269.583 275.736 269.156 276.337 268.483 276.358ZM246.314 274.449L266.754 273.773L263.392 256.802L242.919 257.284L246.314 274.449Z" fill="#D8DEE8"/>
<path d="M297.431 275.361L275.261 276.122C274.599 276.144 273.938 275.575 273.799 274.856L269.935 255.332C269.796 254.613 270.212 254.012 270.885 254.002L293.108 253.508C293.759 253.498 294.399 254.055 294.538 254.774L298.359 274.041C298.487 274.749 298.082 275.339 297.431 275.361ZM275.944 273.473L295.744 272.818L292.435 256.104L272.593 256.576L275.944 273.473Z" fill="#D8DEE8"/>
<path d="M325.492 274.406L303.995 275.146C303.355 275.168 302.714 274.61 302.576 273.902L298.765 254.678C298.626 253.97 299.032 253.379 299.683 253.369L321.233 252.886C321.863 252.875 322.482 253.433 322.621 254.13L326.378 273.108C326.517 273.794 326.122 274.384 325.492 274.406ZM304.646 272.529L323.849 271.896L320.593 255.439L301.359 255.901L304.646 272.529Z" fill="#D8DEE8"/>
<path d="M148.488 308.606L122.465 309.872C121.686 309.915 120.928 309.303 120.768 308.52L116.573 287.322C116.413 286.539 116.925 285.885 117.704 285.852L143.78 284.898C144.538 284.866 145.285 285.477 145.435 286.249L149.576 307.136C149.747 307.909 149.256 308.563 148.488 308.606ZM123.329 306.965L146.566 305.87L142.98 287.751L119.7 288.631L123.329 306.965Z" fill="#D8DEE8"/>
<path d="M181.342 307.008L156.183 308.231C155.426 308.263 154.689 307.673 154.54 306.9L150.409 286.067C150.259 285.295 150.75 284.651 151.498 284.619L176.72 283.696C177.456 283.664 178.172 284.265 178.321 285.026L182.388 305.57C182.548 306.332 182.078 306.975 181.342 307.008ZM156.995 305.377L179.463 304.315L175.93 286.496L153.419 287.354L156.995 305.377Z" fill="#D8DEE8"/>
<path d="M213.118 305.463L188.782 306.643C188.056 306.675 187.341 306.096 187.191 305.334L183.135 284.844C182.986 284.082 183.455 283.449 184.192 283.428L208.592 282.538C209.307 282.516 210.001 283.095 210.151 283.846L214.153 304.057C214.292 304.798 213.833 305.431 213.118 305.463ZM189.561 303.843L211.293 302.824L207.824 285.295L186.049 286.121L189.561 303.843Z" fill="#D8DEE8"/>
<path d="M243.88 303.972L220.312 305.12C219.608 305.152 218.914 304.572 218.764 303.832L214.772 283.675C214.623 282.934 215.082 282.302 215.786 282.28L239.408 281.422C240.101 281.4 240.774 281.969 240.923 282.709L244.862 302.599C245.011 303.317 244.574 303.939 243.88 303.972ZM221.059 302.362L242.097 301.376L238.682 284.125L217.601 284.919L221.059 302.362Z" fill="#D8DEE8"/>
<path d="M273.671 302.534L250.85 303.639C250.167 303.671 249.494 303.103 249.345 302.373L245.417 282.538C245.268 281.808 245.705 281.186 246.399 281.164L269.273 280.328C269.945 280.306 270.597 280.875 270.746 281.594L274.621 301.172C274.759 301.89 274.343 302.502 273.671 302.534ZM251.565 300.925L271.941 299.97L268.579 282.999L248.16 283.771L251.565 300.925Z" fill="#D8DEE8"/>
<path d="M302.533 301.129L280.417 302.202C279.755 302.234 279.104 301.676 278.954 300.957L275.09 281.433C274.952 280.714 275.368 280.102 276.03 280.081L298.199 279.276C298.85 279.255 299.491 279.813 299.63 280.521L303.451 299.788C303.59 300.496 303.184 301.097 302.533 301.129ZM281.1 299.53L300.846 298.597L297.537 281.883L277.759 282.634L281.1 299.53Z" fill="#D8DEE8"/>
<path d="M330.52 299.777L309.086 300.818C308.446 300.85 307.806 300.303 307.667 299.584L303.856 280.36C303.718 279.652 304.123 279.051 304.764 279.03L326.25 278.246C326.88 278.225 327.499 278.772 327.638 279.48L331.395 298.458C331.544 299.144 331.139 299.745 330.52 299.777ZM309.727 298.189L328.876 297.288L325.62 280.832L306.439 281.561L309.727 298.189Z" fill="#D8DEE8"/>
<path d="M154.027 336.541L128.079 338.172C127.3 338.225 126.542 337.625 126.393 336.841L122.198 315.643C122.038 314.86 122.55 314.195 123.329 314.152L149.342 312.833C150.099 312.79 150.836 313.391 150.996 314.163L155.138 335.05C155.276 335.822 154.785 336.487 154.027 336.541ZM128.923 335.243L152.095 333.827L148.509 315.708L125.293 316.92L128.923 335.243Z" fill="#D8DEE8"/>
<path d="M186.785 334.481L161.691 336.058C160.933 336.101 160.208 335.522 160.047 334.75L155.917 313.916C155.767 313.144 156.248 312.489 157.005 312.457L182.153 311.181C182.889 311.149 183.605 311.728 183.754 312.489L187.821 333.033C187.992 333.784 187.522 334.438 186.785 334.481ZM162.502 333.183L184.907 331.81L181.374 313.991L158.927 315.161L162.502 333.183Z" fill="#D8DEE8"/>
<path d="M218.476 332.497L194.204 334.02C193.478 334.063 192.763 333.484 192.613 332.733L188.557 312.243C188.408 311.481 188.877 310.837 189.603 310.805L213.929 309.572C214.644 309.539 215.338 310.108 215.487 310.859L219.49 331.07C219.64 331.81 219.181 332.443 218.476 332.497ZM194.972 331.199L216.651 329.868L213.182 312.339L191.461 313.466L194.972 331.199Z" fill="#D8DEE8"/>
<path d="M249.153 330.566L225.66 332.035C224.955 332.078 224.261 331.51 224.112 330.77L220.12 310.612C219.971 309.872 220.43 309.228 221.134 309.196L244.691 308.005C245.385 307.973 246.058 308.542 246.196 309.271L250.135 329.16C250.274 329.89 249.836 330.523 249.153 330.566ZM226.396 329.268L247.381 327.98L243.965 310.73L222.949 311.824L226.396 329.268Z" fill="#D8DEE8"/>
<path d="M125.443 197.66L98.7796 197.466L97.6375 191.727L124.322 191.995L125.443 197.66Z" fill="url(#paint7_linear_54768_32329)"/>
<path d="M159.087 197.906L133.32 197.724L132.199 192.081L157.987 192.339L159.087 197.906Z" fill="url(#paint8_linear_54768_32329)"/>
<path d="M191.621 198.153L166.697 197.971L165.609 192.414L190.543 192.671L191.621 198.153Z" fill="url(#paint9_linear_54768_32329)"/>
<path d="M223.109 198.378L198.986 198.207L197.908 192.746L222.041 192.993L223.109 198.378Z" fill="url(#paint10_linear_54768_32329)"/>
<path d="M253.582 198.604L230.239 198.432L229.171 193.057L252.526 193.304L253.582 198.604Z" fill="url(#paint11_linear_54768_32329)"/>
<path d="M283.096 198.818L260.488 198.657L259.442 193.368L282.06 193.594L283.096 198.818Z" fill="url(#paint12_linear_54768_32329)"/>
<path d="M311.702 199.033L289.788 198.872L288.763 193.669L310.688 193.894L311.702 199.033Z" fill="url(#paint13_linear_54768_32329)"/>
<path d="M309.3 186.9L96.1005 183.928L93.9443 173.082L307.379 177.191L309.3 186.9Z" fill="#D8DEE8"/>
<g opacity="0.3">
<path d="M252.419 261.136C204.675 235.067 159.428 255.332 126.852 221.883C110.147 204.729 104.789 181.579 103.818 161.11L82.8222 160.584C79.0863 160.488 76.642 163.395 77.3678 167.075L112.453 344.158C113.179 347.837 116.754 350.616 120.415 350.358L317.711 336.82C296.043 292.568 272.091 271.885 252.419 261.136Z" fill="#D8DEE8"/>
</g>
<path d="M168.085 218.89C167.53 217.624 165.651 216.798 164.499 217.881C161.179 220.971 160.517 226.11 158.82 230.229C157.518 233.372 156.077 236.451 154.679 239.541C151.69 235.26 149.128 230.658 146.044 226.442C144.976 224.983 142.415 226.313 143.226 228.03C146.417 234.81 148.541 241.847 152.8 248.112C154.294 250.311 157.507 249.635 158.575 247.458C161.04 242.426 163.559 237.417 165.694 232.235C167.359 228.201 169.964 223.192 168.085 218.89Z" fill="#00FF00"/>
<path d="M200.064 218.89C199.509 217.624 197.63 216.798 196.477 217.881C193.158 220.971 192.496 226.11 190.799 230.229C189.497 233.372 188.056 236.451 186.658 239.541C183.669 235.26 181.107 230.658 178.022 226.442C176.955 224.983 174.393 226.313 175.204 228.03C178.396 234.81 180.52 241.847 184.779 248.112C186.273 250.311 189.486 249.635 190.553 247.458C193.019 242.426 195.538 237.417 197.673 232.235C199.338 228.201 201.942 223.192 200.064 218.89Z" fill="#00FF00"/>
<path d="M231.402 218.89C230.847 217.624 228.969 216.798 227.816 217.881C224.496 220.971 223.834 226.11 222.137 230.229C220.835 233.372 219.394 236.451 217.996 239.541C215.007 235.26 212.445 230.658 209.361 226.442C208.293 224.983 205.732 226.313 206.543 228.03C209.734 234.81 211.858 241.847 216.117 248.112C217.612 250.311 220.824 249.635 221.892 247.458C224.358 242.426 226.877 237.417 229.011 232.235C230.676 228.201 233.281 223.192 231.402 218.89Z" fill="#00FF00"/>
<path d="M259.389 218.89C258.834 217.624 256.956 216.798 255.803 217.881C252.483 220.971 251.822 226.11 250.124 230.229C248.822 233.372 247.381 236.451 245.983 239.541C242.994 235.26 240.433 230.658 237.348 226.442C236.28 224.983 233.719 226.313 234.53 228.03C237.721 234.81 239.845 241.847 244.104 248.112C245.599 250.311 248.812 249.635 249.879 247.458C252.345 242.426 254.864 237.417 256.998 232.235C258.664 228.201 261.257 223.192 259.389 218.89Z" fill="#00FF00"/>
<path d="M289.308 218.89C288.753 217.624 286.874 216.798 285.722 217.881C282.402 220.971 281.74 226.11 280.043 230.229C278.741 233.372 277.3 236.451 275.902 239.541C272.913 235.26 270.351 230.658 267.267 226.442C266.199 224.983 263.637 226.313 264.449 228.03C267.64 234.81 269.764 241.847 274.023 248.112C275.517 250.311 278.73 249.635 279.798 247.458C282.263 242.426 284.782 237.417 286.917 232.235C288.582 228.201 291.187 223.192 289.308 218.89Z" fill="#00FF00"/>
<path d="M18.7258 298.34L97.9685 294.875L189.273 298.093L99.196 317.875L18.7258 298.34Z" fill="#00FFFF"/>
<path d="M82.5768 375.086L18.3842 357.718C11.9159 355.969 6.89917 349.532 6.89917 343.289V343.225C6.89917 336.981 11.9266 332.797 18.3842 333.934L87.2306 345.252L82.5768 375.086Z" fill="url(#paint14_linear_54768_32329)"/>
<path d="M189.379 362.041L85.6615 373.681C79.1611 374.41 73.8242 369.862 73.8242 363.5V359.187C73.8242 352.837 79.1611 347.247 85.6615 346.733L189.379 338.44C184.79 347.033 183.733 355.057 189.379 362.041Z" fill="url(#paint15_linear_54768_32329)"/>
<path d="M190.287 363.2L86.5368 375.022C78.0617 375.987 71.0383 370.023 71.0383 361.709V361.612C71.0383 353.298 78.0617 345.982 86.5368 345.316L190.287 337.185C190.906 337.131 191.418 337.657 191.418 338.354C191.418 339.051 190.916 339.652 190.287 339.706L86.5368 348.192C79.7162 348.749 74.0911 354.639 74.0911 361.322V361.408C74.0911 368.092 79.7162 372.898 86.5368 372.147L190.287 360.679C190.906 360.614 191.418 361.118 191.418 361.805C191.407 362.513 190.906 363.125 190.287 363.2Z" fill="url(#paint16_linear_54768_32329)"/>
<path d="M85.2666 345.327L18.3842 333.934C11.9159 332.786 6.89917 324.268 6.89917 314.903V314.796C6.89917 305.42 11.9266 297.985 18.3842 298.221L89.3333 300.871L85.2666 345.327Z" fill="#29ABE2"/>
<path d="M189.379 335.372L91.4788 342.795C81.8189 343.525 73.8242 336.402 73.8242 326.854V320.385C73.8242 310.837 81.8189 302.888 91.4788 302.62L189.379 299.938C184.779 312.801 183.744 324.848 189.379 335.372Z" fill="url(#paint17_linear_54768_32329)"/>
<path d="M190.287 337.196L86.5368 345.327C78.0617 345.992 71.0383 336.38 71.0383 323.904V323.764C71.0383 311.277 78.0617 300.946 86.5368 300.732L190.287 298.136C190.906 298.125 191.418 298.951 191.418 299.992C191.418 301.032 190.916 301.89 190.287 301.912L86.5368 305.044C79.7162 305.248 74.0911 313.573 74.0911 323.603V323.743C74.0911 333.773 79.7162 341.519 86.5368 341.015L190.287 333.419C190.906 333.376 191.418 334.181 191.418 335.222C191.418 336.262 190.906 337.142 190.287 337.196Z" fill="#29ABE2"/>
<path opacity="0.5" d="M64.5273 335.94L50.235 333.43C46.8941 324.269 47.1503 315.858 50.235 305.806L64.5273 306.825C61.592 317.403 62.0403 326.983 64.5273 335.94Z" fill="white"/>
<path d="M95.727 88.2578C96.7197 87.7643 97.3708 86.7452 97.3815 85.6295C97.3921 84.4065 97.3067 83.0012 96.8051 82.8296C95.9085 82.5185 90.3474 85.9513 88.1486 87.5605C85.9498 89.1697 81.7549 92.9888 81.7122 94.2117C81.6802 95.1879 91.7777 90.2317 95.727 88.2578Z" fill="url(#paint18_linear_54768_32329)"/>
<path d="M97.3602 94.5121L96.3888 88.8371C96.2287 87.9038 95.2681 87.3459 94.3822 87.6785C93.8912 87.8609 93.5283 88.2792 93.4215 88.7942L91.9165 96.1963L97.3602 94.5121Z" fill="url(#paint19_linear_54768_32329)"/>
<path d="M120.053 95.7886L119.871 89.9849L117.043 89.1267L115.58 95.4561L120.053 95.7886Z" fill="url(#paint20_linear_54768_32329)"/>
<path d="M120.458 92.7098C118.761 94.6301 112.314 89.9099 109.528 88.0432C107.714 86.831 106.999 85.0073 107.233 83.7307C107.468 82.4541 110.243 83.1192 112.805 84.7605C114.235 85.6724 117.961 87.0777 119.807 88.7298C121.28 90.0386 121.334 91.7228 120.458 92.7098Z" fill="url(#paint21_linear_54768_32329)"/>
<path d="M142.905 139.848C146.716 136.404 150.825 130.579 149.278 128.347C146.865 124.85 133.779 134.645 126.361 130.278C122.091 127.768 118.473 119.851 123.02 94.8017C120.352 94.5979 117.683 94.3941 115.015 94.1902C112.314 99.597 108.653 108.662 108.045 120.291C108.034 120.484 108.023 120.763 108.002 121.138C107.756 126.61 107.276 139.258 113.552 144.825C120.757 151.187 135.167 146.842 142.905 139.848Z" fill="url(#paint22_linear_54768_32329)"/>
<path d="M155.661 124.121C154.145 123.295 152.811 122.919 151.444 123.123C147.815 123.638 146.695 127.747 143.183 131.287C138.775 135.717 133.107 136.715 131.474 137.005C121.44 138.775 113.168 132.939 111.716 131.855C111.578 131.748 111.46 131.662 111.385 131.609C95.3533 119.497 99.324 93.9757 99.5375 92.7098C96.6662 93.0209 93.795 93.3213 90.9237 93.6324C89.5788 96.0033 79.5987 114.23 87.8496 133.25C88.9917 135.9 92.909 144.6 102.131 150.447C111.588 156.443 118.494 154.276 142.51 154.781C170.711 155.371 177.147 158.696 179.709 154.416C184.597 146.263 162.193 127.661 155.661 124.121Z" fill="url(#paint23_linear_54768_32329)"/>
<path d="M212.68 123.692C216.544 120.505 218.7 115.302 218.7 115.302C220.323 112.041 221.283 110.121 220.942 107.686C220.323 103.212 215.669 99.479 211.218 98.8783C206.98 98.3097 205.625 100.938 200.726 101.796C192.656 103.202 185.483 97.9557 184.074 96.9365C175.098 90.3712 178.513 82.9154 170.444 74.183C169.889 73.5822 159.621 62.7901 146.438 65.0215C135.231 66.9203 125.55 77.6051 125.165 89.3413C124.738 102.547 136.181 114.133 145.894 115.978C149.673 116.697 154.497 116.182 159.855 119.733C163.111 121.889 164.296 124.046 165.854 125.783C175.066 135.996 199.722 134.366 212.68 123.692Z" fill="#26264F"/>
<path d="M213.267 125.623C215.114 126.213 214.837 128.734 218.679 134.43C220.696 137.423 222.34 139.858 224.753 141.607C232.299 147.078 241.051 141.317 245.406 146.51C246.57 147.904 247.787 150.532 246.89 152.41C245.257 155.843 237.871 154.234 212.446 151.541C202.124 150.447 199.616 150.318 198.313 148.097C194.236 141.146 207.963 123.938 213.267 125.623Z" fill="url(#paint24_linear_54768_32329)"/>
<path d="M242.322 151.401L201.516 150.693C200.95 150.683 200.427 150.951 200.096 151.412L198.847 153.15C198.228 154.019 198.826 155.231 199.883 155.253L243.069 156.465L242.322 151.401Z" fill="url(#paint25_linear_54768_32329)"/>
<path d="M286.117 131.448L244.04 129.474C242.791 129.42 241.617 130.021 240.923 131.062L224.699 155.832L269.188 157.001C270.405 157.034 271.568 156.443 272.262 155.435L287.227 133.69C287.867 132.767 287.237 131.491 286.117 131.448Z" fill="url(#paint26_linear_54768_32329)"/>
<path opacity="0.3" d="M240.934 131.062C241.617 130.021 242.802 129.409 244.051 129.474L244.969 129.517C245.012 130.89 245.353 132.167 246.111 133.229C248.491 136.543 252.932 134.891 255.92 138.432C259.208 142.315 255.664 146.456 258.589 150.06C261.673 153.858 267.224 151.305 273.244 153.998L272.262 155.424C271.568 156.433 270.415 157.023 269.188 156.991L224.699 155.821L240.934 131.062Z" fill="url(#paint27_linear_54768_32329)"/>
<path d="M205.977 117.555C209.254 118.875 212.702 120.227 214.538 123.456C217.964 129.495 214.879 140.502 209.596 146.66C205.903 150.972 200.907 152.109 191.066 154.223C178.321 156.948 172.056 158.106 167.221 154.684C161.905 150.929 164.413 146.016 156.707 134.376C150.954 125.676 145.777 122.715 146.737 119.905C147.805 116.783 155.234 117.437 158.073 117.684C169.217 118.66 169.985 123.81 177.169 123.488C185.59 123.112 186.978 115.925 197.278 115.882C201.43 115.86 204.654 117.03 205.977 117.555Z" fill="url(#paint28_linear_54768_32329)"/>
<path d="M205.977 117.555C209.254 118.875 212.702 120.227 214.538 123.456C217.964 129.495 214.879 140.502 209.596 146.66C205.903 150.972 200.907 152.109 191.066 154.223C178.321 156.948 172.056 158.106 167.221 154.684C161.905 150.929 164.413 146.016 156.707 134.376C150.954 125.676 145.777 122.715 146.737 119.905C147.805 116.783 155.234 117.437 158.073 117.684C169.217 118.66 169.985 123.81 177.169 123.488C185.59 123.112 186.978 115.925 197.278 115.882C201.43 115.86 204.654 117.03 205.977 117.555Z" fill="url(#paint29_linear_54768_32329)"/>
<path opacity="0.3" d="M166.185 137.52C170.583 140.341 173.689 136.79 183.327 136.769C196.552 136.737 200.832 143.398 208.603 140.566C210.492 139.88 212.819 138.539 215.135 135.739C214.079 139.773 212.083 143.763 209.585 146.67C205.892 150.983 200.896 152.12 191.055 154.234C178.311 156.958 172.045 158.117 167.21 154.695C161.894 150.94 164.403 146.027 156.696 134.387C150.943 125.687 145.766 122.726 146.727 119.915C146.94 119.293 147.41 118.832 148.029 118.478C153.056 119.443 156.29 121.46 158.415 123.831C163.004 128.916 161.414 134.441 166.185 137.52Z" fill="url(#paint30_linear_54768_32329)"/>
<path d="M208.966 119.368C209.895 119.915 211.442 120.87 211.965 122.093C212.926 124.325 210.834 128.358 208.475 128.691C206.522 128.97 205.785 126.513 201.067 122.554C196.776 118.95 193.873 118.038 194.129 116.976C194.3 116.3 195.741 115.624 201.804 115.871C202.764 114.68 205.273 112.706 206.233 111.516C207.546 111.816 207.322 112.889 208.635 113.189C206.34 115.946 206.233 117.255 206.596 117.941C206.927 118.542 207.514 118.51 208.966 119.368Z" fill="url(#paint31_linear_54768_32329)"/>
<path d="M205.828 111.644C205.828 111.644 205.582 115.174 208.315 116.504C210.759 117.695 214.442 111.988 213.577 110.003C213.289 109.338 212.35 108.523 211.4 108.287C210.738 108.115 207.931 107.922 206.991 110.078C206.799 109.359 206.362 108.877 205.881 108.844C205.807 108.834 205.582 108.855 205.39 108.973C204.718 109.381 204.835 110.475 205.828 111.644Z" fill="url(#paint32_linear_54768_32329)"/>
<path d="M218.508 151.24C219.064 150.661 217.559 147.218 214.645 145.877C211.56 144.45 208.411 146.07 207.899 146.338L208.091 148.73C209.51 148.709 211.581 148.827 213.929 149.567C216.79 150.457 218.114 151.659 218.508 151.24Z" fill="url(#paint33_linear_54768_32329)"/>
<path d="M208.144 145.608C206.66 145.061 204.27 144.267 201.238 143.742C195.485 142.733 193.307 143.677 190.682 142.015C188.323 140.523 186.241 137.348 186.252 134.119C186.273 128.605 192.379 126.245 192.39 119.304C192.39 117.824 192.112 117.427 191.899 117.233C189.593 115.077 178.759 120.151 173.507 128.723C172.291 130.708 166.975 140.062 171.138 148.183C175.877 157.43 189.87 159.136 199.071 155.317C203.405 153.515 206.287 150.65 207.941 148.666C208.016 147.647 208.08 146.628 208.144 145.608Z" fill="url(#paint34_linear_54768_32329)"/>
<path d="M281.335 100.155C276.265 94.7802 269.401 91.7121 262.026 91.519C254.639 91.3259 247.968 93.3749 242.631 98.4706C241.521 99.5219 241.137 101.925 242.183 103.041C243.229 104.156 244.98 104.199 246.09 103.148C250.37 99.0713 255.974 96.9151 261.887 97.076C267.8 97.2369 273.287 99.6828 277.332 103.985C277.855 104.543 278.56 104.832 279.264 104.854C279.712 104.864 280.171 104.768 280.588 104.553C280.588 104.553 282.552 103.716 282.754 101.485C282.498 101.56 282.285 101.646 282.082 101.743C281.997 101.163 281.751 100.605 281.335 100.155Z" fill="url(#paint35_linear_54768_32329)"/>
<path d="M273.308 107.793C267.021 101.131 256.902 100.123 250.274 106.441C249.164 107.493 248.715 109.981 249.772 111.086C250.818 112.202 252.569 112.245 253.679 111.194C258.098 106.978 265.11 107.171 269.305 111.612C269.828 112.17 270.533 112.46 271.237 112.481C271.91 112.502 272.593 112.266 273.137 111.784C273.137 111.784 274.514 110.754 274.76 108.844C274.493 109.166 274.269 109.434 274.066 109.681C274.066 109.005 273.81 108.329 273.308 107.793Z" fill="url(#paint36_linear_54768_32329)"/>
<path d="M290.109 94.3404C290.087 93.686 289.842 93.0316 289.351 92.5059C282.253 84.9858 272.657 80.684 262.314 80.4158C251.982 80.1368 242.653 83.087 235.16 90.2102C234.049 91.2615 233.516 93.8576 234.562 94.9733C235.608 96.089 237.358 96.1319 238.468 95.0806C244.883 88.9658 253.294 85.7367 262.164 85.9727C271.024 86.2088 279.253 89.8884 285.337 96.3358C285.86 96.8936 286.565 97.1833 287.269 97.2047C287.675 97.2154 288.091 97.1296 288.465 96.958C288.465 96.958 288.486 96.9472 288.529 96.9365C288.849 96.8078 290.29 96.1212 290.696 94.1044C290.493 94.1902 290.29 94.276 290.109 94.3404Z" fill="url(#paint37_linear_54768_32329)"/>
<path d="M266.808 119.068C266.765 117.705 266.231 116.429 265.292 115.442C264.278 114.369 262.901 113.747 261.428 113.715C259.955 113.683 258.706 113.758 257.639 114.777C256.571 115.796 255.803 117.641 255.76 119.122C255.717 120.602 256.262 122.018 257.276 123.091C258.29 124.164 259.677 124.786 261.15 124.818C262.538 124.85 263.798 124.378 264.929 123.466C264.929 123.466 267.512 121.525 267.512 118.263C267.256 118.51 267.01 118.778 266.808 119.068Z" fill="url(#paint38_linear_54768_32329)"/>
<path d="M287.963 96.1534C287.259 96.1319 286.554 95.8423 286.031 95.2845C279.947 88.8371 271.718 85.1574 262.858 84.9214C253.999 84.6854 245.577 87.9252 239.162 94.0293C238.052 95.0806 236.302 95.0377 235.256 93.922C234.21 92.8063 234.252 91.047 235.362 89.9957C242.845 82.8617 252.665 79.0855 262.997 79.3645C273.34 79.6434 282.936 83.9345 290.034 91.4546C291.08 92.5703 291.037 94.3297 289.927 95.381C289.383 95.9174 288.668 96.1749 287.963 96.1534Z" fill="url(#paint39_linear_54768_32329)"/>
<path d="M279.947 103.792C279.243 103.77 278.538 103.48 278.015 102.923C273.959 98.6208 268.473 96.1749 262.57 96.014C256.657 95.853 251.053 98.0093 246.773 102.086C245.663 103.137 243.912 103.094 242.866 101.979C241.82 100.863 241.863 99.1036 242.973 98.0522C248.32 92.9565 255.333 90.2639 262.719 90.457C270.106 90.6501 276.958 93.7182 282.028 99.0928C283.074 100.209 283.032 101.968 281.922 103.019C281.367 103.556 280.651 103.813 279.947 103.792Z" fill="url(#paint40_linear_54768_32329)"/>
<path d="M271.92 111.43C271.216 111.408 270.511 111.119 269.988 110.561C265.793 106.119 258.791 105.926 254.362 110.142C253.252 111.194 251.501 111.151 250.455 110.035C249.409 108.919 249.452 107.16 250.562 106.109C257.19 99.7901 267.704 100.069 273.991 106.731C275.037 107.847 274.994 109.606 273.884 110.657C273.351 111.204 272.635 111.451 271.92 111.43Z" fill="url(#paint41_linear_54768_32329)"/>
<path d="M261.823 123.767C260.35 123.724 258.973 123.112 257.959 122.039C256.945 120.967 256.411 119.551 256.443 118.07C256.486 116.59 257.094 115.206 258.162 114.187C259.229 113.168 260.638 112.631 262.111 112.663C263.584 112.706 264.961 113.318 265.975 114.391C266.989 115.463 267.523 116.879 267.491 118.36C267.448 119.84 266.84 121.224 265.772 122.243C264.705 123.262 263.307 123.799 261.823 123.767Z" fill="url(#paint42_linear_54768_32329)"/>
<path d="M184.267 339.105C184.32 337.55 187.49 335.833 189.326 336.627C189.7 336.788 190.009 337.088 190.618 337.689C191.834 338.88 192.539 339.985 192.646 340.146C194.77 343.418 199.669 346.497 199.093 347.623C198.676 348.438 195.56 347.988 193.158 346.775C191.226 345.799 191.247 345.07 188.077 342.517C185.27 340.253 184.235 340.006 184.267 339.105Z" fill="url(#paint43_linear_54768_32329)"/>
<path d="M183.679 334.331L186.006 338.172C186.487 338.976 187.447 339.363 188.355 339.127C188.771 339.019 189.123 338.708 189.283 338.301C189.443 337.893 189.401 337.432 189.176 337.067L185.75 331.531L183.679 334.331Z" fill="white"/>
<path d="M95.9726 276.509C88.7143 279.705 95.3962 299.874 116.018 300.592C140.995 301.461 169.27 313.648 183.872 336.015C185.334 335.361 188.664 334.653 187.789 332.937C175.706 309.207 162.513 293.598 149.758 286.475C130.47 275.693 116.626 267.422 95.9726 276.509Z" fill="url(#paint44_linear_54768_32329)"/>
<g opacity="0.3">
<path d="M160.389 304.583C163.1 307.587 165.064 303.864 167.594 301.805C161.659 294.907 155.661 289.768 149.747 286.464C130.46 275.693 116.626 267.411 95.9618 276.498C88.7036 279.695 95.3854 299.863 116.007 300.582C123.458 300.839 131.207 302.126 138.796 304.379C146.086 302.481 153.814 295.271 160.389 304.583Z" fill="url(#paint45_linear_54768_32329)"/>
</g>
<path d="M87.2305 292.525L85.7042 291.967C85.7042 291.967 80.6341 283.042 79.8656 280.789C78.9263 278.043 99.1852 278.246 107.522 272.732C116.285 266.939 105.92 282.409 105.92 282.409L87.2305 292.525Z" fill="url(#paint46_linear_54768_32329)"/>
<path d="M102.526 220.145C102.526 220.145 108.93 223.202 112.143 238.618C114.566 250.215 123.97 262.176 123.97 262.176L122.764 270.308L112.261 268.892L109.443 265.405L106.283 241.558L102.526 220.145Z" fill="#00FFFF"/>
<path d="M89.8137 215.167C89.8137 215.167 72.6714 211.96 66.2992 230.926C60.4179 248.434 64.5913 257.274 75.468 276.895C76.5674 278.869 79.0971 279.673 79.2145 279.941C79.8656 281.4 80.5061 282.924 81.1465 284.49C99.2493 275.522 116.338 275.972 116.338 275.972C116.338 275.972 111.353 241.257 108.141 229.253C104.821 216.894 94.3714 215.5 89.8137 215.167Z" fill="#3FA9F5"/>
<g opacity="0.3">
<path d="M103.188 268.355C95.0438 269.879 85.2986 266.317 83.1318 260.524C81.4987 256.158 81.4666 254.72 79.8656 248.177C78.574 242.909 77.496 241.794 72.8208 236.215C71.0596 234.112 69.1917 231.28 67.6867 227.461C67.1743 228.534 66.7047 229.682 66.2884 230.937C60.4071 248.445 64.5806 257.284 75.4573 276.906C76.5567 278.879 79.0864 279.684 79.2038 279.952C79.8549 281.411 80.4953 282.934 81.1357 284.501C99.2386 275.532 116.327 275.983 116.327 275.983C116.327 275.983 115.42 270.48 114.331 262.809C110.809 265.974 108.418 267.379 103.188 268.355Z" fill="url(#paint47_linear_54768_32329)"/>
</g>
<path d="M91.6389 265.287C91.6389 265.287 94.7237 266.425 97.2213 266.231C99.7297 266.038 99.6123 265.77 102.27 266.264C104.853 266.736 110.222 266.811 108.247 263.399C106.049 259.602 100.52 258.7 98.4061 260.095C96.3674 261.436 93.4748 261.769 93.4748 261.769L91.6389 265.287Z" fill="url(#paint48_linear_54768_32329)"/>
<path d="M74.9342 220.907C74.9342 220.907 65.4345 219.061 61.4318 250.429C59.3504 266.693 73.7494 268.903 92.3113 267.819C94.1792 265.824 94.3073 260.363 94.3073 260.363C94.3073 260.363 71.049 262.337 74.4432 249.732C78.2325 235.593 80.7515 221.132 74.9342 220.907Z" fill="#00FFFF"/>
<path d="M93.7951 223.127C93.667 223.127 93.5389 223.127 93.4001 223.117C88.6396 222.816 84.6369 217.345 84.4661 217.109C84.3914 217.002 84.4127 216.862 84.5195 216.787C84.6262 216.712 84.765 216.733 84.8397 216.841C84.8824 216.894 88.8851 222.376 93.4321 222.655C94.681 222.73 95.6416 222.419 96.3034 221.722C97.5629 220.392 97.3388 218.074 97.3388 218.053C97.3281 217.924 97.4135 217.806 97.5416 217.796C97.6697 217.774 97.7871 217.871 97.7977 217.999C97.8084 218.107 98.0539 220.553 96.645 222.033C95.9512 222.763 95.0012 223.127 93.7951 223.127Z" fill="#00FFFF"/>
<path d="M80.1964 279.663C80.111 279.663 80.0256 279.609 79.9829 279.523C79.9295 279.405 79.9829 279.266 80.1003 279.212C80.2924 279.126 99.2812 270.523 113.659 271.499C113.787 271.509 113.883 271.617 113.872 271.745C113.862 271.874 113.744 271.96 113.627 271.96C99.3453 270.995 80.4846 279.545 80.2924 279.63C80.2604 279.663 80.2284 279.663 80.1964 279.663Z" fill="#00FFFF"/>
<path d="M90.1872 206.885C90.1872 206.885 89.7283 214.009 88.9811 215.253C88.2339 216.497 89.6856 218.579 93.0158 219.802C96.3354 221.025 94.7877 212.904 94.7877 212.904L90.1872 206.885Z" fill="url(#paint49_linear_54768_32329)"/>
<path d="M100.028 208.731C104.095 207.25 105.483 197.574 103.465 196.522C102.313 195.911 101.256 198.797 96.9757 199.902C93.6455 200.76 91.5214 199.73 90.0911 201.404C89.4186 202.187 89.0237 203.442 89.0344 204.547C89.0451 205.115 89.1838 205.877 89.5681 207.368C89.9096 208.688 89.8776 208.634 89.9844 209.031C90.2512 209.964 90.8276 211.584 92.1938 213.73C92.4927 213.236 92.909 212.625 93.4534 212.003C93.6668 211.767 94.4994 210.833 95.5241 210.168C97.392 208.956 98.865 209.149 100.028 208.731Z" fill="#26264F"/>
<path d="M90.2939 211.413C90.2939 211.413 91.1799 215.081 94.9584 216.036C98.3527 216.894 101.224 209.567 99.6122 207.293C99.0785 206.531 97.7229 205.856 96.4741 205.813C95.7376 205.78 95.4067 205.995 94.2006 205.92C93.0798 205.856 92.8236 205.652 92.4287 205.813C91.9377 206.016 91.3933 206.735 91.34 209.128C90.913 208.28 90.2299 207.787 89.6108 207.872C89.5147 207.883 89.2372 207.969 89.0344 208.162C88.2979 208.87 88.7249 210.211 90.2939 211.413Z" fill="url(#paint50_linear_54768_32329)"/>
<path d="M92.5781 269.975C92.418 269.954 92.2472 270.018 92.1618 270.147C92.1512 270.169 91.9697 270.941 91.959 270.962C91.8843 271.134 91.9484 271.327 92.0978 271.434L104.682 280.489L134.163 278.515L121.398 275.5L92.5781 269.975Z" fill="#26264F"/>
<path d="M92.5994 269.879C92.4179 269.847 92.2365 269.943 92.1724 270.115C92.0977 270.287 92.1617 270.48 92.3112 270.587L104.896 279.641L134.377 277.667L121.611 274.653L92.5994 269.879Z" fill="#444B8C"/>
<path d="M104.341 279.233L115.1 252.403C115.271 251.974 115.719 251.717 116.167 251.792L149.128 256.855C149.427 256.898 149.683 257.081 149.833 257.338C149.982 257.596 150.014 257.907 149.908 258.196L140.653 283.449C140.493 283.889 140.056 284.158 139.597 284.093L105.056 279.77L104.341 279.233Z" fill="url(#paint51_linear_54768_32329)"/>
<path d="M104.693 280.489L115.708 253.079C115.879 252.65 116.327 252.393 116.776 252.468L149.737 257.531C150.035 257.574 150.292 257.756 150.441 258.014C150.59 258.271 150.622 258.582 150.516 258.872L141.251 284.125C141.091 284.554 140.653 284.823 140.205 284.769L104.693 280.489Z" fill="#26264F"/>
<path d="M104.693 280.489L140.215 284.758C140.674 284.812 141.112 284.544 141.261 284.115L144.058 276.498C132.285 279.019 119.54 275.758 107.169 274.331L104.693 280.489Z" fill="#1F1F44"/>
<path d="M163.25 292.793C163.292 291.045 162.844 288.964 166.858 288.824C169.771 288.728 174.425 289.875 178.631 290.98C184.533 292.525 184.768 296.441 175.578 295.958C169.579 295.647 163.186 295.282 163.25 292.793Z" fill="url(#paint52_linear_54768_32329)"/>
<path d="M168.544 291.785C168.32 292.697 167.53 293.222 166.751 293.094C164.958 292.793 165.555 292.01 165.79 291.098C166.014 290.187 165.523 289.35 167.583 289.79C168.341 289.961 168.768 290.873 168.544 291.785Z" fill="white"/>
<path d="M152.544 281.036L154.326 281.304C154.326 281.304 157.529 282.666 165.833 288.084C167.679 289.028 168.533 295.593 162.759 293.995C156.984 292.396 148.691 294.456 148.691 294.456L152.544 281.036Z" fill="url(#paint53_linear_54768_32329)"/>
<path d="M133.854 280.746C122.444 282.151 106.209 279.909 102.9 279.394C98.6623 278.74 85.0531 284.876 84.9037 288.749C84.9037 288.749 83.6548 294.703 96.5062 299.455L128.09 301.762C139.116 299.112 155.853 292.965 157.187 288.416C159.952 278.955 147.367 279.073 133.854 280.746Z" fill="url(#paint54_linear_54768_32329)"/>
<g opacity="0.3">
<path d="M110.275 286.603C118.473 288.32 122.059 283.16 132.466 284.651C139.212 285.616 140.867 288.234 144.827 287.075C147.954 286.164 150.217 283.557 151.893 280.478C147.399 279.459 140.749 279.899 133.854 280.746C122.774 282.108 107.137 280.027 103.22 279.437C103.103 279.416 100.882 277.721 100.882 277.721C100.882 277.721 98.6836 278.193 97.0825 278.622C101.395 283.085 107.287 285.97 110.275 286.603Z" fill="url(#paint55_linear_54768_32329)"/>
</g>
<path d="M364.473 219.061C365.327 219.383 378.381 224.608 381.06 238.296C381.274 239.401 383.377 251.159 375.435 259.473C366.533 268.795 349.402 268.559 342.603 260.771C341.012 258.958 340.18 256.941 339.71 255.246L341.503 250.462C343.691 247.812 346.669 247.179 348.26 246.782C352.177 245.806 355.144 247.565 357.386 245.666C358.624 244.615 358.87 243.102 359.094 241.751C359.841 237.148 357.258 234.316 357.076 231.473C356.938 229.349 356.201 224.704 358.955 221.668C360.695 219.748 363.107 219.222 364.473 219.061Z" fill="url(#paint56_linear_54768_32329)"/>
<path d="M369.565 371.621C369.714 370.773 372.425 370.012 373.77 371.149C374.432 371.707 374.891 372.844 374.507 373.359C374.368 373.541 374.944 373.874 374.389 373.885C372.564 373.906 369.405 372.468 369.565 371.621Z" fill="url(#paint57_linear_54768_32329)"/>
<path d="M372.404 371.932L375.19 371.535C373.898 369.969 374.133 365.002 374.133 365.002L371.177 365.667C371.177 365.667 371.518 367.029 372.084 369.046C372.276 369.733 372.361 370.816 372.404 371.932Z" fill="url(#paint58_linear_54768_32329)"/>
<path d="M372.148 371.589C372.148 371.589 375.499 370.816 375.862 371.481C376.225 372.147 376.503 373.938 374.379 373.884C372.254 373.82 371.966 372.157 372.148 371.589Z" fill="url(#paint59_linear_54768_32329)"/>
<path d="M331.352 374.786C331.619 373.97 334.405 373.595 335.579 374.904C336.156 375.547 336.454 376.738 336.006 377.199C335.846 377.36 336.369 377.768 335.814 377.704C333.999 377.457 331.085 375.59 331.352 374.786Z" fill="url(#paint60_linear_54768_32329)"/>
<path d="M283.138 232.149L280.598 230.926C280.203 230.605 279.595 230.047 279.136 229.178C278.378 227.751 278.389 226.217 278.399 226.217C278.41 226.217 278.282 224.146 279.157 223.792C279.274 223.749 279.403 223.728 279.552 223.76L280.459 226.152C280.459 226.152 280.609 227.193 282.242 228.277C283.864 229.693 284.515 230.991 284.515 230.991L283.138 232.149Z" fill="url(#paint61_linear_54768_32329)"/>
<path d="M334.117 375.494H336.935C335.878 373.767 336.807 368.875 336.807 368.875L333.786 369.111C333.786 369.111 333.935 370.505 334.213 372.586C334.298 373.294 334.234 374.378 334.117 375.494Z" fill="url(#paint62_linear_54768_32329)"/>
<path d="M326.827 268.592C325.524 272.915 323.667 279.899 322.461 288.652C319.045 313.627 326.303 314.431 324.948 342.109C324.51 350.949 332.558 371.321 333.274 371.76C333.615 371.793 333.989 371.814 334.384 371.803C335.088 371.782 336.07 371.675 337.223 371.331C338.493 371.106 343.093 358.597 342.026 351.152C341.268 345.885 341.492 340.232 341.93 328.935C342.005 327.101 346.659 293.308 346.659 293.308C348.078 305.817 349.711 316.448 351.12 324.687C355.667 351.163 370.429 367.19 371.198 367.448C371.347 367.512 372.735 368.016 373.866 367.265C374.368 366.933 374.539 366.504 374.539 366.504C374.934 366.193 374.421 340.071 369.917 320.407C363.374 291.871 366.224 285.187 364.153 272.443C362.381 261.415 326.827 268.592 326.827 268.592Z" fill="url(#paint63_linear_54768_32329)"/>
<path d="M353.234 216.83C348.889 216.701 340.489 215.275 334.992 220.252C334.896 220.338 334.448 220.832 333.893 221.475C333.38 222.076 331.609 224.2 330.007 227.075C328.844 229.156 327.798 231.57 326.741 235.185C324.884 241.547 324.35 246.975 324.169 249.335C323.166 262.616 324.158 268.742 325.065 272.904C328.993 274.932 339.102 278.558 351.152 276.755C356.66 275.929 361.058 274.095 364.164 272.454C361.036 262.938 363.491 257.842 364.644 253.154C366.299 246.46 366.32 246.964 367.675 241.654C369.917 232.879 370.291 223.921 368.743 222.087C364.612 217.13 357.13 216.948 353.234 216.83Z" fill="url(#paint64_linear_54768_32329)"/>
<path d="M333.914 375.107C333.914 375.107 337.34 374.807 337.607 375.526C337.874 376.234 337.906 378.047 335.803 377.693C333.711 377.339 333.658 375.644 333.914 375.107Z" fill="url(#paint65_linear_54768_32329)"/>
<path d="M341.749 218.428C336.999 215.328 324.585 225.048 320.828 227.74C306.247 238.146 307.998 244.636 301.38 241.397C296.908 239.208 296.299 232.6 288.646 230.122C287.291 229.682 286.127 229.51 285.38 229.424C285.369 229.435 282.85 230.776 282.84 230.776C281.943 231.066 281.057 231.355 280.299 232.128C279.563 233.662 278.89 235.529 278.549 237.717C278.624 238.489 278.773 239.777 279.115 241.322C279.403 242.609 282.765 256.641 294.442 260.975C296.588 261.769 298.37 261.994 299.267 262.112C303.109 262.584 306.589 262.005 312.534 259.945C322.611 256.458 330.306 253.186 337.106 245.184C337.426 244.797 337.693 244.433 337.949 244.025C343.03 236.215 346.338 221.422 341.749 218.428Z" fill="url(#paint66_linear_54768_32329)"/>
<path d="M341.023 211.831C339.678 209.546 340.276 206.939 340.414 206.371C340.98 204.01 341.194 203.646 341.631 203.152L342.25 202.498C342.25 202.498 342.293 202.466 342.325 202.444C342.752 202.144 344.353 201.661 344.705 201.65C345.805 201.597 348.057 205.577 349.348 211.702C349.455 211.917 349.551 212.142 349.658 212.367C350.298 213.762 350.843 215.124 351.312 216.465C358.773 217.098 359.809 217.978 359.841 218.493C359.916 219.566 355.657 220.799 352.465 221.271C345.495 222.301 338.322 220.445 338.354 219.147C338.365 218.579 339.753 217.838 345.666 217.055C345.527 216.068 345.388 215.092 345.25 214.105C344.759 213.976 342.015 213.515 341.023 211.831Z" fill="url(#paint67_linear_54768_32329)"/>
<path d="M339.614 201.361C340.116 203.227 341.524 204.997 342.058 205.201C342.122 205.223 342.517 205.394 342.933 205.759C342.987 205.813 343.04 205.866 343.094 205.952C343.819 207.025 342.314 208.913 342.816 209.342C343.179 209.653 344.31 208.806 344.556 209.095C344.78 209.374 343.894 210.297 344.161 210.629C344.353 210.876 344.94 210.447 345.463 210.769C345.719 210.93 345.709 211.112 346.104 211.713C346.328 212.056 346.605 212.41 346.797 212.603C347.737 213.526 349.669 213.44 349.903 212.914C349.967 212.764 349.861 212.689 349.85 212.249C349.85 212.249 349.839 211.842 349.989 211.327C350.202 210.597 350.992 209.9 351.729 208.988C353.106 207.304 353.287 206.124 353.33 205.738C353.34 205.598 353.351 205.491 353.351 205.416C353.426 203.914 352.892 201.886 351.942 200.803C350.352 198.99 348.281 200.61 345.826 199.054C342.987 197.252 343.435 193.637 342.144 193.594C340.713 193.551 338.685 197.896 339.614 201.361Z" fill="#26264F"/>
<path d="M343.371 208.72C343.659 207.969 344.62 208.344 344.844 209.16C345.068 209.975 344.502 211.037 343.702 211.08C342.891 211.123 342.987 209.739 343.371 208.72Z" fill="url(#paint68_linear_54768_32329)"/>
<path d="M343.382 207.261L342.688 208.934C342.688 208.934 341.994 210.941 341.087 210.19C340.34 209.578 340.201 209.632 340.18 209.675C340.18 209.685 340.18 209.696 340.169 209.696C340.158 209.696 340.148 209.299 340.137 208.945C339.966 209.428 339.753 210.19 339.753 211.144C339.753 212.067 339.753 213.054 340.468 213.816C340.511 213.858 341.29 214.663 342.346 214.62C342.346 214.62 342.763 214.609 344.342 213.869C344.342 213.869 342.186 213.032 342.069 212.732C341.77 211.895 342.827 211.123 343.232 209.138C343.403 208.355 343.403 207.701 343.382 207.261Z" fill="#26264F"/>
<path d="M275.987 208.312C275.677 208.398 275.421 208.602 275.272 208.87C275.122 209.149 275.09 209.471 275.186 209.771L281.836 230.723C282.028 231.323 282.669 231.656 283.277 231.484L298.722 227.021C299.341 226.839 299.694 226.206 299.512 225.595L293.524 204.74C293.353 204.128 292.713 203.774 292.094 203.946L275.987 208.312Z" fill="#26264F"/>
<path d="M277.214 209.331C276.937 209.406 276.713 209.589 276.574 209.836C276.435 210.082 276.414 210.372 276.499 210.64L282.434 229.328C282.605 229.864 283.17 230.165 283.715 230.004L297.484 226.024C298.028 225.863 298.349 225.294 298.189 224.758L292.852 206.167C292.692 205.62 292.126 205.308 291.581 205.459L277.214 209.331Z" fill="white"/>
<path d="M288.998 209.364L281.954 211.209L281.505 209.75L288.561 207.947L288.998 209.364Z" fill="#D8DEE8"/>
<path d="M293.268 211.949C293.289 212.003 293.268 212.056 293.215 212.067L287.291 213.665C287.248 213.676 287.195 213.644 287.173 213.59L286.789 212.357C286.768 212.303 286.8 212.249 286.842 212.228L292.766 210.651C292.809 210.64 292.862 210.672 292.873 210.726L293.268 211.949Z" fill="#D8DEE8"/>
<path d="M293.695 213.333C293.716 213.386 293.695 213.44 293.642 213.451L287.728 215.081C287.686 215.092 287.632 215.06 287.611 215.006L287.504 214.663C287.483 214.609 287.515 214.545 287.557 214.534L293.471 212.914C293.513 212.904 293.567 212.936 293.578 212.99L293.695 213.333Z" fill="#D8DEE8"/>
<path d="M294.09 214.609C294.111 214.663 294.09 214.717 294.037 214.727L288.134 216.39C288.091 216.401 288.038 216.369 288.017 216.315L287.91 215.972C287.889 215.918 287.921 215.854 287.963 215.843L293.866 214.191C293.909 214.18 293.962 214.213 293.973 214.266L294.09 214.609Z" fill="#D8DEE8"/>
<path d="M294.485 215.875C294.506 215.929 294.485 215.983 294.432 215.993L288.54 217.678C288.497 217.688 288.443 217.656 288.422 217.602L288.315 217.259C288.294 217.206 288.326 217.141 288.369 217.13L294.271 215.457C294.314 215.446 294.367 215.478 294.378 215.532L294.485 215.875Z" fill="#D8DEE8"/>
<path d="M294.869 217.141C294.891 217.195 294.869 217.248 294.816 217.27L288.935 218.986C288.892 218.997 288.838 218.965 288.817 218.911L288.71 218.568C288.689 218.514 288.721 218.45 288.764 218.439L294.656 216.734C294.698 216.723 294.752 216.755 294.763 216.809L294.869 217.141Z" fill="#D8DEE8"/>
<path d="M286.885 219.63L282.156 221.003C281.986 221.057 281.783 220.928 281.719 220.714L279.787 214.47C279.723 214.255 279.808 214.052 279.99 214.009L284.75 212.743C284.921 212.7 285.113 212.829 285.177 213.032L287.077 219.158C287.141 219.373 287.056 219.587 286.885 219.63Z" fill="#D8DEE8"/>
<path d="M280.032 214.191L284.804 212.925C284.9 212.904 285.006 212.979 285.038 213.086L286.938 219.211C286.97 219.319 286.928 219.437 286.842 219.458L282.114 220.831C282.018 220.864 281.911 220.788 281.868 220.67L279.936 214.427C279.894 214.32 279.936 214.212 280.032 214.191ZM279.979 214.019C279.808 214.073 279.723 214.277 279.787 214.481L281.719 220.724C281.783 220.939 281.975 221.067 282.156 221.014L286.885 219.641C287.056 219.587 287.141 219.383 287.077 219.179L285.177 213.054C285.113 212.85 284.921 212.721 284.75 212.764L279.979 214.019Z" fill="#D8DEE8"/>
<path d="M285.924 223.31L282.925 224.189C282.904 224.2 282.882 224.179 282.872 224.157L282.722 223.685C282.712 223.664 282.722 223.642 282.744 223.631L285.754 222.752C285.775 222.741 285.796 222.763 285.807 222.784L285.956 223.256C285.956 223.277 285.946 223.299 285.924 223.31Z" fill="#D8DEE8"/>
<path d="M288.411 223.814L283.277 225.348C283.256 225.359 283.235 225.337 283.224 225.316L283.075 224.844C283.064 224.822 283.074 224.801 283.096 224.79L288.23 223.267C288.251 223.256 288.273 223.277 288.273 223.299L288.422 223.771C288.433 223.782 288.422 223.803 288.411 223.814Z" fill="#D8DEE8"/>
<path d="M288.753 224.94L283.629 226.496C283.608 226.506 283.587 226.485 283.576 226.464L283.427 225.992C283.416 225.97 283.427 225.949 283.448 225.938L288.571 224.393C288.593 224.382 288.614 224.404 288.614 224.425L288.763 224.897C288.785 224.919 288.774 224.94 288.753 224.94Z" fill="#D8DEE8"/>
<path d="M289.105 226.077L283.982 227.654C283.96 227.665 283.939 227.644 283.928 227.622L283.779 227.15C283.768 227.129 283.779 227.107 283.8 227.097L288.924 225.53C288.945 225.52 288.966 225.541 288.966 225.562L289.116 226.034C289.137 226.045 289.126 226.067 289.105 226.077Z" fill="#D8DEE8"/>
<path d="M294.399 220.81L289.874 222.14C289.852 222.151 289.831 222.13 289.831 222.108L289.692 221.647C289.682 221.625 289.692 221.604 289.714 221.593L294.25 220.263C294.271 220.252 294.293 220.274 294.293 220.295L294.431 220.756C294.421 220.789 294.41 220.81 294.399 220.81Z" fill="#D8DEE8"/>
<path d="M296.107 221.518L290.215 223.277C290.194 223.288 290.172 223.267 290.172 223.245L290.034 222.784C290.023 222.763 290.034 222.741 290.055 222.73L295.947 220.982C295.968 220.971 295.99 220.992 295.99 221.014L296.128 221.464C296.128 221.486 296.118 221.507 296.107 221.518Z" fill="#D8DEE8"/>
<path d="M296.449 222.612L290.567 224.393C290.546 224.404 290.525 224.382 290.525 224.361L290.386 223.9C290.375 223.878 290.386 223.857 290.407 223.846L296.289 222.076C296.31 222.065 296.331 222.087 296.331 222.108L296.47 222.559C296.47 222.591 296.459 222.612 296.449 222.612Z" fill="#D8DEE8"/>
<path d="M296.78 223.717L290.909 225.52C290.888 225.53 290.866 225.509 290.866 225.487L290.728 225.026C290.717 225.005 290.728 224.983 290.749 224.972L296.63 223.181C296.652 223.17 296.673 223.192 296.673 223.213L296.812 223.664C296.812 223.685 296.801 223.707 296.78 223.717Z" fill="#D8DEE8"/>
<defs>
<linearGradient id="paint0_linear_54768_32329" x1="-1.88147" y1="303.796" x2="48.4645" y2="278.167" gradientUnits="userSpaceOnUse">
<stop stop-color="#96AFF9"/>
<stop offset="0.9964" stop-color="#6165D7"/>
</linearGradient>
<linearGradient id="paint1_linear_54768_32329" x1="24.7696" y1="118.884" x2="80.7559" y2="296.127" gradientUnits="userSpaceOnUse">
<stop stop-color="#50FFBD"/>
<stop offset="1" stop-color="#4D83FB"/>
</linearGradient>
<linearGradient id="paint2_linear_54768_32329" x1="-25.6231" y1="150.008" x2="195.053" y2="422.081" gradientUnits="userSpaceOnUse">
<stop offset="0.00359712" stop-color="#76E38C"/>
<stop offset="1" stop-color="#5E72F6"/>
</linearGradient>
<linearGradient id="paint3_linear_54768_32329" x1="66.547" y1="253.621" x2="355.096" y2="253.621" gradientUnits="userSpaceOnUse">
<stop offset="0.00359712" stop-color="#EBEFF2"/>
<stop offset="1" stop-color="white"/>
</linearGradient>
<linearGradient id="paint4_linear_54768_32329" x1="153.169" y1="176.6" x2="356.445" y2="504.388" gradientUnits="userSpaceOnUse">
<stop stop-color="#96AFF9"/>
<stop offset="0.9964" stop-color="#6165D7"/>
</linearGradient>
<linearGradient id="paint5_linear_54768_32329" x1="108.807" y1="205.312" x2="315.173" y2="538.083" gradientUnits="userSpaceOnUse">
<stop stop-color="#50FFBD"/>
<stop offset="1" stop-color="#4D83FB"/>
</linearGradient>
<linearGradient id="paint6_linear_54768_32329" x1="223.454" y1="369.018" x2="255.549" y2="132.01" gradientUnits="userSpaceOnUse">
<stop offset="0.00359712" stop-color="#EBEFF2"/>
<stop offset="1" stop-color="white"/>
</linearGradient>
<linearGradient id="paint7_linear_54768_32329" x1="105.113" y1="172.721" x2="114.715" y2="303.296" gradientUnits="userSpaceOnUse">
<stop offset="0.00359712" stop-color="#76E38C"/>
<stop offset="1" stop-color="#5E72F6"/>
</linearGradient>
<linearGradient id="paint8_linear_54768_32329" x1="138.637" y1="171.04" x2="148.034" y2="298.816" gradientUnits="userSpaceOnUse">
<stop offset="0.00359712" stop-color="#76E38C"/>
<stop offset="1" stop-color="#5E72F6"/>
</linearGradient>
<linearGradient id="paint9_linear_54768_32329" x1="171.054" y1="169.434" x2="180.253" y2="294.523" gradientUnits="userSpaceOnUse">
<stop offset="0.00359712" stop-color="#76E38C"/>
<stop offset="1" stop-color="#5E72F6"/>
</linearGradient>
<linearGradient id="paint10_linear_54768_32329" x1="202.417" y1="167.897" x2="211.426" y2="290.405" gradientUnits="userSpaceOnUse">
<stop offset="0.00359712" stop-color="#76E38C"/>
<stop offset="1" stop-color="#5E72F6"/>
</linearGradient>
<linearGradient id="paint11_linear_54768_32329" x1="232.777" y1="166.426" x2="241.604" y2="286.452" gradientUnits="userSpaceOnUse">
<stop offset="0.00359712" stop-color="#76E38C"/>
<stop offset="1" stop-color="#5E72F6"/>
</linearGradient>
<linearGradient id="paint12_linear_54768_32329" x1="262.182" y1="165.016" x2="270.833" y2="282.656" gradientUnits="userSpaceOnUse">
<stop offset="0.00359712" stop-color="#76E38C"/>
<stop offset="1" stop-color="#5E72F6"/>
</linearGradient>
<linearGradient id="paint13_linear_54768_32329" x1="290.675" y1="163.665" x2="299.157" y2="279.007" gradientUnits="userSpaceOnUse">
<stop offset="0.00359712" stop-color="#76E38C"/>
<stop offset="1" stop-color="#5E72F6"/>
</linearGradient>
<linearGradient id="paint14_linear_54768_32329" x1="37.6081" y1="374.331" x2="51.6282" y2="342.602" gradientUnits="userSpaceOnUse">
<stop stop-color="#96AFF9"/>
<stop offset="0.9964" stop-color="#6165D7"/>
</linearGradient>
<linearGradient id="paint15_linear_54768_32329" x1="73.8278" y1="356.101" x2="189.38" y2="356.101" gradientUnits="userSpaceOnUse">
<stop stop-color="#50FFBD"/>
<stop offset="1" stop-color="#4D83FB"/>
</linearGradient>
<linearGradient id="paint16_linear_54768_32329" x1="71.0393" y1="356.156" x2="191.412" y2="356.156" gradientUnits="userSpaceOnUse">
<stop stop-color="#96AFF9"/>
<stop offset="0.9964" stop-color="#6165D7"/>
</linearGradient>
<linearGradient id="paint17_linear_54768_32329" x1="73.8278" y1="321.388" x2="189.38" y2="321.388" gradientUnits="userSpaceOnUse">
<stop stop-color="#50FFBD"/>
<stop offset="1" stop-color="#4D83FB"/>
</linearGradient>
<linearGradient id="paint18_linear_54768_32329" x1="97.1532" y1="89.0896" x2="82.1094" y2="88.101" gradientUnits="userSpaceOnUse">
<stop stop-color="#4278AB"/>
<stop offset="1" stop-color="#3C6E79"/>
</linearGradient>
<linearGradient id="paint19_linear_54768_32329" x1="96.2024" y1="84.5915" x2="83.0758" y2="174.1" gradientUnits="userSpaceOnUse">
<stop stop-color="#FFF244"/>
<stop offset="0.9964" stop-color="#F36F56"/>
</linearGradient>
<linearGradient id="paint20_linear_54768_32329" x1="117.071" y1="84.7837" x2="124.638" y2="175.089" gradientUnits="userSpaceOnUse">
<stop stop-color="#FFF244"/>
<stop offset="0.9964" stop-color="#F36F56"/>
</linearGradient>
<linearGradient id="paint21_linear_54768_32329" x1="120.395" y1="87.0252" x2="107.943" y2="89.0515" gradientUnits="userSpaceOnUse">
<stop stop-color="#4278AB"/>
<stop offset="1" stop-color="#3C6E79"/>
</linearGradient>
<linearGradient id="paint22_linear_54768_32329" x1="110.988" y1="84.2953" x2="131.209" y2="137.475" gradientUnits="userSpaceOnUse">
<stop stop-color="#4278AB"/>
<stop offset="1" stop-color="#3C6E79"/>
</linearGradient>
<linearGradient id="paint23_linear_54768_32329" x1="133.963" y1="126.796" x2="110.883" y2="175.239" gradientUnits="userSpaceOnUse">
<stop stop-color="#4278AB"/>
<stop offset="1" stop-color="#3C6E79"/>
</linearGradient>
<linearGradient id="paint24_linear_54768_32329" x1="247.835" y1="141.371" x2="198.001" y2="138.096" gradientUnits="userSpaceOnUse">
<stop stop-color="#50FFBD"/>
<stop offset="1" stop-color="#4D83FB"/>
</linearGradient>
<linearGradient id="paint25_linear_54768_32329" x1="243.197" y1="154.793" x2="198.741" y2="151.872" gradientUnits="userSpaceOnUse">
<stop stop-color="#40447E"/>
<stop offset="0.9964" stop-color="#3C3B6B"/>
</linearGradient>
<linearGradient id="paint26_linear_54768_32329" x1="273.476" y1="128.495" x2="242.287" y2="155.463" gradientUnits="userSpaceOnUse">
<stop stop-color="#40447E"/>
<stop offset="0.9964" stop-color="#3C3B6B"/>
</linearGradient>
<linearGradient id="paint27_linear_54768_32329" x1="273.477" y1="128.494" x2="242.287" y2="155.463" gradientUnits="userSpaceOnUse">
<stop stop-color="#40447E"/>
<stop offset="0.9964" stop-color="#3C3B6B"/>
</linearGradient>
<linearGradient id="paint28_linear_54768_32329" x1="192.655" y1="107.21" x2="159.759" y2="166.92" gradientUnits="userSpaceOnUse">
<stop stop-color="#96AFF9"/>
<stop offset="0.9964" stop-color="#6165D7"/>
</linearGradient>
<linearGradient id="paint29_linear_54768_32329" x1="192.655" y1="107.21" x2="159.759" y2="166.92" gradientUnits="userSpaceOnUse">
<stop stop-color="#50FFBD"/>
<stop offset="1" stop-color="#4D83FB"/>
</linearGradient>
<linearGradient id="paint30_linear_54768_32329" x1="192.654" y1="107.209" x2="159.757" y2="166.919" gradientUnits="userSpaceOnUse">
<stop stop-color="#50FFBD"/>
<stop offset="1" stop-color="#4D83FB"/>
</linearGradient>
<linearGradient id="paint31_linear_54768_32329" x1="198.586" y1="143.884" x2="209.617" y2="87.9907" gradientUnits="userSpaceOnUse">
<stop stop-color="#FFF244"/>
<stop offset="0.9964" stop-color="#F36F56"/>
</linearGradient>
<linearGradient id="paint32_linear_54768_32329" x1="213.266" y1="120.395" x2="200.263" y2="88.5124" gradientUnits="userSpaceOnUse">
<stop stop-color="#FFF244"/>
<stop offset="0.7864" stop-color="#F68152"/>
<stop offset="0.9964" stop-color="#F36F56"/>
</linearGradient>
<linearGradient id="paint33_linear_54768_32329" x1="215.601" y1="137.722" x2="207.994" y2="172.896" gradientUnits="userSpaceOnUse">
<stop stop-color="#FFF244"/>
<stop offset="0.9964" stop-color="#F36F56"/>
</linearGradient>
<linearGradient id="paint34_linear_54768_32329" x1="200.777" y1="139.977" x2="166.753" y2="131.913" gradientUnits="userSpaceOnUse">
<stop stop-color="#50FFBD"/>
<stop offset="1" stop-color="#4D83FB"/>
</linearGradient>
<linearGradient id="paint35_linear_54768_32329" x1="265.078" y1="70.8433" x2="259.236" y2="130.896" gradientUnits="userSpaceOnUse">
<stop stop-color="#444B8C"/>
<stop offset="0.9964" stop-color="#26264F"/>
</linearGradient>
<linearGradient id="paint36_linear_54768_32329" x1="265.636" y1="70.8976" x2="259.794" y2="130.951" gradientUnits="userSpaceOnUse">
<stop stop-color="#444B8C"/>
<stop offset="0.9964" stop-color="#26264F"/>
</linearGradient>
<linearGradient id="paint37_linear_54768_32329" x1="264.547" y1="70.7917" x2="258.705" y2="130.845" gradientUnits="userSpaceOnUse">
<stop stop-color="#444B8C"/>
<stop offset="0.9964" stop-color="#26264F"/>
</linearGradient>
<linearGradient id="paint38_linear_54768_32329" x1="266.242" y1="70.9567" x2="260.4" y2="131.01" gradientUnits="userSpaceOnUse">
<stop stop-color="#444B8C"/>
<stop offset="0.9964" stop-color="#26264F"/>
</linearGradient>
<linearGradient id="paint39_linear_54768_32329" x1="234.642" y1="86.669" x2="290.938" y2="88.1596" gradientUnits="userSpaceOnUse">
<stop stop-color="#96AFF9"/>
<stop offset="0.9964" stop-color="#6165D7"/>
</linearGradient>
<linearGradient id="paint40_linear_54768_32329" x1="242.203" y1="96.3516" x2="282.875" y2="97.4285" gradientUnits="userSpaceOnUse">
<stop stop-color="#96AFF9"/>
<stop offset="0.9964" stop-color="#6165D7"/>
</linearGradient>
<linearGradient id="paint41_linear_54768_32329" x1="249.763" y1="106.035" x2="274.814" y2="106.698" gradientUnits="userSpaceOnUse">
<stop stop-color="#96AFF9"/>
<stop offset="0.9964" stop-color="#6165D7"/>
</linearGradient>
<linearGradient id="paint42_linear_54768_32329" x1="256.451" y1="118.064" x2="267.498" y2="118.356" gradientUnits="userSpaceOnUse">
<stop stop-color="#96AFF9"/>
<stop offset="0.9964" stop-color="#6165D7"/>
</linearGradient>
<linearGradient id="paint43_linear_54768_32329" x1="184.241" y1="338.966" x2="200.062" y2="345.141" gradientUnits="userSpaceOnUse">
<stop stop-color="#40447E"/>
<stop offset="0.9964" stop-color="#3C3B6B"/>
</linearGradient>
<linearGradient id="paint44_linear_54768_32329" x1="94.1382" y1="261.822" x2="195.69" y2="352.96" gradientUnits="userSpaceOnUse">
<stop stop-color="#311944"/>
<stop offset="1" stop-color="#63A09A"/>
</linearGradient>
<linearGradient id="paint45_linear_54768_32329" x1="167.596" y1="289.163" x2="93.1379" y2="289.163" gradientUnits="userSpaceOnUse">
<stop stop-color="#311944"/>
<stop offset="1" stop-color="#63A09A"/>
</linearGradient>
<linearGradient id="paint46_linear_54768_32329" x1="43.0263" y1="278.504" x2="153.711" y2="285.336" gradientUnits="userSpaceOnUse">
<stop stop-color="#311944"/>
<stop offset="1" stop-color="#3E5589"/>
</linearGradient>
<linearGradient id="paint47_linear_54768_32329" x1="80.3515" y1="202.938" x2="97.7937" y2="307.768" gradientUnits="userSpaceOnUse">
<stop stop-color="#FFF244"/>
<stop offset="0.9964" stop-color="#F36F56"/>
</linearGradient>
<linearGradient id="paint48_linear_54768_32329" x1="99.6344" y1="261.212" x2="108.12" y2="321.488" gradientUnits="userSpaceOnUse">
<stop stop-color="#FFF244"/>
<stop offset="0.9964" stop-color="#F36F56"/>
</linearGradient>
<linearGradient id="paint49_linear_54768_32329" x1="91.2154" y1="208.551" x2="93.5729" y2="231.303" gradientUnits="userSpaceOnUse">
<stop stop-color="#FFF244"/>
<stop offset="0.9964" stop-color="#F36F56"/>
</linearGradient>
<linearGradient id="paint50_linear_54768_32329" x1="95.62" y1="213.471" x2="85.7247" y2="177.136" gradientUnits="userSpaceOnUse">
<stop stop-color="#FFF244"/>
<stop offset="0.9964" stop-color="#F36F56"/>
</linearGradient>
<linearGradient id="paint51_linear_54768_32329" x1="108.254" y1="263.556" x2="146.223" y2="273.028" gradientUnits="userSpaceOnUse">
<stop stop-color="#40447E"/>
<stop offset="0.9964" stop-color="#3C3B6B"/>
</linearGradient>
<linearGradient id="paint52_linear_54768_32329" x1="163.269" y1="293.139" x2="182.638" y2="291.608" gradientUnits="userSpaceOnUse">
<stop stop-color="#40447E"/>
<stop offset="0.9964" stop-color="#3C3B6B"/>
</linearGradient>
<linearGradient id="paint53_linear_54768_32329" x1="80.2669" y1="277.174" x2="169.352" y2="290.432" gradientUnits="userSpaceOnUse">
<stop stop-color="#311944"/>
<stop offset="1" stop-color="#63A09A"/>
</linearGradient>
<linearGradient id="paint54_linear_54768_32329" x1="106.499" y1="210.988" x2="125.106" y2="306.748" gradientUnits="userSpaceOnUse">
<stop stop-color="#311944"/>
<stop offset="1" stop-color="#63A09A"/>
</linearGradient>
<linearGradient id="paint55_linear_54768_32329" x1="83.749" y1="281.517" x2="151.158" y2="283.872" gradientUnits="userSpaceOnUse">
<stop stop-color="#50FFBD"/>
<stop offset="1" stop-color="#4D83FB"/>
</linearGradient>
<linearGradient id="paint56_linear_54768_32329" x1="357.29" y1="264.183" x2="368.674" y2="218.878" gradientUnits="userSpaceOnUse">
<stop stop-color="#96AFF9"/>
<stop offset="0.9964" stop-color="#6165D7"/>
</linearGradient>
<linearGradient id="paint57_linear_54768_32329" x1="368.056" y1="369.193" x2="374.037" y2="373.148" gradientUnits="userSpaceOnUse">
<stop stop-color="#444B8C"/>
<stop offset="0.9964" stop-color="#26264F"/>
</linearGradient>
<linearGradient id="paint58_linear_54768_32329" x1="373.826" y1="373.213" x2="372.508" y2="363.941" gradientUnits="userSpaceOnUse">
<stop stop-color="#FFF244"/>
<stop offset="0.9964" stop-color="#F36F56"/>
</linearGradient>
<linearGradient id="paint59_linear_54768_32329" x1="368.504" y1="368.516" x2="374.485" y2="372.471" gradientUnits="userSpaceOnUse">
<stop stop-color="#444B8C"/>
<stop offset="0.9964" stop-color="#26264F"/>
</linearGradient>
<linearGradient id="paint60_linear_54768_32329" x1="330.197" y1="372.166" x2="335.57" y2="376.921" gradientUnits="userSpaceOnUse">
<stop stop-color="#444B8C"/>
<stop offset="0.9964" stop-color="#26264F"/>
</linearGradient>
<linearGradient id="paint61_linear_54768_32329" x1="278.154" y1="225.625" x2="283.942" y2="230.77" gradientUnits="userSpaceOnUse">
<stop stop-color="#FFF244"/>
<stop offset="0.9964" stop-color="#F36F56"/>
</linearGradient>
<linearGradient id="paint62_linear_54768_32329" x1="335.35" y1="376.958" x2="335.35" y2="367.592" gradientUnits="userSpaceOnUse">
<stop stop-color="#FFF244"/>
<stop offset="0.9964" stop-color="#F36F56"/>
</linearGradient>
<linearGradient id="paint63_linear_54768_32329" x1="334.911" y1="381.252" x2="370.123" y2="239.796" gradientUnits="userSpaceOnUse">
<stop stop-color="#444B8C"/>
<stop offset="0.9964" stop-color="#26264F"/>
</linearGradient>
<linearGradient id="paint64_linear_54768_32329" x1="313.788" y1="220.915" x2="381.706" y2="274.548" gradientUnits="userSpaceOnUse">
<stop stop-color="#96AFF9"/>
<stop offset="0.9964" stop-color="#6165D7"/>
</linearGradient>
<linearGradient id="paint65_linear_54768_32329" x1="330.735" y1="371.558" x2="336.108" y2="376.313" gradientUnits="userSpaceOnUse">
<stop stop-color="#444B8C"/>
<stop offset="0.9964" stop-color="#26264F"/>
</linearGradient>
<linearGradient id="paint66_linear_54768_32329" x1="306.058" y1="230.705" x2="373.976" y2="284.337" gradientUnits="userSpaceOnUse">
<stop stop-color="#96AFF9"/>
<stop offset="0.9964" stop-color="#6165D7"/>
</linearGradient>
<linearGradient id="paint67_linear_54768_32329" x1="335.458" y1="201.592" x2="364.605" y2="238.078" gradientUnits="userSpaceOnUse">
<stop stop-color="#FFF244"/>
<stop offset="0.9964" stop-color="#F36F56"/>
</linearGradient>
<linearGradient id="paint68_linear_54768_32329" x1="336.679" y1="200.616" x2="365.827" y2="237.103" gradientUnits="userSpaceOnUse">
<stop stop-color="#FFF244"/>
<stop offset="0.9964" stop-color="#F36F56"/>
</linearGradient>
</defs>
</svg>
